<?xml version="1.0" encoding="UTF-8"?>
<svg version="1.2" viewBox="0 0 794.14 529.37" xmlns="http://www.w3.org/2000/svg">
 <defs>
  <linearGradient id="a" x1="138.42" x2="243.38" y1="152.64" y2="182.73" gradientTransform="scale(.87648 1.1409)" gradientUnits="userSpaceOnUse">
   <stop offset="0"/>
   <stop stop-opacity="0" offset="1"/>
  </linearGradient>
 </defs>
 <path d="m518.53 422.16c-12.979-0.40523-23.707 1.4944-36.749 1.3626h-0.1186l-270.26 7.5253h-0.1778c-61.028 5.3185-115.16 13.412-156.07 21.585h-0.0297l-0.0297 0.0311-19.516 4.2736h-0.0297l-0.0297 0.0311c-69.813 29.742 5.9192 44.689 50.778 47.66-0.19311 1.635-0.045 3.2813 0.56355 4.8001 1.2784 3.1914 3.8795 5.6243 7.3557 7.7421 6.9523 4.2356 17.88 7.4185 32.745 9.5692 41.524 6.0078 98.337 1.4505 128.72-10.684 7.3712-2.9436 12.479-6.0607 15.72-9.755 43.806-1.3385 88.348-3.7128 131.07-6.9059-0.11691 1.4029-0.0118 2.7983 0.47454 4.1188 1.2016 3.2626 3.7928 5.7446 7.2667 7.8969 6.9478 4.3046 17.941 7.5212 32.952 9.6931 41.524 6.0078 98.367 1.4506 128.75-10.684 6.6185-2.643 11.464-5.4012 14.771-8.5782 3.3064-3.1771 5.1459-7.3649 4.1227-11.396s-4.2025-7.0052-8.5717-9.5073c-1.2422-0.71135-2.8537-1.3336-4.3304-1.982 5.1101-0.91165 10.514-1.78 15.245-2.7252 26.953-5.3842 45.097-10.667 55.405-16.073 5.1539-2.7028 8.7212-5.2776 9.9361-9.4453 0.60745-2.0839 0.21919-4.5039-0.86014-6.3175-1.0793-1.8136-2.6747-3.1853-4.627-4.4285-7.8092-4.9726-22.521-8.47-44.965-11.458-22.443-2.9883-52.387-5.1893-89.514-6.3485z" color="#000000" fill="#d7e7e7" style="block-progression:tb;text-decoration-line:none;text-indent:0;text-transform:none"/>
 <path d="m214.04 433.81c-59.884 4.998-113.02 12.608-153.11 20.278l-19.171 4.0364c-36.191 17.027-23.053 34.069 53.702 38.78-5.9781 8.4137 7.1407 16.516 35.907 20.502 40.183 5.5677 96.118 1.1559 124.95-9.8694 7.835-2.9964 12.827-6.1916 15.185-9.3394 45.115-1.3003 91.144-3.6357 135-6.8512-6.4176 8.5025 6.695 16.733 35.744 20.758 40.183 5.5677 96.118 1.1559 124.95-9.8694 25.118-9.6059 21.373-21.056-6.5848-27.526 9.9344-1.5571 19.338-3.1656 28.028-4.8279 105.48-20.179 72.866-40.069-72.852-44.426-12.392-0.37056-22.919 1.4084-36.053 1.2813z" fill="#98bebe"/>
 <flowRoot transform="translate(-163.88 -231.09)" fill="#000000" font-family="'Arial Black'" font-size="22px" letter-spacing="0px" word-spacing="0px" style="line-height:125%" xml:space="preserve"><flowRegion><rect x="835.61" y="1025" width="8.2571" height="165.14"/></flowRegion><flowPara/></flowRoot>
 <g transform="matrix(.64807 -.16818 .27885 .93686 -200.99 -47.808)">
  <path d="m266.26 440.21c-39.16-7.6796-80.177-33.762-100.59-70.904-4.1668-7.5805-5.2479-30.609 1.9914-25.874 61.502 40.225 76.29 28.675 98.788 41.76 15.853 9.22 17.81 58.547-0.18647 55.018z" fill="#82af16" stroke="#4b660e" stroke-width="3.1997"/>
  <path d="m163.22 344.19c-1.8602 5.6677-0.46459 18.439 2.4375 23.719 20.416 37.142 61.434 63.227 100.59 70.906 10.65 2.0884 14.32-14.334 12.25-30-1.3785 8.9346-5.3562 15.352-12.25 14-39.16-7.6796-80.178-33.765-100.59-70.906-1.0205-1.8566-1.8641-4.6437-2.4375-7.7188z" fill="#729913"/>
  <path d="m165.49 342.81c-1.3072 0.0208-2.1968 1.2713-2.75 3.25 0.81557-0.45421 1.7675-0.3365 2.875 0.5625 57.057 46.315 72.93 36.336 93.969 51.656 9.1582 6.669 11.485 28.008 7.7812 42.094 16.404 0.61142 14.126-46.227-1.2812-55.188-22.498-13.084-37.28-1.5248-98.781-41.75-0.67868-0.44389-1.2758-0.63353-1.8125-0.625z" fill="#9ad01a"/>
  <path d="m266.26 440.21c-39.16-7.6796-80.177-33.762-100.59-70.904-4.1668-7.5805-5.2479-30.609 1.9914-25.874 61.502 40.225 76.29 28.675 98.788 41.76 15.853 9.22 17.81 58.547-0.18647 55.018z" fill="none" stroke="#4b660e" stroke-width="3.1997"/>
 </g>
 <g transform="matrix(1.1216 -.24629 .25088 1.0956 -281.86 -48.738)">
  <path d="m594.13 432.05c51.257 20.667 54.751 92.455 57.144 146.03 1.6049 35.918-124.92 38.012-116.4 2.9401 30.099-123.94-11.838-96.776 16.932-132.31 9.198-11.359 28.272-22.328 42.329-16.661z" fill="#719913" stroke="#6e9615" stroke-width="3.2925"/>
  <path d="m585.78 432.34c-0.8981 1e-3 -1.8018 0.0599-2.7188 0.15625-3.6678 0.38556-7.4627 1.4942-11.156 3.1562-7.3871 3.324-14.296 8.795-18.688 14.219-7.1277 8.8025-9.6477 13.496-10.156 17.312s0.97134 7.4033 2.5625 14.094c3.1823 13.381 6.1195 38.028-8.9688 100.16-0.94307 3.8832-0.0966 6.9751 2.25 9.8438 2.3466 2.8686 6.332 5.422 11.469 7.4375 10.273 4.031 25.056 5.936 40.062 5.625 0.53157-0.011 1.0618-0.0459 1.5938-0.0625-12.002-0.41994-23.309-2.2873-31.656-5.5625-5.1367-2.0155-9.1222-4.5689-11.469-7.4375-2.3466-2.8686-3.1931-5.9605-2.25-9.8438 15.088-62.128 12.151-86.775 8.9688-100.16-1.5912-6.6904-3.071-10.277-2.5625-14.094s3.0286-8.51 10.156-17.312c4.3918-5.4237 11.3-10.895 18.688-14.219 2.8519-1.2833 5.7575-2.2359 8.625-2.7812-1.5344-0.34132-3.1218-0.53387-4.75-0.53125z" fill="#9ad01a"/>
  <path d="m585.78 432.34c-0.84749 9.4e-4 -1.6986 0.0694-2.5625 0.15625 23.836 10.396 36.741 32.421 44.062 58.719 7.4992 26.937 8.9908 58.155 10.188 84.938 0.17676 3.9559-1.3726 7.3715-4.4062 10.531s-7.5934 5.9647-13.188 8.25c-11.188 4.5706-26.431 7.0952-41.438 7.4062-6.3772 0.13217-12.72-0.11989-18.688-0.78125 9.0171 2.0743 19.797 3.007 30.688 2.7812 15.006-0.31101 30.249-2.8356 41.438-7.4062 5.5941-2.2853 10.154-5.0902 13.188-8.25s4.583-6.5754 4.4062-10.531c-1.1967-26.783-2.6883-58-10.188-84.938s-20.85-49.404-45.812-59.469c-2.3944-0.9654-4.9932-1.4106-7.6875-1.4062z" fill="#698c11"/>
  <path d="m629.14 575.19c-6.8667-0.54076-15.562 3.1311-18.83 7.5528-2.5267 3.4184-2.6568 9.5494 2.2506 10.811 8.8727 2.2802 23.462-5.3956 25.012-12.072 0.69089-2.9746-4.157-5.9543-8.4332-6.2911z" fill="#9eab26"/>
 </g>
 <path d="m492.9 278.28c62.676 10.149 84.625 88.831 100.77 147.6 10.821 39.403-130.56 73.205-129.81 32.22 2.6273-144.83-37.584-104.3-14.242-150.83 7.4626-14.876 26.1-31.778 43.288-28.994z" fill="none" stroke="#4b660e" stroke-width="3.7608"/>
 <g transform="matrix(1.1428 .12769 -.11467 1.251 -406.01 -354.42)">
  <path d="m594.13 432.05c51.257 20.667 54.751 92.455 57.144 146.03 1.6049 35.918-124.92 38.012-116.4 2.9401 30.099-123.94-11.838-96.776 16.932-132.31 9.198-11.359 28.272-22.328 42.329-16.661z" fill="#729913" stroke="#4b660e" stroke-width="3.2917"/>
  <path d="m585.78 432.34c-0.8981 1e-3 -1.8018 0.0599-2.7188 0.15625-3.6678 0.38556-7.4627 1.4942-11.156 3.1562-7.3871 3.324-14.296 8.795-18.688 14.219-7.1277 8.8025-9.6477 13.496-10.156 17.312s0.97134 7.4033 2.5625 14.094c3.1823 13.381 6.1195 38.028-8.9688 100.16-0.94307 3.8832-0.0966 6.9751 2.25 9.8438 2.3466 2.8686 6.332 5.422 11.469 7.4375 10.273 4.031 25.056 5.936 40.062 5.625 0.53157-0.011 1.0618-0.0459 1.5938-0.0625-12.002-0.41994-23.309-2.2873-31.656-5.5625-5.1367-2.0155-9.1222-4.5689-11.469-7.4375-2.3466-2.8686-3.1931-5.9605-2.25-9.8438 15.088-62.128 12.151-86.775 8.9688-100.16-1.5912-6.6904-3.071-10.277-2.5625-14.094s3.0286-8.51 10.156-17.312c4.3918-5.4237 11.3-10.895 18.688-14.219 2.8519-1.2833 5.7575-2.2359 8.625-2.7812-1.5344-0.34132-3.1218-0.53387-4.75-0.53125z" fill="#9ad01a"/>
  <path d="m585.78 432.34c-0.84749 9.4e-4 -1.6986 0.0694-2.5625 0.15625 23.836 10.396 36.741 32.421 44.062 58.719 7.4992 26.937 8.9908 58.155 10.188 84.938 0.17676 3.9559-1.3726 7.3715-4.4062 10.531s-7.5934 5.9647-13.188 8.25c-11.188 4.5706-26.431 7.0952-41.438 7.4062-6.3772 0.13217-12.72-0.11989-18.688-0.78125 9.0171 2.0743 19.797 3.007 30.688 2.7812 15.006-0.31101 30.249-2.8356 41.438-7.4062 5.5941-2.2853 10.154-5.0902 13.188-8.25s4.583-6.5754 4.4062-10.531c-1.1967-26.783-2.6883-58-10.188-84.938s-20.85-49.404-45.812-59.469c-2.3944-0.9654-4.9932-1.4106-7.6875-1.4062z" fill="#698c11"/>
  <path d="m633 578.69c-5.5396-1.5033-13.963 0.76543-18.112 4.531-3.208 2.9112-5.2987 8.7641-1.6225 10.676 6.6466 3.4571 21.27-1.8004 24.719-7.972 1.5368-2.7496-1.5342-6.299-4.984-7.2352z" fill="#a0ad27"/>
 </g>
 <path d="m161.41 288.98c-17.194 25.027 17.989 17.755-25.102 151.8-6.8274 21.238 25.421 35.25 59.911 38.477 12.955-64.607 26.365-146.21-21.754-185.01-3.7322-3.0094-8.215-4.6618-13.054-5.2694z" fill="#56730f"/>
 <path d="m512.48 278.69-3.4808 10.841-60.458 41.22c3.7701 7.6913 11.784 17.78 15.772 49.535 31.12-14.801 58.563-33.873 79.731-56.691 3.8117-4.1088 2.8481-5.3687 6.1119-9.5544-11.015-14.769-20.208-29.335-37.676-35.351zm-351.69 50.685c0.0638 11.622-1.4153 28.001-7.1824 52.773 11.671 6.3985 24.567 12.091 38.64 16.916 25.174 8.63 52.133 13.888 79.721 16.018 0.84429-21.113 0.93938-42.985-1.2981-63.698l-74.406-5.5666z" fill="#56730f"/>
 <path d="m454.4 322.5c-3.2273 0.0743-6.532 0.70604-9.804 1.7182-1.62 18.419 23.59 15.843 21.56 134.42-0.35051 20.474 33.026 22.784 66.09 15.079-4.5332-59.243-14.59-129.17-68.218-149.65-3.0568-1.1676-6.3071-1.6386-9.628-1.5622z" fill="#56730f"/>
 <path d="m492.9 278.28c62.673 10.018 84.602 87.807 100.73 145.91 10.811 38.955-130.57 72.413-129.82 31.891 2.6649-143.2-37.557-103.11-14.203-149.12 7.4664-14.71 26.108-31.426 43.295-28.678z" fill="none" stroke="#4b660e" stroke-width="3.7395"/>
 <path d="m223.41 261.94c56.205 32.399 51.966 122.65 48.559 189.98-2.2846 45.138-147.12 31.601-133.36-11.186 48.609-151.2-2.4315-122.58 34.52-163.35 11.814-13.036 34.869-24.323 50.283-15.437z" fill="none" stroke="#4b660e" stroke-width="3.9559"/>
 <path d="m563.91 179.29-21.272 3.558-17.995 20.626-23.765 78.658-60.11 41.807-118.84 22.913-126.68-10.526-86.188-41.141-30.989-57.887c-11.562 62.463 30.555 122.63 113.93 152.23 100.1 35.538 222.38 17.458 302.99-40.79 12.955-9.3612 30.466-21.02 40.657-32.323 40.108-44.485 48.089-94.318 28.259-137.13z" fill="#8d9922" stroke="#484e11" stroke-width="3.5064"/>
 <path d="m563.96 183.54-21.502 3.5633-18.193 20.63-24.04 78.665-60.766 41.822-120.12 22.943-128.04-10.494-87.103-41.12-31.308-57.88c-3.6388 19.425-2.0413 38.635 4.4357 56.764 15.497 25.283 43.834 50.351 79.704 59.501 45.911 13.401 94.619 15.458 142.38 17.268 45.536 0.35973 103.13-6.1699 145.6-22.062 37.113-14.337 73.083-53.153 80.819-88.21 6.5082-19.893 4.768-44.114 21.704-59.633 6.3267-2.2838 15.575-1.6051 23.414-2.3399-1.7186-6.5942-4.0286-13.09-6.9896-19.417z" fill="#76801d"/>
 <path d="m564.21 183.84c-3.3274 7.6246-7.0475 14.593-11.305 20.623-3.4626 4.9714-9.305 5.4462-14.612 6.7793-7.9929 15.611-7.8115 35.509-12.623 52.42-1.3098 6.8587-3.5533 13.852-6.506 20.788 4.7213 8.2207 5.856 7.8016 16.103 9.6901 5.8366-0.50345 10.656 0.0956 17.505-1.8844 20.753-36.176 23.946-74.187 11.439-108.42z" fill="#5e6617"/>
 <path d="m517.14 196.35a26.886 59.723 7.4054 1 1 -2.254 5.2452" fill="#330203"/>
 <path d="m83.664 261.04c-11.724 53.095 30.013 104.06 112.94 128.92 100.05 29.993 220.19 14.446 300.59-35.863-30.634 15.042-57.875 24.332-94.992 30.63-60.225 10.22-124.9 8.1783-180.76-8.5676-46.797-14.029-80.482-36.36-98.84-62.707l-8.2753-3.3504z" fill="#b6c52c"/>
 <path d="m229 375.71s-6.5908 14.407-3.0882 19.335" fill="#484f11" stroke="#a5b226" stroke-linecap="round" stroke-linejoin="round" stroke-width="3.5525"/>
 <path d="m290.36 381.67s-1.4957 17.777 2.9986 21.813" fill="#484f11" stroke="#a5b226" stroke-linecap="round" stroke-linejoin="round" stroke-width="3.4978"/>
 <path d="m349.58 377.27s3.2473 18.577 8.5839 21.809" fill="#484f11" stroke="#a5b226" stroke-linecap="round" stroke-linejoin="round" stroke-width="3.5525"/>
 <path d="m503.47 312.68s12.891 10.459 19.284 10.442" fill="#484f11" stroke="#a5b226" stroke-linecap="round" stroke-linejoin="round" stroke-width="3.5525"/>
 <path d="m564.47 179.8-21.272 3.558-17.995 20.626-23.765 78.658-60.11 41.807l-118.84 22.913-126.68-10.526-86.188-41.141-30.989-57.887c-11.562 62.463 30.555 122.63 113.93 152.23 100.1 35.538 222.38 17.458 302.99-40.79 12.955-9.3612 30.466-21.02 40.657-32.323 40.108-44.485 48.089-94.318 28.259-137.13z" fill="none" stroke="#484e11" stroke-width="3.5064"/>
 <g transform="matrix(1.1104 .30686 -.29993 1.2178 -364.86 -414)">
  <path d="m594.13 432.05c51.257 20.667 54.751 92.455 57.144 146.03 1.6049 35.918-124.92 38.012-116.4 2.9401 30.099-123.94-11.838-96.776 16.932-132.31 9.198-11.359 28.272-22.328 42.329-16.661z" fill="#82af16" stroke="#4b660e" stroke-width="3.2917"/>
  <path d="m585.78 432.34c-0.8981 1e-3 -1.8018 0.0599-2.7188 0.15625-3.6678 0.38556-7.4627 1.4942-11.156 3.1562-7.3871 3.324-14.296 8.795-18.688 14.219-7.1277 8.8025-9.6477 13.496-10.156 17.312s0.97134 7.4033 2.5625 14.094c3.1823 13.381 6.1195 38.028-8.9688 100.16-0.94307 3.8832-0.0966 6.9751 2.25 9.8438 2.3466 2.8686 6.332 5.422 11.469 7.4375 10.273 4.031 25.056 5.936 40.062 5.625 0.53157-0.011 1.0618-0.0459 1.5938-0.0625-12.002-0.41994-23.309-2.2873-31.656-5.5625-5.1367-2.0155-9.1222-4.5689-11.469-7.4375-2.3466-2.8686-3.1931-5.9605-2.25-9.8438 15.088-62.128 12.151-86.775 8.9688-100.16-1.5912-6.6904-3.071-10.277-2.5625-14.094s3.0286-8.51 10.156-17.312c4.3918-5.4237 11.3-10.895 18.688-14.219 2.8519-1.2833 5.7575-2.2359 8.625-2.7812-1.5344-0.34132-3.1218-0.53387-4.75-0.53125z" fill="#9ad01a"/>
  <path d="m585.78 432.34c-0.84749 9.4e-4 -1.6986 0.0694-2.5625 0.15625 23.836 10.396 36.741 32.421 44.062 58.719 7.4992 26.937 8.9908 58.155 10.188 84.938 0.17676 3.9559-1.3726 7.3715-4.4062 10.531s-7.5934 5.9647-13.188 8.25c-11.188 4.5706-26.431 7.0952-41.438 7.4062-6.3772 0.13217-12.72-0.11989-18.688-0.78125 9.0171 2.0743 19.797 3.007 30.688 2.7812 15.006-0.31101 30.249-2.8356 41.438-7.4062 5.5941-2.2853 10.154-5.0902 13.188-8.25s4.583-6.5754 4.4062-10.531c-1.1967-26.783-2.6883-58-10.188-84.938s-20.85-49.404-45.812-59.469c-2.3944-0.9654-4.9932-1.4106-7.6875-1.4062z" fill="#729913"/>
  <path d="m630.11 576.54c-6.7397-1.1698-17.55 2.0897-23.202 6.6247-4.3699 3.5059-7.706 10.167-3.3464 11.954 7.8824 3.2325 26.812-3.8851 31.886-11.019 2.2606-3.1784-1.1404-6.8314-5.3375-7.5599z" fill="#b6c52c"/>
 </g>
 <g transform="matrix(1.149 -.026444 .024554 1.0667 -238.44 -121.03)">
  <path d="m594.13 432.05c51.257 20.667 54.751 92.455 57.144 146.03 1.6049 35.918-124.92 38.012-116.4 2.9401 30.099-123.94-11.838-96.776 16.932-132.31 9.198-11.359 28.272-22.328 42.329-16.661z" fill="#82af16" stroke="#4b660e" stroke-width="3.2917"/>
  <path d="m585.78 432.34c-0.8981 1e-3 -1.8018 0.0599-2.7188 0.15625-3.6678 0.38556-7.4627 1.4942-11.156 3.1562-7.3871 3.324-14.296 8.795-18.688 14.219-7.1277 8.8025-9.6477 13.496-10.156 17.312s0.97134 7.4033 2.5625 14.094c3.1823 13.381 6.1195 38.028-8.9688 100.16-0.94307 3.8832-0.0966 6.9751 2.25 9.8438 2.3466 2.8686 6.332 5.422 11.469 7.4375 10.273 4.031 25.056 5.936 40.062 5.625 0.53157-0.011 1.0618-0.0459 1.5938-0.0625-12.002-0.41994-23.309-2.2873-31.656-5.5625-5.1367-2.0155-9.1222-4.5689-11.469-7.4375-2.3466-2.8686-3.1931-5.9605-2.25-9.8438 15.088-62.128 12.151-86.775 8.9688-100.16-1.5912-6.6904-3.071-10.277-2.5625-14.094s3.0286-8.51 10.156-17.312c4.3918-5.4237 11.3-10.895 18.688-14.219 2.8519-1.2833 5.7575-2.2359 8.625-2.7812-1.5344-0.34132-3.1218-0.53387-4.75-0.53125z" fill="#9ad01a"/>
  <path d="m585.78 432.34c-0.84749 9.4e-4 -1.6986 0.0694-2.5625 0.15625 23.836 10.396 36.741 32.421 44.062 58.719 7.4992 26.937 8.9908 58.155 10.188 84.938 0.17676 3.9559-1.3726 7.3715-4.4062 10.531s-7.5934 5.9647-13.188 8.25c-11.188 4.5706-26.431 7.0952-41.438 7.4062-6.3772 0.13217-12.72-0.11989-18.688-0.78125 9.0171 2.0743 19.797 3.007 30.688 2.7812 15.006-0.31101 30.249-2.8356 41.438-7.4062 5.5941-2.2853 10.154-5.0902 13.188-8.25s4.583-6.5754 4.4062-10.531c-1.1967-26.783-2.6883-58-10.188-84.938s-20.85-49.404-45.812-59.469c-2.3944-0.9654-4.9932-1.4106-7.6875-1.4062z" fill="#729913"/>
  <path d="m629.67 575.03c-8.1797-1.044-19.717 2.7578-24.877 7.7639-3.9894 3.8702-5.8072 11.073-0.19838 12.848 10.141 3.2089 29.909-4.9517 33.598-12.712 1.6432-3.4573-3.4282-7.2498-8.5221-7.8999z" fill="#b6c52c"/>
 </g>
 <path d="m310.23 4.0619c-72.661 2.3312-143.41 35.307-188.33 94.986l-13.682 20.526c-30.715 52.023-38.675 84.2-23.163 137.71 7.7671 5.1932 17.807 36.764 26.353 41.418 104.58 56.948 238.63 56.533 341.96 7.4386l41.965-107.53 33.002-23.973 9.12 6.027c-23.105-75.231-36.529-90.38-83.017-137.07-36.3-36.457-94.501-41.134-144.22-39.539z" fill="#4f4c09" stroke="#4f4c09"/>
 <path d="m120.05 300.86c-3.8425 2.0398-7.4129 4.3998-10.392 6.9412-8.1292 6.9343-12.6 11.676-15.033 15.91 16.666 16.721 39.119 30.895 65.276 36.798 11.996 3.1378 24.186 5.5073 36.451 7.3331-1.654-12.746-4.6431-24.79-9.4404-35.669-19.07-4.0887-37.336-10.618-53.648-21.331-4.7418-2.9839-9.145-6.3359-13.213-9.9826zm322.05 19.615c-14.377 0.68915-29.953 11.039-38.021 21.285-9.4259 11.97-11.671 17.427-11.035 22.963 20.529-4.0491 40.349-9.4235 57.591-16.314 8.5887-3.538 17.098-8.3893 25.156-14.192-6.9195-5.3354-14.854-9.6318-24.028-12.569-3.0843-0.9874-6.345-1.3316-9.6628-1.1726z" fill="#5f8010"/>
 <path d="m165.29 294.45c50.717 40.896 33.065 129.39 19.655 195.36-8.9909 44.232-150.12 7.956-130.14-32.14 70.596-141.69 15.881-121.48 58.484-155.92 13.621-11.01 38.091-18.515 52-7.2997z" fill="none" stroke="#4b660e" stroke-width="3.9559"/>
 <path d="m313.49 2.4127c-54.827 1.7393-108.62 19.365-152.2 51.366-6.5079 5.3323-5.5877 6.546-4.8126 11.674 18.451 16.226 50.59 36.991 62.554 38.508 16.21 2.0553 79.452-20.548 89.627-32.046 7.0189-7.9314 13.906-38.952 15.528-61.883 0.46661-3.0225-0.85419-9.2635-10.697-7.6183z" fill="#baba00" stroke="#4f4c09" stroke-linecap="round" stroke-linejoin="round" stroke-width="3.6159"/>
 <path d="m325.16 12.533c-6.153 22.558-9.8784 55.584-5.6038 65.225 6.0349 13.611 59.334 51.188 75.543 53.254s82.749-19.621 92.922-31.166c2.1452-2.4346 3.5057-5.1624 5.4888-11.038 5.7688-12.654-25.317-36.366-35.328-46.07-29.113-28.199-71.607-37.68-113.38-39.877-6.7749 0.25773-16.85-3.2663-19.647 9.6726z" fill="#adbf8f" stroke="#4f4c09" stroke-linecap="round" stroke-linejoin="round" stroke-width="3.6233"/>
 <path d="m146.46 67.492c-9.227 9.0695-17.824 18.955-25.634 29.691l-13.962 21.734c-18.54 32.501-28.952 57.666-31.092 84.504-2.1048 10.912 1.9215 14.04 3.7302 15.322 10.844 8.5731 17.271 16.974 23.235 17.799 15.705 2.1716 82.837-24.097 92.674-36.074s19.362-74.597 13.494-88.745c-4.1217-9.9372-30.848-32.171-51.834-45.284-2.7995-0.64898-7.2568-2.2056-10.61 1.0536z" fill="#ba9500" stroke="#4f4c09" stroke-linecap="round" stroke-linejoin="round" stroke-width="3.6346"/>
 <path d="m307.27 81.234c-20.693 0.86445-77.812 22.579-87.508 33.991-10.342 12.172-20.397 75.784-14.244 90.149 6.1524 14.365 60.418 54.021 76.912 56.214 16.494 2.1932 80.816-21.693 91.158-33.865s20.359-75.783 14.207-90.148c-6.1524-14.365-60.418-54.021-76.912-56.214-1.0309-0.13706-2.2332-0.18394-3.6127-0.12632z" fill="#a6a66c" stroke="#4f4c09" stroke-linecap="round" stroke-linejoin="round" stroke-width="3.7541"/>
 <path d="m480.85 107.25c-19.531 0.82253-73.42 23.835-82.567 34.797-9.7561 11.693-19.187 72.783-13.374 86.59 5.8126 13.807 57.048 51.97 72.617 54.084 2.238 0.30388 5.4332 0.0758 9.2504-0.54838l32.341-84.41 33.466-24.756 9.2644 6.2278c-5.4702-18.112-10.397-32.804-15.347-45.371-9.937-20.624-16.718-28.362-45.65-26.613z" fill="#a69400" stroke="#4f4c09" stroke-linecap="round" stroke-linejoin="round" stroke-width="3.5753"/>
 <path d="m194.06 212.67c-19.531 0.81588-84.759 20.769-93.91 31.539-4.8446 5.7022-5.6885 11.754-8.5585 29.752 3.6807 7.1 14.754 25.463 18.196 27.337 46.197 25.156 98.056 39.281 150.55 43.092 8.2467-19.453 14.796-66.707 9.7265-78.543-5.8069-13.559-57.025-50.987-72.593-53.058-0.97299-0.12936-2.1078-0.17361-3.4098-0.11921z" fill="#bfac00" stroke="#4f4c09" stroke-linecap="round" stroke-linejoin="round" stroke-width="3.5433"/>
 <path d="m370.61 238.23c-21.133 0.85275-79.5 21.484-89.421 32.272-8.7896 9.5582-17.394 52.575-16.483 74.646 65.556 2.6857 131.55-8.2786 189.62-31.745 0.66616-9.8407 0.28857-18.082-1.5848-22.138-6.2572-13.548-61.602-50.882-78.441-52.923-1.0524-0.12755-2.2802-0.16965-3.689-0.1128z" fill="#a7aa00" stroke="#4f4c09" stroke-linecap="round" stroke-linejoin="round" stroke-width="3.6857"/>
 <g transform="matrix(1.149 -.026444 .024554 1.0667 602.85 151.25)" fill="#cbbb00">
  <path d="m-246.26-144.02c-0.69427-0.0201-1.5071 0.0381-2.4733 0.1875a1.8451 1.7718 0 0 1 -0.26034 0c-47.297 0.44333-94.045 15.643-132.25 44.406l0.0326 0.0313c-2.7984 2.356-3.7408 3.6244-4.0354 4.5938-0.25723 0.84651-0.041 2.1833 0.19526 4.0938 1.0856 1.0682 2.2313 2.1776 3.417 3.2812 0.47854-0.44719 0.97205-0.91338 1.5946-1.4375 38.549-29.044 85.699-44.396 133.43-44.844 1.7972-0.27795 3.2676-0.22708 4.4584 0.0313 0.18012-1.5913 0.3228-3.164 0.45561-4.6875a1.8451 1.7718 0 0 1 0 -0.125c0.16936-1.0247 6e-3 -2.7973-0.84612-3.9062-0.63905-0.83174-1.6271-1.5647-3.7099-1.625z"/>
  <path d="m-229.15-143.12c-0.75286 6e-3 -1.4487 0.0884-2.1151 0.21967-1.3327 0.26268-2.442 0.74849-3.4492 1.8202-1.0072 1.0716-1.9121 2.8116-2.5381 5.6173a1.8449 1.7793 0 0 1 -0.0325 0.0628c-2.8705 10.388-5.2909 23.293-6.5404 34.677-1.0558 9.6189-1.1617 18.275-0.29285 23.003 0.49152-13.44 3.5392-32.068 7.4515-46.225 2.6915-12.063 11.38-8.5346 17.278-8.63 36.289 2.9584 73.087 12.774 97.846 39.824 5.6518 6.1788 19.227 18.337 26.194 29.248 0.1468-1.9474-0.44259-4.3139-1.7246-6.9982-1.7719-3.71-4.7951-7.8752-8.265-11.988-6.94-8.2254-15.621-16.226-20.012-21.026-24.306-26.554-60.558-36.257-96.61-39.196-1.61 0.0108-3.2537-0.1638-4.8158-0.28244-0.8126-0.0618-1.6225-0.13164-2.3754-0.12552z"/>
  <path d="m-391.86-88.098c-0.90147 0.0695-1.6942 0.37874-2.5217 1.2061-8.1404 8.2306-15.747 17.25-22.695 27.056h-0.0316l-12.451 19.885c-16.724 29.957-26.131 53.013-28.495 77.746a1.7872 1.8483 0 0 1 -0.0316 0.19559c-0.97677 4.8516-0.61588 7.7796 0.0316 9.5512 0.19874 0.54391 0.43253 0.96563 0.66195 1.3365 2.5769-24.668 12.098-47.792 28.622-77.388l12.577-20.048c7.0082-9.891 14.677-18.986 22.885-27.285 2.9819-2.9815 6.8452-1.4182 9.2673-0.74975 15.155 10.73 33.664 27.596 41.167 38.27-0.17886-2.8313-0.51037-5.0712-1.0087-6.4544-1.39-3.8583-7.8697-11.77-16.171-19.82-8.2254-7.9763-18.234-16.371-27.077-22.656-1.2383-0.35167-2.5598-0.77317-3.7826-0.84755-0.32866-0.0199-0.64516-0.0232-0.94565 0z"/>
  <path d="m-255.96-70.001c-8.3804 0.16919-25.499 4.9666-41.254 11.058-7.8776 3.046-15.48 6.4108-21.587 9.6348-6.1078 3.224-10.771 6.457-12.548 8.6084-1.8963 2.295-4.3256 8.0093-6.4563 15.263-2.1308 7.2541-4.0924 16.121-5.5955 25.031s-2.547 17.877-2.9136 25.428c-0.28592 5.8886-0.0949 10.956 0.49663 14.237 0.80578-22.861 8.3855-59.998 15.495-68.602 8.662-10.483 58.763-29.6 76.78-29.964 1.2011-0.0242 2.2514 0.048 3.1454 0.19866 12.714 2.1428 50.78 32.666 62.643 48.969-0.18808-2.8691-0.53789-5.1555-1.0595-6.5556-1.0393-2.7896-4.8162-7.7756-10.032-13.244-5.2159-5.4681-11.876-11.565-18.839-17.316s-14.239-11.141-20.594-15.23c-6.3554-4.0891-11.93-6.8223-14.866-7.3171-0.75137-0.12661-1.7078-0.22101-2.8143-0.19866z"/>
  <path d="m-101.07-42.088c-1.4045 0.0111-2.8785 0.0646-4.4375 0.12727-0.0104 9e-5 -0.0209 9e-5 -0.0313 0-7.9087 0.16255-24.353 5.486-39.231 11.348-7.4391 2.931-14.345 7.4683-20.113 10.569s-10.166 6.205-11.844 8.2724c-1.7898 2.2053-4.0856 7.6998-6.0938 14.668s-3.8351 15.464-5.25 24.022c-1.4149 8.5583-2.438 17.214-2.7812 24.467-0.26765 5.6565-0.066 10.504 0.5 13.65 0.75425-21.961 7.8846-57.626 14.594-65.893 8.1756-10.074 55.494-30.445 72.5-30.794 24.072-0.96918 30.403 5.9157 38.094 23.381-0.97345-3.1295-1.9372-6.1324-2.9062-8.9724-4.0526-9.5993-7.3977-15.41-12.5-18.74-3.8457-2.5098-8.9374-5.7795-16.5-6.0408-1.2604-0.0436-2.5955-0.0748-4-0.0636z"/>
  <path d="m-357.11 50.608c-7.9428 0.16034-26.627 4.521-43.969 10.094-8.671 2.7864-17.066 5.8966-23.75 8.875s-11.721 6.0498-13.281 7.9375c-2.0014 2.4221-3.1456 4.7901-4.2188 8.8125-1.0394 3.8962-1.9579 9.4976-3.3125 17.469 0.49344 1.0712 1.1504 2.4439 1.875 3.9062 1.8474-10.414 3.1311-15.24 6.625-19.469 8.1756-9.8944 65.307-27.188 82.312-27.531 1.1337-0.0229 2.125 0.0453 2.9688 0.1875 12.013 2.0245 47.968 30.906 59.125 46.281-0.18613-2.7301-0.5361-4.921-1.0312-6.25-0.98095-2.633-4.5145-7.339-9.4375-12.5s-11.24-10.915-17.812-16.344-13.408-10.516-19.406-14.375-11.291-6.4704-14.062-6.9375c-0.70919-0.11955-1.5807-0.17735-2.625-0.15625z"/>
  <path d="m-203.98 78.358c-8.5571 0.15965-26.074 4.7112-42.163 10.469-8.0448 2.8788-15.774 6.0479-22.012 9.0938-6.2375 3.0458-10.999 6.094-12.815 8.125-1.6084 1.799-3.6649 5.8376-5.5113 11.062-1.8464 5.225-3.6056 11.663-5.1056 18.469-2.8523 12.941-4.6975 27.147-4.7337 37.219 0.3951 0.0254 0.78825 0.0384 1.1834 0.0625 2.1188-21.266 8.829-48.988 15.182-56.094 8.8458-9.8944 60.044-27.969 78.444-28.312 1.2266-0.0229 2.2655 0.0453 3.1783 0.1875 12.966 2.0196 51.766 30.753 63.938 46.156-0.17584-2.6703-0.52371-4.824-1.0482-6.125-1.0614-2.633-4.8846-7.339-10.211-12.5-5.3266-5.161-12.161-10.915-19.273-16.344-7.1114-5.4283-14.507-10.516-20.997-14.375-6.4903-3.8595-12.217-6.4392-15.215-6.9062-0.76727-0.1195-1.7102-0.2086-2.8402-0.1875z"/>
 </g>
 <g transform="matrix(1.1422 -.026288 .024107 1.0473 -226.58 -127.51)" fill="#998a04">
  <path d="m410.22 365.22c6.376 6.2899 4.8595 5.1095 4.8694 5.2112 6.1132 19.378 4.5916 50.097-3.7845 61.55-7.5081 10.266-42.221-2.9335-58.326-7.2442-29.491-10.497-58.771-24.569-80.415-43.329-0.39606 2.2604-0.76551 4.4006-1.25 7.25 3.0595 6.7318 12.325 24.17 15.281 26 39.682 24.567 84.508 38.922 130.09 43.625 7.563-18.049 13.695-60.917 9.522-72.117-1.6779-4.5037 1.4732-6.7187-6.8238-14.5z"/>
  <path d="m478.78 143.28c-2.8538 18.591-8.0907 38.217-13.094 44.031-9.0814 10.554-64.535 30.369-78.594 28.094-9.4041-1.5219-32.879-18.21-48.906-32.938-0.61487 0.45317-1.2332 0.91496-1.8438 1.375-5.7678 4.8558-4.9778 6.0227-4.4062 10.844 15.725 15.601 43.248 35.727 53.625 37.406 14.059 2.2753 69.544-17.54 78.625-28.094 6.2643-7.28 12.88-36.174 14.75-57.625 0.13944-0.84365 0.1332-1.9783-0.15625-3.0938z"/>
  <path d="m473.78 178.41c-1.8352 13.619-2.2464 26.064-0.21875 31.312 4.977 12.883 50.568 49.246 64.625 51.531s72.388-16.589 81.469-27.188c1.9148-2.2349 3.1574-4.7874 5-10.25 1.2792-2.847 0.66368-6.3489-1.0938-10.156-0.74185 1.4777-1.4962 2.6253-2.4062 3.6875-9.0805 10.598-67.38 29.472-81.438 27.188s-59.679-38.648-64.656-51.531c-1.1396-2.9498-1.5073-8.1682-1.2812-14.594z"/>
  <path d="m377.81 255.47c-2.6138 20.486-8.0122 43.366-13.188 49.844-8.7964 11.009-67.726 34.186-81.344 31.812-5.1713-0.9013-10.583-8.921-19.844-17.188-0.99139-0.79448-2.771-2.3319-3.375-6-0.43973 2.7408-0.82879 5.5093-1.0938 8.2812-2.0494 10.179 1.3898 13.197 2.9375 14.438 9.2607 8.2665 14.672 16.255 19.844 17.156 13.618 2.3734 72.547-20.772 81.344-31.781 6.6691-8.3469 13.778-43.987 14.719-66.562z"/>
  <path d="m532.97 283.59c-2.7121 20.924-8.4299 44.466-13.906 51.094-9.2394 11.182-65.665 32.192-79.969 29.781-14.304-2.4106-60.717-40.751-65.781-54.344-1.2133-3.2566-1.5502-9.1541-1.25-16.375-1.8717 14.384-2.3445 27.556-0.28125 33.094 5.0641 13.593 51.478 51.902 65.781 54.312 14.304 2.4106 70.729-18.568 79.969-29.75 7.029-8.5068 14.499-44.896 15.438-67.812z"/>
  <path d="m539.81 372.25c0.5704 1.0913 1.1516 2.1841 1.75 3.25 5.957 10.612 20.73 19.8 18.125 31.688-1.6674 7.6101-11.986 10.269-19.031 13.594-37.038 11.007-80.798 21.376-118.97 19.906-0.85564 6.8091-1.3063 13.2-1.2188 18.375 56.971 3.93 114.61-4.9217 165.59-25.656 0.7765-9.206 0.61084-16.909-0.9375-20.75-3.5039-8.6921-26.374-28.085-45.312-40.406z"/>
 </g>
 <path d="m504.68 111.21c12.755 15.317 23.999 50.296 18.353 68.315l8.4645-6.1872 9.2118 6.1079c-5.4328-17.781-10.322-32.206-15.239-44.543-5.011-10.276-5.9752-14.501-8.4674-17.951-1.8089-2.5046-3.5963-5.5057-12.322-5.7407zm10.727 61.796c-1.7502 3e-3 -6.2184 6.6847-19.651 16.518-27.889 29.174-28.614 62.287-59.492 82.179 8.5369 5.1469 16.062 8.7792 20.573 9.3829 2.2247 0.29773 5.4061 0.042 9.2009-0.57194l32.199-82.867 15.173-11.09c-6.5326-0.41194 8.8103-13.564 1.9976-13.551z" fill="#998a04"/>
 <g transform="matrix(1.149 -.026444 .024554 1.0667 -229.7 -133.43)" fill="none" stroke="#4f4c09" stroke-linecap="round" stroke-linejoin="round">
  <path d="m469.77 138.99c-47.727 0.44736-94.872 15.802-133.42 44.846-5.7678 4.8558-4.9916 6.0128-4.4201 10.834 15.725 15.601 43.265 35.75 53.642 37.43 14.059 2.2753 69.524-17.539 78.605-28.093 6.2643-7.28 12.877-36.196 14.746-57.648 0.4664-2.8219-0.55755-8.698-9.1525-7.3688z" stroke-width="3.2652"/>
  <path d="m479.73 148.73c-5.8039 21.003-11.709 52.922-6.1805 60.992 10.828 15.809 40.592 41.195 64.645 51.526 13.086 5.6202 67.886-16.336 81.454-27.198 2.2974-1.8393 3.1528-4.7613 4.9955-10.224 5.2714-11.732-21.294-34.619-29.808-43.928-24.759-27.049-61.533-36.849-97.822-39.808-5.8984 0.0954-14.592-3.4237-17.284 8.6393z" stroke-width="3.2719"/>
  <path d="m323.18 196.37c-8.2078 8.2988-15.884 17.376-22.893 27.267l-12.581 20.063c-16.778 30.053-26.339 53.407-28.738 78.506-2.0494 10.179 1.3903 13.196 2.938 14.437 9.2607 8.2665 14.683 16.276 19.854 17.178 13.618 2.3734 72.539-20.792 81.335-31.801 8.7964-11.009 18.336-69.477 13.515-82.86-3.3863-9.3997-26.189-30.808-44.182-43.547-2.4222-0.66844-6.2682-2.2231-9.2502 0.75843z" stroke-width="3.2822"/>
  <path d="m462.79 212.71c-18.017 0.36374-68.138 19.478-76.8 29.961-9.2394 11.182-19.26 70.567-14.196 84.159 5.0641 13.593 51.474 51.918 65.777 54.329 14.304 2.4106 70.733-18.583 79.973-29.765 9.2394-11.182 19.227-70.567 14.163-84.159-2.1759-5.8402-13.211-14.739-25.178-24.868-15.885-13.446-33.97-27.947-40.599-29.461-0.89396-0.15065-1.9389-0.2205-3.14-0.19626z" stroke-width="3.3901"/>
  <path d="m613.25 240.83c-5.7696 0.11858-15.297 5.7902-25.335 9.3384-19.549 6.9099-41.781 14.829-47.183 21.485-8.7206 10.746-18.147 67.781-13.368 80.843 4.7797 13.062 48.583 49.924 62.083 52.24 1.9407 0.333 4.7246 0.18818 8.0576-0.31433l29.822-78.392 29.606-22.474 7.9341 6.035c-4.3957-17.088-8.3871-30.96-12.441-42.842-8.2309-19.538-13.974-26.935-39.176-25.92z" stroke-width="3.2286"/>
  <path d="m361.68 333.43c-6.3965 0.20192-29.168 7.4338-49.944 14.408-14.547 4.8828-29.009 9.0439-32.376 13.119-4.3283 5.2383-5.1835 10.89-8.0404 27.692 3.0595 6.7318 12.324 24.176 15.28 26.006 39.682 24.567 84.508 38.919 130.09 43.622 7.563-18.049 14.206-62.182 10.033-73.383-4.7797-12.829-48.583-49.003-62.083-51.278-0.84377-0.14219-1.8303-0.22101-2.9637-0.18523z" stroke-width="3.1997"/>
  <path d="m514.74 361.18c-8.379 0.15633-21.45 6.7983-36.332 11.861-17.798 6.0548-37.28 11.06-42.098 16.448-7.8371 8.7661-16.183 48.886-15.833 69.585 56.971 3.93 114.6-4.92 165.58-25.655 0.7765-9.206 0.61306-16.936-0.93528-20.777-5.1716-12.829-52.566-49.003-67.173-51.278-0.91293-0.14221-1.98-0.20813-3.2067-0.18524z" stroke-width="3.3283"/>
 </g>
 <path d="m454.82 324.14c59.402 20.69 65.179 97.175 69.244 154.26 2.7259 38.271-142.6 43.852-133.68 6.2144 31.541-133-15.979-102.92 16.206-141.58 10.29-12.36 31.937-24.566 48.227-18.892z" fill="none" stroke="#4b660e" stroke-width="3.6452"/>
 <path d="m551.16 158.54c-29.497 1.645-53.418 25.074-57.909 51.539-9.2315 27.933-27.183 62.269-47.981 85.609-21.131 17.72-62.249 21.963-89.11 27.328-36.192 5.0817-72.966 4.0141-109.42 3.5029-42.213-2.6968-86.996-7.2714-121.91-31.523-25.823-17.201-40.958-45.253-45.729-73.995-52.046 6.142-9.1545 104.11 70.949 124.31 46.403 13.39 95.618 15.446 143.89 17.244 46.027 0.34843 104.26-6.1992 147.19-22.102 37.517-14.346 73.863-53.186 81.692-88.244 6.5833-19.895 4.845-44.117 21.968-59.64 14.243-5.0897 43.204 4.4413 38.214-19.424-4.3554-11.549-20.1-14.941-31.849-14.6z" color="#000000" fill="#8f8f09" stroke="#4f4c09" stroke-width="3.5441" style="block-progression:tb;text-decoration-line:none;text-indent:0;text-transform:none"/>
 <path d="m551.18 158.54c-29.483 1.6447-53.386 25.063-57.875 51.527-9.227 27.933-27.177 62.28-47.965 85.619-21.121 17.72-62.227 21.967-89.076 27.331-36.176 5.0813-72.913 3.9954-109.35 3.4838-40.875-2.6129-84.187-6.9695-118.58-29.289 1.8315 1.422 3.7092 2.8034 5.6629 4.1054 34.899 24.252 79.671 28.818 121.87 31.515 36.435 0.51163 73.173 1.5975 109.35-3.4838 26.849-5.3641 67.956-9.6117 89.076-27.331 20.788-23.339 38.738-57.686 47.965-85.619 4.4888-26.465 28.392-49.883 57.875-51.527 6.3185-0.18331 13.781 0.74078 20.017 3.4082-6.3685-7.6556-19.072-10.026-28.964-9.7394zm-471.84 62.455c-42.876 5.0616-21.271 72.484 32.469 107.35-43.905-33.678-61.509-88.274-30.847-99.314-0.62621-2.6635-1.1766-5.3501-1.6219-8.034z" color="#000000" fill="#beaf00" style="block-progression:tb;text-decoration-line:none;text-indent:0;text-transform:none"/>
 <path d="m551.18 158.54c-29.483 1.6447-53.394 25.074-57.882 51.538-9.227 27.933-27.17 62.269-47.958 85.608-21.121 17.72-62.22 21.963-89.069 27.327-36.176 5.0813-72.933 4.0133-109.37 3.5017-42.194-2.6972-86.957-7.2723-121.86-31.525-25.812-17.201-40.94-45.253-45.709-73.995-52.022 6.1414-9.1492 104.11 70.918 124.31 46.382 13.39 95.574 15.447 143.83 17.246 46.006 0.34892 104.21-6.1981 147.12-22.1 37.5-14.346 73.829-53.185 81.654-88.244 6.5801-19.895 4.8423-44.117 21.957-59.64 17.381-7.4959 43.185 4.4418 38.196-19.423-4.3535-11.549-20.091-14.942-31.834-14.601z" color="#000000" fill="none" stroke="#4f4c09" stroke-width="3.5433" style="block-progression:tb;text-decoration-line:none;text-indent:0;text-transform:none"/>
 <path d="m684.96 1.7789c-30.187 0.88504-52.113 13.667-67.653 31.137-4.2296 4.7549-7.5948 10.256-10.995 15.479-11.506 25.938-12.306 58.365-20.174 86.642-6.8744 24.706-20.64 45.837-32.08 62.039-3.4626 4.9714-9.3186 5.4294-14.626 6.7624-7.9929 15.611-7.8101 35.524-12.622 52.435-1.3098 6.8588-3.5324 13.86-6.485 20.796 4.7213 8.2207 5.8671 7.8106 16.114 9.6991 157.88-13.618 313.9-122.27 234.68-243.43-21.583-25.462-46.37-40.221-78.311-41.493-2.6867-0.10704-5.2919-0.14015-7.8521-0.0651z" fill="#82af16" stroke="#4b660f" stroke-width="3.4765"/>
 <path d="m545.65 201.43c-2.6138 0.66352-5.1649-0.38997-7.779 0.23986-10.05 15.894-8.9869 35.405-14.728 52.339-1.4701 6.8212-4.1554 13.849-7.8199 20.867 1.7012 1.972 4.3637 4.0233 5.684 5.0869 5.6634-9.2514 8.4032-19.252 10.348-28.271 5.6867-16.764 4.5569-34.457 14.295-50.262z" color="#000000" fill="#4b660f" style="block-progression:tb;text-decoration-line:none;text-indent:0;text-transform:none"/>
 <path d="m698.33 2.222c20.166 6.2408 37.225 18.955 52.666 37.17 77.989 119.29-72.008 226.44-227.33 242.73 2.6899 3.11 5.3323 3.2654 12.755 4.6335 157.88-13.618 313.9-122.25 234.68-243.41-20.323-23.975-43.471-38.445-72.772-41.118z" fill="#729913"/>
 <path d="m675.67 85.028a35.16 29.35 86.269 1 1 -58.342 6.6588 35.16 29.35 86.269 1 1 58.342 -6.6588z" fill="#fff" stroke="#4b660f" stroke-width="3.8339"/>
 <path d="m684.16 3.7528c-28.039 1.372-50.357 12.294-65.389 28.446-4.9068 5.2725-7.3291 12.176-11.169 18.072-10.452 23.562-12.362 57.842-20.452 85.998-8.5974 29.922-23.294 53.302-31.793 62.67 46.616-59.251 38.835-90.214 65.173-150.14 13.715-21.063 33.727-39.626 63.63-45.049z" fill="#9ad01a"/>
 <path d="m684.96 1.7789c-31.013 0.90926-52.605 12.335-68.237 30.515-3.7248 4.3322-7.353 11.403-10.412 16.1-10.717 24.159-11.988 55.998-19.243 82.614-7.3402 26.928-20.673 48.593-33.011 66.067-3.4626 4.9714-9.3186 5.4294-14.626 6.7624-7.9929 15.611-7.8101 35.524-12.622 52.435-1.3098 6.8588-3.5324 13.86-6.485 20.796 4.7213 8.2207 5.8671 7.8106 16.114 9.6991 157.88-13.618 313.9-122.27 234.68-243.43-21.583-25.462-46.37-40.221-78.311-41.493-2.6867-0.10704-5.2919-0.14015-7.8521-0.0651z" fill="none" stroke="#4b660f" stroke-width="3.4765"/>
 <g transform="matrix(1.2762 -.14567 .13938 1.3932 -432.03 -113.3)">
  <path transform="matrix(.15123 0 0 .12713 790.77 212.17)" d="m262.75 171.08a72.434 94.448 0 1 1 -144.87 0 72.434 94.448 0 1 1 144.87 0z" fill="#7d7dc0" stroke="url(#a)" stroke-width=".95609"/>
  <path transform="matrix(.10902 0 0 .10443 775.26 213.57)" d="m471.53 191.68a66.753 75.274 0 1 1 -133.51 0 66.753 75.274 0 1 1 133.51 0z" stroke="#000" stroke-width="1.2424"/>
  <path transform="matrix(.094478 0 0 .11871 776.64 211.78)" d="m470.11 149.07a58.941 48.289 0 1 1 -117.88 0 58.941 48.289 0 1 1 117.88 0z" fill="#fff" fill-opacity=".85385" stroke="#000" stroke-width="1.2517"/>
  <path transform="matrix(.19866 0 0 .21508 734.46 197.83)" d="m426.08 147.65a18.464 17.043 0 1 1 -36.927 0 18.464 17.043 0 1 1 36.927 0z" fill="#fff" fill-opacity=".90769" stroke-width="0"/>
 </g>
 <path d="m784.52 103.22a25.965 33.338 5.6898 1 1 -51.88 -2.7448 25.965 33.338 5.6898 1 1 51.88 2.7448z" fill="#fff" stroke="#4b660f" stroke-width="3.6659"/>
 <path d="m771.3 102.76a12.406 14.78 5.8835 0 1 -24.782 -1.369 12.406 14.78 5.8835 1 1 24.782 1.369z" fill="#7d7dc0"/>
 <path d="m766.98 102.11a8.2423 9.6763 6.0922 0 1 -16.465 -0.90953 8.2423 9.6763 6.0922 1 1 16.465 0.90953z"/>
 <path d="m760.77 97.352a6.3059 7.0576 7.1547 1 1 -12.599 -0.69594 6.3059 7.0576 7.1547 1 1 12.599 0.69594z" fill="#fff" fill-opacity=".85385"/>
 <path d="m758.88 96.994a4.3683 4.5179 15.872 1 1 -8.737 -0.48262 4.3683 4.5179 15.872 1 1 8.737 0.48262z" fill="#e6e6e6"/>
 <g transform="matrix(-1.8204 .25508 .28893 1.6755 3027.7 -442.76)">
  <path d="m1342.3 141.19s-26.38 45.719-60.384 34.367c-3.0958-1.0336-6.7513-2.8594-8.5606-5.9304" fill="none" stroke="#4b660f" stroke-linecap="round" stroke-linejoin="round" stroke-width="2.1639"/>
  <path d="m1281 175.28c1.7297-0.95887 22.68 19.074 27.283 21.123 7.1717 3.1926 16.105 3.2854 21.151-11.022 4.003-14.389 1.3397-28.472 9.6925-39.886-9.6181 10.169-18.667 19.742-31.415 27.116-6.9597 2.1838-10.338 4.8316-26.711 2.6684z" fill="#4d0305" stroke="#4b660f" stroke-linecap="round" stroke-linejoin="round" stroke-width="2.1434"/>
  <path d="m1330 180.81c-5.9187-0.33187-16.005 1.6981-18.891 16.368 5.8488 0.69428 10.234 2.0306 16.682-7.978 0.028-0.62042 2.1966-4.2853 2.8047-8.3412-0.2027-0.0173-0.3839-0.0364-0.5958-0.0488z" fill="#b10005"/>
  <path d="m1278.3 164.55s-7.0724-0.16715-6.6414 10.846" fill="none" stroke="#4b660f" stroke-linecap="round" stroke-linejoin="round" stroke-width="2.1434"/>
  <path d="m1331.3 145.31s9.0021-8.5944 18.526-3.1494" fill="none" stroke="#4b660f" stroke-linecap="round" stroke-linejoin="round" stroke-width="2.1434"/>
  <path d="m1281 175.28c1.7297-0.95887 22.68 19.074 27.283 21.123 7.1717 3.1926 16.105 3.2854 21.151-11.022 4.003-14.389 1.3397-28.472 9.6925-39.886-9.6181 10.169-18.667 19.742-31.415 27.116-6.9597 2.1838-10.338 4.8316-26.711 2.6684z" fill="none" stroke="#4b660f" stroke-linecap="round" stroke-linejoin="round" stroke-width="2.1434"/>
 </g>
 <path d="m753.3 41.112c0.33971-1.6622-0.21974 4.36-0.10652 3.6013 16.075 2.4109 25.635 8.8842 40.032 22.618-12.058-15.954-20.314-20.561-39.926-26.219z" stroke-width="0"/>
 <path d="m689.6 124.11a4.504 4.5312 88.698 1 0 9.0599 -0.20851 4.504 4.5312 88.698 0 0 -9.0599 0.20851z" fill="#4b660f"/>
 <path d="m652.61 56.622c7.7674 5.0686 13.42 14.339 14.518 25.432 1.7826 18.005-9.1399 34.001-24.42 35.745-3.2378 0.36951-6.4102 0.0702-9.417-0.80444 4.838 3.1553 10.502 4.6859 16.366 4.0167 15.28-1.744 26.203-17.74 24.42-35.745-1.4046-14.187-10.286-25.389-21.467-28.645z" fill="#e6e6e6"/>
 <path d="m766.75 71.089c6.8072 6.3132 10.806 16.421 10.028 27.557-1.0406 14.899-10.363 26.97-22.208 30.281 1.1178 1.5025 2.2824 3.187 3.3224 4.9838 13.236-1.9648 24.067-14.792 25.193-30.925 0.99462-14.241-5.8593-26.798-16.336-31.897z" fill="#e6e6e6"/>
 <path d="m648.82 27.845c-0.65583-1.8348 0.95339 4.9302 0.70187 4.0854-17.965 5.5585-27.837 14.607-42.062 32.776 11.197-20.29 19.88-26.984 41.36-36.861z" stroke-width="0"/>
 <path d="m639.83 220.1c-1.2206 0.295 3.2761-0.43879 2.7144-0.32504 3.6054 7.8363 9.5644 12.116 21.555 18.26-13.412-4.81-17.814-8.5802-24.269-17.935z" fill="#4b660f" stroke-width="0"/>
 <path d="m761.22 140.09s-20.846-40.538-73.984-29.884" fill="#82af16" stroke="#4b660f" stroke-linecap="round" stroke-linejoin="round" stroke-width="3.8874"/>
 <path d="m741.06 131.39a3.6427 3.307 3.1762 1 0 7.2743 0.40396 3.6427 3.307 3.1762 0 0 -7.2743 -0.40396z" fill="#4b660f"/>
</svg>
