<?xml version="1.0" encoding="UTF-8"?>
<svg width="210mm" height="297mm" clip-rule="evenodd" fill-rule="evenodd" image-rendering="optimizeQuality" shape-rendering="geometricPrecision" text-rendering="geometricPrecision" viewBox="0 0 210 297" xmlns="http://www.w3.org/2000/svg">
 <defs>
  <style type="text/css">.str0 {stroke:#23201D;stroke-width:0.0762}
    .fil1 {fill:none}
    .fil4 {fill:none;fill-rule:nonzero}
    .fil0 {fill:#23201D;fill-rule:nonzero}
    .fil7 {fill:#A8A8A7;fill-rule:nonzero}
    .fil6 {fill:#BB2921;fill-rule:nonzero}
    .fil5 {fill:#DA999D;fill-rule:nonzero}
    .fil3 {fill:#DDDDDC;fill-rule:nonzero}
    .fil2 {fill:white;fill-rule:nonzero}</style>
 </defs>
 <path class="fil0 str0" d="m131.12 92.764c9.5947-17.094 20.707-23.996 29.356-24.757 5.2205-0.4593 9.5538 1.3128 12.14 4.4348 2.5907 3.1269 3.4244 7.5991 1.6399 12.533-2.938 8.1232-13.016 17.523-34.135 24.166 5.028 10.272 3.7766 15.231 1.917 22.596-0.2235 0.8851-0.456 1.8056-0.6946 2.8069-0.4817 2.0212-0.1904 3.2984 0.5767 4.0598 0.7759 0.7701 2.0562 1.0457 3.528 1.0435 0.1582 0 0.2864 0.1283 0.2864 0.2865 0 0.0899-0.0414 0.1701-0.1062 0.2226l6e-4 7e-4c-0.4194 0.3435-0.7768 0.7897-1.1342 1.2359-0.7355 0.9182-1.4713 1.8363-2.7851 2.0493-0.1507 0.8984 0.7277 1.5048 2.1568 2.4913 0.3574 0.2467 0.7474 0.5159 1.185 0.8345 0.1278 0.093 0.1559 0.2721 0.0629 0.3999-0.0262 0.0359-0.0591 0.0639-0.0958 0.0836l3e-4 7e-4c-1.3682 0.7356-2.728 1.4221-4.0785 2.06-4.2929 2.0278-8.4847 3.5599-12.551 4.6184 2.6428 6.2185 6.5219 9.6592 10.427 13.122 2.0378 1.8074 4.0825 3.6211 5.9702 5.8372 0.6597 0.5287 1.2183 1.1384 1.6802 1.8069 1.32 1.9103 1.8441 4.296 1.6854 6.6443-0.1585 2.3441-0.9977 4.6561-2.405 6.4238-0.5462 0.686-1.1789 1.291-1.8915 1.7852-0.0734 0.0562-0.1726 0.076-0.2667 0.0441-0.1501-0.0508-0.2306-0.2138-0.1797-0.3639 0.4769-1.4014 0.4997-2.6118 0.0678-3.6301-0.0688-0.1622-0.1503-0.3213-0.2443-0.477-0.0972 1.2992-0.3619 2.3711-0.7941 3.2156-0.5309 1.037-1.3095 1.7316-2.3358 2.0839-0.0084 0.0035-0.0171 0.0068-0.026 0.0096-0.1513 0.0478-0.3128-0.0362-0.3606-0.1876l-0.6832-2.1549c-0.5964 1.1558-1.3949 2.0909-2.4889 2.7033-1.2727 0.7125-2.9331 0.9806-5.1241 0.6406-0.4898 0.3155-0.9879 0.5906-1.4943 0.8251 1.5961 1.0254 3.0693 2.2172 4.409 3.5385 2.4405 2.4069 4.4385 5.244 5.9329 8.2866 1.2663-2.0428 6.5068-11.865 6.7062-12.239 0.0615-0.1288 0.2109-0.1944 0.3497-0.148 3.8609 1.2892 7.033 3.7721 9.2776 6.786 1.6714 2.2443 2.8293 4.7841 3.3749 7.3456 0.5475 2.5703 0.4792 5.1651-0.3038 7.51-0.6103 1.8276-1.654 3.5013-3.1775 4.8915l2.7914-0.6366c0.1545-0.0348 0.3079 0.0623 0.3427 0.2168 0.0043 0.0192 0.0066 0.0384 0.0069 0.0574 0.1103 2.6014-0.3932 4.7749-1.3305 6.5377-1.0002 1.8813-2.493 3.2925-4.2607 4.2556-1.7588 0.9583-3.789 1.471-5.8745 1.5601-2.6685 0.1141-5.4307-0.4652-7.832-1.6912-0.5831 0.9207-1.2525 1.7914-2.0109 2.6015 2.1268 0.7784 3.9951 2.1433 4.8924 3.6521 0.4967 0.8354 0.7024 1.7188 0.5042 2.5819-0.1968 0.8565-0.789 1.6776-1.8869 2.3907-2.4362 1.5824-7.4605 2.6665-16.378 2.4285-0.8899 0.1612-1.8547 0.3409-2.8303 0.5225-10.649 1.9822-22.609 4.2067-29.823-0.7595-0.0237-0.0122-0.0453-0.0274-0.0643-0.0451-0.0673-0.0466-0.1347-0.0929-0.201-0.141-1.6696-0.0941-4.035-0.4856-5.8934-1.7856-0.3731-0.261-0.7249-0.5575-1.0454-0.8938-0.3056-0.3207-0.584-0.6781-0.8267-1.0759-1.2519-0.6469-1.9289-1.5236-2.157-2.5201-0.015-0.0656-0.028-0.1318-0.0391-0.1983-0.015 0.0019-0.0303 0.0027-0.0459 0.0022l-19.014-0.6213c-1.8592 0.1172-3.3344-0.087-4.5301-0.5324-1.1735-0.437-2.0739-1.1041-2.8002-1.9266-0.9639-0.1728-2.0763-0.4643-2.7674-1.2139-0.7278-0.7895-0.9675-2.0419-0.0479-4.0997 0.0021-0.0055 0.0043-0.0109 0.0067-0.0163 2.5827-5.8666 9.9796-4.8845 17.997-3.8199 4.1129 0.546 8.392 1.1141 12.228 0.7761-9.6369-2.6366-15.089-8.7652-17.06-14.897-0.9427-2.9329-1.0896-5.8693-0.518-8.4292 0.5758-2.579 1.8801-4.7782 3.8346-6.2149 2.9396-2.1608 7.3329-2.5896 12.904 0.0219-1.0089-2.3588-1.3212-4.6767-1.2403-6.8556 0.0797-2.1457 0.5393-4.1508 1.0892-5.9249-1.1988 0.5118-2.3817 0.8498-3.5487 1.0136-1.3636 0.1915-2.7036 0.1452-4.0196-0.139l2e-4 -8e-4c-0.0787-0.017-0.1497-0.0668-0.1912-0.143l-0.6248-1.1456c-0.087 0.0516-0.189 0.0993-0.3043 0.1423-0.2738 0.1023-0.6397 0.1938-1.0561 0.2643-1.4186 0.2404-3.4868 0.2472-4.5703-0.3767-0.1919-0.0252-0.279-0.1371-0.279-0.3225 0-0.2418 0.4096-0.5579 0.8753-0.9175 0.4879-0.3765 1.0555-0.8146 1.0465-0.8723-0.0088-0.0563-0.0982 0.1094-0.3902 0.1549-1.1861 0.1852-2.3731 0.2889-3.5614 0.2053-1.2002-0.0844-2.4013-0.3584-3.6029-0.9287l1e-4 -1e-4c-0.0231-0.0109-0.045-0.025-0.0652-0.0426-0.1198-0.1035-0.1328-0.2846-0.0293-0.4044l1.5205-1.7543c-4.6034-1.3023-6.9015-3.9282-8.9572-6.2773-0.617-0.7051-1.2119-1.3849-1.84-1.9919-2.2755-0.0168-4.6479-0.443-6.9032-1.2786-0.4529-0.1677-0.9012-0.352-1.3429-0.5527-0.4379-0.1988-0.8735-0.4164-1.3054-0.6524l-0.0375-0.0205c-3.059 0.5741-5.4306 0.624-6.8486-0.0525-1.5015-0.7163-1.9683-2.1709-1.1138-4.5677-1.4744-2.9268-0.3427-4.5949 1.8043-5.7132 1.4812-0.7715 3.4515-1.2619 5.3523-1.735 0.3327-0.0828 0.6637-0.1653 0.9236-0.2312l0.5378-1.2909c-0.7535-0.294-1.8275-0.3433-2.9016-0.3925-0.9885-0.0454-1.9772-0.0907-2.7734-0.3251-1.3215-0.3889-2.1007-1.2425-1.5125-3.2666 0.0111-0.0535 0.0376-0.1045 0.0794-0.1458 1.4109-1.3952 3.2372-1.627 5.3007-1.1938 1.978 0.4152 4.1697 1.4439 6.4166 2.6328 1.173-0.271 2.2711 0.0637 3.424 0.4153 0.1005 0.0306 0.2015 0.0614 0.3033 0.092 0.0111 0.0026 0.022 0.0058 0.0327 0.0098 0.1671 0.0499 0.3369 0.0992 0.5118 0.1466l1.723-4.1089 9e-4 4e-4c0.0035-0.0081 0.0073-0.0161 0.0115-0.024 0.541-1.0128 1.3608-1.6233 2.1929-1.8021 0.4568-0.0981 0.9178-0.0667 1.341 0.0987 0.4217 0.1648 0.8027 0.4617 1.1009 0.8948 0.5896 0.8563 0.8531 2.255 0.4395 4.223l-2e-4 -1e-4c-0.0023 0.0109-0.0051 0.0218-0.0088 0.0327-0.5356 1.5987-0.7412 3.1013-0.5406 4.4859 0.1983 1.3689 0.7971 2.6283 1.8712 3.7576 2.6649 2.5417 6.0092 3.2816 9.8337 2.7111 3.8032-0.5674 8.082-2.4254 12.643-5.0986 0.33-0.8181 0.7972-1.5959 1.4237-2.3439 1.2945-1.5454 3.2673-2.9566 6.1178-4.3301-5.8981-4.1371-10.914-9.948-14.843-17.255-0.5198-0.9668-1.0209-1.9605-1.5028-2.9808-0.0676-0.1433-0.0063-0.3144 0.137-0.382 0.0605-0.0285 0.1259-0.034 0.1865-0.0201v-1e-4l0.0011 2e-4c0.1689 0.0388 0.3243 0.0672 0.4659 0.0851 0.1414 0.0178 0.2728 0.0262 0.3936 0.0252 0.4639-0.0042 0.7665-0.1586 0.9078-0.4631-0.1313-0.1162-0.2609-0.2373-0.3877-0.3626-0.1726-0.1705-0.3394-0.3482-0.4973-0.5314-0.8278-0.9604-1.4134-2.0752-1.368-3.1168 0.0065-0.1509 0.1285-0.2695 0.2771-0.2741 6.3575-0.248 8.4772-5.1429 10.84-10.599 0.6808-1.5722 1.3813-3.1901 2.203-4.7539l5e-4 -9e-4c1.3627-2.5931 3.8142-4.6825 6.1297-6.6558 1.2892-1.0988 2.5358-2.1612 3.5096-3.2396 0.0312-0.0346 0.069-0.0597 0.1098-0.0752-7.7601-16.731-4.8582-29.534 1.3241-37.278 4.0242-5.0405 9.4441-7.9402 14.23-8.3926 4.849-0.4584 9.0523 1.5771 10.552 6.4176 1.7165 5.5386-0.1645 14.786-8.8339 28.2 0.0487 0.0135 0.098 0.0281 0.1477 0.0439 1.8923 0.5988 4.6447 2.8104 7.2174 7.3374 3.245-1.465 6.4263-1.691 8.8073-1.3392z"/>
 <path class="fil1" d="m140.01 108.88c67.412-21.186 21.767-70.29-8.6892-15.879"/>
 <path class="fil1" d="m134.69 102.38c6.8022 2.0526 39.037-13.792 19.625-20.11"/>
 <path class="fil1" d="m132.88 100.23c13.683-11.46 30.776-29.827 33.856-16.634"/>
 <path class="fil1" d="m98.115 98.041c-24.175-51.217 51.981-65.55 16.24-10.936"/>
 <path class="fil1" d="m105.34 64.095c13.121-4.0929 0.6019 20.705 1.0834 31.058"/>
 <path class="fil1" d="m111.62 68.676c-10.678-1.2626-13.156 15.227-6.6464 27.198"/>
 <path class="fil1" d="m139.67 108.88c5.8376 11.711 3.5596 16.513 1.3937 25.602-1.0167 4.2656 1.2997 5.4606 4.3845 5.456-1.3242 1.0834-1.9864 3.0494-3.9725 3.2502-0.4425 1.4644 1.0925 2.13 3.4072 3.8156-30.999 16.667-57.2 7.8115-69.856-18.983 1.2504 0.2874 1.973 0.0466 2.1668-0.7223-1.2619-1.0718-2.3591-2.5727-2.3009-3.9085 8.3833-0.3264 9.5587-8.4088 13.287-15.506 2.0916-3.9807 6.857-6.8021 9.5983-9.8378"/>
 <path class="fil1" d="m122.19 94.473c10.005-4.7039 19.512 2.7017 6.3259 2.2327 12.817 8.8891 4.92 13.313-3.225 4.3412 0.26 6.9799-7.2056 8.7322-5.3335-0.4961-6.5337 10.834-11.991 5.2521-5.8297-2.1086-13.315 2.7964-14.263-5.1449-1.6124-2.8529 1.8971 1.7649-15.366-7.1319 2.6047-3.473-6.2234-6.1 0.9292-8.6633 7.07 2.3567z"/>
 <path class="fil1" d="m128.62 113.57c2.5012-5.0001-6.4486-9.605-5.6684-4.0813l5.6684 4.0813z"/>
 <path class="fil1" d="m97.335 105.63c0.1749-4.6427 10.087-5.6252 6.9155-1.4738l-6.9155 1.4738z"/>
 <path class="fil1" d="m93.48 128.53c7.1895-4.5162 12.763-2.211 17.232 4.7615 19.707-4.7713 21.03 20.945-4.0813 14.965-5.8952 2.9854-10.884-0.0755-12.244-5.1016-12.5-2.1214-10.729-20.829-0.9069-14.625z"/>
 <path class="fil1" d="m113.55 138.06c-6.9716 4.8843-11.658 3.505-14.398-1.5872-0.9155 4.4537-8.4969 1.2806-8.1626-5.7818"/>
 <path class="fil1" d="m109.16 140.33c-2.8787 5.933-7.87 7.8666-9.8863 3.9332-0.4648-0.9073 0.1844-2.3192-0.054-3.786-0.0877-0.5398-1.8069-1.5305-1.8446-2.1492"/>
 <path class="fil1" d="m129.71 136.21c-4.1096-4.0441-8.983-5.3503-14.973-3.523"/>
 <path class="fil1" d="m95.803 127.32c-2.9503-4.4491-6.4989-5.6849-8.5103-5.6696"/>
 <path class="fil1" d="m100.53 126.2c10.503-19.48-11.065-21.435-9.9612-3.63"/>
 <path class="fil1" d="m126.2 133.38c10.427-22.348-15.293-21.868-10.383-1.0975"/>
 <path class="fil1" d="m131.09 134.64c-0.6729-0.9755-4.2525-1.3159-5.1494-1.2662"/>
 <path class="fil1" d="m90.487 122.48c-0.647-1.2099-1.9976-1.9693-2.8702-2.2793"/>
 <path class="fil1" d="m135.14 116.15c-2.2506 2.3213-5.4585 2.687-8.6106 1.8572"/>
 <path class="fil1" d="m136.58 118.26c-2.279 2.0264-5.5993 2.1105-8.7794 1.4351"/>
 <path class="fil1" d="m135.65 122.06c-2.6941 0.7107-5.4935-0.288-7.5132-1.6039"/>
 <path class="fil1" d="m93.188 104.59c-0.1969 2.1382 1.1815 4.0514 4.1365 5.7404"/>
 <path class="fil1" d="m90.234 106.28c1.1535 2.645 3.0387 4.3334 5.3183 4.7274"/>
 <path class="fil1" d="m88.123 108.56c1.7868 1.9556 4.2346 3.1091 6.2469 3.039"/>
 <ellipse class="fil1" transform="matrix(-3.1305 -.94375 -1.0196 2.8976 101.9 130)" rx="1.7866" ry=".9418"/>
 <ellipse class="fil1" transform="matrix(-3.1153 -.86373 -.69326 2.5004 101.25 129.72)" rx=".8448" ry=".5401"/>
 <path class="fil1" d="m108.3 134.81c19.501 1.1187 28.04 4.4652 32.585 6.2469"/>
 <path class="fil1" d="m108.13 136.41c18.049 1.4317 29.824 8.2744 33.598 10.468"/>
 <path class="fil1" d="m107.62 137.76c23.743 11.827 23.065 12.533 24.566 13.338"/>
 <path class="fil1" d="m94.623 131.18c-10.432-6.1896-16.307-6.6483-18.065-6.7534"/>
 <path class="fil1" d="m94.032 129.24c-4.8298-4.1511-10.477-6.5931-12.409-7.4287"/>
 <path class="fil1" d="m93.273 132.7c-10.879-3.0299-14.081-1.7246-15.87-1.8572"/>
 <ellipse class="fil1" cx="103.61" cy="135.74" rx=".37973" ry=".33767"/>
 <ellipse class="fil1" cx="108.55" cy="136.5" rx=".5065" ry=".42209"/>
 <ellipse class="fil1" cx="105.51" cy="138.69" rx=".59092" ry=".42209"/>
 <ellipse class="fil1" cx="96.016" cy="134.43" rx=".54856" ry=".54849"/>
 <ellipse class="fil1" cx="95.046" cy="131.26" rx=".5063" ry=".42209"/>
 <ellipse class="fil1" cx="93.568" cy="133" rx=".46414" ry=".37973"/>
 <path class="fil1" d="m118.76 131.85c-0.145-8.5112 5.461-13.973 9.9183-8.9695"/>
 <path class="fil1" d="m93.492 124.43c-0.8051-8.1946 7.2438-11.587 9.8321-5.6923"/>
 <ellipse class="fil1" transform="matrix(-4.8773 -1.1773 -1.1773 4.8773 122.27 127.58)" rx=".4528" ry=".5943"/>
 <ellipse class="fil1" transform="matrix(-4.5716 -1.1086 -1.1086 4.5716 96.688 121.06)" rx=".4103" ry=".6084"/>
 <path class="fil1" d="m91.684 148.42c-6.1113 2.8454-8.3204 5.8087-8.461 9.7752l2.2393-0.4199c-3.965 3.779-4.1677 5.4564-4.3387 7.9778l2.3793-0.8398c-1.3472 4.8214-2.207 7.2056-0.6998 10.077l2.3793-2.6593c-1.3506 6.7057 0.0586 11.524 2.2394 15.816l2.2394-3.9189c0.1875 4.3767-0.5302 6.1775 0.9797 8.1177l1.1197-3.3591c0.0779 5.0414 2.1283 8.85 5.1785 12.037 2.1697-1.432 3.9237-3.3094 4.0527-5.6673"/>
 <path class="fil1" d="m102.11 153.88c-3.1915 1.0342-4.7462 3.0247-5.7101 5.362 1.068-0.0469 2.136-1.2073 3.2032-0.1393-1.8098 2.6344-2.7151 5.4192-2.2979 8.4259"/>
 <path class="fil1" d="m116.19 155.37c2.8316 2.489 5.8321 6.5099 5.6942 11.601-1.0852-1.3506-2.1415-2.1849-3.1336-1.8801 1.6127 1.9828 2.1236 4.1884 1.8802 6.5457-1.0363-1.2624-2.3676-3.4121-2.4373-2.0891 2.1587 4.8745-1.776 10.175-1.776 10.175"/>
 <path class="fil1" d="m83.971 155.15c-9.3725 5.5426-17.605 7.7206-23.08 2.4931-2.2414-2.3524-2.4993-5.2557-1.3996-8.5376 1.1328-5.3908-2.9571-6.1858-4.5407-3.2211l-1.8195 4.3388c-1.5686-0.3951-2.9854-1.0928-4.4788-0.6998-4.5235-2.4007-8.8154-4.1713-11.477-1.5396-1.3341 4.5325 4.8524 2.5193 7.2779 3.7789l-0.6998 1.6796c-4.7483 1.2189-10.68 2.229-7.9777 7.4179-1.6989 4.5938 1.5988 5.5005 7.6978 4.3387 3.0102 1.6754 6.4382 2.5152 9.6573 2.5193 2.8143 2.6786 4.8882 6.7823 11.197 8.3977l-1.8195 2.0994c2.3332 1.1072 4.6663 1.0638 6.998 0.6998 2.3318-0.3641-1.8194 1.9594-1.1196 1.9594 1.665 1.0342 6.2051 0.3192 5.8783-0.2799l0.8398 1.5396c2.5668 0.5543 5.2261 0.1806 7.9777-1.1197-1.2548 3.8024-2.2311 8.7885 0.2744 13.915-21.824-11.06-25.792 24.417 3.79 29.395"/>
 <path class="fil1" d="m43.195 162.86c0.1116-6.1534 1.4437-11.087 5.4577-13.342"/>
 <path class="fil1" d="m52.352 150c-1.7699 1.5472-2.5579 3.3963-1.9153 5.6881"/>
 <path class="fil1" d="m83.357 194.92c0.8667 14.377 6.23 24.426 16.802 31.712"/>
 <path class="fil1" d="m85.169 223.93c-11.407 1.8422-27.554-5.9659-31.529 3.0639-1.7409 3.8762 0.8149 4.6236 2.6951 4.949 1.4161 1.6478 3.5286 2.6689 7.1724 2.4372l19.031 0.6219"/>
 <path class="fil1" d="m56.335 231.94c0.3551-2.2525 0.9411-4.0409 2.0401-4.8097"/>
 <path class="fil1" d="m112.34 228.74c-5.8721-1.0211-11.745-2.0421-17.618-3.0639-6.4989-0.6964-16.293 8.8437-9.749 12.117 1.7181 2.9012 5.3854 3.5741 7.6599 3.6906 7.7102 5.6681 21.393 2.4835 32.798 0.4179 24.139 0.6515 19.446-8.3542 12.373-10.641 10.03-10.17 5.1248-30.693-8.4976-39.044"/>
 <path class="fil1" d="m84.976 237.79c2.4786-5.3316 5.2454-9.7669 9.4008-9.8883"/>
 <path class="fil1" d="m92.934 241.69c1.2169-4.869 3.497-8.8513 8.0585-10.936"/>
 <path class="fil1" d="m97.05 226.08c6.6064 3.1377 11.542 3.9078 11.463 12.13"/>
 <path class="fil1" d="m105.24 197.12c-19.408 10.917 7.3303 39.87 22.633 34.271"/>
 <path class="fil1" d="m140.13 204.71c0.4151-0.1986 7.1028-12.743 7.1028-12.743 12.093 4.0381 17.328 19.972 8.1474 26.81l3.9692-0.9053c0.4937 11.548-11.329 14.418-19.092 10.29"/>
 <path class="fil1" d="m141.51 207.81c0.4342-0.1001 1.0342-1.5523 1.3873-3.1452 0.4842-2.1848 1.9548-3.8588 1.9548-3.8588 4.7592 3.0901 6.6563 13.12 4.0049 17.113l3.6095-0.8598c-0.335 3.5428-4.7317 8.7907-9.8082 6.0914"/>
 <path class="fil1" d="m126.75 168.69c-0.1131 4.0388-1.9098 7.5716-5.7384 10.497-3.0777 1.8512-6.0631 0.7315-8.9574-3.3591-3.6528-7.9556-9.0168-1.5747-5.2193 4.7456"/>
 <path class="fil1" d="m112.2 180.62c-3.852-0.2923-7.7054-0.1765-11.56 1.3927-3.6879 2.1822-5.5653 7.9853 0.8439 6.3382 3.8996-3.2963 7.7992-0.395 2.7158 2.2284-8.7741 4.0616-0.0696 10.143 7.5206 3.8299"/>
 <path class="fil1" d="m105.24 197.12c2.9302 4.2885 13.574 1.2342 16.785-4.5993 3.388 0.9293 6.4982 0.4653 9.3311-1.3928 4.3519 0.7102 6.5334-1.0079 7.7296-3.8299l0.9053 2.855c1.9263-0.6501 2.924-2.5992 2.9943-5.8493 1.1597 1.2996 1.3913 2.9715 0.6963 5.0137 4.889-3.3783 5.9439-12.214 0.9053-16.225-5.5715-6.5526-12.558-9.5897-16.589-19.362"/>
 <path class="fil1" d="m61.247 224.35c0.8377-0.6047 1.9946-0.7129 3.6197-0.1035"/>
 <path class="fil2 str0" d="m141.85 207.94c0.4281 1.272 0.7712 2.5622 1.0251 3.8562 0.7411 3.7777 0.7239 7.5899-0.1501 11.079 0.021 0.0055 0.0417 0.0134 0.0617 0.024 0.7593 0.4037 1.4993 0.6215 2.2083 0.6885 1.391 0.1315 2.6788-0.3144 3.7686-1.0722 1.1023-0.7665 2.0018-1.8507 2.6039-2.9832 0.3746-0.7045 0.6329-1.4243 0.7519-2.0939l-3.2025 0.7628-2e-4 -6e-4c-0.0744 0.0177-0.1557 0.0057-0.2245-0.0398-0.1321-0.0875-0.1683-0.2656-0.0809-0.3977l0.0263-0.0396c1.2576-1.9368 1.4264-5.3315 0.7098-8.6316-0.7006-3.226-2.2458-6.3423-4.4455-7.8986-0.3856 0.4916-1.3594 1.8573-1.7313 3.5355-0.2609 1.1772-0.6579 2.2869-1.0312 2.8628-0.081 0.1251-0.1632 0.2292-0.2452 0.3083-0.0146 0.0141-0.0294 0.0275-0.0442 0.0403z"/>
 <path class="fil3 str0" d="m140.53 204.63c0.4129 0.8825 0.7835 1.7808 1.1108 2.6897 0.0084-0.0124 0.017-0.0252 0.0256-0.0384 0.3385-0.5224 0.7053-1.5592 0.9524-2.674 0.5006-2.2589 2.0135-3.9808 2.0178-3.9858 0.1002-0.1151 0.2718-0.1312 0.3913-0.0397l0.0404 0.0263c2.4173 1.605 4.103 4.9318 4.8485 8.3645 0.6838 3.1489 0.5777 6.4037-0.4788 8.5173l2.9635-0.7059c0.1545-0.0366 0.3094 0.059 0.346 0.2134 0.0094 0.0395 0.01 0.0789 0.0033 0.1165-0.0841 0.8498-0.3874 1.7865-0.8678 2.69-0.6418 1.2071-1.6032 2.3645-2.7836 3.1854-1.1929 0.8294-2.6098 1.3168-4.1506 1.1711-0.7661-0.0724-1.5591-0.3008-2.3654-0.7205-0.4541 1.6215-1.0981 3.1675-1.9427 4.601 2.3053 1.1682 4.952 1.7198 7.509 1.6105 1.9998-0.0855 3.9432-0.5753 5.6229-1.4905 1.6708-0.9104 3.0818-2.244 4.0271-4.0219 0.8512-1.6009 1.3262-3.5641 1.2761-5.9057l-3.6309 0.8281c-0.1073 0.0241-0.2235-0.0149-0.2932-0.1089-0.0943-0.1272-0.0676-0.3068 0.0595-0.4011 1.945-1.4485 3.2264-3.3158 3.9195-5.3916 0.7492-2.2437 0.8128-4.7349 0.2858-7.2089-0.5288-2.4826-1.652-4.9455-3.2738-7.1232-2.1337-2.8649-5.1298-5.2348-8.7703-6.5055-0.8022 1.5015-5.5832 10.43-6.8424 12.308z"/>
 <path class="fil3 str0" d="m100.22 226.92c-0.0681 0.0137-0.1411 0.0027-0.2045-0.0355l-0.8076-0.1404c0.2418 0.1068 0.4803 0.2116 0.7156 0.3149 5.279 2.3183 8.9505 3.9308 8.8815 11.152-0.0012 0.1582-0.1305 0.2854-0.2887 0.2842-0.1582-0.0013-0.2855-0.1305-0.2842-0.2887 0.0654-6.843-3.4636-8.3929-8.5378-10.621-0.87-0.382-1.7845-0.7837-2.7265-1.2303l-2.2787-0.3963c-2.8681-0.3018-6.4101 1.4606-8.826 3.7731-0.9539 0.913-1.7281 1.9081-2.2112 2.8914-0.4703 0.9575-0.6634 1.9006-0.472 2.7368 0.1796 0.7848 0.7055 1.4881 1.6695 2.036 1.2112-2.5792 2.4967-4.9365 3.9848-6.6884 1.5719-1.8504 3.3694-3.028 5.5404-3.0913 0.1582-0.0043 0.29 0.1204 0.2943 0.2786s-0.1204 0.29-0.2786 0.2943c-1.9843 0.0579-3.648 1.1587-5.118 2.8891-1.4748 1.7362-2.7548 4.1032-3.9655 6.6944 0.2117 0.3371 0.4514 0.6415 0.7129 0.916 0.2953 0.3097 0.6175 0.5815 0.9578 0.8196 1.7777 1.2436 4.079 1.6049 5.6787 1.6869 0.0387 2e-3 0.0751 0.0114 0.1081 0.027 0.6109-2.3072 1.4719-4.4105 2.7142-6.2033 1.3208-1.9059 3.069-3.4563 5.4002-4.5217 0.1439-0.0658 0.3139-0.0024 0.3797 0.1415s0.0024 0.314-0.1415 0.3797c-2.2302 1.0194-3.9028 2.5027-5.1666 4.3263-1.2359 1.7835-2.0845 3.897-2.6828 6.2238 7.0356 4.7124 18.789 2.5258 29.26 0.5766 0.9454-0.176 1.8804-0.35 2.8614-0.5277 0.0199-0.0035 0.0395-5e-3 0.0589-0.0044 8.8052 0.2375 13.727-0.8073 16.08-2.3357 0.9615-0.6245 1.4754-1.3227 1.6397-2.038 0.1628-0.7085-0.0154-1.4494-0.439-2.1617-0.8879-1.4931-2.8271-2.8427-5.0032-3.5463-0.1508-0.0484-0.2338-0.2099-0.1854-0.3606 0.0147-0.0459 0.04-0.0856 0.0722-0.1172 0.9181-0.9314 1.709-1.9514 2.3774-3.0417 2.7991-4.5657 3.4554-10.37 2.3304-16.104-0.4606-2.3474-1.2196-4.6818-2.252-6.9142-0.0817-0.0191-0.1543-0.0738-0.1933-0.1554-0.0396-0.0827-0.036-0.1747 0.0018-0.2509-1.4785-3.0797-3.4805-5.9523-5.9406-8.3785-1.4043-1.3851-2.9578-2.6245-4.648-3.6738-0.7634 0.2983-1.5449 0.5072-2.3448 0.6266-1.527 0.2278-3.1186 0.1279-4.7747-0.2996-0.8477 1.4516-2.1384 2.7263-3.6458 3.7563-1.9 1.2981-4.1501 2.2105-6.29 2.5983-2.1626 0.3918-4.2211 0.2481-5.7109-0.5719-0.5317-0.2926-0.9915-0.6707-1.3589-1.1404-4.7311 2.746-6.5672 6.6088-6.4297 10.75 0.0896 2.6979 1.0112 5.5198 2.5137 8.2352 1.5081 2.7257 3.602 5.3435 6.0289 7.6223 6.0984 5.7262 14.278 9.2942 20.502 7.0171 0.1489-0.0539 0.3134 0.023 0.3673 0.1719 0.054 0.1489-0.023 0.3134-0.1719 0.3673-4.6227 1.6912-10.256 0.2972-15.375-2.7889-0.0578 0.1028-0.1757 0.1634-0.2986 0.1425l-1.6367-0.2846c-3.481-0.6053-6.9623-1.2108-10.444-1.8163z"/>
 <path class="fil4 str0" d="m74.011 180.61c0.0076 0.0237 0.0141 0.0897 0.0112 0.1146l0.1298-0.0707-0.141-0.0439z"/>
 <path class="fil3 str0" d="m83.081 195.11c-5.6221-2.8051-10.007-2.4631-12.882-0.3498-1.8391 1.3519-3.0686 3.4313-3.6143 5.8757-0.5501 2.4635-0.4067 5.2955 0.5045 8.1304 2.1413 6.6615 8.5208 13.324 20.106 15.273 0.1563 0.0261 0.2619 0.174 0.2359 0.3303-0.0261 0.1564-0.174 0.262-0.3303 0.2359-0.6634-0.1116-1.3094-0.239-1.9393-0.3804-4.273 0.6781-9.1737 0.0275-13.86-0.5947-7.7959-1.0351-14.988-1.99-17.398 3.4829-0.0025 0.0054-0.0051 0.0107-0.0078 0.016-0.8044 1.7987-0.6356 2.8494-0.0544 3.4799 0.5352 0.5806 1.4347 0.8427 2.2589 1.0023 0.1748-1.0297 0.4022-1.958 0.7102-2.7318 0.3484-0.8754 0.8023-1.5587 1.4013-1.9777 0.1297-0.0906 0.3083-0.0589 0.3988 0.0708 0.0906 0.1296 0.0589 0.3082-0.0707 0.3987-0.5 0.3497-0.8888 0.9452-1.1969 1.7194-0.307 0.7713-0.5313 1.7144-0.703 2.7675 0.6631 0.7437 1.4827 1.3468 2.5465 1.7431 1.1235 0.4184 2.5236 0.6089 4.3037 0.4958 0.015-1e-3 0.0297-8e-4 0.0443 5e-4l18.994 0.6208c-0.0046-0.7549 0.2132-1.5508 0.6043-2.3469 0.5142-1.0467 1.3291-2.0971 2.328-3.0533 2.5204-2.4124 6.2399-4.2485 9.2794-3.9308 0.0113 6e-4 0.0228 0.0019 0.0342 0.0038l4.1482 0.7215c-4.7943-3.5091-8.4561-7.6344-11.058-12.536-2.7686-5.2163-4.3339-11.308-4.7836-18.468zm-21.666 29.477c-0.1284 0.0925-0.3075 0.0633-0.3999-0.0651s-0.0633-0.3075 0.0651-0.3999c0.4637-0.3346 1.0136-0.5319 1.6696-0.5609 0.6344-0.0281 1.3674 0.1027 2.2175 0.4216 0.1482 0.0552 0.2237 0.2202 0.1684 0.3684-0.0552 0.1483-0.2202 0.2238-0.3684 0.1685-0.775-0.2906-1.4331-0.4104-1.9928-0.3856-0.538 0.0239-0.9855 0.1831-1.3595 0.453z"/>
 <path class="fil3 str0" d="m101.16 196.25c-0.3152 1.4059-1.179 2.6268-2.3233 3.6736-0.268 0.2451-0.5467 0.4774-0.8335 0.6976-0.2893 0.2221-0.5901 0.4351-0.8989 0.639l-0.0029 0.0019-1e-4 -1e-4c-0.1133 0.0751-0.2675 0.0611-0.3651-0.0403-1.546-1.6153-2.8396-3.39-3.7578-5.4026-0.7344-1.6098-1.2277-3.3699-1.4167-5.3194l-0.6378 1.9134c-0.0148 0.061-0.0495 0.1177-0.1029 0.1592-0.1253 0.0974-0.3059 0.0747-0.4033-0.0506-1.1153-1.4332-1.0836-2.7577-1.0308-4.962 0.0161-0.6728 0.0341-1.4308 0.0208-2.3029l-1.7327 3.0324-5e-4 -3e-4c-0.0269 0.0472-0.0675 0.0874-0.1197 0.1137-0.1414 0.0713-0.314 0.0145-0.3853-0.1269-1.102-2.1685-2.0094-4.4715-2.471-7.0821-0.4153-2.3488-0.4689-4.9448 0.0222-7.9128l-1.7003 1.9004h-1e-4c-0.0223 0.025-0.0494 0.0465-0.0808 0.0629-0.1402 0.0732-0.3133 0.0189-0.3864-0.1213-1.4484-2.7596-0.8046-5.0383 0.3857-9.2516l0.1421-0.5035-1.8576 0.6557c-0.0358 0.0127-0.0747 0.0185-0.115 0.0159-0.1582-0.0106-0.2779-0.1474-0.2674-0.3056 0.0875-1.29 0.1835-2.365 0.7735-3.6195 0.5133-1.0911 1.3972-2.3009 2.9739-3.8827l-1.3087 0.2454-1e-4 -3e-4c-0.0203 0.0038-0.0413 0.0055-0.0628 0.0048-0.1582-0.0056-0.282-0.1384-0.2764-0.2966 0.0287-0.8078 0.1405-1.5753 0.35-2.3097-4.4067 2.5294-8.5542 4.2834-12.276 4.8385-4.0012 0.5969-7.5087-0.1867-10.317-2.8686-0.0041-0.0039-0.0081-8e-3 -0.0119-0.012-1.1629-1.2213-1.8117-2.5874-2.0273-4.0757-0.213-1.4704 0-3.0543 0.5594-4.7306 0.3733-1.7889 0.1543-3.0297-0.3526-3.7659-0.23-0.334-0.5199-0.5615-0.838-0.6858-0.3167-0.1238-0.665-0.1465-1.0131-0.0718-0.6708 0.1441-1.3395 0.6481-1.7953 1.4895l-1.8182 4.3357c-0.0576 0.1373-0.2095 0.2064-0.3489 0.1638-0.2061-0.0522-0.415-0.1113-0.6243-0.1731-0.788 0.7136-1.3583 1.4893-1.6638 2.3409-0.3176 0.8858-0.3507 1.8632-0.0462 2.9492 0.0428 0.1526-0.0462 0.311-0.1988 0.3538s-0.3111-0.0462-0.3539-0.1988c-0.338-1.2056-0.2984-2.2989 0.0597-3.2974 0.3054-0.8514 0.8411-1.627 1.5699-2.3391-1.0387-0.3154-2.0318-0.5915-3.0283-0.3421-1.9255 1.0923-3.2121 2.8309-4.033 5.0406-0.3773 1.0154-0.6566 2.1305-0.8549 3.3282-0.0011 0.0088-0.0025 0.0175-0.0043 0.026-0.2384 1.4502-0.3582 3.0211-0.3884 4.6832-0.0025 0.1582-0.1327 0.2844-0.2909 0.2819-0.1582-0.0024-0.2845-0.1327-0.282-0.2909 0.0286-1.5737 0.1367-3.0694 0.3482-4.4635-1.9349-0.0724-3.5178 0.2525-4.7002 0.8217-0.2405 0.1158-0.4633 0.241-0.6681 0.3742-0.2044 0.133-0.3919 0.2744-0.5617 0.4228l-1e-4 -1e-4 -1e-4 1e-4c-0.1185 0.1048-0.2996 0.0938-0.4044-0.0247-0.1049-0.1185-0.0938-0.2996 0.0247-0.4044l0.0013-0.0012 0.0011-1e-3v-1e-4c0.1906-0.1665 0.3998-0.3245 0.6269-0.4722 0.2268-0.1476 0.4707-0.2848 0.731-0.4101 1.2765-0.6145 2.9767-0.9627 5.0429-0.8755 0.2013-1.1428 0.4771-2.2123 0.842-3.1944 0.8081-2.1751 2.0499-3.9219 3.8756-5.0921-2.084-1.0888-4.104-2.0137-5.91-2.3928-1.8527-0.3889-3.4833-0.2009-4.7274 0.9903-0.4355 1.5589 0.148 2.2123 1.1384 2.5038 0.731 0.2151 1.6837 0.2589 2.6363 0.3025 1.2585 0.0577 2.517 0.1155 3.3804 0.5638 0.1338 0.069 0.1903 0.2284 0.1335 0.365l2e-4 1e-4 -0.6998 1.6795c-0.0388 0.0935-0.1214 0.1556-0.2142 0.1724-0.416 0.1067-0.7305 0.1851-1.0476 0.264-1.8656 0.4643-3.7995 0.9457-5.2242 1.6878-1.8795 0.979-2.8573 2.4488-1.5018 5.0511 0.04 0.077 0.0417 0.1637 0.012 0.2385-0.7829 2.122-0.4401 3.3796 0.7813 3.9623 1.3152 0.6274 3.6056 0.5583 6.5967-0.0114 0.0725-0.0136 0.1437 0.0013 0.2022 0.037 0.0446 0.0248 0.0827 0.0459 0.1142 0.0631 0.4108 0.2246 0.8339 0.4354 1.2672 0.6322 0.4293 0.195 0.8649 0.3741 1.3047 0.537 2.2334 0.8274 4.5801 1.2426 6.8218 1.2455 0.0765 0 0.1461 0.0299 0.1974 0.0788l3e-4 -2e-4c0.6735 0.641 1.3032 1.3605 1.9574 2.1081 2.0661 2.3609 4.3834 5.009 9.1125 6.2198 0.1532 0.0391 0.2457 0.195 0.2067 0.3483-0.0114 0.0446-0.0328 0.0839-0.061 0.1165l3e-4 3e-4 -1.5671 1.8082c1.016 0.4319 2.0327 0.6474 3.0494 0.7189 1.1445 0.0805 2.29-0.0197 3.4356-0.1986 0.7001-0.1092 0.9985 0.0322 1.044 0.3237 0.0612 0.3923-0.6505 0.9417-1.2622 1.4138-0.2085 0.161-0.402 0.2821-0.5228 0.3615 0.9892 0.4777 2.7871 0.4494 4.0519 0.2351 0.3837-0.065 0.7131-0.1464 0.9505-0.2351 0.1718-0.0642 0.2737-0.1078 0.2778-0.1213 0.0029-0.0093 6e-3 -0.0066 0.0091 0.0028l0.141 0.0439 0.3648-0.1987 0.7758 1.4223c1.21 0.2462 2.4409 0.2814 3.6926 0.1057 1.3004-0.1826 2.6255-0.5929 3.9751-1.2306 0.1433-0.0676 0.3143-0.0063 0.3819 0.137 0.0327 0.0692 0.0352 0.1448 0.013 0.2122l5e-4 2e-4c-0.621 1.8817-1.173 4.0538-1.2594 6.3811-0.0862 2.3202 0.2887 4.802 1.5173 7.3164l2e-4 3e-4 5e-4 0.0011 3e-4 6e-4c2e-3 0.0041 0.0038 0.0083 0.0057 0.0125l6e-4 0.0016c0.0016 0.0036 0.0031 0.0073 0.0045 0.011l0.0013 0.0039 7e-4 0.0017 8e-4 0.0026 0.0014 0.0041 3e-4 1e-3c0.0079 0.0248 0.0123 0.0501 0.0133 0.0753 0.4312 7.1437 1.978 13.21 4.7285 18.392 2.7329 5.149 6.6567 9.4295 11.858 13.033 3.5084 0.6102 7.0169 1.2204 10.525 1.8304l0.9782 0.1701c-1.7065-1.1046-3.3448-2.3925-4.8558-3.8113-2.4664-2.3159-4.5976-4.9821-6.1368-7.7639-1.5449-2.7921-2.4928-5.7017-2.5855-8.4935-0.138-4.1549 1.6068-8.0368 6.0737-10.876-0.4677-0.0379-0.9063-0.1172-1.3083-0.2317-0.7103-0.2023-1.3117-0.5163-1.764-0.9107zm-51.475-37.224c-0.152 0.044-0.311-0.0435-0.355-0.1955s0.0435-0.3109 0.1955-0.3549c1.4132-0.4134 2.6984-0.489 3.7786-0.0246 1.0891 0.4682 1.9492 1.4712 2.4942 3.2088 0.0471 0.1513-0.0373 0.3123-0.1887 0.3594-0.1514 0.0472-0.3123-0.0373-0.3595-0.1887-0.4891-1.5593-1.2369-2.4491-2.1729-2.8515-0.9448-0.4062-2.1021-0.3304-3.3922 0.047z"/>
 <path class="fil4 str0" d="m95.646 118.56c0.5307-0.4839 1.1673-0.7088 1.7841-0.5595l0.0014 3e-4c0.6161 0.1497 1.0789 0.6413 1.329 1.3148 0.2362 0.6365 0.2827 1.4422 0.0831 2.2662l-3e-4 0.0011-2e-4 1e-3c-0.2003 0.825-0.6106 1.5203-1.1117 1.9775-0.5306 0.4841-1.1672 0.7089-1.7837 0.5597l-0.0014-4e-4c-0.6164-0.1498-1.0793-0.6413-1.3294-1.3149-0.2363-0.6365-0.2826-1.4424-0.083-2.2666l3e-4 -1e-3 2e-4 -0.0011c0.2002-0.8247 0.6104-1.5199 1.1116-1.9771z"/>
 <path class="fil2 str0" d="m97.295 118.56c-0.4186-0.1013-0.8706 0.0693-1.2627 0.427-0.4216 0.3845-0.7685 0.9773-0.9409 1.6872l-2e-4 0.0011-3e-4 0.0011c-0.1722 0.7111-0.1356 1.3973 0.0628 1.9317 0.1846 0.4974 0.5083 0.8559 0.9272 0.9577l0.0014 4e-4c0.4185 0.1012 0.8703-0.0694 1.2624-0.4271 0.4215-0.3845 0.7685-0.9775 0.9409-1.6877l3e-4 -0.0011 2e-4 -1e-3c0.1722-0.7109 0.1356-1.397-0.0628-1.9314-0.1846-0.4973-0.5082-0.8558-0.9268-0.9576l-0.0015-3e-4z"/>
 <path class="fil4 str0" d="m121.02 124.93c0.5907-0.4804 1.3041-0.6949 2.0016-0.531 0.0044 8e-4 0.0088 0.0017 0.0132 0.0028 1.0009 0.2415 1.6782 1.1957 1.8127 2.3732 0.0254 0.222 0.0313 0.4528 0.0164 0.6888-0.0145 0.2289-0.0495 0.4643-0.1064 0.7029-8e-4 0.0039-0.0015 0.0078-0.0025 0.0117l-2e-4 1e-3c-0.3016 1.2492-1.1297 2.1982-2.0734 2.5164-0.1904 0.0642-0.3857 0.1032-0.5828 0.1144-0.1942 0.0109-0.3908-0.0054-0.5866-0.0516-0.0041-8e-4 -0.0081-0.0017-0.0122-0.0027-0.7016-0.1696-1.2431-0.6879-1.5512-1.3886-0.2968-0.6752-0.3764-1.5245-0.1682-2.3879l2e-4 -9e-4 3e-4 -1e-3c0.2083-0.8626 0.6667-1.5819 1.2391-2.0475z"/>
 <path class="fil2 str0" d="m122.89 124.96c-0.5148-0.12-1.0531 0.0482-1.5084 0.4185-0.4797 0.3901-0.8655 1.0001-1.0436 1.7374l-2e-4 1e-3 -3e-4 9e-4c-0.1776 0.7366-0.1123 1.4552 0.1368 2.0217 0.2378 0.5408 0.6434 0.9378 1.1602 1.0628l0.0105 0.0028c0.139 0.0324 0.2805 0.0437 0.4221 0.0357 0.1453-0.0082 0.2903-0.0372 0.4322-0.0851 0.7657-0.2582 1.4434-1.0524 1.6982-2.1075l2e-4 -1e-3c8e-4 -0.0035 0.0017-7e-3 0.0027-0.0105 0.048-0.202 0.0778-0.4048 0.0905-0.6053 0.0127-0.2007 0.0075-0.3976-0.0142-0.5877-0.1075-0.9421-0.6224-1.6991-1.3768-1.8811l-0.0099-0.0026z"/>
 <path class="fil4 str0" d="m93.568 132.9h-3e-4v-0.0011c-0.059 0-0.1107 0.0181-0.1463 0.0473-0.0195 0.0159-0.0315 0.0324-0.0315 0.0457h0.0011v3e-4 2e-4h-0.0011c0 0.0136 0.0121 0.0303 0.0315 0.0463 0.0357 0.0291 0.0872 0.0472 0.1461 0.0472v-0.0011h5e-4 2e-4v0.0011c0.0588 0 0.1104-0.0181 0.146-0.0473 0.0194-0.0159 0.0314-0.0325 0.0314-0.046h-0.0011v-4e-4 -2e-4h0.0011c0-0.0134-0.0121-0.03-0.0315-0.0459-0.0356-0.0291-0.087-0.0472-0.1456-0.0472v0.0011h-5e-4z"/>
 <path class="fil4 str0" d="m96.016 133.6v-0.0011h2e-4 4e-4v0.0011c0.2314 2e-4 0.4402 0.0933 0.5907 0.2437l-6e-4 6e-4 6e-4 6e-4c0.1505 0.1505 0.2437 0.3592 0.2438 0.5899h0.0011v2e-4 4e-4h-0.0011c-2e-4 0.2307-0.0932 0.4393-0.2437 0.5898-0.1511 0.1513-0.3601 0.245-0.591 0.2451v0.0011h-2e-4 -4e-4v-0.0011c-0.2309-2e-4 -0.4394-0.0933-0.59-0.2438-0.1514-0.1513-0.245-0.3603-0.2451-0.5913h-0.0011v-2e-4 -4e-4h0.0011c2e-4 -0.2315 0.0934-0.4403 0.2438-0.5907l6e-4 6e-4 6e-4 -6e-4c0.1506-0.1506 0.3593-0.2438 0.5903-0.2439z"/>
 <path class="fil4 str0" d="m96.016 134.17h-2e-4v-0.0011c-0.0719 0-0.1375 0.0295-0.1854 0.0771l6e-4 5e-4c-0.0479 0.0479-0.0775 0.113-0.0776 0.1841h0.0012v4e-4 2e-4h-0.0012c0 0.0721 0.0293 0.1374 0.0766 0.1846 0.0479 0.0479 0.1135 0.0775 0.1856 0.0775v-0.0011h4e-4 2e-4v0.0011c0.0719 0 0.1372-0.0292 0.1844-0.0765 0.0477-0.0478 0.0773-0.1134 0.0774-0.1854h-0.0012v-4e-4 -2e-4h0.0012c0-0.0717-0.0295-0.1372-0.077-0.185l-6e-4 6e-4c-0.0478-0.0478-0.113-0.0775-0.184-0.0775v0.0011h-4e-4z"/>
 <path class="fil4 str0" d="m105.51 137.98v-0.0011h2e-4 7e-4v0.0011c0.2244 1e-4 0.431 0.0676 0.5833 0.1764 0.1811 0.1293 0.2932 0.3168 0.2933 0.5318h0.0012v2e-4 3e-4h-0.0012c-2e-4 0.215-0.1122 0.4025-0.2931 0.5318-0.1525 0.109-0.3592 0.1765-0.5839 0.1765v0.0012h-3e-4 -6e-4v-0.0012c-0.2246-1e-4 -0.4312-0.0675-0.5836-0.1764-0.1811-0.1293-0.2932-0.317-0.2933-0.532h-0.0011v-2e-4 -3e-4h0.0011c2e-4 -0.2148 0.1122-0.4024 0.2932-0.5316 0.1525-0.1089 0.3593-0.1765 0.5841-0.1765z"/>
 <path class="fil4 str0" d="m105.51 138.56h-2e-4v-0.0011c-0.1016 0-0.1904 0.0271-0.2516 0.0709-0.0326 0.0233-0.0528 0.0466-0.0528 0.0643h0.0011v3e-4 2e-4h-0.0011c0 0.0179 0.0202 0.0413 0.0529 0.0647 0.0612 0.0437 0.1498 0.0708 0.2511 0.0708v-0.0011h6e-4 3e-4v0.0011c0.1014 0 0.1901-0.0271 0.2514-0.0709 0.0325-0.0233 0.0527-0.0467 0.0527-0.0645h-0.0011v-3e-4 -2e-4h0.0011c0-0.0178-0.0202-0.0412-0.0529-0.0645-0.0611-0.0437-0.1496-0.0707-0.2508-0.0708v0.0011h-7e-4z"/>
 <path class="fil4 str0" d="m103.61 135.12v-0.0011h2e-4 5e-4v0.0011c0.1781 2e-4 0.3405 0.0654 0.459 0.1708 0.1276 0.1134 0.2066 0.2735 0.2067 0.4532h0.0011v2e-4 3e-4h-0.0011c-2e-4 0.1797-0.0792 0.3396-0.2066 0.453-0.1186 0.1054-0.2811 0.1707-0.4593 0.1708v0.0011h-3e-4 -5e-4v-0.0011c-0.1782-2e-4 -0.3407-0.0654-0.4593-0.1708-0.1276-0.1134-0.2066-0.2735-0.2067-0.4531h-0.0011v-2e-4 -4e-4h0.0011c2e-4 -0.1796 0.0791-0.3396 0.2067-0.4529 0.1186-0.1055 0.2812-0.1708 0.4596-0.1709z"/>
 <path class="fil4 str0" d="m103.61 135.69h-2e-4v-0.0012c-0.0315 0-0.0589 0.0104-0.0777 0.0271-0.0097 0.0086-0.0157 0.0173-0.0157 0.0238h0.0011v4e-4 2e-4h-0.0011c0 0.0066 0.0061 0.0154 0.0158 0.024 0.0187 0.0166 0.046 0.027 0.0773 0.027v-0.0011h5e-4 3e-4v0.0011c0.0312 0 0.0585-0.0104 0.0773-0.0271 0.0097-0.0086 0.0157-0.0172 0.0157-0.0238h-0.0011v-3e-4 -2e-4h0.0011c0-0.0067-0.0061-0.0154-0.0158-0.0241-0.0187-0.0166-0.0459-0.0269-0.077-0.027v0.0012h-5e-4z"/>
 <path class="fil4 str0" d="m94.91 131.16c4e-3 0.0561-0.0084 0.1139-0.0392 0.1659-0.0021 0.0037-0.0045 0.0074-0.0068 0.011 0.0021 2e-3 0.0044 0.0039 0.0067 0.0058 0.0424 0.0353 0.1041 0.0572 0.1748 0.0573v-0.0011h5e-4 3e-4v0.0011c0.0705-1e-4 0.1321-0.022 0.1746-0.0574 0.0277-0.0231 0.0449-0.051 0.0449-0.0779h-0.0011v-3e-4 -2e-4h0.0011c0-0.0271-0.0172-0.0551-0.045-0.0782-0.0424-0.0353-0.1039-0.0572-0.1742-0.0573v0.0011h-6e-4 -2e-4v-0.0011c-0.0513 0-0.0979 0.0116-0.1358 0.0313z"/>
 <path class="fil5 str0" d="m101.55 128.64l-0.0014-4e-4 1e-4 -5e-4 -9e-4 -3e-4 -0.0014-3e-4c-0.9704-0.2691-1.8734-0.2204-2.3609 0.0772-0.0795 0.0486-0.1458 0.1037-0.1963 0.1647-0.0459 0.0553-0.0787 0.115-0.0963 0.1783l-1e-4 6e-4c-0.1108 0.4 0.3132 0.9082 1.0209 1.3059 0.1547 0.0869 0.3171 0.1657 0.4847 0.2342 0.1666 0.0681 0.3451 0.1296 0.5339 0.1826 0.0063 0.0014 0.0127 0.0029 0.019 0.0047l0.0012 3e-4 -1e-4 6e-4 0.0019 5e-4c0.681 0.1882 1.3316 0.2182 1.8331 0.1147 0.4374-0.0904 0.7441-0.2763 0.8164-0.5362l3e-4 -0.0012c0.0719-0.26-0.0955-0.5774-0.4242-0.8804-0.3744-0.345-0.9425-0.6525-1.6168-0.8418-0.0044-1e-3 -0.0087-0.0021-0.0131-0.0032z"/>
 <path class="fil4 str0" d="m101.7 128.09l0.0014 3e-4c0.0066 0.0018 0.013 0.0038 0.0194 6e-3 0.7638 0.2145 1.4148 0.5697 1.8509 0.9716 0.4878 0.4496 0.7224 0.9703 0.5882 1.4555l-3e-4 0.0013c-0.1349 0.4851-0.6045 0.8108-1.2545 0.9451-0.5846 0.1207-1.3308 0.089-2.1004-0.1237l-0.0041-0.0011-2e-3 -6e-4 -2e-4 6e-4 -0.0012-4e-4c-0.0057-0.0016-0.0113-0.0033-0.0168-0.0052-0.2052-0.0577-0.4041-0.1266-0.5946-0.2044-0.2001-0.0819-0.3841-0.1704-0.5498-0.2635-0.9396-0.528-1.4795-1.2859-1.2928-1.9597l2e-4 -6e-4c0.0404-0.1454 0.1105-0.2762 0.2063-0.3917 0.091-0.1098 0.2056-0.2061 0.3401-0.2883 0.6123-0.3739 1.6892-0.451 2.8101-0.1407l1e-4 -5e-4z"/>
 <path class="fil0 str0" d="m103.28 127.71c-0.158-0.0556-0.3255-0.1102-0.5022-0.1634-2.1528-0.6491-4.2127-0.6049-5.3753 0.0078-0.2112 0.1112-0.39 0.2408-0.5307 0.3874-0.1326 0.1381-0.2317 0.2927-0.2924 0.4625l-0.0029 0.0083-2e-4 5e-4c-5e-3 0.0144-0.01 0.0298-0.015 0.0463-0.1801 0.5976 0.1354 1.3012 0.8031 1.9734 0.7142 0.719 1.817 1.3871 3.1547 1.8578 0.1579 0.0556 0.3255 0.1102 0.5022 0.1635 2.1531 0.649 4.2131 0.6049 5.3758-0.0078 0.2112-0.1113 0.39-0.2408 0.5307-0.3874 0.1323-0.1379 0.2314-0.2921 0.2921-0.4617l0.0031-9e-3 2e-4 -5e-4 3e-4 1e-4c0.0027-0.0084 0.0077-0.0242 0.0147-0.0475h3e-4c0.1795-0.5973-0.1361-1.3004-0.8035-1.9723-0.7142-0.7191-1.8172-1.3872-3.155-1.858zm-1.5845 0.3817l0.0014 3e-4c0.0066 0.0018 0.013 0.0038 0.0194 6e-3 0.7638 0.2145 1.4148 0.5697 1.8509 0.9716 0.4878 0.4496 0.7224 0.9703 0.5882 1.4555l-3e-4 0.0013c-0.1349 0.4851-0.6045 0.8108-1.2545 0.9451-0.5846 0.1207-1.3308 0.089-2.1004-0.1237l-0.0041-0.0011-2e-3 -6e-4 -2e-4 6e-4 -0.0012-4e-4c-0.0057-0.0016-0.0113-0.0033-0.0168-0.0052-0.2052-0.0577-0.4041-0.1266-0.5946-0.2044-0.2001-0.0819-0.3841-0.1704-0.5498-0.2635-0.9396-0.528-1.4795-1.2859-1.2928-1.9597l2e-4 -6e-4c0.0404-0.1454 0.1105-0.2762 0.2063-0.3917 0.091-0.1098 0.2056-0.2061 0.3401-0.2883 0.6123-0.3739 1.6892-0.451 2.8101-0.1407l1e-4 -5e-4z"/>
 <path class="fil2 str0" d="m90.843 122.3c0.749 0.3777 1.5331 0.8871 2.3191 1.5579-0.1374-2.8706 0.8043-5.1275 2.1894-6.5684 0.7095-0.7381 1.5372-1.2635 2.3987-1.5498 0.8702-0.2891 1.7737-0.3341 2.6254-0.1083 1.0419 0.2763 2.0017 0.954 2.7227 2.0807 0.1521-1.8405-0.135-3.3291-0.7125-4.4608-0.7247-1.4199-1.9106-2.2712-3.2492-2.5412-1.0669-0.2152-2.234-0.064-3.3469 0.4593-0.0553 0.082-0.151 0.1318-0.2537 0.1262-0.2082 0.1094-0.414 0.2319-0.6166 0.368-2.4211 1.626-4.3517 5.1447-4.0764 10.636z"/>
 <path class="fil0 str0" d="m119.05 131.61c1.3789-0.0692 2.6943 0.0522 3.9516 0.3581 1.0272 0.25 2.0145 0.6227 2.9648 1.1148 0.0163-7e-4 0.0334-0.0013 0.0511-0.0017 1.9327-4.1946 2.5712-7.5538 2.3748-10.1-0.798-0.871-1.6262-1.392-2.443-1.6096-0.9408-0.2506-1.8752-0.1-2.7358 0.3795-0.0064 0.0043-0.0129 0.0083-0.0197 0.0121-0.8874 0.5003-1.6996 1.3489-2.3658 2.4695-1.0971 1.8454-1.792 4.4145-1.778 7.3777zm1.9741-6.6852c0.5907-0.4804 1.3041-0.6949 2.0016-0.531 0.0044 8e-4 0.0088 0.0017 0.0132 0.0028 1.0009 0.2415 1.6782 1.1957 1.8127 2.3732 0.0254 0.222 0.0313 0.4528 0.0164 0.6888-0.0145 0.2289-0.0495 0.4643-0.1064 0.7029-8e-4 0.0039-0.0015 0.0078-0.0025 0.0117l-2e-4 1e-3c-0.3016 1.2492-1.1297 2.1982-2.0734 2.5164-0.1904 0.0642-0.3857 0.1032-0.5828 0.1144-0.1942 0.0109-0.3908-0.0054-0.5866-0.0516-0.0041-8e-4 -0.0081-0.0017-0.0122-0.0027-0.7016-0.1696-1.2431-0.6879-1.5512-1.3886-0.2968-0.6752-0.3764-1.5245-0.1682-2.3879l2e-4 -9e-4 3e-4 -1e-3c0.2083-0.8626 0.6667-1.5819 1.2391-2.0475z"/>
 <path class="fil2 str0" d="m116.05 132.04c0.8279-0.191 1.6346-0.3202 2.4208-0.3887-0.0206-3.0882 0.7064-5.7746 1.8565-7.7092 0.7182-1.208 1.6036-2.1284 2.5792-2.6784 0.0072-4e-3 0.0144-0.0076 0.0218-0.011 0.9909-0.5524 2.0703-0.725 3.1607-0.4345 0.7354 0.1959 1.4719 0.602 2.1844 1.2435-0.0888-0.5216-0.2161-1.0032-0.3769-1.4448-0.0251-0.0373-0.0409-0.0799-0.0465-0.1239-0.0805-0.2095-0.1686-0.4099-0.2641-0.6009-0.0352-0.0381-0.0597-0.0854-0.0703-0.1368-0.045-0.0849-0.0913-0.1678-0.1391-0.2488-0.942-1.5966-2.4305-2.4422-4.0358-2.5529-1.6203-0.1117-3.3635 0.5198-4.7956 1.8778-2.4453 2.3189-3.9784 6.7444-2.4951 13.209z"/>
 <path class="fil6 str0" d="m108.52 140.96c-1.4628 0.4343-2.7929 0.5206-3.9948 0.298-1.9537-0.362-3.5551-1.5337-4.8271-3.3492-0.1606-0.2292-0.3155-0.4675-0.4645-0.7149-0.294 0.7079-0.7866 1.1741-1.3948 1.419 0.1711 0.1988 0.4464 0.4406 0.7143 0.6762 0.456 0.4008 0.8946 0.7863 0.9553 1.1407l-3e-4 1e-4 3e-4 0.0021 4e-4 0.0025c0.116 0.7138 0.0363 1.3948-0.0368 2.0191-0.0785 0.6709-0.1487 1.2701 0.0627 1.6826 0.4052 0.7905 0.9344 1.324 1.5408 1.6182 0.4595 0.2229 0.9679 0.3103 1.504 0.2697 0.5489-0.0415 1.1264-0.2161 1.7108-0.5156 1.486-0.7618 3.0082-2.3191 4.2297-4.5485z"/>
 <path class="fil2 str0" d="m85.996 131.37c-0.2354 1.2096-0.1955 2.589 0.1455 3.9666 0.8339 3.3688 3.4696 6.7164 8.2829 7.5374 0.1119 0.0146 0.2095 0.095 0.2404 0.2108 0.1709 0.6314 0.4004 1.2302 0.6827 1.7875 0.8099 1.5994 2.0556 2.8641 3.6015 3.5911s3.3978 0.9179 5.4214 0.3702c0.6871-0.186 1.3936-0.457 2.1143-0.8206 0.0618-0.0366 0.1374-0.0502 0.2129-0.0323 8.116 1.9327 13.413 0.5295 16.186-2.0685-2.806-1.5045-6.5849-3.4679-11.722-6.0527-0.6416 0.3359-1.2619 0.6135-1.861 0.835-1.3201 2.6204-3.0542 4.449-4.755 5.3208-0.6546 0.3355-1.3057 0.5314-1.9287 0.5786-0.6358 0.0481-1.2428-0.0575-1.7961-0.3259-0.7167-0.3478-1.3358-0.9661-1.8014-1.8744-0.2918-0.5695-0.2123-1.2483-0.1234-2.0084 0.0689-0.5882 0.1439-1.2299 0.0413-1.8617v-3e-4h-4e-4c-0.0262-0.1532-0.3903-0.4732-0.7688-0.8059-0.3534-0.3107-0.7174-0.6305-0.9195-0.9456-0.4645 0.076-0.9684 0.0447-1.4835-0.0864-0.6505-0.1656-1.3236-0.4918-1.9586-0.9631-1.4596-1.0833-2.7231-2.9417-3.0412-5.3814-1.8345-0.45-3.4101-0.7603-4.77-0.9708z"/>
 <path class="fil2 str0" d="m103.03 126.88c-0.9802-0.3037-2.0033-0.4315-3.0721-0.3721 0.9276 0.0173 1.9493 0.1753 2.9845 0.4874 0.1728 0.0521 0.3487 0.1097 0.5268 0.1724 1.4214 0.5001 2.6011 1.2179 3.373 1.995 0.8183 0.8238 1.1927 1.7268 0.947 2.5418l-3e-4 0.0011h3e-4c-0.0041 0.0137-0.0126 0.0386-0.0251 0.0744l-6e-4 0.0015 4e-4 1e-4 -1e-3 0.0029-2e-4 5e-4 -0.0013 0.0035c-0.0883 0.2474-0.2306 0.4701-0.4197 0.6672-0.184 0.1916-0.4119 0.3579-0.6768 0.4975-1.2859 0.6776-3.5133 0.7419-5.8072 0.0504-0.1728-0.0521-0.3488-0.1098-0.5268-0.1724-1.4213-0.5002-2.6008-1.2178-3.3726-1.9949-0.8183-0.8238-1.1926-1.7269-0.9469-2.5418 0.0073-0.0244 0.0157-0.05 0.0251-0.0766l3e-4 -9e-4 9e-4 -0.0025h-1e-4l2e-4 -6e-4 0.0013-0.0032c0.0882-0.2474 0.2305-0.4703 0.4197-0.6674 0.1559-0.1624 0.3433-0.3066 0.558-0.4317-0.3267 0.1133-0.6573 0.2424-0.9919 0.3877-0.0181 0.0228-0.0401 0.043-0.0657 0.06-0.0538 0.0356-0.1152 0.0507-0.175 0.0472-0.6465 0.2942-1.3074 0.6482-1.9836 1.0641 0.1389 0.1156 0.2774 0.2323 0.415 0.3506l1e-3 9e-4c0.1204 0.1029 0.1345 0.284 0.0315 0.4044-0.103 0.1203-0.284 0.1344-0.4044 0.0314l-1e-3 -8e-4c-0.5091-0.4376-1.0276-0.8559-1.5498-1.2553-1.397-0.6686-2.5847-0.7757-3.5425-0.48 1.7276 0.8127 3.6366 1.8124 5.7305 3.0436 0.0068-0.0061 0.0138-0.0122 0.0209-0.0181 0.1407-0.1173 0.3323-0.1899 0.5414-0.1899v-0.0011h2e-4 6e-4v0.0011c0.2085 1e-4 0.3998 0.0727 0.5404 0.1899 0.1553 0.1294 0.2516 0.3125 0.2517 0.5185h0.0011v2e-4 3e-4h-0.0011c-2e-4 0.2057-0.0963 0.3888-0.2516 0.5182-0.1406 0.1173-0.3321 0.1899-0.5408 0.19v0.0011h-3e-4 -5e-4v-0.0011c-0.2089-1e-4 -0.4003-0.0727-0.541-0.1899-0.1479-0.1232-0.2422-0.2948-0.2511-0.4885-2.2881-1.348-4.3526-2.417-6.1984-3.2659-0.0187 0.011-0.0371 0.0221-0.0555 0.0334-0.8997 0.5551-1.5339 1.5389-1.8712 2.7453 1.3169 0.2054 2.8307 0.5028 4.5794 0.9266-0.0218-0.3436-0.0249-0.6976-0.0077-1.0616 0.0074-0.1582 0.1417-0.2804 0.2999-0.273 0.1582 0.0075 0.2805 0.1418 0.273 0.3-0.0192 0.4067-0.0113 0.8 0.0207 1.1791 0.6206 0.1557 1.2698 0.327 1.9488 0.5151 0.0984-0.0415 0.2093-0.065 0.326-0.065v-0.0012h3e-4 5e-4v0.0012c0.1971 1e-4 0.3774 0.0671 0.5096 0.1753 0.1484 0.1214 0.2403 0.2947 0.2404 0.4907h0.0012v2e-4 4e-4h-0.0012c-2e-4 0.1961-0.092 0.3693-0.2403 0.4908-0.1322 0.1083-0.3127 0.1753-0.51 0.1754v0.0012h-2e-4 -5e-4v-0.0012c-0.1973-1e-4 -0.3778-0.0671-0.51-0.1753-0.1485-0.1215-0.2405-0.2948-0.2406-0.4911h-0.0011v-2e-4 -3e-4h0.0011c1e-4 -0.0411 0.0041-0.0811 0.0119-0.1199-0.5043-0.1381-0.9916-0.2667-1.4623-0.3862 0.3415 2.1592 1.4768 3.8025 2.7816 4.7709 0.5725 0.4249 1.1768 0.7184 1.7586 0.8665 0.4242 0.108 0.8337 0.1381 1.2064 0.0847 0.042-0.0954 0.1348-0.1645 0.246-0.171 0.0733-0.0044 0.1417 0.0193 0.195 0.0616 0.6356-0.2322 1.1223-0.7781 1.3107-1.678 0.0136-0.0854 0.0655-0.1638 0.1476-0.2079 0.1396-0.0751 0.3136-0.0228 0.3887 0.1168 0.2405 0.447 0.4943 0.8621 0.7614 1.2433 1.1849 1.6911 2.6654 2.7806 4.4608 3.1132 1.258 0.2331 2.6773 0.0978 4.2658-0.4579l0.0134-0.0275c0.0688-0.1426 0.2404-0.2025 0.3831-0.1336 0.0056 0.0027 0.011 0.0056 0.0163 0.0086 0.3975-0.1544 0.8051-0.3344 1.2232-0.5409-0.9633-0.4838-1.9711-0.9881-3.0298-1.5155-0.1421-0.0707-0.1999-0.2432-0.1292-0.3853 0.0707-0.142 0.2432-0.1999 0.3853-0.1291 1.1953 0.5954 2.3288 1.1627 3.4034 1.7031 0.7165-0.3896 1.4589-0.8518 2.2274-1.3903 0.1296-0.0905 0.3082-0.0589 0.3988 0.0708 0.0905 0.1296 0.0588 0.3082-0.0708 0.3988-0.6671 0.4674-1.3123 0.8776-1.9358 1.2327 5.0478 2.5431 8.7658 4.4778 11.53 5.9627 1.2528-1.3602 1.8751-2.9905 1.902-4.6158 0.0053-0.3204-0.0125-0.6407-0.0532-0.9588-4.5146-1.3738-9.832-2.5437-15.884-3.1095-0.0431 0.0817-0.1031 0.1548-0.1764 0.2158-0.1406 0.1173-0.3321 0.19-0.541 0.19v0.0011h-2e-4 -6e-4v-0.0011c-0.2087-1e-4 -0.4001-0.0727-0.5408-0.1899-0.1553-0.1295-0.2515-0.3126-0.2516-0.5184h-0.0011v-2e-4 -4e-4h0.0011c2e-4 -0.2057 0.0963-0.3887 0.2516-0.5181 0.1406-0.1173 0.3322-0.19 0.5411-0.19v-0.0011h3e-4 5e-4v0.0011c0.2087 1e-4 0.4001 0.0727 0.5406 0.1899 0.0821 0.0684 0.1476 0.1518 0.1912 0.2456 5.9866 0.5568 11.261 1.7009 15.757 3.0511-0.2012-0.8909-0.5841-1.753-1.1429-2.5383-4.2271-0.6932-9.355-1.2825-15.616-1.6416-0.1582-0.0087-0.2794-0.144-0.2707-0.3022s0.144-0.2794 0.3022-0.2708c5.9773 0.3429 10.927 0.8948 15.05 1.5468-0.0276-0.0307-0.0553-0.0614-0.0835-0.0918-2.2734-2.4519-6.51-3.8529-12.487-2.4096-0.1193 0.0353-0.2523-0.0104-0.3228-0.1203-2.198-3.4298-4.6575-5.7084-7.4386-6.5701zm0.5815 8.2359v-0.0011h2e-4 5e-4v0.0011c0.1781 2e-4 0.3405 0.0654 0.459 0.1708 0.1276 0.1134 0.2066 0.2735 0.2067 0.4532h0.0011v2e-4 3e-4h-0.0011c-2e-4 0.1797-0.0792 0.3396-0.2066 0.453-0.1186 0.1054-0.2811 0.1707-0.4593 0.1708v0.0011h-3e-4 -5e-4v-0.0011c-0.1782-2e-4 -0.3407-0.0654-0.4593-0.1708-0.1276-0.1134-0.2066-0.2735-0.2067-0.4531h-0.0011v-2e-4 -4e-4h0.0011c2e-4 -0.1796 0.0791-0.3396 0.2067-0.4529 0.1186-0.1055 0.2812-0.1708 0.4596-0.1709zm-7.5975-1.5195v-0.0011h2e-4 4e-4v0.0011c0.2314 2e-4 0.4402 0.0933 0.5907 0.2437l-6e-4 6e-4 6e-4 6e-4c0.1505 0.1505 0.2437 0.3592 0.2438 0.5899h0.0011v2e-4 4e-4h-0.0011c-2e-4 0.2307-0.0932 0.4393-0.2437 0.5898-0.1511 0.1513-0.3601 0.245-0.591 0.2451v0.0011h-2e-4 -4e-4v-0.0011c-0.2309-2e-4 -0.4394-0.0933-0.59-0.2438-0.1514-0.1513-0.245-0.3603-0.2451-0.5913h-0.0011v-2e-4 -4e-4h0.0011c2e-4 -0.2315 0.0934-0.4403 0.2438-0.5907l6e-4 6e-4 6e-4 -6e-4c0.1506-0.1506 0.3593-0.2438 0.5903-0.2439z"/>
 <path class="fil0 str0" d="m95.889 126.93c1.5659-0.6693 3.0537-0.9993 4.4693-1.015 1.487-2.7882 2.3058-5.2021 2.6237-7.2374-0.6638-1.4012-1.6593-2.209-2.7517-2.4986-0.7436-0.1972-1.5351-0.157-2.2997 0.097-0.7731 0.2569-1.52 0.7327-2.1649 1.4037-1.3764 1.4319-2.2801 3.7468-1.9879 6.7212l7e-4 0.0087c0.3153 0.304 0.6293 0.6348 0.9395 0.9942 0.3967 0.4596 0.7885 0.9672 1.171 1.5262zm-0.2431-8.3716c0.5307-0.4839 1.1673-0.7088 1.7841-0.5595l0.0014 3e-4c0.6161 0.1497 1.0789 0.6413 1.329 1.3148 0.2362 0.6365 0.2827 1.4422 0.0831 2.2662l-3e-4 0.0011-2e-4 1e-3c-0.2003 0.825-0.6106 1.5203-1.1117 1.9775-0.5306 0.4841-1.1672 0.7089-1.7837 0.5597l-0.0014-4e-4c-0.6164-0.1498-1.0793-0.6413-1.3294-1.3149-0.2363-0.6365-0.2826-1.4424-0.083-2.2666l3e-4 -1e-3 2e-4 -0.0011c0.2002-0.8247 0.6104-1.5199 1.1116-1.9771z"/>
 <path class="fil2 str0" d="m101.11 102.1c-1.6014 0.4807-3.1834 1.5675-3.453 3.1697l6.4257-1.3694c0.4694-0.6404 0.5844-1.1121 0.4556-1.4327-0.1367-0.3406-0.571-0.5441-1.155-0.6169-0.6494-0.081-1.4617 0.0057-2.2733 0.2493z"/>
 <path class="fil4 str0" d="m97.049 105.6c0.0926-2.0889 1.9841-3.4742 3.8991-4.049 0.8867-0.2662 1.7827-0.3599 2.5069-0.2696 0.7897 0.0984 1.3946 0.4179 1.6179 0.9741 0.2084 0.5189 0.067 1.2122-0.595 2.0787-0.0433 0.0567-0.1038 0.0928-0.1686 0.1066l1e-4 1e-4 -6.9156 1.4738c-0.1551 0.0329-0.3075-0.0662-0.3404-0.2213-0.0067-0.0316-8e-3 -0.063-0.0044-0.0934z"/>
 <path class="fil4 str0" d="m127.87 108.36c1.2759 1.3262 2.0304 3.2914 1.019 5.327-0.0079 0.0178-0.0176 0.035-0.0295 0.0515-0.0924 0.1284-0.2715 0.1575-0.3999 0.0651l-5.6551-4.0716c-0.0685-0.0437-0.1182-0.1161-0.1302-0.2028-0.1812-1.2834 0.1349-2.0875 0.7197-2.5046 0.5645-0.4026 1.3599-0.4217 2.1873-0.1499 0.7864 0.2582 1.6126 0.7824 2.2887 1.4853z"/>
 <path class="fil2 str0" d="m128.51 113.13c0.6701-1.6678 0.0115-3.2692-1.0534-4.3761-0.6109-0.6351-1.3517-1.1068-2.0528-1.3371-0.6601-0.2168-1.2728-0.2172-1.6773 0.0713-0.398 0.2839-0.6133 0.8705-0.4993 1.8383l5.2828 3.8036z"/>
 <path class="fil2 str0" d="m116.15 155.72c-4.7068 0.1202-9.1812-0.4603-13.376-1.7023-0.1274-0.0377-0.2542-0.0766-0.381-0.1155-0.0089 0.1125-0.0841 0.2139-0.1982 0.2505-1.5478 0.5016-2.6965 1.2328-3.5735 2.1204-0.7504 0.7595-1.3055 1.6363-1.7435 2.5837 0.1587-0.05 0.3206-0.1133 0.4825-0.1766 0.7992-0.3128 1.5984-0.6255 2.4433 0.22 0.0987 0.0992 0.1097 0.2524 0.0336 0.3638l2e-4 1e-4c-0.8878 1.2923-1.5532 2.6196-1.9448 3.9903-0.3898 1.3643-0.5087 2.773-0.306 4.2346 0.0217 0.157-0.0879 0.3018-0.2449 0.3235s-0.3018-0.0879-0.3235-0.2449c-0.2144-1.545-0.0893-3.0321 0.3217-4.4705 0.3876-1.3565 1.0292-2.6685 1.8796-3.944-0.5276-0.3774-1.0889-0.1578-1.6503 0.0618-0.376 0.1472-0.7521 0.2944-1.1558 0.3131l-0.0039 2e-4v-1e-4c-0.0403 0.0017-0.0816-0.0049-0.1213-0.0213-0.1464-0.0601-0.2163-0.2276-0.1562-0.3741 0.4951-1.2005 1.1434-2.3134 2.0804-3.2617 0.8864-0.8972 2.0271-1.6434 3.5347-2.1723-3.5852-1.1665-6.958-2.8239-10.088-4.9457-2.9361 1.3823-4.9389 2.7883-6.2233 4.3217-0.5172 0.6174-0.9183 1.2569-1.2176 1.9251l0.0011 0.0018c0.0807 0.1365 0.0354 0.3125-0.1011 0.3932l-0.0822 0.0484c-0.2853 0.761-0.4476 1.5598-0.5067 2.4062l1.8814-0.3528c0.1557-0.0291 0.3056 0.0734 0.3347 0.2292 0.0186 0.0991-0.0163 0.1958-0.0843 0.2606h1e-4c-1.9546 1.8628-2.9779 3.1993-3.5305 4.374-0.4797 1.02-0.6078 1.9356-0.6884 2.9795l1.9662-0.694c0.1495-0.0527 0.3135 0.0257 0.3662 0.1752 0.0219 0.0622 0.021 0.1267 2e-3 0.1848-0.1271 0.4548-0.2086 0.7432-0.2879 1.0239-1.0938 3.8717-1.7101 6.0533-0.6146 8.4563l2.0959-2.3425c0.1055-0.1179 0.2866-0.128 0.4044-0.0225 0.0784 0.0701 0.109 0.1734 0.0898 0.2696h1e-4c-0.6673 3.3131-0.6529 6.1596-0.2024 8.7076 0.4168 2.357 1.2077 4.4607 2.1778 6.4431l1.973-3.4529c0.0787-0.1377 0.2543-0.1854 0.392-0.1067 0.0948 0.0542 0.1469 0.1541 0.1446 0.2561 0.056 1.3217 0.0299 2.4103 0.0077 3.3389-0.0437 1.8245-0.0719 3.0087 0.5958 4.1341l0.9369-2.8109c0.0496-0.1502 0.2116-0.2316 0.3617-0.182 0.1192 0.0394 0.195 0.1495 0.1964 0.2685h2e-4c0.0383 2.4778 0.5611 4.6521 1.4489 6.598 0.8563 1.8769 2.0537 3.5443 3.4846 5.0686 0.2295-0.1564 0.4536-0.3178 0.6706-0.4844 0.2813-0.216 0.5478-0.4374 0.7953-0.6639 1.1736-1.0736 2.0278-2.3335 2.2234-3.7856-0.367-0.5204-0.5193-1.1255-0.4015-1.7724 0.2158-1.1855 1.3612-2.4966 3.8032-3.6279 1.4473-0.7483 2.1145-1.4915 2.2396-2.0805 0.0525-0.2474-0.0016-0.4633-0.1389-0.631-0.1514-0.1848-0.4035-0.3217-0.7295-0.3917-0.9158-0.1968-2.3366 0.1346-3.7775 1.3526l-4e-4 -5e-4c-0.0321 0.0272-0.0707 0.0478-0.1142 0.0589-1.7203 0.4421-2.8893 0.3617-3.6128-0.0416-0.4925-0.2744-0.7824-0.6892-0.9016-1.1899-0.1128-0.4736-0.0669-1.0214 0.1082-1.5937 0.44-1.4385 1.7195-3.0706 3.3325-4.0297 0.0158-0.0105 0.033-0.0195 0.0513-0.0269 1.9449-0.7919 3.8908-1.2187 5.837-1.4112-1.3666-2.5154-1.3585-5.0087-0.6205-6.6215 0.2947-0.644 0.7066-1.1535 1.1969-1.4774 0.5068-0.3348 1.0932-0.4723 1.719-0.3592 1.1889 0.2149 2.5096 1.3557 3.644 3.8154 1.3254 1.8679 2.6617 3.0946 4.009 3.68 0.6508-0.9579 3.4778-5.5034 1.6159-9.7076-0.0213-0.0485-0.0282-0.0998-0.0225-0.1489 0.0302-0.4893 0.2198-0.6844 0.5246-0.6684 0.4473 0.0236 1.082 0.8626 1.7303 1.7194 0.0778 0.103 0.1558 0.2061 0.2329 0.3073 0.0295-0.8848-0.0589-1.7443-0.2855-2.574-0.2878-1.0532-0.7996-2.0628-1.5771-3.0205-0.0252-0.0292-0.0448-0.0639-0.0568-0.103-0.0466-0.1514 0.0385-0.3118 0.1898-0.3584 0.586-0.1799 1.1773-0.0324 1.7724 0.3531 0.3827 0.248 0.7679 0.5965 1.155 1.0196-0.1194-3.2497-1.5333-6.0271-3.2785-8.1948-0.3676-0.4565-0.7501-0.8863-1.1385-1.2879-0.3368-0.3484-0.681-0.6778-1.0259-0.9869z"/>
 <path class="fil3 str0" d="m127.83 154.07c-3.7331 0.9343-7.3592 1.4681-10.86 1.6168 0.2073 0.197 0.4152 0.4027 0.6226 0.6171 0.3994 0.4131 0.7932 0.8556 1.172 1.3261 1.9551 2.4283 3.5099 5.5997 3.4085 9.3426-0.0038 0.1582-0.135 0.2835-0.2932 0.2798-0.0878-0.0021-0.1655-0.0435-0.2166-0.107l-2e-4 2e-4c-0.525-0.6533-1.0388-1.1791-1.5344-1.5001-0.2871-0.186-0.5664-0.3013-0.8359-0.3287 0.6565 0.9005 1.1045 1.8447 1.3726 2.8262 0.3088 1.1301 0.3783 2.3057 0.2531 3.5177-0.0161 0.1575-0.157 0.2722-0.3145 0.2561-0.0824-0.0084-0.153-0.051-0.1994-0.1122l-0.0022-0.0027c-0.2347-0.2866-0.466-0.5924-0.6954-0.8956-0.5174-0.684-1.0249-1.3547-1.2458-1.4739 1.9051 4.3114-0.7831 8.9086-1.592 10.137 1.3049 0.3954 2.6329 0.1892 3.9836-0.6187 1.8751-1.4348 3.2519-3.0157 4.1728-4.7303 0.9203-1.7136 1.3869-3.5638 1.4421-5.538 0.0044-0.1582 0.1362-0.2829 0.2944-0.2786s0.2829 0.1361 0.2786 0.2943c-0.0578 2.0646-0.5462 4.0003-1.5096 5.7942-0.9611 1.7894-2.3934 3.4348-4.3411 4.9231-0.012 0.0091-0.0245 0.0171-0.0373 0.0241-1.6139 0.9674-3.2087 1.1558-4.7844 0.5649-0.0154-0.0058-0.0308-0.0117-0.0462-0.0177l-0.0088-0.0033c-1.5287-0.5913-3.0248-1.9212-4.4886-3.99-0.0105-0.0148-0.0194-0.0303-0.0266-0.0462l-4e-4 1e-4c-1.0475-2.2814-2.2125-3.3283-3.2348-3.5131-0.4721-0.0853-0.916 0.0195-1.301 0.2738-0.4014 0.2652-0.743 0.6918-0.9925 1.2371-0.6948 1.5183-0.6684 3.9126 0.7263 6.3293 1.7456-0.1287 3.4864-0.0797 5.2246 0.0522 0.1582 0.0118 0.2769 0.1496 0.2651 0.3078-0.0117 0.1582-0.1496 0.2769-0.3078 0.2651-1.9137-0.1452-3.8251-0.1893-5.7306-0.0028-1.8923 0.1852-3.7856 0.5985-5.6801 1.3674-1.4909 0.8888-2.6691 2.3851-3.0708 3.6984-0.1455 0.4755-0.1859 0.9213-0.097 1.2948 0.0825 0.3464 0.2822 0.6328 0.6208 0.8215 0.5945 0.3314 1.6015 0.3878 3.1285 0.0039 1.5768-1.3119 3.1677-1.6595 4.2169-1.434 0.4567 0.0981 0.8215 0.3042 1.0552 0.5895 0.2478 0.3024 0.3471 0.684 0.2558 1.114-0.1574 0.741-0.9196 1.636-2.5457 2.4752-0.0038 0.0019-0.0076 0.0037-0.0113 0.0055l1e-4 2e-4c-2.2528 1.0428-3.299 2.1952-3.4837 3.2096-0.0659 0.3621-0.0182 0.7088 0.1259 1.0263 0.0158-0.0019 0.0319-0.0025 0.0483-0.0017 0.1582 0.0081 0.2799 0.1429 0.2718 0.3011-0.0033 0.0597-0.0076 0.1191-0.0128 0.1783l0.0098 0.0113c0.3959 0.4584 1.0193 0.8253 1.8022 1.0483 0.623 0.1775 1.3416 0.2626 2.1237 0.2303 0.0159-2e-3 0.0317-0.0026 0.0475-2e-3 1.8823-0.0889 4.126-0.8569 6.2847-2.6524 0.1215-0.1011 0.3021-0.0845 0.4032 0.0371 0.1012 0.1216 0.0846 0.3021-0.037 0.4032-2.0673 1.7195-4.2214 2.5413-6.102 2.743 0.2829 0.3065 0.6179 0.5621 0.9951 0.7697 1.3702 0.7542 3.2945 0.8807 5.3335 0.5112 2.0618-0.3736 4.2322-1.2543 6.0676-2.5084 1.504-1.0277 2.779-2.3042 3.577-3.754 0.0686-0.1249 0.2164-0.1786 0.3466-0.1329 1.647 0.4493 3.2262 0.5613 4.7372 0.3358 1.513-0.2257 2.9603-0.7917 4.3418-1.6978 0.067-0.0438 0.1455-0.056 0.218-0.0404 2.0986 0.3402 3.6661 0.1009 4.847-0.5602 1.1777-0.6593 1.9838-1.7461 2.5578-3.1002 0.0614-0.1458 0.2294-0.2142 0.3752-0.1528 0.0806 0.0339 0.1375 0.1004 0.1619 0.1778l1e-3 -3e-4 0.8133 2.5651c0.7559-0.3256 1.3413-0.8933 1.7561-1.7035 0.4789-0.9357 0.7355-2.194 0.7696-3.7751 0.0031-0.1582 0.1339-0.2839 0.2921-0.2808 0.0834 0.0016 0.1577 0.0387 0.2089 0.0966l3e-4 3e-4 6e-4 -5e-4c0.1715 0.1924 0.3246 0.3936 0.4592 0.6038 0.1336 0.2085 0.2489 0.427 0.3457 0.6553 0.3962 0.9342 0.4597 1.9952 0.1909 3.1827 0.3995-0.3461 0.7674-0.7329 1.1018-1.1529 1.3345-1.6762 2.1306-3.8735 2.2815-6.1047 0.1505-2.2268-0.3421-4.4825-1.5843-6.2803-0.4347-0.6292-0.9623-1.203-1.5872-1.7005-0.0173-0.0138-0.0327-0.0293-0.046-0.0459-1.8683-2.1961-3.9002-3.9983-5.9251-5.7944-3.9707-3.5218-7.9151-7.0208-10.608-13.408z"/>
 <path class="fil2 str0" d="m106.13 95.052c-0.1317-3.5334 1.1795-8.6431 2.4855-13.732 1.1697-4.5576 2.3347-9.0979 2.4405-12.406-1.5725-0.0988-2.9471 0.2122-4.1216 0.8508-1.4261 0.7754-2.5663 2.037-3.4144 3.6371-0.8571 1.6171-1.4158 3.579-1.6708 5.7362-0.5891 4.9823 0.4432 10.986 3.1606 16.19 0.3248-0.11 0.6982-0.2035 1.1202-0.2758z"/>
 <path class="fil3 str0" d="m106.81 92.494c-0.0953 0.8901-0.1382 1.7213-0.1139 2.4764 0.9099-0.1047 2.0074-0.1203 3.2935-0.0112-0.1891-0.104-0.3789-0.2133-0.5667-0.3267-1.099-0.6642-2.1594-1.4526-2.6129-2.1385z"/>
 <path class="fil7 str0" d="m114.62 87.23l-0.0209 0.0322c-0.0868 0.1327-0.2649 0.1699-0.3976 0.0831-0.0672-0.044-0.11-0.1113-0.1245-0.1843-0.2329-0.0027-0.4327 0.0359-0.5944 0.1124-0.2949 0.1393-0.4642 0.4236-0.4695 0.8254-0.0114 0.8642 0.6637 2.196 2.3135 3.813l-1e-4 1e-4c0.0667 0.0658 0.1 0.163 0.0799 0.2616-0.0316 0.1551-0.183 0.2552-0.3381 0.2236-5.8232-1.1856-7.7905-1.1094-7.9062-0.5407-0.1006 0.4937 1.2063 1.4622 2.5658 2.2838 0.6108 0.3692 1.2185 0.7175 1.7044 0.9828 0.3671 0.0521 0.7467 0.1133 1.1391 0.1844 0.0562 0.0101 0.1056 0.0361 0.1445 0.0723l4e-4 -4e-4c0.271 0.2522 0.3066 0.4599 0.1547 0.6232-0.1025 0.1102-0.5999-0.0078-1.2695-0.2758-2.9527-0.4482-5.0556-0.3025-6.3364 0.1173 0.0118 0.1118-0.0431 0.2248-0.1479 0.2819-0.1264 0.0688-0.2819 0.0326-0.3659-0.079-0.0714 0.0339-0.139 0.0688-0.2027 0.1048-0.4869 0.2752-0.7171 0.5932-0.6936 0.8974 0.0246 0.318 0.3167 0.6542 0.8727 0.9494 1.4724 0.7818 4.5972 1.1589 9.3377 0.1647 0.0854-0.0206 0.1794-2e-3 0.252 0.0587 0.1215 0.1017 0.1376 0.2828 0.0359 0.4044-2.0918 2.4991-2.8105 4.764-2.5894 6.2076 0.0865 0.5645 0.319 0.9905 0.6682 1.2366 0.3475 0.2449 0.8239 0.3196 1.4011 0.1836 1.5101-0.3558 3.6168-2.0927 5.8837-5.8517l6e-4 4e-4c0.0607-0.1005 0.1799-0.1573 0.3016-0.133 0.1551 0.031 0.2557 0.182 0.2247 0.3371-0.578 2.8491-0.2545 4.593 0.4469 5.4286 0.3106 0.3702 0.6977 0.5518 1.1074 0.5634 0.4263 0.012 0.885-0.1549 1.319-0.4812 1.0824-0.8138 1.9808-2.5837 1.8935-5.0444-0.0079-0.0866 0.0235-0.1757 0.0927-0.2387 0.1173-0.1067 0.2989-0.0981 0.4056 0.0191 2.9302 3.2277 5.8045 4.6877 7.6543 4.8128 0.6966 0.0471 1.2269-0.0976 1.5308-0.4091 0.2931-0.3003 0.3851-0.7785 0.2197-1.4117-0.4132-1.5826-2.3466-3.9844-6.5505-6.9009-0.0804-0.0533-0.1319-0.1458-0.1282-0.2492 0.0055-0.1582 0.1383-0.282 0.2965-0.2764 3.2314 0.1149 5.0501-0.2386 5.8108-0.7636 0.3523-0.2432 0.4181-0.5237 0.2543-0.7923-0.219-0.3591-0.7552-0.7225-1.5314-1.0221-2.2761-0.8787-6.4552-1.1244-10.74 0.8876-0.1366 0.0692-0.3048 0.0185-0.3798-0.1165-2.5272-4.5352-5.2047-6.7247-7.0197-7.2992-0.1053-0.0333-0.2072-0.0609-0.3053-0.0831z"/>
 <path class="fil2 str0" d="m134.71 102.09c0.022 0.0013 0.0442 5e-3 0.0663 0.0115 3.4911 1.0534 13.873-2.7448 20.261-7.4959 1.7171-1.2772 3.1389-2.621 4.0501-3.9541 0.8841-1.2934 1.2813-2.5701 0.9856-3.7529-0.4065-1.6258-2.1215-3.119-5.672-4.3034-4.3073 2.8861-9.2809 7.2898-14.199 11.645-2.358 2.088-4.7034 4.1649-6.9393 6.0439 0.6115 0.6473 1.0897 1.2514 1.448 1.8059z"/>
 <path class="fil3 str0" d="m139.84 108.64c0.0247-0.0179 0.0527-0.0322 0.0834-0.0418 20.938-6.5806 30.907-15.839 33.795-23.822 1.7092-4.726 0.9216-8.9963-1.5433-11.971-2.469-2.9802-6.6256-4.6699-11.648-4.2281-8.4578 0.7439-19.342 7.5178-28.804 24.288 0.5778 0.1155 1.0982 0.2656 1.5478 0.4391 0.8953 0.3457 1.5312 0.7935 1.8145 1.2581 0.3385 0.555 0.2369 1.1107-0.4183 1.5629-0.7675 0.5296-2.4237 0.9057-5.2191 0.8853 1.3985 1.0166 2.5253 1.9738 3.4124 2.8571 2.2695-1.9061 4.6092-3.9778 6.9614-6.0607 4.9216-4.3581 9.8981-8.7644 14.244-11.679 0.0457-0.0871 0.1326-0.1433 0.2278-0.1521 2.3041-1.5249 4.4255-2.6183 6.2606-3.0467 3.1639-0.7387 5.4849 0.4265 6.459 4.5987 0.036 0.1545-0.0601 0.309-0.2146 0.3449-0.1544 0.036-0.3089-0.06-0.3448-0.2145-0.88-3.769-2.9518-4.8275-5.7693-4.1697-1.6645 0.3887-3.5864 1.3529-5.6783 2.7036 3.4769 1.2357 5.1876 2.8182 5.6238 4.5625 0.3395 1.3575-0.0932 2.7887-1.0687 4.2158-0.9485 1.3876-2.4161 2.7772-4.1827 4.0912-6.2319 4.6354-16.268 8.3581-20.28 7.6957 0.1712 0.3372 0.2929 0.6518 0.3687 0.942 0.2205 0.8448 0.0719 1.5093-0.3636 1.9554-0.4245 0.4351-1.1108 0.6409-1.9801 0.5821-1.8642-0.126-4.6732-1.4895-7.5426-4.4667-0.0913 2.2989-1.0221 3.9768-2.1215 4.8034-0.5384 0.4048-1.1222 0.6114-1.6785 0.5957-0.5731-0.0162-1.109-0.2638-1.5321-0.7678-0.6715-0.8001-1.0508-2.2738-0.791-4.5254-2.08 3.1005-4.0303 4.5897-5.4958 4.935-0.7457 0.1757-1.3799 0.066-1.8617-0.2735-0.48-0.3383-0.7954-0.8968-0.9063-1.6208-0.2235-1.4588 0.397-3.6448 2.2238-6.0436-4.4682 0.8297-7.4782 0.4181-8.9613-0.3694-0.7419-0.394-1.1359-0.8975-1.1759-1.4145-0.041-0.5307 0.2856-1.0432 0.9857-1.4389 0.0668-0.0378 0.1374-0.0745 0.2117-0.1102-2.7526-5.2978-3.7968-11.402-3.1972-16.473 0.263-2.225 0.8428-4.255 1.7338-5.936 0.8999-1.698 2.1177-3.041 3.648-3.8731 1.2621-0.6863 2.7311-1.023 4.403-0.9228-0.0066-0.8785-0.0996-1.6565-0.3025-2.307-0.5841-1.8724-2.1546-2.6554-5.3379-1.6624-0.1514 0.0471-0.3124-0.0374-0.3595-0.1887-0.0471-0.1514 0.0374-0.3124 0.1887-0.3595 3.5805-1.1168 5.3672-0.1711 6.0568 2.0398 0.2234 0.7161 0.3229 1.5686 0.3254 2.5281l0.0222 0.0025c0.1576 0.0186 0.2702 0.1615 0.2516 0.3191-0.0172 0.1456-0.1405 0.2529-0.2835 0.2537-0.1162 3.3867-1.2828 7.9335-2.4542 12.498-0.8821 3.4372-1.7668 6.8842-2.2008 9.8243 0.8003-0.4499 2.944-0.4631 7.3144 0.3732-1.3114-1.4528-1.8591-2.6935-1.8476-3.5666 0.0084-0.6397 0.2961-1.1007 0.7975-1.3376 0.2993-0.1414 0.673-0.1956 1.1046-0.1515 8.6706-13.355 10.574-22.492 8.894-27.913-1.4073-4.5408-5.3717-6.4482-9.9504-6.0154-4.6423 0.4388-9.9103 3.2645-13.834 8.1791-6.1139 7.658-8.948 20.383-1.0738 37.065 0.0676 0.1433 0.0063 0.3144-0.137 0.382-0.0964 0.0455-0.2054 0.0327-0.287-0.0243-0.997 1.0959-2.2386 2.1542-3.5222 3.2481-2.2749 1.9389-4.6835 3.9916-5.9952 6.4879l-1e-4 3e-4c-0.0528 0.1003-0.105 0.2008-0.1567 0.3015 0.0211 0.0133 0.0408 0.0295 0.0584 0.0488l0.0044 0.0048c0.2422 0.2647 0.4983 0.5155 0.7652 0.751 0.264 0.2329 0.5392 0.4506 0.8225 0.6519 1.4397 1.0231 3.0489 1.5864 4.4347 1.538 0.0184-5e-4 0.0363 7e-4 0.0538 0.0034 0.0616-0.0441 0.1235-0.0875 0.1858-0.1293 0.0414-0.0279 0.083-0.0551 0.1247-0.0819-1.3921-0.43-2.6145-1.3441-3.5878-2.663-0.2223-0.3011-0.4314-0.6231-0.6262-0.9647-0.1919-0.3364-0.3704-0.6926-0.5344-1.0674l-0.0046-0.0098-5e-4 -0.0011c-0.0652-0.1446-8e-4 -0.3146 0.1438-0.3798 0.1445-0.0651 0.3145-7e-4 0.3797 0.1438l5e-4 0.0012c0.0023 0.0051 0.0044 0.0103 0.0064 0.0155 0.1559 0.3563 0.3256 0.6948 0.5079 1.0145 0.1836 0.3219 0.3799 0.6244 0.588 0.9063 1.0274 1.3922 2.3472 2.2943 3.8501 2.5964 0.3878-0.1898 0.7827-0.3383 1.1792-0.4454-1.233-0.7691-2.1615-1.5867-2.7855-2.4528-0.7311-1.0146-1.0441-2.0919-0.939-3.2318 0.0142-0.1576 0.1536-0.2738 0.3111-0.2595 0.1576 0.0142 0.2738 0.1536 0.2596 0.3111-0.092 0.9981 0.1857 1.9467 0.8333 2.8454 0.6643 0.922 1.7178 1.7952 3.1603 2.6197l0.0037 0.0022c0.6045-0.0746 1.2038-0.0537 1.7783 0.0622 1.5074 0.3041 2.8396 1.2564 3.649 2.8423 0.7064 1.3841 1.0108 3.2567 0.6732 5.6046l0.0153 0.0343c0.0508 0.1165 0.018 0.2484-0.0719 0.3286-0.3367 1.9985-1.1287 4.3271-2.5156 6.9788 0.7544 0.043 1.488 0.1769 2.2015 0.3979 2.8733 0.8904 5.3997 3.1897 7.6428 6.6378 1.3444-0.3136 2.6042-0.4864 3.777-0.538 0.0113-5e-3 0.0231-0.0095 0.0352-0.0132 0.2821-0.0861 0.5617-0.1652 0.8389-0.2376-1.5401-6.7002 0.083-11.32 2.6575-13.762 1.5535-1.473 3.4548-2.1573 5.2293-2.035 1.2073 0.0832 2.3542 0.5377 3.2937 1.3685 2.1845 0.5626 4.3876 0.5349 6.2514-0.3499 0.364-0.1727 0.7152-0.3783 1.0509-0.6185 0.3356-0.2401 0.6564-0.5155 0.9596-0.828l1e-3 -0.0011c0.1104-0.1135 0.292-0.1161 0.4055-0.0056 0.1135 0.1104 0.1161 0.292 0.0056 0.4055l-1e-3 0.0011c-0.3271 0.3372-0.6741 0.635-1.0382 0.8955-0.3639 0.2604-0.7444 0.4831-1.1385 0.6701-1.7498 0.8307-3.7649 0.9588-5.7918 0.576 0.1765 0.2225 0.3416 0.4624 0.4937 0.7201 0.0447 0.0757 0.088 0.1532 0.1304 0.2321 2.1953 0.4494 4.4439 0.5235 6.3364-0.1797 0.3704-0.1376 0.7288-0.3062 1.0723-0.5089 0.3428-0.2022 0.6679-0.4367 0.9717-0.7063l0.0047-0.0041c0.1184-0.1049 0.2995-0.0938 0.4044 0.0247 0.1048 0.1185 0.0938 0.2995-0.0247 0.4044l-0.0047 0.0041c-0.3345 0.2969-0.6887 0.5529-1.0593 0.7715-0.3699 0.2182-0.7592 0.401-1.1644 0.5515-1.8851 0.7005-4.077 0.6793-6.2312 0.2867 0.0251 0.0605 0.0496 0.1217 0.0736 0.1837 1.404 0.8978 3.1765 1.6315 5.0132 1.7257 0.3631 0.0186 0.7278 0.0123 1.0915-0.0224 0.3623-0.0347 0.7261-0.0981 1.0892-0.1939l1e-4 3e-4 1e-3 -3e-4 7e-4 -1e-4c0.1532-0.0397 0.3096 0.0523 0.3493 0.2055 0.0397 0.1531-0.0522 0.3095-0.2052 0.3493l1e-4 3e-4c-0.3912 0.1031-0.7859 0.1717-1.1813 0.2095-0.3939 0.0377-0.7862 0.0446-1.1746 0.0247-1.7007-0.0872-3.3423-0.687-4.7141-1.4663 0.136 0.5087 0.2343 1.0589 0.2889 1.6508 0.0284 0.0616 0.0335 0.1309 0.0163 0.195 0.1951 2.5984-0.4323 5.9765-2.3209 10.146 0.9305 0.0528 2.3758 0.2365 3.4148 0.5918 0.2781 0.095 0.5304 0.2032 0.7411 0.3253 0.2225 0.129 0.4021 0.2766 0.5228 0.4445 0.0034 0.0043 0.0067 0.0087 0.0098 0.0133l0.0023 0.0033c0.09 0.1303 0.0573 0.3089-0.073 0.3988-0.1302 0.09-0.3088 0.0573-0.3988-0.073l-0.0023-0.0034-0.0044-0.0065c-0.0703-0.0969-0.1892-0.1907-0.344-0.2804-0.1761-0.1021-0.3937-0.1948-0.6377-0.2782-0.8467-0.2895-1.974-0.4593-2.8333-0.5336 1.0004 0.6318 1.9587 1.4024 2.8787 2.3076 0.1129 0.1111 0.1144 0.2926 0.0033 0.4055-0.111 0.1129-0.2926 0.1144-0.4055 0.0034-2.0178-1.9856-4.2194-3.2982-6.6477-3.8891-1.8836-0.4583-3.9086-0.4838-6.0947-0.0542 3.0818 0.2783 5.4143 1.475 6.9325 3.1125 0.1863 0.2009 0.3602 0.4086 0.5219 0.6219 2.2613 0.3756 4.2636 0.7806 6.0425 1.1955 5.1596 1.2037 8.4426 2.4905 10.724 3.3845 0.1476 0.0577 0.2205 0.2242 0.1628 0.3718-0.0576 0.1477-0.2242 0.2206-0.3718 0.1629-2.2643-0.8875-5.5235-2.165-10.645-3.3597-1.6245-0.3789-3.4365-0.7495-5.463-1.0968 0.4982 0.8154 0.8313 1.6956 0.9937 2.5986 1.6878 0.5221 3.2622 1.0716 4.719 1.6274 5.6913 2.1713 9.5933 4.4389 11.488 5.5397 0.1371 0.0794 0.1839 0.2549 0.1045 0.392s-0.255 0.1839-0.3921 0.1045c-1.8799-1.0925-5.7525-3.343-11.404-5.4992-1.3725-0.5237-2.8502-1.0416-4.4294-1.5361 0.0238 0.2605 0.0338 0.522 0.0295 0.7837-0.0286 1.7199-0.6684 3.4414-1.9548 4.8869 5.4488 2.9429 6.9438 4.0157 7.7487 4.5936 0.2885 0.2072 0.4849 0.3481 0.7511 0.4909 0.1396 0.0751 0.1919 0.2491 0.1168 0.3887-0.075 0.1396-0.2491 0.1919-0.3887 0.1169-0.2921-0.1567-0.5034-0.3085-0.814-0.5314-0.8022-0.5761-2.2972-1.6488-7.8244-4.6286-2.8498 2.7877-8.3395 4.3458-16.749 2.3661-0.7311 0.3631-1.4487 0.6356-2.1475 0.8248-2.1609 0.5849-4.1472 0.3769-5.8124-0.4061-1.6652-0.7831-3.004-2.1396-3.8711-3.8517-0.2739-0.541-0.5009-1.1171-0.6759-1.7211-4.9724-0.9159-7.7033-4.4145-8.575-7.9359-0.3589-1.4499-0.4025-2.9053-0.1576-4.1878-3.3649-0.4734-5.3244-0.3144-6.6253-0.2084-0.5717 0.0466-1.0201 0.0832-1.4192 0.0536-0.1582-0.0112-0.2774-0.1485-0.2662-0.3067 0.0111-0.1582 0.1485-0.2774 0.3067-0.2662 0.3544 0.0262 0.7848-0.0089 1.3338-0.0536 1.3319-0.1085 3.3428-0.2718 6.7991 0.2196 0.3381-1.2555 0.9748-2.3076 1.8829-2.9723-1.9934-0.8875-3.7185-1.5118-5.182-1.9527-2.9631-0.8927-4.8472-1.032-5.715-1.0838-0.1582-0.0093-0.2789-0.1451-0.2697-0.3033 0.0093-0.1582 0.1452-0.2789 0.3034-0.2696 0.8907 0.0532 2.8235 0.1959 5.8454 1.1062 1.5723 0.4737 3.4416 1.1559 5.6151 2.1424 0.7659-0.3736 1.6757-0.5033 2.716-0.3103-3.9009-2.6953-7.7201-4.3478-9.2392-5.0048l-4e-4 9e-4 -0.0023-1e-3c-0.1457-0.0626-0.2132-0.2316-0.1505-0.3774 0.0626-0.1458 0.2317-0.2132 0.3774-0.1506l0.0023 1e-3 -4e-4 1e-3 4e-4 1e-4c1.7319 0.7491 6.4222 2.778 10.86 6.1623 0.2865 0.1395 0.5804 0.3006 0.8813 0.4845 0.6378-0.3935 1.2633-0.7337 1.8771-1.0229-0.3512-0.5071-0.7101-0.9693-1.073-1.3898-0.4232-0.4904-0.8507-0.9232-1.2769-1.3038-0.7975-0.7124-1.5928-1.2456-2.3486-1.6351-0.0223 0.0072-0.0459 0.0116-0.0704 0.013-0.1072 0.0063-0.2043-0.0471-0.2585-0.1314-0.0316-0.0207-0.0594-0.0479-0.0814-0.081-1.1397-0.5203-2.1696-0.7143-2.9544-0.7083-0.1582 6e-4 -0.287-0.1272-0.2876-0.2854s0.1272-0.287 0.2854-0.2876c0.6397-0.0048 1.4283 0.1117 2.3012 0.407-0.6468-0.65-1.476-1.0812-2.0717-1.2927-0.1495-0.0527-0.2279-0.2167-0.1752-0.3662s0.2167-0.228 0.3662-0.1753c0.6582 0.2338 1.5769 0.7125 2.2945 1.437 0.0833 0.0841 0.1636 0.1711 0.2402 0.2608-0.0836-4.6841 1.4396-7.9273 3.4813-9.7675-1.344-0.1106-2.8115-0.6874-4.1342-1.6274-0.2966-0.2107-0.5876-0.4412-0.8697-0.6901-0.2473-0.2182-0.4876-0.4509-0.7187-0.6973-0.6386 1.2904-1.2048 2.5982-1.758 3.8756-2.4042 5.552-4.5649 10.541-11.065 10.931 0.0617 0.8089 0.5549 1.6805 1.2241 2.4569 0.1476 0.1712 0.3038 0.3377 0.4659 0.4977 0.1597 0.1578 0.3262 0.3102 0.4967 0.4553 0.0866 0.0677 0.1303 0.1824 0.1019 0.296-0.1756 0.6965-0.6813 1.0486-1.5164 1.0562-0.1346 0.0012-0.2782-7e-3 -0.4304-0.0248 0.4031 0.8349 0.82 1.6525 1.2501 2.4525 6.2382 11.602 15.239 19.385 26.161 22.618 4.0995 1.2137 8.4711 1.7874 13.071 1.6825 0.1004-0.0834 0.2465-0.0887 0.3529-0.0101 7.5667-0.229 15.744-2.2869 24.335-6.3452 1.2068-0.57 2.4223-1.1799 3.6462-1.83-0.2766-0.1959-0.5467-0.3824-0.801-0.5579-1.7372-1.1992-2.7624-1.9068-2.3402-3.3044l7e-4 2e-4c0.0326-0.1078 0.1274-0.1907 0.2464-0.2024 1.2035-0.1218 1.9018-0.9936 2.6001-1.8653 0.2281-0.2848 0.4562-0.5696 0.703-0.834-1.3214-0.0833-2.4677-0.4276-3.2349-1.1891-0.908-0.9012-1.2667-2.3545-0.7317-4.599 0.2294-0.9629 0.4677-1.9064 0.6968-2.8136 1.8521-7.3352 3.0915-12.244-2.068-22.594-0.0707-0.1421-0.0129-0.3146 0.1292-0.3853 0.0991-0.0494 0.2131-0.036 0.2969 0.0249zm-11.97-0.2868c1.2759 1.3262 2.0304 3.2914 1.019 5.327-0.0079 0.0178-0.0176 0.035-0.0295 0.0515-0.0924 0.1284-0.2715 0.1575-0.3999 0.0651l-5.6551-4.0716c-0.0685-0.0437-0.1182-0.1161-0.1302-0.2028-0.1812-1.2834 0.1349-2.0875 0.7197-2.5046 0.5645-0.4026 1.3599-0.4217 2.1873-0.1499 0.7864 0.2582 1.6126 0.7824 2.2887 1.4853zm-30.818-2.7585c0.0926-2.0889 1.9841-3.4742 3.8991-4.049 0.8867-0.2662 1.7827-0.3599 2.5069-0.2696 0.7897 0.0984 1.3946 0.4179 1.6179 0.9741 0.2084 0.5189 0.067 1.2122-0.595 2.0787-0.0433 0.0567-0.1038 0.0928-0.1686 0.1066l1e-4 1e-4 -6.9156 1.4738c-0.1551 0.0329-0.3075-0.0662-0.3404-0.2213-0.0067-0.0316-8e-3 -0.063-0.0044-0.0934z"/>
 <path class="fil4 str0" d="m61.414 224.58c-0.1284 0.0925-0.3075 0.0633-0.3999-0.0651s-0.0633-0.3075 0.0651-0.3999c0.4637-0.3346 1.0136-0.5319 1.6696-0.5609 0.6344-0.0281 1.3674 0.1027 2.2175 0.4216 0.1482 0.0552 0.2237 0.2202 0.1684 0.3684-0.0552 0.1483-0.2202 0.2238-0.3684 0.1685-0.775-0.2906-1.4331-0.4104-1.9928-0.3856-0.538 0.0239-0.9855 0.1831-1.3595 0.453z"/>
 <line class="fil4 str0" x1="81.22" x2="81.219" y1="166.02" y2="166.02"/>
 <path class="fil1" d="m37.137 159.8c1.2872-1.1252 3.4921-1.8492 6.4526-1.6754"/>
 <path class="fil1" d="m49.601 158.75c2.7034-0.7908 4.8849-0.3027 5.919 2.9943"/>
 <path class="fil4 str0" d="m49.681 159.03c-0.152 0.044-0.311-0.0435-0.355-0.1955s0.0435-0.3109 0.1955-0.3549c1.4132-0.4134 2.6984-0.489 3.7786-0.0246 1.0891 0.4682 1.9492 1.4712 2.4942 3.2088 0.0471 0.1513-0.0373 0.3123-0.1887 0.3594-0.1514 0.0472-0.3123-0.0373-0.3595-0.1887-0.4891-1.5593-1.2369-2.4491-2.1729-2.8515-0.9448-0.4062-2.1021-0.3304-3.3922 0.047z"/>
 <path class="fil4 str0" d="m36.043 160.96c-0.0246 0.062-0.0706 0.1159-0.1344 0.149"/>
</svg>
