<?xml version="1.0" encoding="UTF-8"?>
<svg viewBox="0 0 500 500" xmlns="http://www.w3.org/2000/svg">
 <g transform="translate(0 -552.36)">
  <path d="m123.72 660.8c-181.58 103.84-61.941 227.43 76.097 210.31 169.78 19.714 241.7-124.08 108.78-201.09-49.56-23.213-85.556-20.379-184.88-9.2294z" stroke="#000" stroke-width="1.5871"/>
  <path d="m81.958 696.39 21.978-90.108 41.757 71.427z" stroke="#000" stroke-width="1.5772"/>
  <path d="m277.56 686.5 42.856-78.02 25.274 129.67z" stroke="#000" stroke-width="1.5772"/>
  <path d="m200.64 871.11s-6.5933 103.3-20.879 113.18 72.526 28.571 93.405 8.791c38.318-32.658-30.351-100.04-38.461-125.27-25.067-78.665-34.065 3.2966-34.065 3.2966z" stroke="#000" stroke-width="1.5772"/>
  <path d="m271.87 969.4s59.639-4.8034 81.072-48.035 8.3868-77.817 13.046-91.266 27.024-67.249 81.072-36.506 49.389 75.895 25.16 87.423-66.713 10.049-39.138 0c26.621-9.7021 60.769-26.74 22.365-60.524-29.565-26.008-41.02-26.244-64.299-5.764-28.114 24.734 14.535 86.247-39.138 134.5-49.567 44.56-82.004 29.782-82.004 29.782z" stroke="#000" stroke-width="1.3581"/>
  <g transform="matrix(.98131 0 0 .78754 -126.38 -212.06)">
   <path d="m384.5 1159.4c10.094-12.278 32.088-55.363 69.76 1.4819-10.793 14.515-19.918 22.12-33.219 25.685 1.1119-3.8722-22.558-0.2357-36.541-27.167z" fill="#fff" stroke="#fff" stroke-width=".65003"/>
   <path transform="matrix(.56362 0 0 .78396 293.01 136.07)" d="m255.69 1303.2c0 18.085-14.661 32.745-32.745 32.745s-32.745-14.661-32.745-32.745 14.661-32.745 32.745-32.745 32.745 14.661 32.745 32.745z" stroke="#000" stroke-width=".9"/>
  </g>
  <g transform="matrix(.98131 0 0 .78754 -281.78 -213.62)">
   <path d="m384.5 1159.4c10.094-12.278 32.088-55.363 69.76 1.4819-10.793 14.515-19.918 22.12-33.219 25.685 1.1119-3.8722-22.558-0.2357-36.541-27.167z" fill="#fff" stroke="#fff" stroke-width=".65003"/>
   <path transform="matrix(.56362 0 0 .78396 293.01 136.07)" d="m255.69 1303.2c0 18.085-14.661 32.745-32.745 32.745s-32.745-14.661-32.745-32.745 14.661-32.745 32.745-32.745 32.745 14.661 32.745 32.745z" stroke="#000" stroke-width=".9"/>
  </g>
  <g transform="matrix(2.0046 0 0 2.902 -526.79 -2729.6)" stroke="#000">
   <path transform="matrix(.95736 0 0 .77399 275.18 285.84)" d="m161.64 1171.5c0 29.243-30.413 52.95-67.929 52.95s-67.929-23.706-67.929-52.95c0-0.5242 0.01-1.0484 0.02996-1.5724l67.899 1.5724z" fill="#fff" stroke-width=".9"/>
   <path d="m303.19 1206 2.001-15.099 12.673 29.119 4.002-27.502 14.007 36.129 6.003-36.669 10.005 40.443 6.67-40.982 11.339 40.982 7.337-39.904 11.339 37.747 10.672-38.286 6.67 31.276 12.006-30.737 2.668 21.031v-2.157l1.334 1.0785" fill="none" stroke-width=".8608"/>
  </g>
 </g>
</svg>
