<?xml version="1.0" encoding="UTF-8"?>
<svg version="1.1" viewBox="0 0 2986.7 2986.7" xmlns="http://www.w3.org/2000/svg">
 <g transform="translate(0 1864.1)">
  <rect y="-1864.1" width="2986.7" height="2986.7" rx="22.095" ry="20.868" fill="#008080"/>
  <ellipse cx="1400.7" cy="760.66" rx="719.77" ry="86.2" fill="#005858"/>
  <path d="m1936.3-1516.1c-16.42 0.5045-33.317 17.571-35.513 34.32-3.0554 23.302 21.17 31.936 21.17 31.936l7.0568 92.602c-30.029-2.4937-61.607-0.7195-92.288 7.2365 1.6761-24.344 4.156-59.276 7.286-95.679 9.2601-1.341 28.628-25.209 18.283-51.046-10.344-25.837-48.633-13.583-59.937 7.3233-11.304 20.906 8.3399 36.876 8.3399 36.876l-39.408 130.95c-16.963 10.945-32.889 24.662-47.29 41.556-33.173 16.21-168.29 79.718-225.04 67.599-64.938-13.866-94.298 55.466-12.601 83.199 75.986 25.794 132.07 19.008 178.3-26.693-12.115 51.037-16.724 113.68-10.952 190.1 0 0 106.67 874.08-225.13 963.72-180.26 48.705-294.03 113.97-373.69 213.72-43.733 28.777-104.52 69.184-173.9 117.09-131.97 91.123-157.13-11.873-157.13-11.873s41.922-7.9052 33.543-31.676c-8.3791-23.771-71.229-47.573-52.376-95.116-50.275 99.046-18.86 130.78 6.2778 130.78 18.313 32.711 36.639 134.51 281.49-12.176-34.169 66.534-40.048 144.15-61.217 238.33-61.616 274.14 70.405 268.92 100.03 212.89 29.625-56.029 71.118-140.05 71.118-140.05s-52.684 149.8 11.638 149.8c76.513 0 144.41-144.21 177.93-144.21 0 0 121.4 28.01 245.82-16.813 66.366 145.18 125.2 162.66 163.52 153.86 59.931-13.761 5.405-170.63 5.405-170.63s59.751 163.93 125.61 189.88c41.635 16.407 94.809-4.2e-4 52.142-139.49-32.778-107.16-130.35-431.41-77.029-885.25 21.187-180.32 91.032-292.5 169.73-372.1 74.386 80.041 201.8 82.679 314.16 31.676 148.12-67.235 166.38-145.79 154.7-241.06-11.193-91.288-263.9-353.51-263.9-353.51-0.3753-0.6455-0.4966-0.6691-1.0547-1.5214 13.262-2.5067 26.016-6.1065 40.692-11.088 81.696-27.733 52.383-97.066-12.556-83.199-31.151 6.6518-85.884-9.5266-134.45-28.123-2.2119-1.9251-4.4453-3.7956-6.6445-5.6333-18.269-15.266-46.645-29.475-80.191-38.956-6.6058-21.2-19.828-63.956-32.535-107.68 8.2158-4.257 17.788-32.934-1.2831-53.863-5.3634-5.886-11.721-8.214-18.146-8.0164z" fill="#f60"/>
  <path d="m2323.4-1019.5c18.159 47.234 74.693 112.39-16.4 145.88-103.62 38.095-178.26 4.5619-281.88-47.248-103.62-51.81-231.63-53.329-196.59 74.671 35.048 128 148.77 231.13 148.77 231.13l0.033 0.10027c0.038-0.0384 0.062-0.0949 0.1003-0.13334 74.386 80.041 201.8 82.67 314.17 31.667 148.12-67.235 166.38-145.77 154.7-241.03-5.2134-42.521-62.834-122.11-122.9-195.03z" fill="#fca"/>
  <path d="m1854.5-1180c14.43-64.335 93.506-89.128 135.62-7.6191 47.238 91.429 56.381 140.19-15.238 164.57-71.619 24.381-156.95 6.0952-120.38-156.95z" fill="#fff"/>
  <g transform="translate(-5.3875 -1.0775)">
   <ellipse cx="1928.4" cy="-1116.7" rx="37.333" ry="57.143"/>
   <ellipse cx="1923.1" cy="-1128.9" rx="12.444" ry="14.476" fill="#fff"/>
   <ellipse cx="1932.6" cy="-1100.7" rx="5.8947" ry="7.619" fill="#fff"/>
  </g>
  <path d="m2052.6-1263.1s-38.79-12.93-19.395 38.79 45.255 140.07 99.13 144.38c53.875 4.3099 95.897-31.247 59.262-72.192s-108.83-103.44-139-110.98z" fill="#fff"/>
  <g transform="matrix(.63105 -.46738 .44461 .66335 1379.9 477.93)">
   <ellipse cx="1928.4" cy="-1116.7" rx="37.333" ry="57.143"/>
   <ellipse cx="1923.1" cy="-1128.9" rx="12.444" ry="14.476" fill="#fff"/>
   <ellipse cx="1932.6" cy="-1100.7" rx="5.8947" ry="7.619" fill="#fff"/>
  </g>
  <path d="m1656-944.88c4.428 43.279 13.774 149.42 14.033 275.9 43.431-27.405 50.862-74.452 58.3-113.5 8.6201-45.255 23.71-66.82-23.7-101.3-19.82-14.415-36.223-38.246-48.633-61.1zm87.733 322.6c-4.0826 0.0971-9.1708 1.2096-15.4 3.5667 0 0-23.712-0.0149-25.867 71.1-1.9866 65.559 89.44-75.811 41.267-74.667zm20.866 120.43s-79.233 73.124-36.567 124.93c42.667 51.81 36.567-124.93 36.567-124.93zm-104.1 46.733c-7.6668 77.122-20.725 153.38-41.667 221 25.917 16.834 72.233-81.833 69.567-124.5-1.4458-23.132-14.523-61.992-27.9-96.5zm24.067 240.97c-16.162 0.30304-45.661 7.564-23.033 60.9 30.17 71.115 86.208-62.488 32.334-60.333 0 0-3.9125-0.66763-9.3001-0.56662zm-89.767 45.3c-27.033 61.891-63.132 112.11-111.03 142.43 1.0602 13.951 6.2158 26.347 18.733 33.5 42.667 24.381 91.452 64.009 137.17 12.2 38.515-43.65-11.703-154.34-44.867-188.13zm-216.83 181.4c-79.349 24.65-144.5 53.388-198.9 88.133-2.1253 13.832-0.2427 27.854 11.067 37.467 30.476 25.905 79.248 77.71 129.53 47.233 50.286-30.476 152.38-117.33 117.33-138.67-16.524-10.058-39.379-23.122-59.033-34.167zm277.1 64.8s-62.503 12.91-32.334 51.7c30.17 38.79 84.053-51.7 32.334-51.7zm-119.33 36.133c-10.936 0.15968-22.734 5.8858-38.067 17.933 0 0-115.79 103.64-103.6 137.17 12.19 33.524 88.357 82.262 161.5 33.5s91.448-91.405 45.733-140.17c-29.286-31.238-46.072-48.718-65.567-48.433zm-400.03 37.133s-43.072 30.16-19.367 47.4 19.367-47.4 19.367-47.4zm5.2999 90.367c-15.286 0.1905-31.271 3.2476-48.033 10.867 0 0-143.25 134.11-54.867 167.63 88.381 33.524 268.18-143.24 222.47-149.33-34.286-4.5714-73.71-29.738-119.57-29.167zm199.43 21.7s-58.17 38.794-28 56.033 105.58-38.793 28-56.033z" fill="#803300"/>
  <path d="m1729.7 706.92c-17.549 46.063-76.609 34.012-119.37 18 36.189 38.347 67.599 42.96 91.233 37.533 21.321-4.8957 28.176-27.92 28.133-55.533zm169.93 4.4c-35.815 67.516-100.88 30.167-129.07 9.3 18.657 28.264 40.001 52.384 62.033 61.067 33.383 13.155 74.165 5.2003 67.033-70.367zm-817.23 6.8333c-0.6066 28.188 6.5549 51.467 31.9 51.467 21.896 0 43.086-11.839 62.967-28.7-38.917 6.6572-72.744 2.6354-84.734-11.533-4.1479-4.9022-7.3436-8.7093-10.133-11.233zm-156.17 26.333c25.102 66.352 86.284 51.332 105.3 15.367 2.5233-4.7723 5.2041-9.9574 7.8666-15.067-39.865 24.01-82.084 14.308-113.17-0.29995z" fill="#2b1100"/>
  <path d="m2036.5-767.41s-19.38 34.489 15.1 75.433c31.651 37.586 190.4 113.29 376.27 0.43338 6.1803-11.057 10.794-22.391 14.133-34-50.614 44.236-134.41 95.505-239.57 78.833-176.71-28.015-165.93-120.7-165.93-120.7z" stroke="#000" stroke-width="1.0667px"/>
  <path d="m2224.8-806.62s-19.81-48.762-51.81-15.238 32 48.762 51.81 15.238z"/>
  <path d="m2367.1-841.56s-7.2416-30.425 28.966-34.394c15.69 0 23.598 31.222 9.6556 35.717-10.259 3.3071-37.415 8.5985-38.622-1.3228z"/>
  <path d="m1698.1-1209.2c-64.65 29.092-79.743 67.87-158.4 37.7-70.697-27.116-111.78-1.9636-59.133 40.167 1.8489 0.7185 3.7554 1.3953 5.7333 2.0667 75.624 25.672 131.53 19.048 177.63-26.067 15.448-25.542 29.886-49.11 34.167-53.867z" fill="#803300"/>
  <path d="m1197.8 539.13s-83.432 16.78 15.698 55.57 226.66 55.768 360.27-8.8814c133.61-64.65 86.025-110.66 34.327-90.988-14.551 5.5359-110.83 63.422-204.67 67.048-74.208 2.8673-181.29-31.115-205.63-22.749z" fill="#fca"/>
 </g>
</svg>
