<?xml version='1.0' encoding='utf-8'?>
<svg xmlns="http://www.w3.org/2000/svg" version="1.1" width="2048.00" height="2048.00" viewBox="0 0 2048.0 2048.0"> <rect x="0" y="0" width="2048.00" height="2048.00" fill="#3c73b6"/> <g id="document" transform="matrix(1,0,0,1,1024.0,1024.0)"> <g> <path d="M-190.299,593.682 C-190.299,593.682 42.9032,686.431 167.204,716.635 C186.028,725.432 185.939,729.556 185.939,729.556 C185.939,729.556 238.444,729.785 288.157,723.595 C337.869,717.406 384.789,704.797 384.789,704.797 C384.789,704.797 419.403,692.979 449.279,677.181 C479.156,661.382 501.518,646.69 501.518,646.69 L520.553,409.233 L506.58,360.913 L577.916,84.2971 C577.916,84.2971 550.876,-140.479 550.876,-158.904 C550.876,-467.631 348.636,-736.308 19.6754,-729.428 C-182.581,-725.198 -418.192,-644.764 -533.082,-454.211 C-576.754,-239.316 -568.562,-278.579 -577.916,-124.766 C-554.581,73.8225 -503.388,177.72 -503.388,177.72 C-503.388,177.72 -458.082,272.717 -429.374,332.91 C-380.573,395.146 -360.389,386.276 -308.184,426.661 C-280.239,489.46 -190.299,593.682 -190.299,593.682 Z " fill="#bc170d" fill-opacity="1.00"/> <path d="M-209.162,-147.331 L-288.016,89.5046 L-209.118,202.944 C-209.118,202.944 -73.1223,266.384 -15.0679,329.144 C42.9864,391.903 23.0989,453.982 23.0989,453.982 L132.725,502.854 L187.521,428.61 L494.777,381.196 L501.563,425.167 L575.865,81.8103 L557.582,-202.166 C557.582,-202.166 530.552,-388.199 451.315,-507.895 C372.079,-627.591 244.603,-678.563 244.603,-678.563 L236.092,-669.22 L252.161,-643.607 L238.686,-614.735 C238.686,-614.735 268.962,-574.071 284.549,-531.489 C300.136,-488.906 302.894,-443.647 302.894,-443.647 L121.818,-425.478 C121.818,-425.478 -17.16,-580.505 -145.78,-638.197 C-268.325,-575.078 -324.169,-461.805 -324.169,-461.805 L-209.162,-147.331 Z " fill="#f5dc6c" fill-opacity="1.00"/> <path d="M182.816,426.87 C162.387,369.729 75.9768,285.385 -33.3981,215.529 C-142.773,145.674 -275.113,90.3078 -275.113,90.3078 L-204.04,195.829 C-204.04,195.829 -66.2278,260.397 -8.43069,324.668 C49.3664,388.939 28.0281,450.756 28.0281,450.756 L131.645,497.719 C131.645,497.719 156.624,463.135 182.816,426.87 Z " fill="#e0c04c" fill-opacity="1.00"/> <path d="M120.876,637.393 L248.207,550.134 L207.38,460.818 L138.898,537.394 L32.2394,487.845 L5.59345,566.424 L15.7569,591.412 L120.876,637.393 Z " fill="#e0c14d" fill-opacity="1.00"/> <path d="M482.432,503.679 L481.928,411.578 L207.509,461.606 L248.048,550.467 L482.432,503.679 Z " fill="#ffdf69" fill-opacity="1.00"/> <path d="M207.502,461.342 L482.287,411.629 L508.314,459.849 L514.027,414.041 L509.856,387.01 L501.62,425.232 L494.887,381.6 L187.558,429.025 L132.638,503.105 L23.1889,454.05 C23.1889,454.05 42.4044,390.193 -14.4274,328.555 C-71.2591,266.916 -209.267,203.055 -209.267,203.055 C-209.267,203.055 -159.03,270.219 -98.4575,341.522 C-37.8851,412.824 33.0228,488.267 33.0228,488.267 L139.958,537.743 L207.502,461.342 Z " fill="#000000" fill-opacity="1.00"/> <path d="M478.524,620.235 L481.224,517.575 L261.325,564.752 L295.868,648.421 C295.868,648.421 342.823,635.437 388.487,628.39 C434.151,621.343 478.524,620.235 478.524,620.235 Z " fill="#bc160c" fill-opacity="1.00"/> <path d="M296.75,649.036 L165.698,715.663 C165.698,715.663 172.597,718.501 178.143,721.785 C183.69,725.069 186.641,729.464 186.641,729.464 C186.641,729.464 289.961,729.192 368.861,708.818 C447.762,688.443 501.554,646.727 501.554,646.727 L478.249,620.447 C478.249,620.447 435.016,621.988 389.707,628.751 C344.398,635.513 296.75,649.036 296.75,649.036 Z " fill="#84241e" fill-opacity="1.00"/> <path d="M501.654,647.244 L509.597,550.473 L481.641,517.317 L478.386,620.285 L501.654,647.244 Z " fill="#84241e" fill-opacity="1.00"/> <path d="M510.132,543.705 L520.997,409.723 L512.997,380.696 L509.919,388.719 L514.057,414.621 L508.855,458.271 L482.157,412.529 L482.235,503.882 L510.132,543.705 Z " fill="#ad953a" fill-opacity="1.00"/> <path d="M184.472,-8.34435 L201.316,-58.728 L-99.3739,-56.6093 L-121.637,-11.8557 C-121.637,-11.8557 -95.8121,20.9232 -10.0708,20.9244 C75.6706,20.9257 184.472,-8.34435 184.472,-8.34435 Z " fill="#927e31" fill-opacity="1.00"/> <path d="M178.461,-17.4577 L184.95,-58.3013 L-98.2934,-57.163 L-116.855,-12.927 C-116.855,-12.927 -96.9237,11.5335 -22.09,10.7231 C52.7436,9.91284 178.461,-17.4577 178.461,-17.4577 Z " fill="#4a3a3a" fill-opacity="1.00"/> <path d="M158.849,-19.498 L164.453,-54.7758 L-80.1922,-53.7926 L-96.2247,-15.5847 C-96.2247,-15.5847 -79.0092,5.54256 -14.3732,4.84267 C50.2628,4.14278 158.849,-19.498 158.849,-19.498 Z " fill="#000000" fill-opacity="1.00"/> <path d="M-124.024,-122.364 C301.87,-112.841 520.163,-183.999 557.019,-202.56 C553.185,-249.394 539.422,-367.598 482.528,-464.571 C425.633,-561.544 320.969,-668.577 248.038,-683.582 L236.16,-669.232 L252.264,-643.692 L238.682,-615.428 C238.682,-615.428 268.083,-575.366 284.358,-532.424 C300.633,-489.483 303.138,-443.751 303.138,-443.751 L122.023,-425.089 C122.023,-425.089 64.9565,-492.334 -1.91481,-546.196 C-68.7861,-600.058 -147.42,-639.226 -147.42,-639.226 C-147.42,-639.226 -202.298,-607.824 -246.567,-563.656 C-290.836,-519.487 -324.496,-462.552 -324.496,-462.552 C-324.496,-462.552 -148.396,-142.995 -124.024,-122.364 Z " fill="#e0c14d" fill-opacity="1.00"/> <path d="M-386.84,50.4215 C-404.209,-27.1429 -449.241,-125.673 -487.755,-120.33 C-526.269,-114.987 -547.12,1.51025 -535.206,78.7165 C-523.292,155.923 -484.578,265.841 -426.229,256.837 C-367.88,247.833 -369.47,127.986 -386.84,50.4215 Z " fill="#602925" fill-opacity="1.00"/> <path d="M-416.243,58.768 C-431.522,-9.46154 -471.135,-96.1336 -505.014,-91.4334 C-538.892,-86.7333 -557.234,15.7432 -546.753,83.6577 C-536.273,151.572 -502.219,248.261 -450.892,240.341 C-399.565,232.421 -400.964,126.998 -416.243,58.768 Z " fill="#aa140b" fill-opacity="1.00"/> <path d="M-18.6167,-559.564 C-18.6167,-559.564 64.9343,-558.981 131.209,-569.983 C197.484,-580.984 246.483,-603.568 246.483,-603.568 L239.167,-615.152 C239.167,-615.152 175.358,-608.416 102.472,-600.28 C29.5857,-592.143 -52.3774,-582.606 -52.3774,-582.606 L-18.6167,-559.564 Z " fill="#84241e" fill-opacity="1.00"/> <path d="M577.851,84.4851 L564.774,-89.2236 L557.304,-81.6341 C557.304,-81.6341 563.386,33.6878 561.131,66.3423 C558.876,98.9969 546.853,215.345 546.853,215.345 L577.851,84.4851 Z " fill="#b35100" fill-opacity="1.00"/> <path d="M564.009,-90.4845 L560.528,-154.965 C560.528,-154.965 515.848,-133.625 482.14,-119.95 C448.432,-106.274 392.331,-90.7139 392.331,-90.7139 L394.406,-72.6081 L403.304,-69.6966 L419.903,-49.0799 C419.903,-49.0799 530.29,-65.9081 544.933,-73.434 C559.577,-80.9599 564.009,-90.4845 564.009,-90.4845 Z " fill="#937e31" fill-opacity="1.00"/> <path d="M518.922,-92.5543 L509.673,-134.832 C509.673,-134.832 484.952,-121.828 455.89,-111.096 C426.827,-100.363 393.422,-91.9007 393.422,-91.9007 L395.545,-78.4081 L402.299,-76.5075 L420.651,-51.9346 C420.651,-51.9346 491.169,-63.4272 501.897,-69.5225 C512.626,-75.6179 518.922,-92.5543 518.922,-92.5543 Z " fill="#000000" fill-opacity="1.00"/> <path d="M514.939,-94.167 L507.183,-129.31 L479.392,-116.841 C479.392,-116.841 494.457,-112.984 499.813,-102.521 C505.17,-92.058 500.817,-74.988 500.817,-74.988 C500.817,-74.988 506.135,-79.262 509.665,-84.0567 C513.196,-88.8515 514.939,-94.167 514.939,-94.167 Z " fill="#4a3a3a" fill-opacity="1.00"/> <path d="M559.218,-154.69 L556.323,-211.232 C556.323,-211.232 411.373,-154.886 240.905,-135.28 C70.4365,-115.675 -124.344,-122.637 -124.344,-122.637 L-98.2759,-57.7009 L192.525,-58.4609 C192.525,-58.4609 290.819,-63.8478 382.492,-87.9051 C474.165,-111.962 559.218,-154.69 559.218,-154.69 Z " fill="#caae45" fill-opacity="1.00"/> <path d="M548.241,-98.9512 L541.188,-146.157 L510.094,-132.412 L518.745,-91.1583 C518.745,-91.1583 512.933,-77.083 500.336,-68.7813 C496.591,-66.3127 420.61,-51.9529 420.61,-51.9529 L419.704,-49.0642 L496.749,-61.8625 L517.557,-66.1693 L548.241,-98.9512 Z " fill="#6c5a19" fill-opacity="1.00"/> <path d="M302.997,-443.474 C302.997,-443.474 301.872,-509.9 288.159,-570.057 C274.447,-630.214 248.147,-684.102 248.147,-684.102 L236.133,-670.088 L252.189,-644.591 L238.656,-616.762 C238.656,-616.762 258.179,-590.41 278.187,-545.962 C298.195,-501.515 302.997,-443.474 302.997,-443.474 Z " fill="#f5dc6d" fill-opacity="1.00"/> <path d="M-377.144,113.171 C-373.33,148.773 -374.889,179.819 -387.126,217.532 C-399.362,255.245 -456.652,241.037 -456.652,241.037 C-456.652,241.037 -415.594,238.433 -399.607,199.635 C-388.265,172.108 -396.386,107.999 -398.767,74.7534 C-406.01,10.1691 -441.154,-59.5659 -458.749,-80.856 C-479.844,-114.29 -520.123,-82.9311 -520.123,-82.9311 C-520.123,-82.9311 -512.959,-101.786 -501.882,-112.752 C-490.805,-123.717 -479.627,-123.382 -461.398,-110.016 C-443.17,-96.6502 -425.834,-62.3938 -411.894,-26.9707 C-388.416,32.6893 -380.959,77.5691 -377.144,113.171 Z " fill="#793733" fill-opacity="1.00"/> <path d="M-121.193,-12.0562 L-117.799,-17.7934 L-248.092,-30.2351 L-250.558,-23.8064 L-121.193,-12.0562 Z " fill="#e0c14d" fill-opacity="1.00"/> <path d="M394.639,-73.3455 L392.9,-90.6311 L200.362,-59.1881 L194.868,-39.7992 L394.639,-73.3455 Z " fill="#e0c14d" fill-opacity="1.00"/> <path d="M-250.282,-23.7456 L-248.018,-30.2906 C-248.018,-30.2906 -315.35,-158.975 -348.449,-195.831 C-381.548,-232.688 -550.669,-365.479 -550.669,-365.479 L-553.082,-354.083 C-553.082,-354.083 -388.877,-227.483 -354.04,-190.41 C-319.203,-153.337 -250.282,-23.7456 -250.282,-23.7456 Z " fill="#612926" fill-opacity="1.00"/> </g> </g> </svg>