<?xml version='1.0' encoding='utf-8'?>
<svg xmlns="http://www.w3.org/2000/svg" version="1.1" id="Contours" x="0px" y="0px" width="607.263916" height="496.759155" mViewBox="0.000000 0.000000 607.263916 496.759155" stroke="black" fill="none" stroke-linecap="round" stroke-linejoin="round"> <desc> </desc> <path d="M216.7 319.5 C210.6 342.4 211.3 367.0 218.6 389.4 C226.6 385.6 234.8 381.7 243.6 380.5 C252.3 379.3 262.0 381.3 268.1 387.7 C276.8 396.9 291.7 394.8 304.1 392.1 C324.3 387.7 345.8 383.9 365.6 390.4 C376.5 361.6 377.1 329.0 367.2 299.8 C378.7 318.3 394.7 333.9 413.4 344.9 C427.2 353.1 442.4 358.8 457.5 364.4 C493.3 377.7 529.1 391.0 565.0 404.3 C570.6 406.4 576.5 408.7 580.8 412.9 C586.3 418.3 588.5 426.2 590.5 433.7 C596.1 454.5 601.7 475.4 607.3 496.3 C520.8 496.7 434.3 496.8 347.9 496.5 C353.5 466.2 359.1 436.0 364.8 405.7 C365.9 399.7 359.7 394.1 353.6 393.9 C347.4 393.7 341.8 397.4 337.4 401.7 C320.1 418.5 316.5 447.6 329.2 468.1 C334.9 477.4 343.8 485.7 344.0 496.6 C321.9 496.5 299.8 496.5 277.6 496.4 C289.3 473.8 292.2 444.6 277.3 424.0 C264.0 405.7 240.5 398.5 218.8 392.6 C219.2 427.4 222.8 462.3 229.3 496.5 C152.9 496.6 76.4 496.6 0.0 496.6 C1.6 482.0 4.4 467.6 8.4 453.5 C10.0 447.8 11.9 441.9 16.1 437.7 C19.5 434.2 24.0 432.2 28.5 430.2 C66.2 413.5 104.0 396.9 141.7 380.2 C172.0 366.8 205.1 350.5 216.7 319.5 M297.2 443.2 C295.2 453.7 293.3 464.1 291.3 474.5 C290.7 477.8 290.1 481.4 291.5 484.5 C294.5 481.1 297.8 476.7 296.3 472.4 C293.1 463.0 301.7 452.1 297.2 443.2 M283.0 405.8 C285.5 408.1 288.4 410.0 291.6 411.2 C292.0 409.3 294.7 409.7 296.6 410.1 C300.6 411.0 305.0 409.2 307.3 405.9 C298.3 405.2 289.4 404.6 280.4 403.9 C278.8 403.8 276.4 404.9 277.3 406.2 C278.8 405.9 280.5 406.6 281.3 407.8 C281.5 406.9 282.1 406.2 283.0 405.8 M315.0 415.2 C313.8 414.7 312.5 414.2 311.3 413.7 C311.3 415.3 310.4 416.9 309.1 417.9 C311.5 419.1 311.0 422.7 309.8 425.1 C308.5 427.6 307.0 430.5 308.4 432.8 C311.0 436.9 313.1 441.4 314.6 446.0 C314.0 438.4 313.4 430.8 312.8 423.2 C312.6 421.2 314.1 418.1 315.7 419.3 C314.8 418.9 313.9 418.4 313.0 418.0 C313.2 416.8 313.9 415.7 315.0 415.2 M319.8 473.5 C318.2 471.6 319.7 468.2 322.2 468.2 C320.8 465.0 319.5 461.8 318.2 458.7 C317.9 460.1 317.1 461.3 316.0 462.1 C317.1 462.5 317.4 464.0 317.4 465.2 C317.4 473.5 314.9 481.8 310.3 488.7 C309.7 489.6 309.3 491.1 310.3 491.5 C312.2 490.2 313.6 488.2 314.1 486.0 C314.6 486.4 315.2 486.7 315.7 487.1 C317.3 484.7 317.9 481.8 317.5 479.0 C318.3 477.2 319.0 475.3 319.8 473.5 M317.2 408.7 C314.9 405.8 309.9 405.3 307.1 407.9 C310.6 408.2 313.8 410.4 315.4 413.4 C316.7 412.9 318.2 412.3 318.9 411.0 C319.5 409.7 318.6 407.7 317.1 408.0 M297.5 417.7 C296.5 417.4 294.9 417.7 295.2 418.7 C298.2 420.4 301.6 421.3 305.1 421.3 C304.2 419.7 303.2 418.0 302.3 416.4 C301.6 417.0 300.9 417.7 300.2 418.4 C300.6 417.3 298.2 417.0 298.3 418.2 M324.1 488.0 C325.2 489.7 326.1 491.6 326.4 493.6 C327.0 492.4 327.5 491.3 328.0 490.1 C326.1 488.2 324.3 486.4 322.4 484.6 C321.8 485.8 322.7 487.6 324.0 487.8 " fill="#000000" stroke="none"/> <path d="M250.4 9.4 C252.4 8.3 254.9 8.2 257.0 9.1 C254.5 11.0 251.5 12.3 248.4 12.7 C248.6 11.4 249.4 10.2 250.5 9.7 " fill="#000000" stroke="none"/> <path d="M186.7 44.8 C188.9 41.8 194.1 41.8 196.3 44.8 C193.6 47.2 189.1 47.1 186.5 44.6 " fill="#000000" stroke="none"/> <path d="M338.0 319.1 C338.8 318.6 339.7 318.1 340.5 317.6 C340.9 318.4 341.3 319.1 341.7 319.9 C340.0 321.9 337.8 323.5 335.3 324.5 C335.2 323.7 335.0 322.8 334.9 322.0 C336.4 321.8 337.8 320.6 338.1 319.1 " fill="#000000" stroke="none"/> <path d="M255.1 249.5 C256.1 252.3 253.7 255.6 250.8 255.5 C251.5 254.6 251.6 253.2 251.2 252.1 C252.4 251.3 253.7 250.5 255.0 249.7 " fill="#000000" stroke="none"/> <path d="M253.9 273.1 C253.9 271.7 255.2 270.4 256.6 270.6 C256.1 271.4 256.5 272.6 257.4 272.9 C257.0 276.1 254.6 278.9 251.6 280.0 C250.2 277.6 251.4 274.1 253.9 273.0 " fill="#000000" stroke="none"/> <path d="M238.9 121.9 C237.8 121.6 237.8 119.7 238.9 119.4 C240.0 123.1 241.0 126.8 241.9 130.5 C239.2 130.8 236.7 127.8 237.5 125.3 C238.1 124.2 238.6 123.2 239.2 122.2 " fill="#000000" stroke="none"/> <path d="M251.4 255.5 C251.7 258.8 250.6 262.1 248.5 264.6 C247.7 264.2 247.1 263.2 247.3 262.2 C248.2 259.9 249.1 257.6 250.0 255.2 " fill="#000000" stroke="none"/> <path d="M287.4 272.6 C288.3 274.6 287.9 277.0 286.4 278.6 C284.1 275.2 282.9 271.2 282.9 267.1 C284.1 266.7 285.4 266.2 286.6 265.7 C286.9 268.0 287.2 270.3 287.4 272.6 " fill="#000000" stroke="none"/> <path d="M214.0 219.6 C213.5 220.6 212.3 221.2 211.1 221.1 C210.9 220.1 210.6 219.1 210.4 218.1 C212.0 217.1 212.4 214.5 211.0 213.1 C212.7 214.1 214.4 215.0 216.1 216.0 C215.0 216.4 213.9 216.8 212.9 217.1 C213.2 218.0 213.6 218.8 213.9 219.6 " fill="#000000" stroke="none"/> <path d="M252.4 157.8 C255.6 159.5 256.9 164.2 254.9 167.4 C252.9 165.0 250.9 162.7 248.9 160.4 C248.1 159.4 247.2 158.3 247.1 157.0 C247.0 155.7 248.2 154.3 249.5 154.7 C250.5 155.6 251.5 156.6 252.5 157.6 " fill="#000000" stroke="none"/> <path d="M390.3 198.1 C392.8 201.9 392.4 206.7 391.7 211.2 C391.3 213.8 390.6 216.7 388.5 218.3 C387.1 211.6 387.8 204.4 390.3 198.1 " fill="#000000" stroke="none"/> <path d="M211.0 213.5 C209.9 212.0 209.2 210.1 209.0 208.2 C210.6 205.7 214.5 205.0 216.8 206.9 C216.4 207.9 215.8 208.9 214.8 209.3 C213.8 209.6 212.3 208.8 212.7 207.7 C212.1 208.6 211.5 209.4 211.0 210.2 C211.9 210.9 213.1 211.4 214.3 211.5 C213.1 212.1 212.0 212.7 210.9 213.4 " fill="#000000" stroke="none"/> <path d="M399.7 196.6 C396.7 189.6 395.9 181.8 397.5 174.4 C397.8 173.1 398.9 171.5 400.0 172.2 C401.7 180.2 401.6 188.6 399.7 196.6 " fill="#000000" stroke="none"/> <path d="M331.6 205.6 C330.5 203.6 327.7 202.8 325.7 203.8 C324.6 205.0 323.6 206.2 322.6 207.3 C320.1 207.2 317.6 206.0 315.8 204.3 C318.3 204.4 320.9 204.5 323.5 204.6 C322.6 203.2 325.0 201.9 326.7 202.0 C329.8 202.0 333.0 202.2 336.1 202.5 C334.6 203.5 333.1 204.6 331.6 205.6 " fill="#000000" stroke="none"/> <path d="M216.9 160.3 C215.9 158.9 216.1 156.7 217.5 155.6 C217.9 156.9 218.2 158.3 218.3 159.7 C221.5 163.1 221.9 168.8 219.3 172.7 C218.0 173.3 216.7 173.9 215.4 174.5 C214.3 172.8 215.5 170.7 216.1 168.8 C216.7 166.9 215.9 164.0 214.0 164.3 C214.3 162.6 215.4 161.1 216.9 160.3 " fill="#000000" stroke="none"/> <path d="M233.4 148.8 C232.5 150.7 231.0 152.3 229.3 153.6 C229.2 151.8 230.3 149.9 232.0 149.2 C229.7 147.9 228.4 144.9 229.1 142.2 C229.4 140.8 229.0 138.4 227.8 139.2 C228.6 137.6 231.8 138.6 231.4 140.4 C231.4 139.0 233.8 140.0 234.1 141.4 C234.3 142.8 234.4 144.7 235.9 144.8 C234.8 146.4 234.9 148.7 236.1 150.2 C235.2 149.7 234.3 149.2 233.4 148.8 " fill="#000000" stroke="none"/> <path d="M228.9 248.9 C229.8 249.7 230.6 250.4 231.4 251.1 C231.2 254.2 231.0 257.3 230.8 260.4 C231.4 260.5 231.9 260.6 232.5 260.6 C233.0 261.4 233.1 262.3 233.0 263.2 C231.7 263.2 230.6 264.7 231.0 265.9 C232.6 265.5 234.2 265.0 235.8 264.5 C235.9 267.6 236.0 270.7 236.1 273.8 C236.2 276.1 234.8 279.5 232.7 278.5 C230.9 272.1 229.2 265.7 227.4 259.3 C226.6 256.5 226.0 253.0 228.0 250.8 C226.7 250.2 225.3 249.6 224.0 249.0 C225.0 248.7 226.0 248.4 227.0 248.1 C225.3 248.1 225.5 245.6 226.2 244.1 C225.3 243.9 224.4 243.7 223.4 243.5 C222.9 242.6 222.7 241.5 223.0 240.6 C225.6 240.8 228.1 242.2 229.6 244.4 C228.8 243.6 228.4 245.7 229.1 246.5 C229.9 247.4 230.0 249.3 228.9 248.9 " fill="#000000" stroke="none"/> <path d="M268.5 237.6 C271.5 241.7 273.9 246.3 275.6 251.0 C280.5 253.9 286.6 254.5 291.9 252.7 C296.0 251.2 300.5 248.3 304.4 250.3 C298.8 256.2 291.0 260.0 282.9 260.8 C278.8 261.2 276.0 265.0 273.5 268.3 C271.0 271.6 267.1 275.0 263.2 273.7 C262.8 270.8 262.5 267.8 262.1 264.8 C265.2 264.2 266.3 260.2 265.7 257.1 C265.1 254.0 263.5 251.0 263.9 247.9 C266.4 247.2 269.4 245.7 269.1 243.2 C268.9 242.1 268.1 241.3 267.7 240.3 C267.3 239.3 267.4 237.9 268.5 237.6 " fill="#000000" stroke="none"/> <path d="M265.7 309.1 C268.7 309.6 271.7 310.1 274.8 310.5 C274.2 313.3 270.6 314.2 267.8 314.0 C264.9 313.8 261.7 313.2 259.4 315.0 C256.2 317.6 252.6 310.2 248.6 311.2 C246.3 311.7 243.9 309.3 244.5 307.0 C245.1 304.7 248.5 303.8 250.2 305.4 C253.5 303.4 256.8 301.4 260.1 299.4 C261.1 298.9 262.1 298.3 263.2 298.5 C273.9 300.7 284.8 301.7 295.7 301.4 C296.3 304.9 297.9 309.3 301.5 309.3 C295.9 313.9 287.0 306.0 280.6 309.3 C276.6 305.5 269.7 305.4 265.7 309.1 " fill="#000000" stroke="none"/> <path d="M358.2 326.4 C356.3 331.9 354.5 337.3 352.7 342.8 C351.6 346.2 350.5 349.5 348.7 352.6 C346.7 356.1 343.8 359.1 340.9 362.0 C337.0 366.1 333.0 370.2 329.0 374.3 C324.1 379.4 318.9 384.6 312.0 386.3 C319.6 378.7 327.1 371.1 334.7 363.5 C337.9 360.2 341.2 356.9 343.6 353.0 C348.9 344.3 350.0 332.6 358.2 326.4 " fill="#000000" stroke="none"/> <path d="M242.3 283.3 C243.0 284.7 243.7 286.1 244.4 287.5 C251.4 285.6 258.5 284.1 265.7 283.1 C268.1 282.8 270.5 282.5 272.8 283.1 C274.6 283.6 276.2 284.6 278.0 285.2 C283.5 286.9 289.3 284.0 295.0 283.6 C301.1 283.3 307.0 285.7 313.1 285.3 C315.5 285.1 317.9 284.5 320.3 284.7 C322.7 284.9 325.2 286.3 325.8 288.7 C318.4 289.2 310.9 289.6 303.5 289.9 C293.1 290.4 282.7 290.6 272.3 290.9 C265.0 291.1 257.6 291.3 250.3 291.5 C250.4 293.0 249.6 294.6 248.4 295.6 C247.8 292.4 243.1 292.3 240.8 290.1 C238.9 288.3 238.7 285.4 239.4 282.9 C240.1 280.5 241.5 278.3 242.4 275.9 C243.3 273.5 243.8 270.9 245.3 268.9 C246.9 266.9 250.0 265.7 252.0 267.3 C250.4 267.3 248.9 267.9 247.9 269.1 C248.4 270.1 248.9 271.1 249.5 272.2 C246.4 275.4 244.0 279.2 242.3 283.3 " fill="#000000" stroke="none"/> <path d="M319.2 188.6 C317.7 192.4 313.7 195.1 309.6 195.1 C305.5 195.0 301.6 192.2 300.2 188.4 C299.8 187.2 298.4 186.6 297.3 186.0 C292.2 183.2 290.9 175.4 294.6 171.1 C295.1 173.4 295.5 175.7 296.0 178.0 C297.2 178.5 298.4 179.0 299.6 179.5 C300.9 177.1 303.9 176.4 306.5 175.8 C321.4 172.9 337.3 170.1 351.2 176.2 C353.9 177.4 356.9 179.9 355.8 182.7 C337.8 177.5 318.1 178.3 300.6 185.1 C301.0 187.1 303.3 188.1 305.4 187.9 C307.4 187.7 309.2 186.6 311.0 185.8 C317.2 183.1 324.3 183.1 330.9 184.2 C335.2 184.9 339.5 186.1 343.5 188.0 C346.3 189.4 349.2 191.8 348.8 194.9 C347.8 197.4 344.2 196.4 342.0 194.9 C339.9 193.4 336.7 191.8 335.1 193.7 C332.8 196.4 328.8 197.6 325.4 196.5 C322.0 195.4 319.4 192.1 319.2 188.6 " fill="#000000" stroke="none"/> <path d="M217.2 181.5 C219.3 175.9 225.1 172.2 231.0 171.1 C236.9 170.1 243.0 171.1 248.9 172.4 C255.6 173.9 262.3 175.7 268.8 177.9 C272.6 179.1 277.1 180.4 280.4 178.1 C281.3 175.4 282.1 172.6 283.0 169.9 C285.3 174.7 284.2 180.4 282.4 185.4 C280.6 190.4 278.2 195.3 277.8 200.6 C276.6 219.2 268.5 237.2 255.4 250.4 C255.0 249.7 254.6 248.9 254.2 248.2 C261.0 236.5 265.0 223.2 266.0 209.7 C267.5 209.4 268.2 211.6 268.2 213.2 C268.2 214.7 269.2 216.9 270.7 216.3 C270.5 213.8 271.0 211.3 272.1 209.1 C267.3 205.4 261.3 203.5 255.3 203.7 C259.3 200.2 265.6 199.7 270.1 202.6 C271.9 202.4 272.2 199.6 270.9 198.3 C269.6 197.0 267.6 196.8 265.9 196.5 C264.1 196.1 262.1 195.3 261.6 193.6 C260.9 191.4 257.5 191.6 255.7 193.1 C253.9 194.6 252.6 196.8 250.3 197.6 C247.6 198.5 244.8 196.7 242.2 195.7 C239.5 194.7 235.6 194.8 234.8 197.6 C238.7 199.6 242.7 201.5 246.6 203.4 C247.5 203.9 249.2 203.2 248.4 202.6 C248.8 203.7 249.3 204.8 249.7 205.9 C251.3 204.7 252.9 203.6 254.6 202.5 C254.0 204.0 254.2 205.8 255.1 207.2 C247.8 211.9 237.1 210.5 231.2 204.0 C232.1 202.1 231.2 199.7 229.4 198.7 C228.3 200.0 226.2 200.5 224.7 199.6 C223.5 201.6 220.7 202.4 218.7 201.2 C216.4 199.2 214.0 197.2 211.6 195.2 C216.0 192.5 215.4 186.2 217.2 181.5 M260.0 183.2 C250.3 178.9 238.8 178.6 229.0 182.5 C226.4 183.5 223.8 184.9 222.5 187.3 C221.1 189.6 221.4 193.2 223.8 194.5 C226.4 188.9 232.7 185.8 238.9 184.9 C245.1 184.0 251.4 184.8 257.6 184.7 C258.6 184.6 260.1 184.2 260.0 183.2 " fill="#000000" stroke="none"/> <path d="M181.5 147.1 C177.8 138.5 176.9 128.9 176.0 119.5 C174.9 107.4 173.7 95.3 174.9 83.2 C176.0 71.4 179.3 59.9 184.5 49.3 C192.7 52.6 202.8 51.4 209.6 45.8 C216.4 40.2 219.5 30.1 216.2 21.8 C213.4 14.6 219.1 5.5 226.8 4.8 C220.8 12.2 219.0 22.9 222.3 31.8 C224.7 34.3 229.8 33.1 230.8 29.7 C231.5 31.6 227.4 30.9 227.8 28.9 C228.2 27.0 230.5 26.2 232.1 25.0 C236.2 22.2 236.9 16.5 238.1 11.6 C239.4 6.8 243.3 1.4 248.2 2.5 C244.2 8.5 241.9 15.8 241.8 23.0 C251.8 15.2 263.4 7.0 276.0 8.9 C278.1 9.2 278.9 6.4 279.4 4.4 C280.0 2.4 282.7 0.3 283.7 2.1 C283.4 6.0 283.1 9.9 282.7 13.7 C291.0 10.7 298.7 6.0 305.2 0.0 C306.2 4.8 307.3 9.7 308.3 14.5 C309.7 12.1 311.1 9.7 312.4 7.4 C314.9 9.4 316.7 12.1 317.7 15.2 C322.5 12.3 328.7 12.2 333.5 14.9 C330.8 17.0 328.0 19.0 325.2 21.1 C327.0 24.7 332.8 21.8 334.6 18.1 C336.5 14.4 338.3 9.5 342.4 9.5 C342.1 12.6 341.8 15.6 341.5 18.7 C346.9 15.9 353.3 14.9 359.2 16.0 C352.5 18.1 346.8 23.4 344.3 29.9 C351.2 27.8 358.0 25.0 364.4 21.6 C361.6 28.4 362.9 36.7 367.6 42.3 C372.3 47.9 380.3 50.6 387.4 49.0 C391.9 48.0 397.9 46.1 400.1 50.2 C396.8 51.0 393.5 51.8 390.2 52.7 C395.0 57.7 399.9 62.6 404.7 67.6 C401.2 68.1 397.4 67.0 394.6 64.7 C412.4 97.3 404.8 137.5 394.5 173.1 C393.8 175.6 392.9 178.4 390.6 179.6 C380.2 185.2 388.5 204.0 379.5 211.6 C376.7 189.8 373.9 168.0 371.1 146.1 C368.7 127.7 364.2 106.2 347.2 98.7 C336.0 93.6 323.1 96.7 310.8 98.0 C289.4 100.3 267.8 96.8 246.5 93.3 C243.1 96.8 240.0 100.5 237.1 104.4 C232.9 104.4 228.8 106.3 226.0 109.4 C225.8 107.3 225.6 105.2 225.4 103.1 C220.6 109.4 219.8 118.6 223.5 125.7 C228.6 135.3 226.8 148.0 219.2 155.8 C217.3 153.6 213.6 154.3 211.6 156.4 C209.6 158.5 209.0 161.5 208.5 164.4 C205.1 182.1 201.8 200.0 202.9 217.9 C203.2 222.4 203.8 226.8 204.3 231.2 C203.2 233.7 206.3 236.4 209.0 236.1 C211.7 235.7 213.8 233.6 215.6 231.5 C214.6 227.9 213.7 224.2 212.7 220.6 C213.9 219.0 216.5 218.8 217.9 220.1 C220.3 226.4 222.7 232.7 225.1 239.0 C222.7 237.6 220.2 236.1 217.8 234.7 C214.0 237.4 215.2 243.3 217.4 247.4 C219.7 251.4 222.8 255.8 221.6 260.2 C217.8 274.3 224.6 290.4 237.3 297.5 C242.7 300.6 242.2 308.3 243.0 314.4 C244.6 326.6 255.2 337.1 267.5 338.5 C269.5 340.4 272.2 341.7 275.0 341.9 C292.1 346.8 311.2 344.1 326.3 334.7 C302.0 354.4 264.1 354.8 239.3 335.7 C241.2 335.6 242.6 333.5 242.0 331.8 C241.4 330.1 239.0 329.4 237.5 330.5 C235.0 325.3 232.4 320.2 229.9 315.0 C226.1 323.1 227.8 332.8 232.1 340.6 C236.4 348.4 242.9 354.6 249.4 360.7 C255.2 366.1 261.0 371.6 266.8 377.0 C243.7 369.4 225.8 347.7 222.8 323.5 C218.7 291.3 209.6 259.7 195.8 230.2 C183.7 204.6 192.7 173.1 181.5 147.1 M291.8 46.4 C299.4 44.0 307.0 41.7 314.6 39.3 C317.0 38.6 319.8 37.3 320.0 34.8 C309.6 34.8 299.2 39.0 291.8 46.4 M305.5 28.7 C305.7 27.5 305.2 26.3 304.2 25.7 C299.7 27.0 295.1 27.8 290.4 28.0 C290.7 29.3 292.4 30.1 293.6 29.4 C294.4 31.0 292.5 32.5 291.3 33.7 C290.0 35.0 290.1 38.0 291.8 37.6 C294.7 32.8 299.9 29.4 305.5 28.7 M273.6 23.6 C272.6 25.8 272.2 28.2 272.3 30.6 C273.3 28.6 274.5 26.7 275.9 24.9 C275.9 23.4 275.3 21.8 274.4 20.6 C274.1 21.6 273.8 22.6 273.5 23.6 " fill="#000000" stroke="none"/> </svg>