<?xml version="1.0" encoding="UTF-8"?>
<svg version="1.1" viewBox="0 0 2986.7 2986.7" xmlns="http://www.w3.org/2000/svg">
 <g transform="translate(0 1864.1)">
  <rect x="2.6667" y="-1861.5" width="2981.3" height="2981.3" fill="#008080"/>
 </g>
 <path d="m1432 364.5c-60.744 14.819-111.25 54.597-155.7 97.006-20.493 18.474-38.209 40.787-57.298 59.827-36.934-28.581-80.923-47.137-126.6-56.433-17.474 1.7834-28.358 18.491-33.9 33.7-10.746 22.474-16.46 47.028-22.2 71-44.269-7.8225-89.375 1.2166-132.47 11.267-10.188 5.1671-8.4829 18.539-6.2333 27.733 2.5562 17.491 8.1129 34.352 14.267 50.867-86.872 14.65-166.04 55.886-241.05 100.15-43.852 26.081-85.697 55.404-126.05 86.581 17.532 59.888 36.829 120.49 70.2 173.4-43.367 24.834-79.127 62.771-100.6 107.8-3.5292 18.985 11.788 35.866 28.333 42.567 11.143 6.4658 23.175 11.346 35.433 15.4-24.811 22.002-46.422 49.378-55.567 81.667-1.0274 22.136 16.117 39.321 33.112 50.704 12.019 8.2901 25.559 13.983 39.388 18.596-41.267 70.781-54.228 154.38-54.572 235.47-0.52634 66.257 5.6818 132.9 22.806 196.97 9.2246 16.71 30.774 19.972 48.099 17.148 28.691-1.4946 56.946-7.1383 85.001-13.181 36.166 93.557 102.84 172.17 177.74 237.51 20.428 17.974 42.197 34.366 64.265 50.252 31.141-24.909 61.515-50.74 91.033-77.5 55.558 45.369 119.76 78.336 181.97 113.4 3.4248 0.9571 6.9542 4.3347 4.4 7.9667-12.28 123.16-6.3111 249.74 30.967 368.27 13.754 24.145 42.535 34.043 68.733 37.633 32.016 4.5002 68.494 0.094 92.167-23.833 15.131-17.797 13.064-43.263 10.727-65.095-1.6156-23.444-4.3837-46.787-6.6602-70.171 86.255 6.2913 172.8 11.138 259.3 7.9 5.9445 39.303 5.7248 79.544 13.167 118.63 14.618 27.073 46.765 39.316 76.298 39.66 32.324 1.9723 68.159-4.9752 90.768-29.727 16.688-25.785 13.727-58.054 18.43-87.194 1.2629-17.222 0.4702-34.533 2.0031-51.74 17.577-1.6017 35.011-5.2768 51.8-10.7 6.068 21.474 16.42 45.145 38.267 54.267 38.85 13.896 87.746 5.8859 114.3-27.133 14.245-20.236 10.648-46.588 13.388-70.03 4.8501-78.628 0.2671-158.79-22.889-234.37 22.454 13.811 44.151 31.035 70.662 36.249 43.09 11.856 91.415 7.2712 129.97-15.749 32.157 25.166 86.969 14.166 104.5-23.4 14.422-31.264 4.8556-69.614 25.3-98.633 17.092-21.97 46.627-27.211 70.667-38.567 17.727-7.5118 34.655-16.845 51.7-25.833-66.589-7.7166-134.38-23.184-201.4-10.433-44.776 6.7833-88.446 32.821-108.17 74.6-9.7149 17.694-11.302 40.198-1.6334 58.267-23.717 8.4453-51.123 3.5061-71.394-11.061-36.701-20.686-72.958-47.204-116.37-50.439 20.5-21.339 39.05-44.539 55.767-69 14.635 21.634 31.779 41.496 51.067 59 26.443-25.92 45.752-58.563 58.133-93.367 26.744 17.726 54.372 36.303 86 43.367 10.3-1.8074 11.626-13.976 13.867-22.2 16.313-65.991 22.274-134.09 25.225-201.9 3.6541-114.36-9.4564-229.19-38.891-339.7 26.712 6.7293 54.101 10.606 81.4 14.367 5.803-47.517-3.777-96.194-24.767-138.9 25.324-0.2348 50.611-1.8535 75.933-2.2-25.666-59.333-67.182-111.3-118.2-150.8 47.692-30.058 89.7-71.181 115.83-121.57 2.8433-14.214-10.24-24.121-17.826-34.178-60.259-71.32-142.38-119.89-225.53-160.22-38.086-18.482-77.255-34.703-117.21-48.739-1.0127-29.307-9.3522-57.628-17.733-85.533-43.995-17.302-92.072-19.263-138.87-18.933 9.7735-29.519 12.465-61.73 5.5666-92.2-83.522 1.1367-167.2 7.8576-248.93 25.533-49.9-69.429-120.38-124.68-201.2-153.3-2.6395-0.55613-5.3273-0.93877-8.0334-0.76667z" fill="#003c3c"/>
 <path d="m1389.4 364.5c-60.744 14.819-111.25 54.597-155.7 97.006-20.493 18.474-38.209 40.787-57.298 59.827-36.934-28.581-80.923-47.137-126.6-56.433-17.474 1.7834-28.358 18.491-33.9 33.7-10.746 22.474-16.46 47.028-22.2 71-44.269-7.8225-89.375 1.2166-132.47 11.267-10.188 5.1671-8.4829 18.539-6.2333 27.733 2.5562 17.491 8.1129 34.352 14.267 50.867-86.872 14.65-166.04 55.886-241.05 100.15-43.852 26.081-85.697 55.404-126.05 86.581 17.532 59.888 36.829 120.49 70.2 173.4-43.367 24.834-79.127 62.771-100.6 107.8-3.5292 18.985 11.788 35.866 28.333 42.567 11.143 6.4658 23.175 11.346 35.433 15.4-24.811 22.002-46.422 49.378-55.567 81.667-1.0274 22.136 16.117 39.321 33.112 50.704 12.019 8.2901 25.559 13.983 39.388 18.596-41.267 70.781-54.228 154.38-54.572 235.47-0.52633 66.257 5.6818 132.9 22.806 196.97 9.2246 16.71 30.774 19.972 48.099 17.148 28.691-1.4946 56.946-7.1383 85.001-13.181 36.166 93.557 102.84 172.17 177.74 237.51 20.428 17.974 42.197 34.366 64.265 50.252 31.141-24.909 61.515-50.74 91.033-77.5 55.558 45.369 119.76 78.336 181.97 113.4 3.4249 0.9571 6.9543 4.3347 4.4 7.9667-12.28 123.16-6.311 249.74 30.967 368.27 13.754 24.145 42.535 34.043 68.733 37.633 32.016 4.5002 68.494 0.094 92.167-23.833 15.131-17.797 13.064-43.263 10.727-65.095-1.6156-23.444-4.3837-46.787-6.6602-70.171 86.255 6.2913 172.8 11.138 259.3 7.9 5.9445 39.303 5.7248 79.544 13.167 118.63 14.618 27.073 46.766 39.316 76.298 39.66 32.324 1.9723 68.159-4.9752 90.768-29.727 16.688-25.785 13.727-58.054 18.43-87.194 1.2628-17.222 0.4702-34.533 2.0031-51.74 17.577-1.6017 35.011-5.2768 51.8-10.7 6.0679 21.474 16.42 45.145 38.267 54.267 38.85 13.896 87.746 5.8859 114.3-27.133 14.245-20.236 10.648-46.588 13.389-70.03 4.85-78.628 0.2671-158.79-22.889-234.37 22.454 13.811 44.151 31.035 70.662 36.249 43.09 11.856 91.415 7.2712 129.97-15.749 32.157 25.166 86.969 14.166 104.5-23.4 14.422-31.264 4.8555-69.614 25.3-98.633 17.092-21.97 46.627-27.211 70.667-38.567 17.727-7.5118 34.655-16.845 51.7-25.833-66.589-7.7166-134.38-23.184-201.4-10.433-44.776 6.7833-88.446 32.821-108.17 74.6-9.7149 17.694-11.302 40.198-1.6334 58.267-23.717 8.4453-51.123 3.5061-71.394-11.061-36.701-20.686-72.957-47.204-116.37-50.439 20.5-21.339 39.05-44.539 55.767-69 14.635 21.634 31.779 41.496 51.067 59 26.443-25.92 45.752-58.563 58.133-93.367 26.744 17.726 54.372 36.303 86 43.367 10.3-1.8074 11.626-13.976 13.867-22.2 16.313-65.991 22.274-134.09 25.225-201.9 3.6541-114.36-9.4564-229.19-38.891-339.7 26.712 6.7293 54.101 10.606 81.4 14.367 5.803-47.517-3.7769-96.194-24.767-138.9 25.324-0.2348 50.611-1.8535 75.933-2.2-25.666-59.333-67.182-111.3-118.2-150.8 47.692-30.058 89.7-71.181 115.83-121.57 2.8433-14.214-10.239-24.121-17.826-34.178-60.259-71.32-142.38-119.89-225.53-160.22-38.086-18.482-77.255-34.703-117.21-48.739-1.0127-29.307-9.3522-57.628-17.733-85.533-43.995-17.302-92.072-19.263-138.87-18.933 9.7736-29.519 12.465-61.73 5.5666-92.2-83.522 1.1367-167.2 7.8576-248.93 25.533-49.9-69.429-120.38-124.68-201.2-153.3-2.6395-0.55613-5.3273-0.93877-8.0334-0.76667z" fill="#003c3c"/>
 <path d="m1389.9 375.13c-62.432 16.386-113.44 59.313-158.58 103.56-18.624 18.353-36.019 38.196-52.99 57.977-36.132-31.082-81.266-50.12-127.37-61.133-13.679 1.2026-20.16 15.527-24.918 26.6-12.165 25.304-18.099 52.952-24.016 80.233-40.484-10.717-82.869-2.4646-123.2 5-4.4231 2.118-13.34 0.96167-14.767 5.3 1.2819 26.175 10.299 51.163 20 75.267-86.071 11.454-164.81 51.424-239.22 94.047-45.343 26.643-88.718 56.17-130.35 88.22 17.806 60.232 37.504 121.19 73.467 173.23-45.5 22.509-82.482 60.938-105.7 105.87-2.7456 14.002 9.8183 25.201 21.3 30.4 16.705 9.938 35.433 16.074 54.2 21.167-29.311 22.34-55.271 51.112-67.133 86.5-1.1243 18.388 14.473 31.381 27.933 41.167 15.024 10.626 32.671 16.332 50.067 21.767-42.626 65.992-57.423 145.83-59.761 223.4-2.0675 70.454 4.0177 141.53 21.127 209.84 6.7996 12.622 23.199 13.395 35.833 11.8 32.032-1.267 63.424-8.2783 94.7-14.933 34.412 95.118 101.39 174.48 176.5 240.53 18.673 16.475 38.26 31.561 58.433 46.1 31.232-25.085 61.572-51.213 91.133-78.2 46.886 41.003 102.81 69.716 156.1 101.43 14.081 7.8406 28.284 15.437 42.5 23.033-14.053 124.86-8.6133 253.41 28.167 374 11.782 21.002 36.872 28.282 59.05 32.153 27.655 3.944 58.773 1.6394 81.195-16.482 11.408-10.866 14.979-27.638 12.42-42.837-1.0388-33.676-5.9621-67.057-8.7327-100.6 93.164 7.0892 186.69 12.556 280.13 8.5334 6.9979 41.132 7.6208 83.24 13.5 124.47 12.265 23.338 40.188 33.101 65.265 34.032 29.406 1.8497 62.19-2.8737 83.569-24.865 13.82-20.339 11.233-46.314 15.583-69.494 2.3563-24.429 2.1529-49 2.9172-73.506 23.994-0.9993 47.764-6.1874 70.167-14.667 4.5939 20.68 11.838 42.634 29.033 56.133 31.325 13.043 70.335 10.215 97.433-10.933 12.069-9.4634 19.069-24.359 18.568-39.581 8.5534-92.971 6.7139-188.92-23.835-277.99 0.2543-2.6866-6.173-11.456-2.3667-10.7 28.494 8.7751 48.996 33.847 77.902 41.798 45.684 16.334 99.992 13.05 140.3-15.031 26.446 27.473 80.096 19.294 95-16.5 11.546-30.449 4.5286-66.026 22.633-94.3 10.239-17.531 29.158-26.407 47.228-33.772 17.313-7.0844 34.982-13.472 51.605-22.195-58.968-7.9042-120.14-18.254-178.77-2.9333-39.985 9.1648-77.898 36.659-90.7 76.767-6.3934 15.832-1.6603 34.388 9.0666 46.967-25.432 13.551-58.168 14.356-83.05-1.1505-37.948-19.456-72.816-48.49-116.42-53.65-4.1947-1.4748-11.748 1.761-12.8-4.3666-1.0056-3.3695-7.4372-7.3372-2.6667-10.267 24.866-26.338 47.859-54.6 67.134-85.267 13.981 23.288 30.985 44.765 50.5 63.633 25.139-26.764 42.084-60.204 52.9-95.1 24.794 17.348 50.582 34.28 78.633 45.567 2.8378 0.1214 9.9159 5.0073 12.289 3.9025 3.7505-10.646 4.7025-17.289 8.1443-28.336 35.145-178.35 27.212-365.18-22.5-540.07 28.374 8.5966 57.577 13.555 87 17.5 3.7034-47.935-9.158-96.215-32.933-137.6 25.736 0.8073 51.448-1.0076 77.167-1.6333-27.233-56.537-69.791-105.14-120.87-141.47 51.247-28.807 95.34-70.947 124.53-122.13 2.2507-9.5135-7.9286-14.61-11.959-21.744-59.974-72.965-143.21-121.51-227.06-162.42-39.498-18.91-80.101-35.529-121.49-49.94 0.1527-29.041-7.6863-57.322-15.9-84.9-46.44-17.098-96.753-16.671-145.6-16.4 12.078-28.84 17.4-61.03 12.133-92.067-82.164 1.529-164.55 8.5518-244.77 26.7-15.301-23.493-34.481-44.522-54.5-64.133-40.929-39.115-89.467-70.888-142.7-90.533-2.2308-0.56511-4.5463-0.94501-6.8666-0.76667z" fill="#fff"/>
 <path d="m1466.7 2135.3c-7.135 0.028-14.504 0.3276-22.133 0.8999-100.79 7.5596-112.65 96.151-108.03 182.33 61.003 5.311 207.42 16.236 316.87 9.7666-23.576-128.01-75.7-193.43-186.7-193z" fill="#fea"/>
 <path d="m2327.7 1909.4c-71.816 0.6116-117.84 22.859-137.27 70.2-7.1933 23.019 10.775 38.823 26.6 41.7-38.125 28.773-79.836 43.879-133.07 13.667-39.997-22.701-76.763-51.91-124.3-49.767 6.4969 12.254 12.309 24.412 17.533 36.467 17.898-5.0816 42.586-2.7327 75.1 21.933 41.721 31.65 120.85 48.931 178.4-4.3 11.509 35.967 56.119 28.769 69.067 10.067 18.402-26.581-5.7492-106.45 70.5-138.1-15.061-1.3488-29.267-1.98-42.567-1.8667z" fill="#a05a2c"/>
 <path d="m1940.3 1951.8c-51.749 51.648-128.14 110.31-236.97 157.3-66.178-48.915-123.7-109.33-123.7-109.33s-189.92 109.36-264.73 138.13c-37.383-18-74.245-36.683-109.07-55.133-8.6112 63.981-21.962 221.24 25.067 378 28.791 31.608 116.75 26.097 115.97-5.3667 4.0691-83.418-65.1-306.96 97.666-319.17s211.16 99.727 223.37 327.6c17.354 36.942 119.18 27.716 121.07-4.0667 12.208-52.899 9.5666-140.4 9.5666-140.4s47.701 5.5013 104.13-22.2c8.8365 57.441 24.667 67 24.667 67s58.676 19.205 85.7-21.733c10.444-121.85 15.272-249.32-72.733-390.63z" fill="#ffe680"/>
 <path d="m1180.1 565.52s108.99-145.43 212.57-171.32c117.97 46.037 184.15 140.99 192.78 158.25 126.6-28.773 189.9-25.896 235.94-28.773 2.8772 46.037-25.896 92.074-25.896 92.074s115.09-5.7546 161.13 11.509c17.264 57.547 11.509 83.443 11.509 83.443s256.08 80.565 359.67 218.68c-43.16 71.933-123.73 117.97-143.87 120.85 89.197 51.792 129.48 126.6 129.48 126.6s-54.669 2.8773-80.565-2.8773c25.896 48.915 46.037 71.933 48.915 138.11-57.547-8.632-97.829-25.896-97.829-25.896s97.829 258.96 31.651 575.47c-86.32-48.915-89.197-60.424-89.197-60.424s-11.509 60.424-43.16 100.71c-31.651-34.528-48.915-74.81-48.915-74.81s-77.688 172.64-330.89 281.98c-66.178-48.915-123.72-109.34-123.72-109.34s-189.9 109.34-264.71 138.11c-155.38-74.81-302.12-161.13-328.02-195.66-48.915 46.037-92.074 80.565-92.074 80.565s-172.64-120.85-221.55-284.86c-112.22 25.896-126.6 17.264-126.6 17.264s-69.056-287.73 54.669-437.35c-83.443-14.387-92.208-47.316-92.208-47.316s17.398-54.829 96.524-97.988c-93.513-18.703-105.02-38.844-105.02-38.844s43.16-79.126 117.97-102.15c-48.915-51.792-82.004-174.08-82.004-174.08s215.8-168.32 375.49-172.64c-25.896-57.547-27.335-79.127-27.335-79.127s97.829-23.019 132.36 4.316c11.509-83.443 34.528-115.09 34.528-115.09s87.7 21.788 128.39 70.618z" fill="#a05a2c"/>
 <path d="m828.16 1600.9s38.265 117.53 98.395 169.46c60.13 51.931 155.79 122.99 155.79 122.99l-35.532-71.063 290.58 188.28 226-147.28 161.26 142.13s150.33-87.462 245.99-295.19c40.998 51.931 103.86 90.196 103.86 90.196l8.1996-133.93 87.462 46.464s92.929-278.79-57.397-461.91c87.462 16.399 117.53 16.399 117.53 16.399s-24.599-109.33-144.86-158.53c117.53 43.731 142.13 32.798 142.13 32.798s-49.197-84.729-147.59-112.06c95.662-27.332 139.39-92.929 139.39-92.929s-240.52-183.12-437.31-177.66c128.46-68.33 128.46-76.529 128.46-76.529s-131.19 2.7332-240.52 38.265c21.866-54.664 90.195-128.46 90.195-128.46l-232.32 95.662-109.33-185.86-51.931 174.92-103.86-57.397 19.132 71.063-144.86-95.662 27.332 147.59s-174.92-79.263-161.26-62.863c13.666 16.399 65.597 120.26 65.597 120.26s-158.53-19.132-336.18 46.464c106.59 27.332 136.66 51.931 136.66 51.931l-191.32 27.332 92.929 46.464s-120.26 81.996-142.13 114.79c90.195 2.7332 98.395 13.666 98.395 13.666s-101.13 106.59-112.06 136.66c114.79-24.599 139.39-24.599 139.39-24.599s-95.662 185.86-98.395 368.98c98.395-2.7332 172.19 19.132 172.19 19.132z" fill="#7d4623"/>
 <path d="m971.1 953.83s-140.99-56.108-188.46 46.037c-47.476 102.15 51.792 155.38 70.495 165.45-17.264 43.16-87.759 244.57-50.353 379.81 37.405 135.23 261.84 276.22 650.28 253.2 388.44-23.019 535.18-184.15 546.69-379.81s-77.688-316.51-77.688-316.51 155.25-74.649 84.039-186.55c-71.21-111.9-211.6-32.553-229.91-22.38-59.497-99.924-489.31-356.92-805.09 60.749z" fill="#ffe680"/>
 <path d="m1626.7 1131.7s47.624-5.0249 85.641 21.647c0.4982-34.23-5.9417-55.893-36.637-63.899-18.408-4.8013-42.068 3.0385-49.004 42.252z"/>
 <path d="m1404.1 1109.6c-58.985-0.045-115.07 4.654-166.87 12.567-279.1 57.547-417.23 212.9-417.23 212.9-6.3675 3.3353-12.156 6.9127-17.433 10.7-11.796 66.422-16.42 139.4 0.16667 199.37 37.405 135.23 261.86 276.22 650.3 253.2 388.44-23.019 535.16-184.14 546.67-379.8 2.7857-47.358-0.3121-90.327-6.6334-128.27-6.1169-4.2053-12.526-8.4442-19.266-12.733-189.9-125.16-392.74-167.8-569.7-167.93z" fill="#fea"/>
 <path d="m1029.4 1197.7s30.212-24.457 71.214-38.844c-18.703-24.457-38.125-25.177-53.95-16.545-15.825 8.6319-23.738 28.054-17.264 55.388z"/>
 <path d="m1320.4 1575.7s131.23 23.398 217.7-74.262c-15.834-12.274-19.133-14.293-19.133-14.293s-10.096-10.413 2.3942-14.119c13.837-4.1051 36.067 22.308 41.154 26.377 5.0864 4.0691 17.802 21.363 13.225 31.536-3.4424 7.6499-14.725 6.5145-23.881-13.831-33.571 27.467-101.62 94.074-224.71 76.78-13.976-2.6878-18.098-6.8187-18.021-10.985 0.068-3.7177 3.1146-7.683 11.27-7.2033z" fill="#c87137"/>
 <path d="m1343.7 1286.2s17.264 210.04 51.792 296.36h11.509s-37.405-208.61-23.018-305c-31.651-46.037-40.283 8.632-40.283 8.632z" fill="#c87137"/>
 <path d="m950.85 983.54s-62.754 105.48-78.776 152.21c-57.413-28.039-97.847-57.221-69.43-126.84 26.704-65.424 148.21-25.369 148.21-25.369z" fill="#ffd42a"/>
 <path d="m1584.8 760.67c48.953 41.715 126.7 117.27 164.4 203.43 57.397 131.19 60.128 188.6-35.533 188.6-84.729 13.666-133.9 54.672-90.167 153.07 43.731 98.395 139.39 273.3-92.933 344.37-232.32 71.063-442.8 32.796-524.8-46.467-71.697-69.307-168.44-69.654-177-2.8667 76.262 115.23 289.26 217.39 624.27 197.53 388.44-23.019 535.16-184.14 546.67-379.8 11.509-195.66-77.667-316.5-77.667-316.5s155.24-74.665 84.033-186.57c-71.21-111.9-211.59-32.54-229.9-22.367-21.846-36.691-93.642-94.564-191.37-132.43z" fill="#fedb50"/>
 <path d="m1798.6 919.54s73.245 87.487 93.591 140.39c79.348-44.761 113.94-73.245 73.245-132.25-40.692-59.003-122.07-36.622-166.84-8.1383z" fill="#ffd42a"/>
 <path d="m1708.4 1153.6c-81.44 14.522-127.67 55.819-84.867 152.13 43.731 98.395 139.39 273.3-92.933 344.37-232.32 71.063-442.8 32.796-524.8-46.467-71.697-69.307-168.44-69.654-177-2.8667 8.3412 12.603 18.307 25.052 29.9 37.2 1.6562 1.7354 3.3445 3.4772 5.0667 5.2 17.221 17.228 37.748 33.791 61.5 49.3 2.3752 1.5508 4.7935 3.1041 7.2333 4.6332 2.2888 1.4345 4.5877 2.8521 6.9333 4.2667 0.1548 0.094 0.31163 0.1734 0.46667 0.2667 2.5044 1.5065 5.0311 3.0168 7.6 4.4999 0.24767 0.1431 0.48507 0.2907 0.73333 0.4334 2.331 1.3405 4.7163 2.6461 7.1 3.9666 2.1482 1.1902 4.3091 2.3599 6.5 3.5335 0.85426 0.4574 1.7059 0.9116 2.5667 1.3666 1.7939 0.9482 3.6112 1.8965 5.4333 2.8332 1.0821 0.5565 2.1746 1.1145 3.2667 1.6668 1.8712 0.9464 3.7663 1.8991 5.6667 2.8333 1.0168 0.4998 2.0415 1.0036 3.0667 1.4999 2.1222 1.0276 4.2421 2.0548 6.4 3.0667 0.3053 0.1433 0.62732 0.2572 0.93334 0.4 5.5605 2.5961 11.204 5.1439 17 7.6334 1.6812 0.722 3.399 1.4206 5.1 2.1333 1.7378 0.7284 3.4749 1.4815 5.2333 2.2 2.0555 0.8397 4.1497 1.6741 6.2333 2.5001 0.7674 0.3042 1.5289 0.5975 2.3 0.8999 2.8833 1.1306 5.7969 2.2628 8.7334 3.3668 0.2569 0.096 0.5093 0.2035 0.7666 0.2999 2.6789 1.0034 5.3771 1.9859 8.1 2.9666 1.2597 0.4538 2.5309 0.8846 3.8 1.3333 2.4469 0.8653 4.8848 1.72 7.3667 2.5668 3.3337 1.1372 6.7033 2.2635 10.1 3.3667 6.4462 2.0933 13.027 4.1342 19.7 6.0999 0.4594 0.1354 0.9061 0.2986 1.3666 0.4334 2.9611 0.8663 5.9614 1.6928 8.9667 2.5334 0.5908 0.1651 1.1742 0.3357 1.7668 0.4999 2.5508 0.707 5.1174 1.4119 7.6999 2.0999 1.6612 0.4427 3.3257 0.8654 5 1.3001 2.766 0.718 5.5317 1.4372 8.3333 2.1333 0.2644 0.066 0.5354 0.1014 0.8 0.1666 6.3367 1.5678 12.782 3.0809 19.3 4.5334 0.2792 0.062 0.5538 0.138 0.8334 0.2001 1.4732 0.3266 2.9508 0.646 4.4334 0.9666 2.9746 0.6436 5.9547 1.2809 8.9666 1.8999 0.1224 0.026 0.2441 0.042 0.3667 0.067 3.8966 0.7993 7.8413 1.5757 11.8 2.3333 3.6164 0.6921 7.2654 1.3767 10.933 2.0334 0.9532 0.1706 1.9101 0.3317 2.8668 0.4999 3.2008 0.5627 6.4268 1.1315 9.6665 1.6668 0.4429 0.072 0.89 0.1272 1.3334 0.1999 2.9306 0.4801 5.9044 0.976 8.8668 1.4334 0.9344 0.1443 1.8622 0.2913 2.8 0.4332 0.1102 0.017 0.2229 0.017 0.3332 0.033 1.4051 0.2123 2.8212 0.4262 4.2334 0.6333 2.4023 0.3523 4.8105 0.6962 7.2332 1.0334 0.2908 0.04 0.5757 0.093 0.8668 0.1333 4.1507 0.5742 8.3561 1.1038 12.567 1.6333 2.9072 0.3656 5.8311 0.7227 8.7668 1.0667 2.414 0.2828 4.8331 0.5653 7.2665 0.8333 2.5859 0.2849 5.1924 0.5653 7.8001 0.8334 0.7133 0.074 1.4183 0.1612 2.1334 0.2333 0.3772 0.038 0.7554 0.062 1.1332 0.1003 0.7645 0.077 1.5338 0.1586 2.3 0.2334 1.7874 0.1744 3.5692 0.3335 5.3668 0.5 1.4836 0.1374 2.9427 0.268 4.4332 0.4 4.4505 0.394 8.9552 0.7551 13.467 1.1 4.4347 0.3389 8.9066 0.6759 13.4 0.9666h0.2333c4.1639 0.2686 8.3524 0.5403 12.567 0.7667 0.4134 0.022 0.8194 0.045 1.2334 0.066 3.9795 0.2095 7.9757 0.3619 12 0.5334 1.1768 0.05 2.3525 0.1197 3.5332 0.1667 0.912 0.036 1.8192 0.066 2.7335 0.1002 3.2849 0.1231 6.5854 0.2359 9.8999 0.3334 2.2007 0.065 4.3863 0.1134 6.6 0.1666 5.5524 0.134 11.133 0.2386 16.767 0.3 0.5119 0.011 1.0209 0 1.5335 0 2.3066 0.022 4.613 0.057 6.9333 0.066 3.903 0.017 7.8252 0.018 11.767 0 0.8207 0 1.6443-0.028 2.4667-0.033 0.9623-0.011 1.9353 0.011 2.8999 0 2.8739-0.024 5.7394-0.056 8.6334-0.1003 2.165-0.033 4.357-0.09 6.5333-0.1333 0.7326-0.015 1.4662-0.017 2.2-0.033 2.4045-0.052 4.8152-0.1024 7.2334-0.1667 0.5075-0.014 1.0252-0.019 1.5332-0.033 4.5499-0.1268 9.1352-0.2934 13.733-0.4666 5.1151-0.1927 10.258-0.4157 15.433-0.6667 2.1669-0.1056 4.3559-0.2179 6.5333-0.3334 3.0146-0.1599 6.032-0.3201 9.0667-0.5 388.44-23.019 535.16-184.14 546.67-379.8 0.1794-3.0501 0.3354-6.0864 0.4667-9.0999 0.052-1.2037 0.089-2.4022 0.1333-3.6 0.061-1.6217 0.1195-3.2559 0.1668-4.8668 0.05-1.7143 0.098-3.3978 0.1333-5.0999 0.024-1.1702 0.049-2.3357 0.066-3.5v-0.8334c0.034-2.5777 0.066-5.1511 0.067-7.6999 0-0.3694 6e-4 -0.7314 0-1.1001 0-0.8165-0.029-1.6197-0.033-2.4333-0.013-2.084-0.032-4.1691-0.066-6.2333-0.048-2.8701-0.1109-5.7351-0.2-8.5667-0.089-2.8316-0.2045-5.6405-0.3333-8.4333-0.1289-2.7929-0.2663-5.5464-0.4333-8.3-0.1671-2.7537-0.3628-5.4858-0.5667-8.2001-0.204-2.7141-0.4273-5.4257-0.6667-8.0999-0.2393-2.6743-0.4933-5.3326-0.7666-7.9666-0.2734-2.6342-0.5608-5.2399-0.8668-7.8334-0.3058-2.5935-0.6297-5.1474-0.9666-7.7001-0.1876-1.4213-0.3698-2.8246-0.5666-4.2333-0.041-0.291-0.093-0.5761-0.1333-0.8666-0.2444-1.7292-0.4755-3.457-0.7335-5.1667-0.064-0.4218-0.1354-0.846-0.1999-1.2666-0.1837-1.1998-0.3764-2.3766-0.5667-3.5667-0.1956-1.2239-0.3977-2.4198-0.6-3.6333-6.1056-4.1968-12.507-8.4196-19.233-12.7-87.01-57.347-176.73-97.353-265.43-123.9z" fill="#ffe680"/>
 <path d="m858.59 1302s443.89-428.95 1068.2-54.934c-177.01-73.245-343.84-150.56-585.96-134.28s-482.2 189.22-482.2 189.22z" fill="#c87137"/>
 <path d="m1218.2 1136.7s-84.26 28.382-11.016 91.454c68.151 58.686 187.98 105.9 301.92-8.0361 113.94-113.94-54.934-114.29-113.94-114.29-74.828 0-136.27 14.591-176.97 30.868z"/>
 <path d="m1252.3 1227.8c-4.0691-4.0693-66.124-30.519-46.795-61.037 19.328-30.519 124.11-49.847 173.96-46.795-75.279 17.294-151.58 28.484-158.7 56.968-2.0346 12.208 4.0691 28.484 31.536 50.864z" fill="#fff" stroke="#000" stroke-width="1.0667px"/>
 <path d="m959.35 1024.2s174.92-281.52 450.98-276.05c-103.86 24.599-245.99 62.863-450.98 276.05z" fill="#fea"/>
 <path d="m1940.3 1951.8c-51.749 51.648-128.14 110.31-236.97 157.3-66.178-48.915-123.7-109.33-123.7-109.33s-151.11 86.995-236.83 126.2c5.6658 13.568 14.035 28.5 26.4 43.4 16.572-18.357 40.69-30.535 75.333-33.133 112.03-8.4022 169.87 42.023 199.03 148.57 50.106 16.674 83.636 42.967 89.233 111.53 2.954 36.186 3.49 66.326 2.7334 91.134 27.361-1.8991 52.503-12.057 53.433-27.7 12.208-52.899 9.5666-140.4 9.5666-140.4s47.701 5.5013 104.13-22.2c8.8366 57.441 24.667 67 24.667 67s58.676 19.205 85.7-21.733c10.444-121.85 15.272-249.32-72.733-390.63z" fill="#fedb50"/>
 <path d="m2320.5 1927.6c-46.464 23.232-54.634 65.568-68.3 91.533-8.1996-19.132 12.3-53.267 9.5667-64.2-34.165 27.332-19.134 64.2-30.067 71.033-73.796 84.729-181.77 9.5657-218.67-12.3-15.511-9.1917-30.522-9.6778-42.733-7.1666 2.4133 5.0988 4.7051 10.169 6.9 15.233 17.895-5.0867 42.586-2.7327 75.1 21.933 41.721 31.651 120.85 48.931 178.4-4.3 11.509 35.967 56.119 28.769 69.067 10.067 11.367-16.419 6.4839-53.171 19.067-86.333-1.7526 2.0736-3.4964 4.3615-5.1667 6.8666-13.666 20.499-27.3 77.865-32.767 51.9-5.4665-25.966 19.101-57.369 39.6-94.267z" fill="#7d4623"/>
</svg>
