<?xml version="1.0" encoding="UTF-8"?>
<!DOCTYPE svg  PUBLIC '-//W3C//DTD SVG 1.0//EN'  'http://www.w3.org/TR/2001/REC-SVG-20010904/DTD/svg10.dtd' [
	<!ENTITY ns_flows "http://ns.adobe.com/Flows/1.0/">
	<!ENTITY ns_extend "http://ns.adobe.com/Extensibility/1.0/">
	<!ENTITY ns_ai "http://ns.adobe.com/AdobeIllustrator/10.0/">
	<!ENTITY ns_graphs "http://ns.adobe.com/Graphs/1.0/">
	<!ENTITY ns_vars "http://ns.adobe.com/Variables/1.0/">
	<!ENTITY ns_imrep "http://ns.adobe.com/ImageReplacement/1.0/">
	<!ENTITY ns_sfw "http://ns.adobe.com/SaveForWeb/1.0/">
	<!ENTITY ns_custom "http://ns.adobe.com/GenericCustomNamespace/1.0/">
	<!ENTITY ns_adobe_xpath "http://ns.adobe.com/XPath/1.0/">
	<!ENTITY ns_svg "http://www.w3.org/2000/svg">
	<!ENTITY ns_xlink "http://www.w3.org/1999/xlink">
]>
<svg width="283.57" height="437.91" enable-background="new 0 0 283.571 437.914" overflow="visible" viewBox="0 0 283.571 437.914" xml:space="preserve" xmlns="http://www.w3.org/2000/svg">
				<path d="m268.17 222.5c-20.301-59.355 30.594-72.383-51.516-145.31 0.533-11.916-16.377-30.58-32.086-24.564-0.483-0.066-1.21-0.119-2.118-0.161 1.261 2.05 1.972 3.903 1.972 5.755 0 1.075-0.338 2.166-0.843 3.281-4.682-1.554-10.385 0.091-13.789 1.69-1.995-0.703-4.886-0.816-8.236 0.394-1.85-1.202-4.753-1.783-8.112-0.963-1.628-1.491-4.253-2.579-7.312-3.021-0.235-0.587-0.377-1.278-0.377-2.118 0-1.637 0.353-3.628 0.688-5.487-0.94-0.056-1.724-0.123-2.309-0.203-18.215-2.507-32.451 9.788-36.256 24.366-10.75 13.262-26.846 25.61-18.117 45.5 7.244 16.509-28.756 7.009-17.408 46.677 2.729 9.535 3.564 16.574 3.148 22.514-2.969-0.535-1.314 2.576-2.891 11.494-5.514 13.312-18.262 25.678-29.176 62.152-18.039 60.32-29.238 15.816-36.105 62.277-6.867 46.465 4.852 69.121 22.891 69.555 8.812 17.297 57.984 32.711 83.984 23.461 11.5 14 40.656 20.717 64.969 6.377 25.666 2.668 44.094-7.344 50.673-26.195 23.862-0.204 30.993-19.805 36.327-47.471 15.51-22.151 22.879-68.946 1.999-130z" fill="#F7931E"/>
				<path d="m201.02 62.327c-1.609-2.012-6.578-3.625-10.34-2.418 1.883-3.09 4.332-3.844 8.766-2.5-2.148-1.879-6.77-4.229-9.303-2.963 0.27-1.074 3.154-2.307 6.24-2.037-3.223-1.207-7.719-1.023-10.674 1.192-0.119-0.43-0.318-0.815-0.564-1.178-0.195 0.067-0.389 0.122-0.584 0.196-0.483-0.066-1.21-0.119-2.118-0.161 1.261 2.049 1.972 3.903 1.972 5.754 0 1.075-0.338 2.166-0.843 3.281-4.682-1.554-10.385 0.091-13.789 1.69-1.995-0.703-4.886-0.816-8.236 0.394-1.85-1.202-4.753-1.783-8.112-0.963-1.628-1.491-4.253-2.579-7.312-3.021-0.235-0.587-0.377-1.278-0.377-2.118 0-1.638 0.354-3.631 0.688-5.491-0.784-0.047-1.471-0.101-2.01-0.165-0.457 1.931-0.285 4.917-0.508 4.843-2.016-0.668-7.742 0.293-10.289 2.039 8.32-2.148 10.875 0.938 11.273 2.551-12.75-1.477-21.75 4.562-24.031 15.305 2.609-9.395 12.469-13.023 17.297-13.023 4.836 0 2.125 5.023 2.516 8.504 0.773-1.547 3.863-6.574 10.242-6.574 5.797-0.773 7.73 4.641 5.414 8.508 2.898-0.191 5.602-4.641 6.184-6.188 6.551-3.375 11.494 2.012 11.791 6.082 1.268-1.795 0.844-4.539-0.975-6.652 6.609-4.555 13.322-1.264 16.807 3.697 0 0-0.951-4.287-1.916-5.639 0.803-2.148 6.217-5.988 12.791-2.945z" fill="#DC841A"/>
				<path d="m152.83 64.829c3.812-1.312 7-0.375 8.328 0.979 4.207-1.906 7.422-1.166 8.734-0.479 3.125-1.625 10.125-3.938 14.625-1.25 8.125-12.562-11.906-20.412-19.023-40.213-7.125-19.809-17.789-27.45-30.816-16.688-12.076 9.976-25.658 24.544-41.621 11.416-0.619-0.509-7.143 1.102-5.346 2.945-0.776 1.902 1.571 5.139 4.436 6.51-1.635 0.108-3.066 0.178-3.816-0.037 0.578 1.879 2.506 5.855 5.852 8.473 4.001 11.15 12.77 8.846 30.43 3.174 11.824-3.797 18.898-3.076 20.469 4.17 0.961 5.109-3.172 13.672-0.312 17.562 3.81 0.317 6.997 1.813 8.06 3.438z" fill="#B6715E"/>
				<path d="m268.17 222.5c-18.527-54.17 22.225-69.762-32.928-127.51 0.334 1.191-0.117 3.457 1.094 5.342 2.644 4.112 4.852 10.207 4.555 15.804-3.893-8.528-7.962-14.659-11.317-19.155 1.563-0.136 2.939-1.261 3.796-2.733-5.828-6.799-9.768-11.129-16.174-16.824-2.094-10.129-9.611-22.818-21.707-23.966 0 0 1.186 0.53 1.854 0.883 4.855 2.561 7.895 7.452 3.428 6.407-6.254-1.463-4.135 15.577-7.754 9.662-2.66-4.35-15.805 12.979-15.703 4.795 0.061-4.842-20.283 12.91-18.729 2.18 0.613-4.207-20.492 9.567-16.512-2.472 1.152-3.48-22.467 6.46-20.666-0.509 1.797-6.969-8.102 4.375-6.094-6.758 0 0-2.139 0.558-3.635 3.022-0.762 1.255-1.24 2.353-1.553 3.665-1.071 1.849-4.401 7.459-9.758 14.22-7.668 9.668-12.535 18.28-10.867 23.28 0.927 2.778 1.031 3.75 1.203 4.875-0.703 0.125-1.488 0.934-2.297 1.461 0.367 1.137 0.805 2.297 1.352 3.484 0.195 0.43 0.465 1.281 0.617 1.68 7.125-1.312 14.75 1.625 19.312 6.5 0 0.438-0.688 0.125-0.943 0.129-5.374-4.414-12.795-8.306-22.272-5.659-0.908 1.211-1.816 2.574-1.816 2.574 2.198-0.181 4.165-0.257 5.971-0.242-0.136 0.814-0.437 1.543-0.871 2.211-1.729-0.015-2.952 0.275-2.952 0.275-5.102 0.639-8.06 9.079-9.366 16.506-2.694 2.243-4.697 6.671-6.259 11.779 0.281 3.117 0.953 6.684 2.156 10.828 3.256 11.232 4.236 18.371 3.502 24.365-3.095-5.101-3.442 5.313-3.575 10.966-5.605 13.355-18.346 25.723-29.329 62.427-14.54 48.622-25.15 29.776-31.273 43.374-4.131 6.611-7.015 36.861-6.247 44.836 0.545 3.422 1.048 7.398 2.732 8.359 0.721 14.305 7.833 17.667 7.833 17.667-3.935-9.08-4.564-14.74-4.196-19.577 3.518 22.502 19.115 30.771 19.115 30.771s0.711 5.125 3.375 11.238c15.656 14.42 56.17 25.223 78.93 17.125 11.5 14 40.656 20.717 64.969 6.377 25.666 2.668 44.094-7.344 50.673-26.195 23.862-0.204 30.993-19.805 36.327-47.471 15.51-22.149 22.879-68.944 1.999-130zm-70.068-127.88c6.937 6.198 6.453 17.01 9.595 23.561-5.213-2.465-11.482-1.849-17.87 0.538-3.691-4.645-2.552-10.813-3.976-16.444 3.549-0.439 7.913-5.843 12.251-7.655zm8.485 32.573c-10.812-4.852-26.757 7.758-40.48 17.562-1.558 1.113-3.177 2.242-4.83 3.36 0.702-0.849 1.481-1.889 2.355-3.179 8.911-13.153 32.252-24.974 42.955-17.743zm-31.736-31.052c8.642 8.284 1.463 23.144 7.524 26.087-7.234 4.069-14.142 9.774-19.331 15.167 0.732-10.752-6.353-20.895-7.942-30.492 5.054 0.433 13.521-8.461 19.749-10.762zm-29.373 5.401c-0.791 10.17 6.819 23.899 3.234 35.551-0.082 0.265-0.141 0.537-0.206 0.807-1.583-0.86-3.123-1.067-4.013-1.018 2.773 3.358 4.913 8.563 1.26 14.308 1.239-2.353-0.359-5.312-2.02-6.281 0.289 9.973-13.986 12.102-11.398 1.428-3.48 1.424-5.991-4.145-8.066-9.385 6.895-2.917 6.803-11.406 5.398-17.82-0.78-3.561-0.616-7.337 0.202-10.953 1.972 2.94 10.032-3.284 15.609-6.637zm-42.892 6.054c0.9 2.452 0.571 4.401-0.191 5.88-2.296-0.768-4.529-0.971-6.53-0.48-0.375-6.683-3.223-6.558 5.078-17.48 1.209-1.592 2.26-3.031 3.178-4.342 0.606 0.592 1.833 0.399 3.225-0.124-4.162 5.503-6.246 12.502-4.76 16.546zm6.593 9.652c2.243-2.08 4.939-5.939 3.416-11.816-0.472-1.822-0.677-3.773-0.568-5.735 4.657-0.499 12.998-4.459 17.33-5.086-4.734 5.161-8.873 12.919-8.725 20.302 0.137 6.725 3.566 14.129-0.864 16.531-2.254-5.738-6.212-10.788-10.589-14.196zm-17.742 15.028c4.301-1.124 10.875 3.125 13.875 7.375-5.125 6.25-15.75-2.125-21.125 4.875 0.924-5.176 2.949-11.126 7.25-12.25zm-60.351 213.61c0.087 8.468-10.955-5.719-16.243-2.845 0.398-4.645 0.977-7.973 1.495-10.128 0.841-3.188 1.559-3.439 2.898-1.43 3.569 4.947 7.101 8.302 11.861 11.661-0.014 0.888-0.021 1.793-0.011 2.742zm-0.119-11.575c-5.406-5.949-12.66-12.77-14.186-20.494 9.846 1.943 19.093-0.303 22.168-13.521 1.25-11.5 13.75-32 14.5-44.5 0.563-9.384 9.297-24.262 16.05-34.587 2.806 1.954 6.895 2.466 11.841 0.446 1.582-0.646 3.125-1.028 4.619-1.245-0.171 0.212-0.329 0.424-0.51 0.636-6.73 7.891-14.551 31.445-21 39-5.834 6.837-22.301 32.84-21.175 56.926-4.784 0.81-10.434 3.826-12.307 17.339zm73.69-12.189c-23.267-7.557-41.112 4.829-44.344-2.79-3.513-8.28 11.551-49.707 14.804-48.429 7.026 2.761 9.033 6.523 20.827 8.782s17.963 3.374 20.159 4.976c-4.024 11.499-8.863 24.623-11.446 37.461zm16.157-49.759c-13.886-5.689-14.571-10.026-19.592-26.118-2.864-9.179-10.191-2.258-16.82 3.83 4.405-10.872 12.677-23.657 14.744-25.503 3.667 0.5 10.667-0.334 13.667-10.5 2.167-3.167 7.833-5.667 5.333-15-0.682-2.545 0.333-5.833 2.167-8.333 1.063-1.45 2.833 3.333 6.667 2.167-2.167-5.333 0.167-7.833 5.833-8.333 4.167-7.833 10.667-7.667 16.833-6.333 0.334 3.5 0.187 12.546-6.075 17.411 0.143-3.33-1.111-6.526-2.742-7.901l-0.672 0.531c0.857 1.546 0.391 4.375-1.003 7.065-0.301-4.654-2.275-7.488-5.841-9.106l-1.167 0.333c3.444 2.935 3.509 9.576-3.667 12.167-8.153 0.986-11.041 10.418-6.393 19.352 3-3.75 8.775-4.375 12.861 2.824 0.671 1.186 1.531 1.855 2.534 2.208-5.984 7.912-13.471 22.867-14.278 37.423-0.186 3.328-1.08 7.329-2.389 11.816zm54.889-34.817c-0.336 7.383-3.172 22.461-2 30 3.6 23.09-4.956 34.057-11.83 43.761-12.732 14.048-32.972 18.833-33.81 10.033-1.004-10.539 11.277-39.096 12.044-51.942 1.004-16.812 6.273-39.396 12.547-43.662 3.937-2.677 9.288 10.13 24.158 7.42-0.685 1.648-1.017 2.384-1.109 4.39zm4.008-61.547c-0.348-4.283-1.113-8.533-2.922-9.854 1.172 2.518-1.586 11.268-3.814 17.726 0.329-4.02-0.521-7.317-1.289-10.064-0.287 3.915-2.499 15.137-11.04 20.599 1.357-5.311 2.084-10.543 3.667-22.5 1.5-11.333 17.191-15.713 26.757-20.812-1.789 2.973-5.064 7.034-10.399 12.748 1.191 3.714 0.687 7.919-0.96 12.157zm38.435 91.892c0 17.167-25.808 44.174-27.834 36.014s2.216-15.954-0.772-33.755c-1.264-7.528-0.311-24.628 0.502-30.111 1.004-6.775 2.008-7.779 7.779-4.518 5.85 3.306 15.186 5.516 21.965-1.404-0.77 9.046-1.64 17.213-1.64 33.774zm-3.833-141.32c0.217-0.883 0.405-0.891 0.5-1.5 4.623 4.856 8.167 12.833 3.333 24.5-0.475-1.749-0.482-4.111-1.166-5.167 2.5-6.166 1.576-13.726-2.667-17.833zm-0.301 47.61c4.134-3.61 5.125-9.301 5.634-12.61 1.017 4.34-2.12 10.443 0 15 3.334 7.167-1.078 14.642-2.38 13.666-1.012-0.76 5.425-10.307-3.254-16.056zm3.264 34.778c2.933-1.142 4.435-4.435 4.878-8.574 0.887 7.835-2.07 7.244-1.626 11.087 0.366 3.172-0.981 8.402-2.661 9.165-0.934 0.425 2.953-7.872-0.591-11.678zm11.302 14.456c1.089-17.591 2.049-34.035 1.533-43.046-2.113-36.904 0.904-50.775-10.984-61.271-6.405-5.655-6.187-11.968-7.643-17.864 2.875-1.499 5.871-6.819 9.148-8.088 4.123 5.893 10.393 17.676 15.264 33.146-0.021 0.016-0.039 0.033-0.061 0.049 5.206 19.637 10.139 82.143-7.257 97.074z" fill="#DC841A"/>
				<path d="m149.61 203.98c10.212-8.165 3.034-37.673 9.281-40.464 2.237-1-1.728-4.519-4.652 0.133-4.748 7.553 1.994 29.243-7.443 39.743l2.814 0.588z" fill="#F7931E"/>
				<path d="m189.36 190.61c-11.431-21.001 15.938-34.947 7.444-45.326-1.196-1.462-3.058-0.665-2.128 1.329 3.646 7.817-20.603 29.11-7.661 44.222l2.345-0.225z" fill="#F7931E"/>
				<path d="m115.75 67.081c5.084-5.667 15.002-14.752 28.252-12.585 0 0-0.121-0.877 0.129-2.711-13.381-1.267-19.963 5.211-25.713 10.044-1.666 1.583-2.129 3.509-2.668 5.252z" fill="#DC841A"/>
					<g fill="#A9650C">
						<path d="m255.17 220.8c1.278 28.396 2.957 58.229 7.039 64.527 4.408 6.791 6.944 44.025 5.578 58.132 7.437-13.894 9.483-41.494 8.398-69.864-1.25-32.664-16.789-76.91-16.219-95.016-0.925 29.354-2.128 35.767-4.796 42.221z"/>
								<path d="m185.12 377.01c-11.572 24.391-53.473 56.55-75.473 26.05 0 17.167 23.667 37 58.5 19.834 14.999-11.834 19.864-27.648 16.973-45.884z"/>
								<path d="m228.33 302.16c-2.474-2.558-4.353-5.236-5.782-7.861-8.491 3.842 14.759 11.842 6.31 29.552-0.056-1.552-0.329-3.207-0.896-4.964-0.992-0.113-3.367 5.855-3.695 7.398 1.176 2.545-0.391 7.635-4.635 12.332 1.977-0.245 7.818-4.438 9.023-11.556-1.071 11.609-6.714 9.201-4.098 17.896-17.085 5.65-2.089 27.447-36.458 24.04 4.616 16.71 5.525 34.354-4.618 47.171 11.634-0.198 30.792-5.706 41.033-23.387 16.313-39.321 13.646-80.459 3.816-90.621z"/>
							<path d="m257.84 286.01c-3.111-4.875-4.646-22.056-5.647-43.403-3.927 21.314-13.298 48.626-24.388 50.691 1.067 2.218 2.262 3.418 2.92 4.009 12.737 11.43 15.214 49.972 0.194 92.79 10.986-2.999 21.519-10.427 32.693-40.22 3.055-23.48-2.508-58.752-5.772-63.867z"/>
					</g>
					<path d="m37.643 391.73c2.167 14.5 27.229 31.639 67.034 28.201-2.473-5.324-2.963-12.775-1.492-19.418 0.488-2.082 0.611-4.043 0.121-4.9-15.059 12.562-35.83 18.95-65.663-3.883z" fill="#A9650C"/>
					<path d="m11 349.16c-1.176 13.227 3.834 26.334 17.5 34.5-0.334-9.666 3.834-9.5 2.77-19.104-5.936 4.438-17.611 0.164-20.27-15.396z" fill="#A9650C"/>
						<path d="m274.41 278.39c-0.959-24.973-11.102-57.391-13.99-76.852-0.207 13.242-0.885 21.404-2.025 26.83 3.633 15.898 6.352 29.178 6.926 44.111 1.137 29.695-2.605 59.168-12.156 69.047-12.008 32.559-23.301 35.879-35.285 38.043-14.484 24.242-25.648 21.484-38.328 22.492-13.984 14.957-37.059 21.566-48.719 18.488 10.414 8.469 35.328 7.359 57.805-12.582 12.684-1.008 23.848 1.75 38.332-22.492 11.988-2.164 23.277-5.484 35.285-38.043 9.545-9.878 13.287-39.351 12.155-69.042z" fill="#844D00"/>
					<g fill="#995B05">
						<path d="m268.12 337.24c0.266-11.81-0.875-29.962-2.938-41.655-0.338 6.355-0.936 12.438-1.804 18.03 1.046 10.174 1.522 21.593 0.728 31.556 1.506-2.136 2.842-4.815 4.014-7.931z"/>
						<path d="m190.34 401.38c-2.263 0.264-4.53 0.352-6.832 0.455-2.144 6.313-5.769 12.099-11.035 17.249 5.191-2.641 10.464-6.151 15.617-10.646 0.98-2.268 1.72-4.627 2.25-7.058z"/>
						<path d="m236.58 370.96c-2.034 1.973-4.067 3.448-6.105 4.591-0.922 3.272-1.952 6.563-3.122 9.858 1.861-0.341 3.706-0.72 5.539-1.235 1.414-4.472 2.646-8.887 3.688-13.214z"/>
					</g>
					<path d="m161.4 14.492c-8.137-5.654-14.385-4.462-21.15-0.585 10.422-4.033 17.641 2.302 23.912 6.488-0.875-2.14-1.799-4.101-2.762-5.903z" fill="#8B3C2D"/>
					<path d="m159.09 10.748c-4.633-2.814-11.367-2.277-15.025 1.031 5.967-3.281 12.045-1.525 16.234 0.787-0.564-0.943-0.617-0.991-1.209-1.818z" fill="#8B3C2D"/>
					<path d="m134.68 7.178c-1.534 1.268-3.093 2.609-4.678 3.959-3.013 5.104-3.149 11.63-20.312 16.592 23.657-5.537 17.801-13.644 26.224-21.52-0.409 0.305-0.82 0.627-1.234 0.969z" fill="#8B3C2D"/>
					<path d="m154.39 44.925c2.352-10.649-10.672-9.362-17.01-7.483 2.672 0.198 4.689 1.094 6.041 2.751 4.385-0.153 6.766 2.317 4.232 7.31-2.619 5.159-3.459 8.788-1.492 14.06 0.854 0.14 1.658 0.341 2.402 0.582-0.454-5.604 4.505-11.229 5.827-17.22z" fill="#8B3C2D"/>
					<path d="m117.71 21.829c-11.951 4.481-19.631 2.511-26.087-3.231-0.954 0.164-2.166 0.525-3.05 1.005 6.004 4.341 15.835 9.307 29.137 2.226z" fill="#8B3C2D"/>
					<path d="m165.5 23.866c-0.209-0.579-0.43-1.113-0.643-1.673-10.162-8.209-23.295-9.455-30.99-2.909-12.398 10.547-22.893 25.158-35.875 16.875-1.537-1.008-3.523-0.897-4.91-0.641 0.352 0.336 0.717 0.662 1.105 0.967 5.296 11.555 12.77 8.846 30.43 3.174 4.27-1.371 7.91-2.143 10.906-2.241 9.463-3.723 16.802-3.062 21.123 0.941 3.981 6.011 0.483 14.605-5.08 25.161-8e-3 0.017-0.016 0.036-0.023 0.053 0.561 0.396 1.008 0.82 1.293 1.256 1.033-0.355 2.014-0.535 2.93-0.597 2.303-3.716 5.368-13.12 4.329-20.308 1.626 5.028 1.109 11.961-2.028 20.282-0.012 0.031-0.066 0.079-0.102 0.12 1.422 0.243 2.541 0.81 3.199 1.481 4.207-1.906 7.422-1.166 8.734-0.479 3.125-1.625 10.125-3.938 14.625-1.25 8.125-12.562-11.906-20.411-19.023-40.212z" fill="#8B3C2D"/>
					<path d="m164.28 43.868c-4.49-9.145-10.145-14.006-22.451-8.074 7.816-2.528 16.963-0.68 22.451 8.074z" fill="#B6715E"/>
					<path d="m166.42 54.391c-0.361 2.407-0.502 8.322-2.319 8.772 2.831-13.772-0.899-20.412-4.765-23.709 5.801 9.1 2.494 18.912-0.691 25.033 1.094 0.288 1.973 0.762 2.52 1.32 0.904-0.41 1.754-0.678 2.559-0.87 6e-3 -0.023 9e-3 -0.044 0.015-0.067 0.307-0.054 1.285-0.216 2.552-0.332 2.578-1.825 0.769-6.19 0.129-10.147z" fill="#531B0C"/>
					<path d="m90.057 28.147c-0.719 0.011-1.324-0.02-1.725-0.135 0.215 0.696 0.615 1.682 1.205 2.778 14.146 8.471 23.078 6.212 32.871-2.153-12.837 8.619-21.652 6.774-32.351-0.49z" fill="#8B3C2D"/>
					<path d="m173.43 43.096c-0.163-0.866-0.361-1.695-0.587-2.493 2.22 5.047 5.794 9.109 12.069 12.136-1.113-2.14-2.754-4.309-4.652-6.615-2.814-1.227-5.97-4.069-8.641-8.856-4.2-9.477-13.17-13.026-20.301-12.783-11.04-2.34-18.976 9.838-34.857 15.293 22.57-6.537 26.922-16.998 41.881-12.029-2.22-1.562-4.274-2.539-6.229-3.07 5.896 0.932 15.11 3.855 15.884 15.318 0.389 5.762-2.754 12.229 2.5 15.333s8.76 4.884-3.178 9.146c0 0-0.012 0.071-0.025 0.172 1.15 0.108 2.051 0.394 2.6 0.682 2.141-1.113 6.102-2.549 9.83-2.478-6e-3 -0.073 0.012-0.155 2e-3 -0.226 10.499-11.713-4.081-7.761-6.296-19.53z" fill="#531B0C"/>
					<path d="m106.57 40.014c7.4 1.413 12.641 0.665 20.373-3.326s12.057-5.404 15.549-5.238c-5.82 0.415-11.426 5.311-21.453 8.813-6.903 2.411-12.307 0.582-14.469-0.249z" fill="#531B0C"/>
					<path d="m155.46 17.578c-9.303-1.875-11.484-2.756-22.021 7.407-12.617 12.173-19.961 12.521-19.961 12.521 5.873-0.376 9.324-1.776 18.494-9.557 7.825-6.641 9.583-10.678 23.488-10.371z" fill="#531B0C"/>
					<path d="m102.33 32.997c10.555 1.504 17.641-0.627 29.711-16.459 12.078-15.832 18.406-11.391 22.391-9.738-3.52-2.375-13.277-10.979-22.314 6.764-7.447 14.62-19.861 17.654-30.35 15.721-2.242-0.414-11.164-2.303-13.449-7.174 0.48 2.227 0.379 4.348 1.41 5.121 1.999 1.499 9.827 5.37 12.601 5.765z" fill="#8B3C2D"/>
				<g fill="#A9650C">
					<path d="m110.77 73.749c-4.012 7.107 1.975 12.98 8.154 12.488 2.812 4.965 13.76 6.941 22.182 4.195 3.766 3.852 10.68 4 15.305 1.219 8.648 4.492 14.617 1.258 14.766-1.172 10.023 4.387 24.422 2.902 24.383-1.93 7.961 4.551 23.359 2.645 20.289-1.266 7.227 3.918 10.576 2.229 7.885-3.737-1.586-1.242-5.146-4.796-7.033-7.069-0.688 4.379-5.649 3.583-6.103 3.576-2.598 3.983-8.141 9.122-19.382 4.079-1.27 3.531-7.486 9.007-22.928 4.094-0.701 2.34-10.527 2.69-12.867 0.702-5.791 3.134-13.99 1.402-14.855-1.427-4.1 2.598-19.226 1.732-21.289-4.188-6.252 1.589-10.178-5.396-8.507-9.564z"/>
						<path d="m121.3 82.682c0.787 4.565 10.217 3.805 17.145 3.49-1.355-2.535-0.912-6.752 0.959-10.812-1.898 0.906-3.475 4.021-3.385 6.377 0.094 2.355-10.102 4.746-14.719 0.945z"/>
						<path d="m170.08 86.954l2-1.688c8.352 0.719 18.025-2.228 19.158-14.063 1.441 3.426-0.361 7.993-0.361 7.993 10.818 4.267 17.957-5.822 12.824-14.053 3.604 2.094 5.566 10.754 5.566 10.754 2.645-3.366 0.91-11.324-8.012-19.266 7.109 4.535 13.119 12.407 13.24 19.619-0.602 1.082-1.803 2.345-4.207 2.585-5.469 7.452-12.311 7.517-19.459 3.806 1e-3 0-5.074 9.866-20.749 4.313z"/>
						<path d="m167.42 86.746c-3.383 2.417-10.334 2.597-11.646 0.388-0.482-1.312 0.689-2.831 0.689-2.831 10.357-0.069 16.018-3.038 17.537-8.078-0.069 3.797-3.336 7.483-6.58 10.521z"/>
						<path d="m140.65 84.758c-0.125-0.438-0.188-2.347-0.188-2.347 11.736 3.13 9.012-2.441 15.553-5.07-2.682 4.55-4.619 9.362-2.432 10.425-5.312 2.375-12.113 1.488-12.933-3.008z"/>
						<path d="m112.09 73.551c-1.652 2.439 0.533 9.153 7.102 8.515-1.322-3.422-0.307-7.126 0.412-8.212-1.732 0.944-2.318 3.244-2.318 4.42s-5.352 0.314-5.196-4.723z"/>
						<path d="m219.58 189.08c2.75-1.5 0.25-14.25-6.416-15.25 1.807 7.634-0.663 13.201-4.443 14.671-0.11-0.65-0.244-1.283-0.424-1.876 4.588-3.928 6.617-12.043-0.133-14.043 2.918 2.25-0.041 7.592-6.168 9.082-2.081 0.104-5.376 0.629-8.476 2-3.135-2.493-2.729-9.588 0.81-15.834-3.65 4.462-7.794 11.886-5.357 18.801-0.756 0.83-1.626 1.854-1.898 2.184-0.783-1.245-1.706-3.081-2.158-5.346-0.105 1.97-0.657 3.773-1.51 5.392-0.9-1.629-2.732-3.34-4.236-4.522 1.134 1.781 2.865 6.126 0.856 8.827-1.872 1.701-4.082 2.984-6.264 3.785 1.264-1.853 0.357-4.782-1.019-6.106 0.066 2.505-0.987 4.439-2.24 5.868 0.584-2.196 0.468-4.36 0.133-5.93-1.854 5.227-7.595 3.953-13.576 10.864 1.769-3.566-0.348-7.403-1.595-11.032-0.379 4.109-2.792 9.038-7.179 11.032 2.421-4.853 3.456-12.229 2.26-19.141-0.664 18.742-12.323 19.841-13.022 19.941 0.821-1.94 1.219-4.396 1.056-5.365-0.26 1.307-2.116 4.131-4.583 5.371 1.46-2.432 1.575-7.71 1.333-9.871-4e-3 12.168-16.877 4.338-13.018 22.977 5.195-6.195 7.828-2.111 12.223 2.482 4.297 5.125 11.297-1.543 20.98-0.822 24.066 7.199 55.539 6.994 55.146-17.051-1.832 4.166-4.148 4.045-4.148 4.045-9.01 10.748-33.555 16.211-52.002 8.041 19.701-3.295 33.908-12.023 40.818-20.086 6.711-7.828 7.5-7.334 11.666 8.166 1.248-2.705 1.849-5.492 1.948-8.093 3.984 6.903 6.026 21.88-7.114 29.091 0.01-2e-3 0.021-5e-3 0.03-7e-3 -4.549 2.352-9.452 3.189-13.526 1.665-10.34-3.859-9.664 6.787-29.309-1.629 0.633 7.977 18.734 13.971 29.312 7.035 2.484 0.96 4.782 1.73 6.938 2.359 5.334 0.385 11.732-0.478 15.887-4.217-3.111 3.547-5.374 5.066-9.937 5.631 2.752 0.484 5.185 0.659 7.282 0.521-3.875 1.898-8.688 1.689-12.346 0.546 7.486 4.701 19.672 4.875 22.633-6.615l-0.146 0.063c1.052-2.218 1.447-4.969 1.297-8.104-0.734 4.533-1.704 7.537-5.397 10.441 3.045-3.167 4.73-9.701 4.919-14.612-0.345-1.968-0.872-4.053-1.536-6.213 2.589-5.093 3.673-11.527 1.649-19.116zm-68.635 20.008c0.388-0.272 1.459-1.694 1.809-2.03 9.091-0.363 14.785-1.94 19.645-3.839-6.544 3.676-11.219 4.407-21.454 5.869z"/>
						<path d="m214.05 167.35c3.38-3.515 5.092-11.185 4.933-16.172-0.252-2.17-0.693-4.277-1.298-6.254 3.765-7.532 1.067-19.006-7.347-23.226 1.626-4.97-13.918-10.314-34.505 3.463 9.943-5.048 25.352-8.826 30.655-4.775-3.228-0.639-7.039-0.36-11.413 1.218-1.84 0.152 0.115 1.268 3.34 1.268 10.8 0.615 14.368 7.783 13.825 12.027-13.128-14.98-34.347 4.295-56.015 18.203 1.605-1.936 2.515-4.078 2.877-6.271 3.172-8.476 10.713-17.248 30.227-25.108-12.984 3.134-27.429 12.148-32.491 23.565-1.594 0.391-3.386-1.709-5.458-3.437 3.213 5.462 0.146 12.883-4.029 16.54-0.084 0.046-0.169 0.089-0.253 0.134 2.465-2.964 2.078-6.474 1.06-9.004-1.043 7.115-10.143 12.301-17.451 9.932 0.108 1.408 1.505 3.853 5.448 3.854-0.689 0.22-1.376 0.414-2.061 0.596-3.149-0.139-3.938-2.236-4.161-3.662-0.185-1.182-0.425-2.357-0.689-3.527 3.334 3.427 7.683 0.109 9.115-2.326-3.652 1.522-8.878-0.539-11.368-5.233-2.057-5.557-4.849-10.702-7.915-14.976-3.143-6.372-6.57-10.645-10.047-13.341 8.468 4.751 13.501 14.54 17.24 22.503-6.545-20.771-17.641-25.114-24.01-25.914-3.821-0.973-7.516-0.435-10.761 0.902l-0.666 2.5c1.771-0.55 3.477-0.806 5.118-0.844-1.023 0.185-1.776 1.121-2.829 1.596 18.25-1.938 35.688 26.375 32.903 43.458l-0.965-0.395c1.5 6 4.25 9.75 8.717 8.075-1.092 0.8-4.342 2.05-6.01 0.274-1.939 8.702 11.668 1.65 20.031-6.339 1.026-0.705 2.09-1.473 3.201-2.325 22.315-17.104 40.441-27.975 51.049-25.777-12.018 0.164-27.165 11.349-33.52 16.251 26.876-16.102 37.687-15.347 41.496-6.893 0.284 2.908-0.379 6.21-2.512 9.76-0.021 0.035-0.044 0.067-0.065 0.102 0.81-4.274 0.156-8.408-3.862-11.159 3.783 4.281 0.193 14.717-4.551 21.516-2.98 3.311-5.223 6.288-4.926 10.065 6.459-2.523 8.56-5.252 10.43-9.208 0.16 1.134-0.65 3.155-1.828 5.045 3.383-2.835 5.149-5.982 6.156-9.738 0.764 2.986-2.645 10.168-5.199 12.535-1.49 1.384-5.746 2.442-9.341 2.75 0.028 0.123 0.051 0.245 0.085 0.37 9.256 2.049 17.588-3.119 20.492-8.297 2.367-3.788 3.681-8.153 4.142-12.578-0.736 3.374-1.921 5.862-4.994 8.277z"/>
						<path d="m114 134.08l-1.688-1.188c9.033 11.377 11.367 24.242 9.818 32.404-0.688-3.834-1.7-9.676-4.242-13.781 0.798 1.974 1.509 5.591 1.832 8.304 0.664 5.579-0.974 11.459-8.984 15.639 1.995-2.206 3.789-4.727 3.991-7.07-0.499 0.483-1.075 0.899-1.665 1.382-11.125 9.121-11.75 23.246-10.625 26.121-2.75-0.625-7.5-5-9.625-12.75 1.625-14.125 0.874-21.413-1.912-24.855 1.309 3.404 0.024 8.781-1.338 13.855-0.103-0.405-0.205-0.811-0.306-1.217 1.137-13.277-0.194-19.908-5.733-21.41 3.662 2.933 3.56 8.233 3.017 12.926-1.728-21.049-15.228-12.674-14.044-3.082 2.691-12.967 13.816-4.467 12.941 12.283-1.5-18.375-11.25-19-13.034-11.437-2e-3 0.023-5e-3 0.044-7e-3 0.067-0.25 3.359 3.6 11.914 3.363 17.154 0.912-5.434 2.078-8.434 5.299-13.646 0.945 1.713 1.947 4.477 2.279 7.213 0.814 6.727 4.916 17.92 18.6 34.777-0.047 0.088-0.098 0.172-0.145 0.264-15.75-6.75-24.898-12.848-25.34-21.752l-0.354 3.676c0.188 1.656 0.139 3.453 0.389 5.244 0.381 4.799 3.197 12.615 11.215 13.83-2.982-1.764-5.123-4.043-6.369-6.396 2.447 1.525 6.102 2.801 11.619 3.646 9.295 4.367 4.635 6.301 12.252 7.664 0.666-2.441 3.643-1.444 6.076 1.505 0.308 0.373 5.865-4.393 3.532-11.56 6e-3 1.097-1.521 3.93-1.833 3.5 0.431-2.342 0.248-4.495-2-6.333 0.381 1.145 0.892 2.92 0.167 4-3.305-6.963-1.536-10.132 2.917-14.792 4.411-4.618 6.375-11.625 6.25-15.5 1.875 2.125-0.378 9.188-0.375 9.25 9.749-14.998 1.499-38.498-5.938-47.935z"/>
						<path d="m92.7 207.78c-11 6.5-17.516-9.994-16.73-15.025-0.109 0.141-0.16-1.002-0.266-0.861-0.816-1.656-2.713 2.781-1.83 11.324-2.375 1.832-2.135 5.328-1.229 6.957 0.061-0.048 0.12-0.083 0.18-0.119-0.181-1.956 0.752-3.483 1.74-4.149-0.372 2.471 0.632 5.015 2.405 7.235 1.672 1.703 3.965 3.068 7.729 1.138 9.25 4.5 14.566 1.988 15.398-2.305-4.397 0.844-3.46-2.047-7.397-4.195z"/>
					<path d="m156.71 138.72c-0.523 2.787-3.998 6.582-2.615 1.047 1.914-7.66-1.043-18.459-3.654-26.295s-2.785-14.627-0.348-16.542c-2.437 12.189 9.229 33.954 6.617 41.79z"/>
					<path d="m116.3 150.05c-4.371-14.723-27.945-27.912-38.131-16.493 0.817-1.828 4.588-6.398 10.307-6.239 5.718 0.159 25.121 6.502 27.824 22.732z"/>
				</g>
				<g fill="#A9650C">
					<path d="m31.999 295.33l-0.286 5.542c1.201-0.601 2.695-1.055 4.233-1.276-0.284-2.228-0.194-7.029 0.391-10.547-1.239 1.781-3.159 5.062-4.338 6.281z"/>
					<path d="m163.74 343.47c8.922 1.404 18.539 1.615 23.807-6.742 2.738 6.109 6.918-8.684 20.152-13.062 9.34-3.09 12.359-4.564 15.027-9.268 0.415 0.199 0.778 0.428 1.115 0.669 1.071-0.927 2.244-1.145 4.99 0.097-3.025-7.27-9.775-12.52-19.483-11.617 5.1-1.029 10.911-1.892 17.147 4.334-5.518-10.936-21.086-10.695-23.727-3.484-0.156 6.223 9.709 6.723 14.148 9.869-4.188 4.641-14.484 6.371-19.221 11.52-5.75 6.25-10.627 7.268-13.314 3.939 0.414 7.039-6.924 12.416-15.893 10.631-2.926-5.728-8.222-11.481-13.974-7.6 5.487 2.2 8.73 8.009 9.226 10.714z"/>
					<path d="m40.553 307.29c-0.173 4.021 0.583 8.758 0.8 12.932 0.345 3.245 0.292 6.021-1.462 8.634-1e-3 0.081-2e-3 0.166-3e-3 0.253 1.803 2.353 3.81 2.763 6.019 2.209 3.934 6.812 23.408-2.551 40.658 9.199 18.164 12.371 23.385 12.008 30.195 6.953 6.109 5.828 13.062 6.74 25.912 3.439 0.266-0.366 0.502-0.743 0.716-1.131 0.436-0.998 0.822-1.992 1.141-2.87 0.241-0.847 0.425-1.714 0.573-2.589-5.999 4.756-21.881 6.463-27.828-3.809-6.266 5.895-9.027 8.289-24.324-0.555-15.289-8.844-18.977-10.137-32.059-9.766s-12.789-3.727-13.531-6.859c-0.959 0.854-2.484 1.877-2.994 3.182 1.178-3.906 1.293-8.98 0.771-13.896-0.727-6.785 1.152-10.539 1.152-10.539-3.257-1.984-4.369-1.478-5.199 1.462-0.262 1.307-0.435 2.557-0.537 3.751z"/>
				</g>
					<path d="m222.73 314.4c-0.253 4.997-5.38 6.03-14.587 9.497-13.5 5.083-17.854 18.942-20.593 12.833-5.268 8.357-14.885 8.146-23.807 6.742-0.631-3.441-5.691-11.938-14.188-11.586-5.619 4.213-2.6 13.131-6.883 19.029-12.85 3.301-19.803 2.389-25.912-3.439-6.811 5.055-12.031 5.418-30.195-6.953-17.25-11.75-36.725-2.387-40.658-9.199-2.246 0.562-4.283 0.141-6.109-2.316 4.705-6.742-2.176-14.535 2.107-28.721-3.02-1.615-8.285-0.703-11.025 1.053-0.139-5.057 0.982-8.357 1.475-15.309-5.195 8.637-17.212 6.782-14.605 28.654 1.663 13.952 19.662 20.572 19.451 29.912 10.117-7.166 45.16-6.041 66.086 21.344 20.402-7.777 36.119 3.514 54.561-2.947s18.539-12.43 25.35-3.514c4.946-14.833 20.628-24.382 28.113-23.75 6.916 0.584 21.999-16.5 11.419-21.33z" fill="#F5BE4C"/>
					<path d="m140.85 357.5c10-6 4.847-18.04 8.847-23.04 13.566 0.717 9.517 18.739 20.169 19.237-8 3.669-21.903 7.72-29.016 3.803z" fill="#F6DCAF"/>
					<path d="m155.76 339.71c-0.062-8e-3 -0.113-0.023-0.176-0.023-3.289 3.977-0.246 13.586-7.738 18.672 6.148 0.234 14.012-2.453 19.062-4.699-7.632-0.434-6.566-9.805-11.148-13.95z" fill="#F1CD8A"/>
						<path d="m154.36 338.97c-1.047-0.771-1.701-0.938-1.764-0.938-3.586 4.191-0.332 14.998-8.521 19.779 0.723 0.027 1.473 8e-3 2.234-0.039 6.838-4.355 4.963-14.942 8.051-18.802z" fill="#EEC169"/>
					<path d="m24.256 317.04c1.506-9.382 8.571-16.968 15.326-14.535-5.539 3.59 3.268 25.664-5.232 27.164-1.719-0.649-7.289-4.876-10.094-12.629z" fill="#F6DCAF"/>
					<path d="m27.494 318.36c1.809 3.404 3.352 5.838 6.811 8.939 4.469-3.832 1.488-11.387 1.596-19.582-4.364 1.065-7.45 3.407-8.407 10.643z" fill="#F1CD8A"/>
						<path d="m26.605 317.58c0.898-7.055 5.23-11.984 9.977-12.031 0.238-0.359 0.322-1.588 0.736-1.709-4.943-0.078-10.713 4.693-11.736 12.717 1.598 3.707 2.945 5.391 4.156 6.438-0.941-1.099-1.968-2.72-3.133-5.415z" fill="#EEC169"/>
					<path d="m154.87 212.79c37.082-7.787 40.423-23.258 44.751-25.734 1.443-0.824 2.989-0.592 4.341 2.904 4.488 11.613-2.066 23.609-18.035 25.227-15.962 1.624-24.063 0.507-31.057-2.397z" fill="#F5BE4C"/>
					<path d="m204.3 190.91c-1.013-1.692-3.39-3.625-7.482 4.085-3.219 6.066-16.512 15.461-35.086 19.777 0.09 0.065 0.185 0.126 0.276 0.189 5.729 1.155 12.976 1.331 23.915 0.217 15.531-1.572 22.153-12.961 18.377-24.268z" fill="#EE8F46"/>
					<path d="m194.01 197.79c-2.393 5.317-9.57 11.299-22.995 15.153 14.355 1.196 34.526-7.414 26.997-17.211 0.139-2.609 2.164-5.434 2.117-5.512-0.054 0.117-3.103 0.868-6.119 7.57z" fill="#741214"/>
					<path d="m202.77 188.5l-1.752-1.627c-0.025 0-0.051 2e-3 -0.076 4e-3 5.457 20.646-19.836 28.885-42.303 25.057-0.26 0.062-0.521 0.123-0.783 0.186 23.072 4.718 49.482-1.547 44.914-23.62z" fill="#ED1C24"/>
					<g fill="#F8E5C4">
						<path d="m196.37 200.74c0-1.234 0.855-2.23 1.91-2.23s1.914 0.996 1.914 2.23c0 1.238-0.859 2.238-1.914 2.238s-1.91-1-1.91-2.238z"/>
						<path d="m196.38 203.29c0-0.73 0.508-1.324 1.133-1.324 0.629 0 1.141 0.594 1.141 1.324 0 0.738-0.512 1.332-1.141 1.332-0.625 0-1.133-0.594-1.133-1.332z"/>
					</g>
					<path d="m102.95 206.02c-29.367-10.846-32.316-23.369-22.24-42.154 3.094 4.678 2.086 8.852 4.102 14.322 3.563 9.678 12.163 22.744 18.138 27.832z" fill="#F5BE4C"/>
					<path d="m80.583 167.95c0.93 1.812 1.266 2.645 1.5 5.625 0.625 7.863 4.875 22.5 15.25 30.625-11.625-6.25-29.579-13.227-16.75-36.25z" fill="#EE8F46"/>
					<path d="m78.276 180.36c0 8.156 6.213 13.029 12.949 16.023-5.93-6.479-7.375-17.979-10.291-21.424-2.059-2.432-1.695-4.4-1.773-4.885-2.625 5.352-0.885 7.884-0.885 10.286z" fill="#741214"/>
					<path d="m81.487 167.03c-12.793 23.162 7.506 29.965 18.662 37.002-0.818-0.844-1.662-1.793-2.521-2.832-11.008-6.266-25.744-13.656-15.877-33.287-0.083-0.295-0.163-0.59-0.264-0.883z" fill="#ED1C24"/>
					<path d="m77.485 182.03c-0.477-1.094-0.217-2.281 0.574-2.664 0.791-0.379 1.818 0.211 2.285 1.297 0.473 1.098 0.219 2.289-0.574 2.672-0.789 0.374-1.812-0.204-2.285-1.305z" fill="#F8E5C4"/>
					<path d="m78.473 184.3c-0.283-0.66-0.131-1.363 0.34-1.59 0.469-0.227 1.076 0.121 1.359 0.773 0.281 0.648 0.125 1.359-0.342 1.586-0.47 0.22-1.076-0.124-1.357-0.769z" fill="#F8E5C4"/>
				<g fill="#EE8F46">
					<path d="m23.645 310.78c-1.227-3.644 0.789-12.11 3.097-17.583 2.129-1.484 1.77-4.62 5.418-6.005-0.756 3.711-1.762 8.365-1.572 14.34-3.039 2.554-5.66 6.037-6.943 9.248z"/>
					<path d="m143.17 350.58c-9.977 5.349-21.341 2.961-25.943-2.352-12.667 10.417-28.686-11.651-46.174-13.16-14.791-1.276-23.636 0.427-25.145-3.746-1.931 1.406-5.348-0.76-5.893-1.693l-1.931 1.354s1.406 8.495 6.406 6.62c2.027 4.406 11.743 1.292 26.459 3.227 25.039 3.291 31.001 29.638 46.923 16.44 3.023 3.488 13.875 2.875 19.559-0.508 4.293-2.555 5.739-6.182 5.739-6.182z"/>
					<path d="m195.06 333.56c-4.045 5.455-6.137 6.379-7.723 4.172-6.126 10.653-23.428 6.116-23.364 6.306 1.456 4.358 0.581 5.609 12.706 6.858 9.887 1.019 11.625-3.75 11.15-6.564 1.586 2.207 4.372-1.026 9.166-5.834 14.809-14.852 28.334-3.832 29.75-21.082l-3.811-3.119c-4.172 10.83-18.197 6.213-27.874 19.263z"/>
				</g>
				<g fill="#B5292F">
					<path d="m140.65 353.7c-8.262 3.352-17.609 3.031-22.211-2.281-14.207 10.18-27.697-11.572-45.58-13.896-14.719-1.926-25.607 0.391-27.639-4.016-0.609 0.078-2.699 0.213-5.355-2.107l-0.789 0.439s2.814 4.521 5.268 4.213c2.027 4.406 13.797 1.463 28.516 3.389 17.883 2.324 30.318 26.195 44.525 16.016 13.783 6.145 23.265-1.757 23.265-1.757z"/>
					<path d="m29.026 293.9s-0.932 5.035-0.932 8.27c-1.367 1.119-1.928 2.113-1.928 2.113-0.123-4.104 1.225-7.412 1.225-7.412s1.014-1.479 1.635-2.971z"/>
					<path d="m195.7 336.37c-4.016 5.477-5.328 6.324-6.914 4.117-2.43 4.457-9.617 7.109-17.406 6.207-1.688-0.082-4.544-0.35-6.586-1.06l1.578 2.538c7.463 2.547 17.613 2.256 20.383-2.838 1.59 2.207 4.176-0.125 8.191-5.602 9.211-12.535 28.121-13.34 28.809-18.23l-0.797-0.555c-3.625 3.528-19.008 4.196-27.258 15.423z"/>
				</g>
					<path d="m135.42 356.08c-3.445 1.174-14.25 2.082-18.25-1.168-14.207 10.18-26.576-13.736-44.459-16.061-14.719-1.926-26.441 0.963-28.469-3.443-1.531 0.191-4.238-2.357-5.07-3.561l-0.508 0.156s2.93 5.25 5.383 4.941c2.023 4.406 14.242 1.445 28.957 3.371 17.883 2.324 29.713 26.775 43.916 16.596 3.023 3.488 16.352 1.59 20-0.582l-1.5-0.249z" fill="#ED1C24"/>
						<path d="m28.098 295.75l-0.988 1.586s-1.723 4.309-1.723 8.188c0 0 0.395-0.734 0.984-1.535 0.155-4.063 1.727-8.239 1.727-8.239z" fill="#ED1C24"/>
					<path d="m223.75 321.5c-2.875 4.09-20.383 5.984-28.953 17.645-4.02 5.477-6.605 7.809-8.195 5.602-2.77 5.094-11.166 4.666-20.88 2.258l0.953 1.539c9.714 2.408 17.45 2.762 20.224-2.332 1.586 2.207 4.172-0.125 8.188-5.602 9.211-12.535 28.125-13.34 28.812-18.23l-0.149-0.88z" fill="#ED1C24"/>
					<path d="m78.165 262.1c-6.505-1.825-6.048-3.424-5.935-4.223 14.722 3.881 24.958-11.498 27.047-6.391 6 14.666 6.646 16.904 18.716 22.939-0.228 3.31-0.342 7.76-0.342 7.76-8.787-12.096-34.807-5.819-39.486-20.085z" fill="#A9650C"/>
					<path d="m78.85 261.87c16.092 3.423 16.294-7.71 20.771-0.913 4.469 6.805 8.298 12.785 15.248 14.746-6.891-1.242-7.487-2.649-13.668-4-8.989-1.964-21.191-4.193-22.351-9.833z" fill="#F5BE4C"/>
					<path d="m111.03 274.99c-6.619-5.592-11.505-15.512-14.841-13.385-3.49 2.227-6.614 4.597-15.288 3.113 1.94 3.31 13.059 4.996 20.296 6.98 4.925 1.351 8.423 2.54 9.833 3.292z" fill="#EE8F46"/>
					<path d="m86.518 265c5.521 0.789 8.213-0.887 10.283-2.402 1.914-1.395 2.387 3.244 7.254 7.439-8.433-2.609-11.347-2.001-17.537-5.037z" fill="#B5292F"/>
					<path d="m108.51 271.93c-0.275-0.27-0.527-0.576-0.789-0.863-0.199-0.15-0.395-0.32-0.592-0.535-7.771-2.516-20.986-4.557-24.471-8.336-0.654-0.072-1.342-0.191-2.053-0.348 4.284 6.549 18.405 6.063 27.905 10.082z" fill="#ED1C24"/>
			<g fill="#F7931E">
				<path d="m112.64 403.01c4.501-9.115-11.798-35.691 15.001-30.949 11.265 1.993 33.667 5.501 46.5-9.166 4.878-5.574 7.419 9.085-2.667 18.667-21.461 20.387-44.333 6.166-58.834 21.448z"/>
				<path d="m197.15 367.14c-8.666 1.334-7.771-6.211-3.287-12.07s11.285-11.594 22.953-11.594c3.461 0 4.963 1.555-1 2.832-11.666 2.498-15.666 11.166-18.666 20.832z"/>
				<path d="m39.309 373.56c0.673-10.062 0.54-17.291 3-20.166 4.472-5.226 31.667-4 49.333 8.833 12.738 9.253-1.178 36.035-8.738 30.208-24.002-18.493-32.615-8.497-36.762-3.041-2.687 3.534-7.506-5.772-6.833-15.834z"/>
				<path d="m101.06 188.89c-3.75-19.75 1.75-39.625 13.25-39.5 1.622 2.03 4.831 7.964-1.5 9.875-6.625 2-13.875 5-11.125 25.5l-0.625 4.125z"/>
			</g>
			<g fill="#FBB467">
				<path d="m67.506 221.47c-6.512 10.262-14.488 24.094-15.023 33.008-0.723 12.047-12.359 31.523-14.32 43.215l-0.805-0.188c1.688-11.629 13.672-31.52 14.406-43.75 0.539-8.992 8.461-23.102 15.188-33.266 1.352-2.039 2.617-4.023 4.781-2.219s3.43 2.707 12.816 0.18l-1.082 1.086c-14.262 4.149-12.602-3.351-15.961 1.934z"/>
				<path d="m72.233 269.54c-5.619 9.547-19.702 48.028-12.47 52.639-5.727 1.412-5.23-26.787 12.687-55.631 1.329-2.14 14.535 12.112 35.576 12.248l-2.744 0.457c-24.443-1.117-30.58-14.239-33.049-9.713z"/>
				<path d="m80.747 252.14c2.559-10.523 15.434-30.031 17.938-32.535 3.578 0 8.586-2.145 10.73-7.152l1.074 1.074c-2.148 5.008-8.371 8.631-11.949 8.631-2.504 2.504-12.158 17.029-15.018 26.33l-2.775 3.652z"/>
				<path d="m47.697 404.53c-7.237-9.82-6.448-10.775-7.389-12.955-4.109-9.516-2.189-26.784-1.499-33.684 0.606-6.066 4.637-9.662 14.833-9.667s19.167 2.334 27.5 5.667 9.333 2.666 0-1.167-21.5-6.5-29.5-6-13.753 1.247-14.28 9.945c-0.444 7.448-2.43 25.39 1.113 34.722 0.293 1.469 0.73 3.427 7.5 12l1.722 1.139z"/>
				<path d="m14.116 364.6c-3.677-11.16-2.027-23.459-1.957-24.283 0.734-8.719 2.759-20.769 6.871-13.598s9.279 11.005 11.279 12.671 4.015 4.811-1.167 0.666c-6.667-5.333-9.274-9.61-10.833-12.333s-4.584 7.486-4.892 14.312c-0.066 1.441-2.835 8.154 2.863 27.563l-2.164-4.998z"/>
				<path d="m115.64 415.39c-5.164-11.227-2.607-11.7-3.388-17.735-1.758-13.477-6.705-29.036 8.328-27.735s21.947 3.529 29.998 2.426 5.624-1.984 5.624-1.984c-12.241 2.757-24.745-0.095-37.793-1.757s-10 14.883-7.75 28.898c0.883 5.52-1.034 10.919 5.435 19.911l-0.454-2.024z"/>
				<path d="m190.56 413.11c8.641-27.07-1.151-45.295-1.269-46.271-1.484-12.375 8.051-18.969 18.858-25.146l0.552-1.103c-11.58 3.749-22.855 12.603-20.641 25.614 0.105 0.629 9.468 13.659 1.792 45.749l0.708 1.157z"/>
				<path d="m129.85 328.4c-4.703-1.277-8.312-6.027-1.902-25.543 6.988-21.266 9.012-47.844 16.52-75.383 0.742-2.719 7.734-5.672 7.867-5.008 0.719 3.578-8.941-1.43-14.055 46.398-2.164 20.263-18.735 54.329-8.43 59.536z"/>
				<path d="m173.43 155.84c-5.252 3.957-10.129 6.123-11.219 15.686-1.223 10.691-2.582 24.66-5.551 28.75l-2.184 1.816c2.969-4.094 5.789-23.496 7.008-34.188 1.141-9.992 4.711-7.943 10.732-12.307 6.018-4.363 27.631-15.859 31.891-11.049 0.199 0-0.688 0.273-0.688 0.273-8.108-2.746-24.735 7.062-29.989 11.019z"/>
				<path d="m130.5 182.13c2-3.105 13.002-11.798 18.668-8.383l0.666 2.794c-5-3.726-14-0.311-19 7.141l-0.334-1.552z"/>
				<path d="m225.54 89.899c-0.912 0.865-3.172-0.192-1.633 2.066 8.412 12.4 16.98 24.167 23.134 49.78l0.741 1.164c-4.436-20.45-11.715-35.033-20.656-48.107-0.293-0.333-3.027-3.461-1.922-3.989 1.613-0.771 1.248-1.779 0.336-0.914z"/>
				<path d="m117.71 201.45c-5.727-9.752 7.418-13.467 7.695-29.33l-0.555-1.885c-0.277 15.863-17.564 21.959-8.566 30.775l1.426 0.44z"/>
				<path d="m125.03 191.07c-3.373-3.617 2.066-3.598-0.283-12.477l-0.57-0.973c2.352 8.871-5.488 9.174 0.078 13.326l0.775 0.124z"/>
				<path d="m189.47 236.96c-4.504 27.484 0.262 38.922-0.391 47.406-1.047 13.641-1.773 24.234 4.539 27.121l-1.484-0.125c-6.309-2.887-5.508-12.633-4.461-26.273 0.652-8.484-4.828-20.426-0.32-47.91 0.57-3.469 2.687-3.691 2.117-0.219z"/>
				<path d="m125.86 134.45c7.143-6.453-3.984-21.402 6.005-34.049 1.498-2.023 9.516-0.861 12.502-2.143l0.803-1.274c-1.949 1.587-12.156 0.715-13.449 2.271-12.532 15.05 2.793 28.302-7.757 35.608-0.533 0.368 1.071 0.332 1.896-0.413z"/>
				<path d="m99.825 188.01c-3.32-17.637 1.594-35.277 9.543-38.457s5.926-4.191 5.926-4.191l-0.867-1.012s2.023 1.012-5.926 4.191-12.863 19.664-9.543 38.457l0.867 1.012z"/>
				<path d="m106 117.15c9.624-11.447-2.611-9.786 6.078-24.711 1.094-2.926 14.279 3.005 16.107 0.837l-0.16 0.9c-5.168 1.5-14.334-3.497-15.334-1.329-8.573 13.25 3.135 13.464-5.375 23.594-0.381 0.521-1.316 0.709-1.316 0.709z"/>
				<path d="m93.885 115.75c1-6.5-4.982-7.105 3.682-18.605 8.668-11.5 9.24-14.288 11.084-11.917 1.168 1.5 3.5 1.332 3.5 1.332l-0.332-0.668s-2.336 0.168-3.5-1.332c-1.844-2.371-2.5 0.332-11.168 11.832s-2.674 13.063-3.674 19.563l0.408-0.205z"/>
				<path d="m121.58 78.702c0-10.25 9.75-16.75 18.5-16.25 1.875 0.25 3.371 1.047 1.25 0.875-10.875-0.875-19.5 6.875-19.75 15.375z"/>
				<path d="m112.68 75.023c5.777-11.806 18.305-18.996 25.984-18.145 1.57 0.352 2.48 1.312 0.645 1.051-9.398-1.349-21.609 7.303-26.629 17.094z"/>
				<path d="m141.19 83.9c-0.25-7.875 3.75-17.672 11.875-18.125 2.25-0.125 2.652 0.41 0.875 0.625-8.25 1-11.75 7.625-12.75 17.5z"/>
				<path d="m156.85 86.93c-3.5-3.25 5.742-13.721 6.242-16.971s1.854-4.375 5.134-3.372l0.401-0.201c-3.747-1.405-5.535 0.197-6.035 3.447s-9.644 13.979-6.144 17.229l0.402-0.132z"/>
				<path d="m171.73 85.953c1.566-1.22 2.76-2.288 4.76-5.921 2-3.625 3.084-10.58 0.059-12.597-3.135-2.09 1.045-2.96 3.309-2.438l0.723-0.121c-2.5-1-8.125 0.625-5.125 2.75s2.75 8.375 0.75 12.125-3.625 5.25-5.322 6.474l0.846-0.272z"/>
				<path d="m195.21 60.826c-4.41 0.044-5.578 2.148-5.643 3.323-0.07 1.345 8.232 1.551 3.508 16.187l-0.449 0.743c4.809-16.171-4.229-15.462-4.168-16.907s3.773-4.124 7.699-3.663l-0.947 0.317z"/>
				<path d="m190.85 58.028c2.668-0.088 10.414-1.204 16.074 6.599-5.027-8.07-12.65-7.572-15.822-6.853l-0.252 0.254z"/>
				<path d="m158.88 140.16c5.133-9.543-7.379-28.553-6.328-39.771 0.414-4.391 7.492-2.805 12.934-3.758l0.953 0.539c-5.441 0.949-12.238 0.509-12.648 4.892-1.055 11.223 10.238 27.845 6.604 36.177l-1.515 1.921z"/>
				<path d="m186.69 117.91c-3.18-2.938-0.98-14.688-4.16-19.336s2.472-0.662 12.472-4.829l-0.916 0.917c-3.5 2.666-10.727 0.383-9.5 6.5 1.105 5.523 0.393 14.545 3.572 17.482l-1.468-0.734z"/>
				<path d="m226.37 232.45c2.293-4.527 0.484-8.539 0.531-10.766 2.688-37.277 2.229-59.943-0.062-82.691-2.334-23.167-14.668-12.666-17.084-41.249-0.061-0.72 6.428-1.2 8.385-6.829l-1.469 0.734c-2.758 6.026-9.119 1.442-7.506 7.79 2.73 28.313 13.748 15.698 16.092 38.792 2.176 21.434 2.977 49.387 0.812 84.621-0.063 1.75 1.09 1.891 0.301 9.598z"/>
				<path d="m213.2 132.36c-8.828-14.5-32.268-3.66-43.432 6.008l0.523-1.219c11.168-9.668 35.072-20.953 42.572-5.453l0.337 0.664z"/>
				<path d="m117.39 137.62c-7.986-11.588-14.273-15.721-26.548-15.533l0.87-0.373c11.027-1.38 17.863 3.66 25.849 15.249l-0.171 0.657z"/>
				<path d="m101.58 133.5c-5.855-3.512-12.301-5.078-15.035-0.781s-4.883 9.375-5.469 20.113l0.586 0.977c0.586-10.738 2.734-15.816 5.469-20.113s9.18-2.73 15.035 0.781l-0.586-0.977z"/>
			</g>
					<path d="m116.46 338.08c-0.984-20.141 14.434-57.771 15.441-75.92 1.008-18.164 8.531-39.283 12.594-42.064l-2.086 0.781c-4.062 2.773-10.461 22.58-11.469 40.744-1.016 18.156-16.246 54.24-15.262 74.381l0.782 2.078z"/>
					<path d="m95.993 207.41c2.914 1.91 1.289 8.467-5.445 16.365-6.727 7.883-16.391 32.854-22.836 40.416-6.453 7.562-17.465 42.061-19.879 57.889l-0.5-2.875c2.422-15.812 14.246-51.162 20.691-58.717 6.453-7.555 14.969-31.518 21.695-39.408 6.734-7.893 7.945-11.971 5.031-13.885l1.243 0.215z"/>
					<path d="m236.96 356.33c3.773-18.07 4.113-46.42-8.746-57.959-12.867-11.547-0.852-88.977-3.234-114.35-1.945-20.695 3.344-51.09-10.422-61.977-9.156-7.25-0.047-23.109-20.875-34.633l-1.547-0.188c20.836 11.531 11.344 26.492 20.492 33.734 13.766 10.898 9.266 43.383 11.211 64.07 2.383 25.383-10.031 101.61 2.828 113.16 12.867 11.531 13.043 42.295 9.27 60.365l1.023-2.224z"/>
					<path d="m212.77 83.303c9.32 2.762 27.008 28.453 34.797 72.578 7.781 44.121 5.797 117.83 12.969 128.9 4.539 6.992 5.277 34.678 6.043 44.42l-0.625 3.875c-0.781-9.734-2.691-40.857-7.223-47.85-7.172-11.07-3.898-83.965-11.68-128.07-7.789-44.129-26.75-70.75-36.078-73.508l1.797-0.343z"/>
					<path d="m148.71 204.09c9.023-8.758 2.37-36.078 8.75-40.863 0 0 0.015-2.532-1.86-0.532-4.918 9.438 1.146 30.617-8.104 41.117l1.214 0.278z"/>
					<path d="m196.46 146.33s-1.645-1.043-1.035 0.818c2.882 8.804-18.692 27.079-8.458 42.625-9.158 9.684-20.785 14.875-29.618 15.455 0-0.121-1.084 0.723-1.084 0.723 12.652-1.084 21.617-4.362 32.965-15.348l-1.216-1.845c-10.068-15.521 13.163-35.352 8.446-42.428z"/>
					<path d="m183.14 119.61c-3.639-7.094 2.355-25.369-14.429-27.938l1.344-0.688c16.551 3.186 9.951 20.477 14.272 28.289 0.628 1.134-0.688 1.31-1.187 0.337z"/>
					<path d="m156.18 143.07c8.533-11.143-16.543-41.971-0.355-50.51l-1.18 0.094c-16.023 4.43 7.648 36.789 0.141 51.289l1.394-0.873z"/>
					<path d="m124.57 131.15c3.093-3.146-0.442-8.916-0.569-15.488-0.25-12.145 10.273-25.184 14.805-25l-0.062-0.805c-4.539-0.188-16.391 14.703-16.141 26.844 0.123 6.392 3.878 10.989 0.499 14.371-0.483 0.483 1.124 0.428 1.468 0.078z"/>
					<path d="m98.231 196.58c-1.735-12.406-6.872-44.521 13.558-52.838l-2.016-0.18c-20.5 11.664-14.793 38.385-12.855 50.791l1.313 2.227z"/>
					<path d="m78.806 151.56c0.759-7.835 4.397-21.423 8.882-21.521l-1.25 0.102c-5.123 0.109-9.143 17.826-9.025 24.461 0.793 0.078 1.283 0.641 1.283 0.641-0.033-0.417-0.041-0.905-0.029-1.441 8.725-1.38 6.935 16.858 12.396 26.134l0.842 0.314c-7.559-15.012-4.032-30.52-13.099-28.69z"/>
					<path d="m103.24 116.62s4.859-3.062 2.461-9.598c-2.398-6.527 4.398-19.176 10.883-22.105l0.828 0.203c-6.492 2.934-13.08 15.036-10.674 21.563 2.398 6.539-1.916 9.229-1.916 9.229l-1.582 0.708z"/>
					<path d="m216.58 210.08c-4.289 13.232-22.27 17.109-32.684 12.406l-2.066 0.969c5.367 2.023-1.082 5.727-1.418 13.104-0.328 7.383-2.648 20.148-1.477 27.688 5.617 36.023 1.699 57.037 3.895 61.459l1.25 1.125c-2.188-4.43 1.965-26.982-3.645-63.014-1.18-7.539 1.148-20.312 1.484-27.688 0.254-5.699 4.48-9.521 3.922-11.9 19.818 4.479 28.738-0.148 31.359-14.564l-0.62 0.415z"/>
					<path d="m164.13 224.14c5.578 3.625 11.297 3.305 18.594-0.695l-1.328 1.867c-6.148 5.359-12.238 4.352-19.77-2.023l2.504 0.851z"/>
					<path d="m74.249 198.19c1.059 6.75 2.76 14.172 9.51 14.422 4.75 0.176 4.852 3.307 9.5 1.75l0.25-0.75c-4.648 1.557-3.5-2.5-8.25-2.5s-9.023-6.395-10.859-13.598l-0.151 0.676z"/>
					<path d="m138.92 85.561l1.078 0.105c-2.523-5.059 2.555-20.656 12.258-20.641l-1.062-0.176c-9.181-0.061-14.798 15.65-12.274 20.712z"/>
					<path d="m116.52 275.74c-16.727-7.805-16.266-22.336-20.32-19.328-4.062 3-16.164 6.109-23.352 3.453l3.992 2.914c0.84 0.309 1.682 0.549 2.52 0.744 3.248 6.791 24.576 8.42 34.043 13.537 0 0 1.713 0.889 2.789 1.391l0.328-2.711zm-36.301-12.055c6.039 1.156 11.828-0.387 15.246-2.922 3.154-2.34 3.861 4.939 11.873 11.963-9.013-4.332-22.867-3.752-27.119-9.041z"/>
				<path d="m217.03 76.208c3.998-8.542-14.817-30.789-31.093-24.415-1.638-3.155-3.961-6.363-6.376-9.192-6.328-7.414-10.494-17.5-14.9-26.043-8.68-16.844-22.818-22.574-33.889-8.98-11.078 13.605-29.867 15.66-38.57 9.285-1.836-1.504-1.148 1.602-3.758 1.738-2.336 0.121-2.094 5.566 0.695 8.492 0 0-1.562-0.418-2.086-0.836 0.496 3.476 3.57 7.97 5.82 9.555 0.109 0.098 0.226 0.197 0.342 0.295 3.932 19.143 31.913 4.458 43.783 4.753 7.594 0.184 7.332 4.346 6.434 9.176-16.477-2.016-34.602 17.402-33.68 26.332 0.168 4.424 4.402 9.143 9.172 7.498 2.07 5.59 16.445 7.402 21.516 4.377 1.242 2.525 8.422 4.17 15.68 1.525 1.188 1.438 11.023 1.898 13.68-0.797 11.047 3.742 19.07 1.363 22.355-4.016 12.203 5.1 16.539-1.402 19.141-4.324 1.25 0.789 5.997 0.057 5.984-2.223l-0.582-1.932 0.332-0.268zm-6.688 3.08c-2.656 2.988-7.352 9.898-19.762 4.166-4.41 6.58-12.938 7.523-22.895 3.908-2.664 2.707-11.711 2.629-12.367 0.844-9.512 4.125-14.387 0-14.887-1.5-4.438 1.688-18.125 2.625-20.793-3.91-6.07 1.025-10.328-4.957-8.156-10.602 3.012-7.221 16.281-20.133 31.426-19.357-0.141 0.797-0.266 1.592-0.336 2.377-4.992-1.125-13.367 2.354-16.316 4.301l-0.844 0.75c3.098-2.057 12.25-5.85 17.109-4.125-0.067 1.738 0.16 3.386 1.045 4.786-0.638-0.071-1.197-0.12-1.622-0.151-16.99-1.277-25.143 13.615-22.486 20.756l0.445-1.09c-0.641-6.352 4.664-20.566 22.633-18.848 3.055 0.348 7.141 0.598 10.078 2.957 0 0-0.047-0.371-0.031-0.363-1.206-1.609-4.117-2.467-6.71-2.929-3.997-4.598 3.272-16.586-1.118-21.439 3.563 0.383 4.713 2.213 5.969 6.927 0.132-7.202-3.808-8.233-7.436-8.046-0.33-0.171-0.703-0.316-1.103-0.444 4.412-0.181 6.668 0.669 7.875 1.871 3.773 3.771-2 16 7.328 22.334-3.5-4-5-8.332-4.328-15.5 1.044-11.208-5.227-11.381-16.27-9.12-9.925 1.067-24.744 10.213-35.192 5.037 12.208 2.83 21.034-1.302 29.29-7.417-13.729 9.625-27.151 8.493-33.069 4.667-0.607-0.61-1.197-1.275-1.753-2.043 1.327 0.757 2.889 1.47 4.721 2.063 2.312 0.75 4.125 0.812 4.125 0.812-5.17-1.785-8.868-3.783-11.29-5.49-1.761-1.68-2.649-4.121-3.492-6.139 0 0 1.324-0.375 2.891-0.323 10.781 4.87 22.579 0.329 30.867-6.048-15.926 8.986-28.708 6.934-34.416 1.607-0.414-0.557-0.781-1.104-1.097-1.625 5.587 5.655 14.211 5.938 24.168 3.385-13.355 1.763-20.253-0.472-24.665-5.371 0.875-0.954 4.37-1.062 6.577-0.699 8.331 5.562 24.787 2.353 35.606-10.922 5.133-6.296 10.747-8.247 16.158-6.86-4.433-0.063-8.473 2.155-11.166 5.985 5.827-5.559 13.422-4.721 17.76-2.6 0.044 0.034 0.087 0.071 0.131 0.105-4.558-1.735-9.315-1.005-12.539 1.579 5.51-2.872 11.941-1.18 15.105 0.742 2.786 2.832 5.379 6.534 7.652 10.943 0.826 1.6 1.98 3.785 3.242 6.103-5.378-3.931-9.106-6.14-15.961-7.421 9.12 2.346 12.719 6.913 18.041 11.176 0.518 0.917 1.033 1.817 1.536 2.675-33.713-33.003-35.737 16.642-68.022 5.094l-3.062 0.188c31.146 13.157 39.624-33.387 71.953-3.822 0.823 1.365 1.587 2.563 2.219 3.449 7.215 10.122 16.89 20.819 9.922 26.119-1.064-0.282-2.088-0.408-3.077-0.429 5.173-5.993-3.628-9.246-8.556-21.235 1.82 5.46 3.967 8.984 5.471 11.687-3.229-2.826-8.303-4.809-9.072-10.513-1.242-9.27-5.508-14.932-11.43-16.635 2.528 0.727 4.506 2.673 6.044 5.377-5.332-4.913-13.418-3.617-19.021-0.749 9.566-3.644 18.578 1.979 21.867 8.302 0.504 2.027 0.899 4.18 1.195 6.389 1.011 7.544 10.644 9.232 12.3 13.172-0.058 1.396-0.745 2.815-2.329 4.58-0.936 0.212-1.84 0.497-2.718 0.818 3.985-3.016 6.484-4.725-1.151-9.761-7.828-5.168-6.492-6.836-7.164-9.668 0.664 8 1.328 7.336 5.664 10.168s7.336 4.998-1.664 10.332l0.049 0.059c-2.69-0.648-5.678-0.294-8.119 0.639-1.723-1.645-6.113-1.58-8.836-0.57l0.203 0.266c2.828-1.078 8.141-0.672 7.852 1.98-0.609 6.781-9.008 16.086-7.055 19.594l0.984 0.699c-1.953-3.496 6.805-14.598 7.523-19.723 0.137-0.723-0.051-1.285-0.367-1.77 3.992-1.332 8.203-0.828 10.484 1.582 6.758 6.859 0.508 15.527-3.789 19.004l1.008-0.164c4.312-3.473 11.336-12.238 4.562-19.094-0.863-0.916-1.893-1.563-3.011-2.015 0.021-0.015 0.045-0.031 0.066-0.047 8.536-3.198 10.346-1.82 15.179 0.421 4.219 2.449 9.438 6.598 3.906 16.215l0.883 0.438c5.164-10.094 0.383-15.336-3.836-17.773-0.254-0.156-0.5-0.242-0.754-0.379l0.262 0.094c0.746-0.84 1.195-1.807 1.434-2.854 17.57-7.232 21.629 13.164 21.895 16.541l0.406-2.191c-1.953-10.736-9.605-19.66-22.09-15.945 0.027-1.457-0.309-3.037-0.891-4.674 5.672-2.92 9.723 0.436 10.785 1.031l0.828-0.184c-2.547-1.459-7.691-3.914-11.988-1.842-0.189-0.459-0.399-0.921-0.623-1.386 10.504-4.627 28.988 11.878 28.791 23.897-0.667 2.078-3.553 3.117-4.788 2.814z"/>
				<path d="m214.58 201.33c2.398-1.414 4.135-5.672 4.266-9.037 0.643 3.895 0.395 7.16-2.26 10.115 1.502 4.197-0.869 8.312-1.75 10.291 1.25-4.333 0.945-9.603-0.256-11.369z"/>
				<path d="m204.11 188.81c0.279-0.958 0.426-1.8 0.474-2.535 2.403-0.318 4.226-2.558 4.999-7.197-0.979 2.935-3.52 3.876-6.672 3.917-0.037-4e-3 -0.08 6e-3 -0.118 4e-3 -0.03 0-0.059 3e-3 -0.089 3e-3v2e-3c-1.554 0.013-3.848 1.82-6.102 5.864-4.543 8.138-29.596 22.901-59.479 22.263 1.977-1.191 2.614-3.336 2.151-6.046 0 1.019-2.103 4.103-7.442 3.465-6e-3 -7e-3 -0.012-0.014-0.018-0.02 1.49-0.729 2.483-2.158 2.19-3.916 0 0.534-1.578 2.163-3.892 2.254-1.849-1.414-3.709-1.211-6.28 3.208l-1.465 3.998c4.25-7.32 8.945-2.32 12.484 1.697 7.266 0.42 14.113-0.111 20.445-1.236 24.57 7.205 56.832 2.418 51.375-20.562 1e-3 1e-3 -1.092-3.206-2.561-5.163zm-44.34 24.807c18.574-4.32 31.734-13.781 35.082-19.779 4.695-8.426 8.227-6.32 7.508-0.059l1.012-2.867c3.437 19.74-21.118 26.744-43.602 22.705z"/>
				<path d="m215.08 176.08c2.25 3.5-0.303 11.881-6 15 2.25 1.5 2.25 10.75-2.25 18.25 7-6.75 6.25-12.25 4.5-16.75 5.25-4.75 7.75-13.25 3.75-16.5z"/>
				<path d="m215.54 144.85c6.305-23.965-16.965-37.586-52.211-4.068l-0.156 1.852c34.523-33.631 54.57-17.24 51.094-1.461-3.164-7.492-9.43-12.289-19.75-8.992-21.625 6.91-46.85 36.316-68.016 34.805l0.727 1.477c9.539 12.117 37.613-24.385 65.605-33.381 20.938-6.723 26.176 20.214 19.443 27.821-0.463-2.793-1.509-5.72-2.508-8.821 1.646 13.75-0.891 16.307-3.357 22.133 4.336-3.155 5.915-6.419 6.092-9.876 3.52-5.578 4.987-14.22 3.037-21.489z"/>
				<path d="m264.7 174.35c-0.271-26.534-12.644-68.09-47.69-99.011-0.082 0.303-0.186 0.593-0.314 0.869l-0.332 0.27 0.582 1.932c0.018 0.218-0.052 0.43-0.183 0.632 35.505 31.432 42.915 69.623 43.219 96.7 0.523 47.354 22.609 82.098 18.484 124.91-2.039 21.148-5.297 36.598-12.375 47.512 0.523-4.363 0.816-9.885 0.863-13.459l-0.863 3.736c-0.973 26.566-18.383 54.148-37.676 54.668 4.051-10.262 5.68-20.723 7.012-27.332l-1.223 1.303c-3.625 19-12.777 52.369-54.965 52.65 4.938-6.254 17.646-19.654 5.406-56.68l-0.482 1.779c1.186 3.389 4.906 19.248 3 31-7.504 46.312-81.6 51.158-79.791 8.408 1.922-10.562-8.539-21.797-3.695-34.125l-1.195 0.398c-6.203 14.594 4.469 20.672 2.547 31.234-0.98 8.828 0.762 15.965 4.266 21.527-13.465 6.168-85.277-3.074-74.812-51.379-0.5-6.398-0.281-16.188 1.516-20.617l-0.834-1.447c-3.383 8.164-1.01 18.182-3.674 24.994-1.262 4.113-1.812 7.906-1.867 11.465-23.465-9.77-22.459-36.459-18.627-56.625l-0.832-1.334c-1.834 7.832-3.143 17.709-3.303 25.713-7.25-5.512-1.539-44.383 8.09-52.531 1.693-1.437 3.065-2.336 4.211-2.909-11.748 23.933 15.474 37.888 16.882 45.546l0.039 0.496c4e-3 0.094 0.023 0.191 0.016 0.281l4e-3 -4e-3 0.129 1.605c8.555-7.125 49.398-5.469 65.961 19.469 3.047 4.594 2.086-4.039 27.906-0.062 39.133 6.031 43.586-19.023 53.266-5.297 3.336-12.078 21.211-23.695 25.562-22.961 4.098 0.691 16.957-6.379 18.137-16.703 2.809 4.629 2.809 10.402-1.965 17.578l2.578-1.281c9.086-14.141 0.969-28.531-22.359-31.516l2.5 3.07c4.473 1.41 8.703 3.203 12.207 5.418-1.996 5.82-16.406 8.059-22.527 14.684-6.43 6.945-9.508 8.797-12.68 2.609l0.828 3.695c0.254 0.5 0.469 0.91 0.691 1.344-2.352 5.387-11.457 8.383-20.68 6.234-2.562-5.676-5.805-12.156-16.887-12.18-5.168 4.473-2.656 11.949-6.051 18.316-9.902 3.578-24.488 3.137-26.168-5.027l-0.898 2.227c-14.219 10.25-27.164-10.727-45.062-13.078-17.898-2.336-26.094 2.609-24.188-7.211l-1.391 2.797c-0.137 0.703-0.107 1.631-0.107 1.631-2.223 1.102-3.768-0.631-4.076-1.143 5.25-6.867-1.824-21.121 2.926-29.918-3.449-1.85-7.155-1.71-10.569-0.126 0.554-6.606-2.849-7.134 9.874-35.788 9.289-20.922 16.039-43.447 26.141-56.289 5.609-7.14 1.483-18.913 5.789-20.725 2.953 10.927 15.887 14.778 23.071 19.655l1.355-0.416c1.367 1.561 3.547 3.756 4.664 4.547 2.367-3.945 4.344-3.43 5.75 0.75l0.75-0.75c-0.601-1.783-1.367-3.631-2.23-4.862-4.333-15.872 8.025-17.588 9.281-30.21l-0.217-1.338c0.233 5.729-5.463 9.526-9.239 14.616-0.25-1.818 0.099-4.877 1.733-8.021-2.52 3.988-5.664 8.604-5.035 16.996l0.074-0.123c7e-3 1.977 0.459 4.176 1.52 6.663-0.639-0.04-1.301 0.381-1.968 1.495-6.828-4.832-19.805-26.348-20.609-36.484-0.707-8.932-7.518-13.154-9.027-10.701-0.5 0.812-0.438 1.094-0.43 1.408-1.402-3.525 1.871-30.223 9.809-30.855 8.844-2.008 35.891 0.523 38.047 39.273l0.125-0.256c-0.02 0.272-0.037 0.432-0.037 0.432 2.793-5.107 5.959-10.199-3.344-27.83 5.225 13.392 5.709 18.278 3.7 22.033-3.529-32.818-26.553-40.062-35.874-37.355 1.371-1.516 3.426-3.288 4.375-4.351 13.234-2.96 24.32 10.515 29.742 19.241l-0.523-2.719c-5.547-8.945-14.453-22.377-28.754-17.748 0.547-1.615 0.422-3.855-0.848-7.791-3.549-11.019 15.475-26.165 19.045-36.326 0.028-0.592 0.123-1.218 0.284-1.873-8.235 14.415-25.625 28.053-21.993 39.332 3.656 11.348-0.43 6.148-4.977 14.492-8.164 0.643-15.922 36.084-8.762 38.281 0.355 2.447 1.035 4.809 1.809 6.289-1.709 4.798-2.156 8.788-1.725 12.172l-0.212-0.43c-10.055 1.867 0.688 12.301-10.281 26.047-10.984 13.752-15.414 35.84-22.703 52.262-4.297 9.676-7.043 16.531-8.844 21.672-6.035 8.617-7.879 4.742-19.93 14.961-12.047 10.207-18.449 60.34-5.188 65.816 1.621 12.633 7.453 24.156 23.008 29.539 7.605 33.004 68.641 37.902 81.176 32.535 13.949 16.469 46.098 15.078 64.066-2.586 29.867 3.586 44.059-11.105 51.422-27.41 22.723 4.945 33.48-18.012 37.668-39.473 14.777-12.031 16.18-37.629 18.332-59.453 4.16-42.193-17.871-76.422-18.347-123.09zm-182.12-1.676c0.625 7.865 8.578 22.559 15.301 31.016-11.297-6.852-30.074-15.141-17.238-38.164 0.93 1.81 1.699 4.164 1.937 7.148zm-7.125-8.566c-0.262-3.293 2.207-3.1 4.32-0.104-1.301 2.41-2.312 4.641-3.121 6.74-1.394-2.263-1.144-5.042-1.199-6.636zm-44.898 125.48c-1.681 6.055-1.583 8.878-2.083 12.781-2.369 2.26-4.391 5.254-5.792 8.719 0 0 0.217 1.273 0.875 1.998 4.217-10.08 10.086-14.436 16.672-10.896-4.32 7.992 3.672 23.117-3.133 28.164l1.152 1.18c0.203-0.152 1.473-1.211 1.473-1.211s2.98 2.367 5.457 2.25c1.977 4.477 11.961 1.684 26.73 3.617 17.887 2.324 31.387 23.762 45.594 13.582 3.98 4.598 13.172 5.883 20.926 3.98-1.41 1.023-3.141 1.973-5.309 2.812l4.305 0.195c12.203-5.172 6.289-18.43 12.188-23.523 15.57 0.023 9.602 20.727 21.828 19.219l3.262-1.127c-5.75 0.25-6.492-2.959-8.191-6.635 9.199 2.301 18.605-0.547 21.324-5.539 1.59 2.203 2.902 1.355 6.918-4.121 8.66-11.785 27.328-11.508 29.113-17.879 0.426 0.395 0.832 0.797 1.215 1.215 1.414 9.527-14.41 16.965-18.547 16.273-4.352-0.734-20.047 11.258-23.383 23.328-9.68-13.727-12.125 9.555-51.25 3.523-25.836-3.984-26.875 6.422-29.922 1.828-15.711-23.656-51.938-28.363-64.148-20.777 0.974-11.329-28.29-21.089-17.482-44.457 4.7-1.673 4.944 2.548 10.208-8.499z"/>
	</svg>
