<?xml version="1.0" encoding="UTF-8"?>
<svg viewBox="0 0 128 128" xmlns="http://www.w3.org/2000/svg">
 <g transform="translate(12.586 9.9688)">
  <path d="m35.281 81.281-10.781 0.1875-10.594 0.96875-9.375 1.4062-8.0312 0.71875 0.25 0.875 8.5 0.96875 9.3438 0.09375 9.0312 0.4375 8.2188 1.5 2.4688 1 0.96875-8.1562zm62.219 1.5938-4.5938 0.8125-6 1.5938 2.4688 5.7188-4.6875 1.5312 6.625 0.25 7.875-1.25 1.7812-0.4375-6.8125-0.96875-0.0937-0.15625 3.625-1.25 5.125-1.8438 0.625-0.90625-3.9063-0.34375-5.0312 0.78125-1.1562-0.0625 3.9062-2.6562 0.25-0.8125zm-22.438 11.5-12.188 0.25 4.8438 5.9375 11.688 8.2188 0.0625-0.71875-6.0938-8.3125 2.6562 1.5938 6.625 4.6875 2.6562 1.25-0.625-1.5-3.6875-3.8125-3.9062-2.8125 0.8125-0.4375 6.1875 1.3125c-0.85086-3.3805-5.9639-3.8102-9.0312-5.6562z" fill="#213040"/>
  <path d="m61.469 1.0312c-6.274 0.29222-10.331 3.2983-13.037 8.6376-9.167 2.0342-14.562 9.228-13.62 19.331 1.5992 6.1162 8.3925 8.5821 14 8.7812-7.0764 13.646-10.358 28.194-13.069 43.182l-1.6812 8.5679-0.21875 1.375c9.4359 3.6178 18.249 4.2753 28.281 4.2812l13.5-1.1562c3.2195-0.36253 5.7114-0.31811 8.5938-1l4.6825-2.1727-1.745-5.9523c-4.0829-10.363-8.3453-20.198-11.594-31.031 1.9139-0.33072 3.8051-0.8317 5.875-0.78125 2.3125 1.3125 3.5938 3.6562 6.9375 3.9375l0.0313 0.03125 0.15625-0.21875c-0.60047-2.8092-3.4167-3.6042-5.125-5.4062 2.4167-0.20833 5.0922 0.61899 7.25-0.625l0.0937-0.25c-1.3066-2.2921-4.5625-1.5208-6.8438-2.2812 1.1875-1.2708 3.6819-1.8288 3.5625-3.8125l-0.15625-0.1875-0.03125 0.03125c-3.0538-0.19279-4.7083 2.8125-7.0625 4.2188l-5.625 0.0625c-0.62972-4.8004-0.74823-9.9032-0.125-15.406 2.132 0.15345 4.667 0.45239 6.7812 0.75l0.21875 9.0938c1.5269 0.43545 3.6185-0.09452 4.9688-0.71875l0.1875-0.5 0.34375 0.25c1.3194 0.42968 1.8957 0.46926 3.1562-0.21875l-0.625-7.4062c2.1035 0.33731 4.7689 0.49966 6.2812 0.46875 2.7494-0.0562 4.9859-0.77323 7.75-2.3125 0.88095-0.48235 0.13482-1.1286-0.0625-1.7188-2.8064-1.4535-4.3801-3.0104-6.75-5.0312-0.38045-0.51-0.97668 0.09948-1.25 0.21875-7.8793-6.6025-7.9289-6.2066-12.094-8.6562 0.37641-0.47195 0.58665-1.2886 0.53125-2.2188-0.07595-1.2753-0.63801-2.2828-1.3125-2.4375-0.56684-0.84455-1.486-1.4695-2.9375-1.6562-1.6229 0.09893-2.742 1.1021-3.4375 2.4062-0.60829-0.5747-1.1361-0.40786-1.9062-0.5-1.6926-6.2951-6.2858-11.807-12.875-11.969z" fill="#636e79"/>
  <path d="m81.65625,31.78125 .09375,10.90625 1.75.3125 2.71875-.46875 .5625-1.0625 1.125.75 1.40625-.09375 .75-.4375-.25305-6.78016 .12666-.84887-.96736-.46471-7.3125-1.8125z" fill="#fff"/>
  <path d="m74.3125,13.0625-2.1875,1.125-1.4375,3 .375,4.25 1.5625,1.625 1.625.375 1.5-.4375 1.625-1.4375 .125-.875 1.875.5625 1.75-.0625 1.5625-2.0625c0,0 .375-1.625.375-1.875s-.9375-4.5-.9375-4.5l-2.375-1.4375-1.8125.9375-1,1.75-1.1875-.5-1.4375-.4375z" fill="#fff"/>
  <path d="m70.62198,47.9915c-.4375-.0625-4.45765,2.16475-4.45765,2.16475l-2.25,2.9375-1.5625,4.9375h1.625l2.6875-.1875h2.1875l1.5625.9375 .0625.3125-1.125.5625-3.625.125-.25.25 .75,1.1875 1.875,1.875c.25.25 1.1875,2.0625 1.1875,2.0625l-.0625.9375c0,0-1.375-.125-1.5-.375s-4.625-3.9375-4.625-3.9375v.9375l.8125,3-.52589,3.63258-2.1067-5.98614-.55492,8.41605 .75.75 2.44154.47943c.8819-.74685 1.76381-.89038 2.64571.51952l12.10025,2.37605 4.875.3125-.125-5.625-1.6875-1.25c0,0-.5625-1.25.1875-1.75s2.4375-.875 2.4375-.875l2.5-7.0625-4.99556-2.88572c-1.78956.9609-4.48843-.48731-4.34173-3.29682l-6.89257-5.48221z" fill="#ffde00"/>
  <path transform="translate(-12.586 -9.9688)" d="m74.062 11c-6.274 0.29222-10.419 2.8482-13.125 8.1875-9.167 2.0342-14.473 9.6781-13.531 19.781 1.5992 6.1162 8.3925 8.5821 14 8.7812-7.0764 13.646-10.977 28.106-13.688 43.094-13.182-0.17626-26.133 2.2558-39.188 3.6562h-0.03125c-0.23731 0.51557-0.42113 1.4476 0.09375 1.625 12.859 1.5974 25.247-0.76824 38.062 3.375l-0.21875 1.375c9.4359 3.6178 18.249 4.2753 28.281 4.2812 5.0858 7.0317 11.12 10.083 16.969 14.062 1.0819-0.3229 1.1027-0.64585 1.2188-0.96875-1.8021-2.7292-2.6685-4.8199-6.2188-7.9375 3.8333 2.375 7.1076 6.1477 11.5 7.125l0.15625-0.1875c-1.8294-3.542-5.0108-5.936-8.125-8.2812l6.75 1.1562 0.09375-0.125c-0.69137-3.2308-5.8958-4-8.8438-6 3.2195-0.36253 5.7114-0.31811 8.5938-1 5.8648 1.0848 11.238-0.77748 16.781-1.625 0.83373-0.28936 0.41188-0.41321 0.375-0.59375l-7.0625-0.65625c3.0836-1.1793 6.4013-1.7647 9.25-3.5312 0.46436-0.44099 0.35246-0.83298-0.125-1.1562-3.2087-0.48637-6.5553 0.33058-9.875 0.84375l4.2188-2.7188-0.15625-0.875c-4.1464-0.03491-6.9808 1.4542-10.469 2.1875-1.2048-3.058-2.4508-6.0571-3.6562-9.0625l-0.8125-0.03125c1.944 4.6543 4.0376 9.5738 6.0625 15.031-17.859 6.0546-36.278 3.6911-54.25-0.25 2.2419-18.627 7.4492-35.603 15.156-52.688 1.4028-0.01336 2.3752-0.23737 4.0312-0.46875l-0.0625-0.25c-1.5986 0.22341-3.0809-0.08192-4.4375-0.0625-5.9292 0.1891-10.066-1.7975-12.844-7.4062-7.4116-16.768 24.6-31.378 27.031-7.4688l0.25 0.0625c-0.36096-4.3665-1.6311-8.072-3.9375-10.5 1.2482-1.214 2.1383-2.0086 3.7746-2.208 1.1359-2.5543 1.3372-2.3116 2.7606-3.33-0.56824 0.90801-1.455 1.7356-0.78282 2.8917 0.32554-0.01289-0.0131 0.03467 0.31569 0.05023 0.35418-0.55219 0.63467-1.1781 1.2413-1.4778-0.79818 0.76723-0.57466 1.2135-0.61681 1.8547 0.27856 0.02301-0.06916-0.04748 0.20881-0.0067-0.08491-0.69783 1.1004-1.1649 2.2486-1.9508-0.87037 0.75684-1.5294 1.5137-1.3374 2.2705 1.6303 0.27661 3.222 0.82407 4.5938 1.5l0.1875-0.25c-1.3011-0.72695-2.3412-1.0808-3.9062-1.4688-0.9962-0.27977 1.0447-2.1157 1.5312-2.8438-1.4976 0.57102-1.9655 0.96563-2.625 1.375l0.53125-1.375c-0.69885 0.38873-1.5275 0.73547-2.0938 1.5312-0.51419-1.2665 1.6566-2.41 2.4375-3.4375-2.0724 1.0077-4.9467 2.2465-5.0938 4.0625-1.8442 0.34628-2.3004 1.1797-3.7812 2.4375-2.3918-2.2592-5.7962-3.2566-10.281-2.3125 2.2043-5.8138 7.4386-6.8436 12.531-6.9062 6.7816-0.05206 10.108 4.9154 12.25 10.781-0.84695 0.154-1.5318 0.74531-2.0938 1.5625-1.7834 2.2583-1.9959 5.0482-0.78125 7.4688 1.95 2.5302 5.5065 1.5738 6.8125-0.875 1.7369 1.2433 3.1458 0.59196 4.5-0.84375 0.27863-0.40521 0.51155-0.8909 0.6875-1.4062 4.6202 2.1926 8.6644 5.274 12.812 8.2188l-0.71875 7.125c-0.6512 0.28784-1.4672-0.12731-2.9375-0.125-3.4289-1.4511-8.427-2.1708-12.75-2.875l4.875-2.9375c0.18287-0.93692-0.15684-0.68937-0.625-0.8125l-4.9062 3.625c-0.94398-0.15687-1.9148-0.30162-2.75-0.46875l0.125 0.125c0.79465 0.15901 1.6006 0.34749 2.4062 0.53125l-1.6875 1.25 0.3125 0.0625 1.9375-1.1875c0.75868 0.17808 1.5231 0.36453 2.2812 0.5625l0.03125 1.1875c-3.7481-0.4007-7.2382-0.43812-9.9688-0.3125v0.25c0.97425-0.03184 1.7078 0.10719 2.6562 0.15625-0.93355 6.7472-0.62412 12.229 0.5 18l0.75 0.59375c-0.20315-1.0986-0.44147-1.9034-0.59375-3.0312 1.5949 0.53938 3.9219 0.30202 5.8125 0.25 1.916-1.1775 3.8072-4.0018 6.5312-4.4375 0.89997 0.61095-2.3438 2.5-3.375 3.5938l-0.0625 0.46875c2.1458 0.71875 4.774-0.06313 6.5625 1.9062-2.3229 0.9953-4.7708 0.20833-7.0938 0.40625v0.46875c1.5625 1.6562 4.4626 2.9229 4.625 4.8125-2.9612-0.44727-3.9271-2.5-6-3.6875-2.1952-0.20087-3.6514 0.0819-5.1562 0.34375l0.84375 0.5 0.03125 0.0625c1.314-0.25075 2.6457-0.47203 4.0625-0.4375 2.3125 1.3125 3.5938 3.6562 6.9375 3.9375l0.03125 0.03125 0.15625-0.21875c-0.60047-2.8092-3.4167-3.6042-5.125-5.4062 2.4167-0.20833 5.0922 0.61899 7.25-0.625l0.0937-0.25c-1.3066-2.2921-4.5625-1.5208-6.8438-2.2812 1.1875-1.2708 3.6819-1.8288 3.5625-3.8125l-0.1562-0.1875-0.03125 0.03125c-3.0538-0.19279-4.7083 2.8125-7.0625 4.2188l-5.625 0.0625c-0.62972-4.8004-0.74823-9.9032-0.125-15.406 2.132 0.15345 4.667 0.45239 6.7812 0.75l0.21875 9.0938c1.5269 0.43545 3.681 0.15548 5.0312-0.46875l0.25-0.9375 0.28125 0.6875c1.3194 0.42968 1.8332 0.21926 3.0938-0.46875 0.28344-2.4185 6e-3 -4.7567-0.28125-7.0938 2.1035 0.33731 4.4252 0.18716 5.9375 0.15625 2.7494-0.0562 4.9859-0.77323 7.75-2.3125 0.88095-0.48235 0.13482-1.1286-0.0625-1.7188-2.8064-1.4535-4.3801-3.0104-6.75-5.0312-0.38045-0.51001-0.97668 0.09948-1.25 0.21875-1.1056-0.92646-1.7634-1.4469-2.5938-2.125l3.8125-4.25-0.3125-0.125-4.2812 3.75c-0.30237-0.24418-0.76196-0.63023-1.0312-0.84375l5.125-7.8125-0.1875-0.0625-5.6875 7.2812c-0.41338-0.3206-0.81177-0.65241-1.1562-0.90625l2.125-4.125-0.1875-0.0625-2.625 3.7188c-1.7532-1.2334-2.8279-1.761-5.0938-3.0938 0.37641-0.47195 0.58665-1.2886 0.53125-2.2188-0.07595-1.2753-0.63801-2.2828-1.3125-2.4375-0.56684-0.84455-1.486-1.4695-2.9375-1.6562-1.6229 0.09893-2.7419 1.1021-3.4375 2.4062-0.60829-0.5747-1.1361-0.40786-1.9062-0.5-1.6926-6.2951-6.2858-11.807-12.875-11.969zm18.156 10.625c1.0683 0.16265 1.7382 0.66284 2.1875 1.3438-0.43904 0.44223-0.71658 1.3308-0.65625 2.3438 0.08301 1.3938 0.77648 2.4828 1.5312 2.4688-0.13524 0.64449-0.41038 1.1675-0.8125 1.9375-1.2288 1.6524-2.3808 1.5986-4 0.65625 0.03578-0.1089 0.0615-0.20761 0.09375-0.3125 0.50875-0.39211 0.81561-1.336 0.75-2.4375-0.06312-1.0599-0.44685-1.9538-0.96875-2.3125-0.21359-0.41421-0.44952-0.84573-0.78125-1.3125 0.56637-1.3855 1.231-2.0414 2.6562-2.375zm-28.781 1.1875c-8.4962-0.02895-15.091 7.7584-13.125 15.469l0.28125-0.3125c-1.37-11.445 14.226-20.351 21.094-8.0938l0.1875 0.09375c-1.1559-4.1624-4.7742-7.1874-8.4375-7.1562zm23.594 0.59375c0.57153-0.03386 1.1882 0.15087 1.9062 0.5625 0.40969 0.54115 0.66464 0.90906 0.84375 1.1875-0.76748 0.04571-1.3342 1.2118-1.25 2.625 0.07835 1.3155 0.70408 2.3666 1.4062 2.4688-0.09129 0.26566-0.1939 0.52486-0.25 0.78125-1.3198 2.0595-3.0552 2.819-4.9375 0.875-1.629-2.4978-1.057-3.9812-0.34375-6.6875 0.86805-1.1209 1.6724-1.7561 2.625-1.8125zm8.2812 11.438-15.25 1.375v0.25l15.312-0.625c0.93317-0.60591 0.03954-0.68987-0.0625-1zm-0.875 1.9062-16.625 5.25 0.1875 0.25 16.75-4.5625c0.41894-0.70483-0.13155-0.68259-0.3125-0.9375zm0.09375 5.4062c2.6743 0.7199 5.0873 0.86298 7.5 1.8125 0.24464 2.7348 0.6657 5.7562 0.28125 7.4688-0.79711 0.56799-0.70259 0.83855-2.4375 0.46875 0.34571-2.0557-0.68649-5.8193-1.0938-7.875l-0.09375 0.1875c0.26147 2.0746 0.29575 5.8385 0 7.9688-1.1941 0.59315-2.8996 0.56451-4.0938 0.28125 0.06934-2.8749-0.24075-7.6155-0.25-9.2188l0.1875-1.0938zm-24.812 21.281-0.15625 0.1875c1.7021 1.5062 2.8043 3.6124 5.125 4.5 2.6979 0.26042 6.1815-1.2075 8.0938 0.78125-0.98458 0.81679-3.2917 0.5-4.9375 0.75l-0.09375 0.21875c0.36588 2.147 4.4009 4.1118 3.75 5.875-2.1223-0.38704-3.8646-3.0938-5.7812-4.4062l-0.3125 0.40625c0.16667 2.2812 1.19 5.4423 0.46875 7.0312l-2.2812-7.2188c-1.532-2.4818-5.6479-3.657-8.5625-4.75l-0.0625 0.25c2.9885 0.78544 5.608 2.7398 8.1562 4.9375 0.71502 3.1211 1.8941 5.0046 2.8438 7.5l0.53125-0.0625c0.54681-2.4792-0.54167-4.9583-0.8125-7.4375 2.0104 1.3854 3.0055 4.0143 6.0312 4.1562l0.1875-0.15625c0.21897-2.8972-2.5416-4.0729-3.8125-6.0938 1.7083-0.23958 3.5714 0.29469 5.125-0.71875l0.03125-0.25c-1.4932-2.4939-5.4792-0.83333-8.2188-1.25-1.8561-1.7578-3.5417-2.8334-5.3125-4.25zm-26.062 28.562c1.3538-0.01679 2.7096-0.02552 4.0625 0-0.37601 2.1247-0.55864 4.4092-1.1875 7-3.2757-1.058-6.5622-1.7222-9.8438-2.1562 1.0276-2.8114 4.2244-3.6171 6.9688-4.8438zm-1.9375 0.03125c-2.4427 1.3319-5.0795 2.5633-5.875 4.7188-3.7817-0.45563-7.5664-0.63322-11.344-0.75 1.3336-1.8808 3.3771-2.7093 5.5625-3.3125 3.8817-0.31616 7.7746-0.55895 11.656-0.65625zm-14.562 0.90625c-1.5326 0.62643-2.8435 1.5112-3.6562 2.9375l0.0625 0.09375c-2.9853-0.08735-5.9622-0.1713-8.9375-0.34375 0.37969-0.90608 1.7249-1.3229 3.0625-1.75l-0.0625-0.03125c3.184-0.32041 6.3472-0.62058 9.5312-0.90625zm82.5 0.53125-3.9688 2.8438c-0.11045 0.28156 0.0398 0.42567 0.15625 0.59375 3.2394-0.11487 5.9032-1.6579 9.625-0.6875-2.8476 1.9327-5.9896 2.0625-9 3.3438-0.58961 0.16175-0.19269 0.4765 0 0.75l6.1875 0.90625c-4.825 0.62492-10.051 2.1084-14.125 1.125 1.5636-0.39029 2.1907-0.85119 3.5938-1.3438-0.65075-1.7339-1.51-3.8025-2.1875-5.5312 3.236-0.6634 7.3812-2.1067 9.7188-2zm-94.031 0.59375c-1.0979 0.43558-1.7779 0.90804-1.9375 1.5-1.1976-0.07875-2.3986-0.15728-3.5938-0.28125-0.32217-0.03342-0.02086-0.61963-0.34375-0.65625 1.9561-0.17769 3.9189-0.36738 5.875-0.5625zm71.562 10.562c3.0312 1.7083 7.5789 1.9002 9.0938 5.125-2.1354-0.6328-4.2708-1.3977-6.4062-1.125l-0.5625 0.40625c2.7393 2.4673 6.9028 4.6833 8.125 7.6562l-11.625-7.1562-0.1875 0.1875c3.0386 3.5083 4.5633 6.1756 6 8.5625-5.0321-3.9457-10.958-6.8759-15.094-13.062 3.5803-0.0335 7.1836-0.21846 10.656-0.59375z"/>
  <path d="m82.90625,13.375c-.41387.5789.05588,2.2172.56472,2.60708 .53444-.94409-.35077-2.19703-.56472-2.60708zm-5.125,2.3835c-.9442.84406.10008,2.52656.52053,2.60708 .44605-.59054-.30657-2.19703-.52053-2.60708z" fill="#fff"/>
  <path d="m96.541 26.49c0.18097 0.88949 0.16917 1.7469-0.35355 2.5191 2.0123 1.2366 4.4157 1.789 6.8943 2.2097-2.4075-0.89451-4.4793-2.7961-6.5407-4.7288z" fill="#fff"/>
  <path transform="translate(-12.586 -9.9688)" d="m82.95543,57.8223-4.29918,2.33395 1.4375,1.28125 11.375,6.0625 7.25,2.28125 .28125-.21875c-1.60965-1.00811-3.01731-1.79524-4.52061-2.80335-2.51173,1.59479-4.78773-.98376-4.34366-3.31093l-2.35447-2.44822-2.46513-2.35184-2.3607-.82586zm-4.51793,5.1777-.15625,1.53125 .6875,1.78125 .9375.6875 1.1875.15625c0,0 1.10133-.52903.96875-.75s-.39867-1.19822-.53125-1.375-1.64331-1.63572-1.6875-1.8125l-1.40625-.21875zm13.34375,7.3125c-.14726.004-.30302.02746-.46875.09375l-.84375,1.15625-.125,1.8125 .78125,1.90625 1.25.4375 .96875-.65625 .65625-.75c0,0 .40533-.65809-.125-1.71875-.46404-.92808-1.06296-2.30904-2.09375-2.28125zm-6.71875.34375c-.35105.0085-.90625,1-.90625,1l-.28125,1.21875 1.15625,1.46875 1,.3125 1-.53125 .03125-1.09375-.4375-.90625-1.40625-1.40625c-.03867-.04419-.1061-.06371-.15625-.0625zm-7,4.40625-.625.46875-.5,1.875 .28125,1.1875 .96875.53125h.78125l1.0625-.3125c0,0 .32767-.98484.0625-1.25s-.94286-1.66697-1.03125-1.84375-1-.65625-1-.65625zm6.96875,3.90625c-.08571-.01761-.14693.00915-.21875.03125l-1.1875,1.0625-.15625,1.125 .9375,1.65625 1.03125.3125c0,0 1.08081.22097 1.125,0s.375-1.34375.375-1.34375 .07767-1.0527-.1875-1.40625c-.23202-.30936-1.11876-1.31424-1.71875-1.4375zm7.375,2.75-.65625.09375-.34375,1.5625 .53125,1.625 1.40625.03125c0,0 .47947-.26386.65625-.75s-.0085-1.31564-.40625-1.625-.56878-.62814-1.1875-.9375z" fill="#ffb400"/>
  <path transform="translate(-12.586 -9.9688)" d="m83.075 57.522c-1.6909 0.53526-3.2816 1.2549-4.7622 2.2906-2.0216 2.9995-2.8394 4.315-3.625 7.9062l0.625 0.21875c0.18785-2.2407 1.3001-3.7707 3.1875-7.3125 6.1338 4.0575 12.788 8.0231 20.188 9.4375-0.46039 3.2643-1.8381 4.1181-2.5312 6.5-2.7124 0.56722-2.7838 2.4709-0.75 4.2188 0.20948 1.6431 0.96858 3.7344 0.09375 4.8438-5.4905-0.07068-10.955-1.1434-16.031-2.375-1.4446-2.1961-2.1957-0.8176-3.1875-0.75l-2.5938-0.625c0.1553-1.7903 0.05217-6.6492 0.21875-8.4375l-0.4375-0.3125-0.65625 9.2812c1.1269 0.28738 2.2481 0.55387 3.375 0.8125 0.99784-0.13719 2.09-1.892 2.9375 0.65625 5.812 1.2151 11.626 2.0832 17.438 2.7812l-0.15625-6.375c-3.2335-1.4137-2.7023-2.4433 0.625-3.1875l3-7.75c-2.0198-0.67572-3.8731-1.5966-5.5919-2.7041-2.2585 1.3084-4.5183-0.69806-3.9198-3.2202-2.2788-1.841-3.355-3.0445-4.9265-5.0419-1.0338-0.15799-1.3956-0.13838-2.5183-0.85565zm1.144 0.72812c1.8944 2.7613 3.1335 3.637 5.8478 5.5441-0.58189 2.4488 2.0953 4.0518 4.1597 3.211 1.4107 0.88063 2.7914 1.6836 4.055 2.4324-6.4228-1.5754-13.598-5.4027-19.125-9.0625 1.4723-1.1375 3.3049-1.609 5.0625-2.125zm-5.4688 4.4062c-0.86766 0.02124-0.93773 1.0971-0.625 2.5312 0.78687 1.9564 1.0255 2.1503 3.0625 2.0938 2.5578-1.1809 0.72761-2.399-0.71875-3.9375-0.7559-0.49984-1.3244-0.69715-1.7188-0.6875zm0.25 0.875c0.29402 0.01105 0.65892 0.09701 1.0312 0 1.2324 1.2568 1.9494 2.0512 1 3.3125-1.252 0.10092-1.7714-0.55002-2.2812-1.5938-0.4951-1.5395-0.24003-1.7372 0.25-1.7188zm12.219 6.4062c-1.1722 0.26188-1.416 2.3429-1.0625 3.9062 0.69124 3.5133 4.645 2.2703 4.125-1.25-0.34423-0.86624-0.92179-1.6846-1.5625-2.2188-0.60634-0.4003-1.1092-0.52479-1.5-0.4375zm-6.2188 0.59375c-2.04 0.99398-1.4029 2.4431-0.34375 4.0625 2.188 0.68776 2.9879 0.09792 2.5312-1.9375-0.39043-1.1844-1.2401-1.597-2.1875-2.125zm7.25 0.09375c0.45885 0.38255 1.1534 1.7226 1.4375 2.4375 0.55386 2.4559-2.0978 2.7502-2.9375 1.0312-0.81065-2.4618 0.505-3.2087 1.5-3.4688zm-7.4688 0.34375c0.69793 0.27037 1.8188 1.3969 2.1875 2 0.33575 1.1882-0.68702 1.3371-1.8125 1.3125-0.82252-0.96994-0.68303-2.3014-0.375-3.3125zm-6.9375 4.0938c-1.205 0.03442-1.1686 1.642-1.125 3.125 0.98223 1.361 2.2622 1.334 3.625 0.65625 0.6385-1.5067-0.25082-2.6018-1.4375-3.5312-0.42311-0.18022-0.78442-0.25794-1.0625-0.25zm0.4375 0.3125c1.469 0.67323 1.7343 2.7986 1.5312 3.4375-0.75904 0.40195-2.0266-0.25921-2.625-0.53125-0.45006-1.4141 0.88863-2.71 1.0938-2.9062zm6.5625 3.3125c-0.5993 0.02496-1.158 0.53572-1.5312 1.7188-0.0323 1.0713 0.51683 1.8705 1.0938 2.7188 0.46909 0.37306 1.2232 0.24637 1.8125 0.25 1.3873-0.52442 1.2576-1.3943 0.9375-2.6875-0.69575-1.2545-1.542-2.0321-2.3125-2zm0.21875 0.53125c0.44988-0.03137 0.95918 0.37918 1.5312 1.5625 0.34988 3.703-2.4037 1.9749-2.875 0.15625 0.30901-0.89083 0.76533-1.6784 1.3438-1.7188zm7.1562 2.3125c-1.581 0.07633-1.1707 2.2115-0.4375 3.5312 1.8036 0.55936 2.7152-0.13711 2.2812-2.0312-0.2294-0.54518-0.59545-1.0631-1.0312-1.4062-0.31159-0.08191-0.58664-0.10465-0.8125-0.09375zm-0.09375 0.3125c0.25196 0.19839 1.5864 0.98617 1.75 1.375 0.67458 1.342-1.4341 1.2757-1.7188 1.625-0.52299-0.72231-0.36155-2.2238-0.03125-3z"/>
 </g>
</svg>
