<?xml version='1.0' encoding='utf-8'?>
<svg xmlns="http://www.w3.org/2000/svg" version="1.1" id="Contours" x="0px" y="0px" width="574.801697" height="549.547424" mViewBox="0.000000 0.000000 574.801697 549.547424" stroke="black" fill="none" stroke-linecap="round" stroke-linejoin="round"> <desc> </desc> <path d="M462.1 548.3 C461.6 537.2 463.7 525.9 468.3 515.7 C462.9 521.4 459.5 529.1 459.0 537.0 C458.8 539.7 459.0 542.5 457.7 544.8 C456.5 547.2 453.3 548.8 451.1 547.3 C457.7 526.2 464.3 505.1 470.9 483.9 C459.8 503.4 452.8 525.3 450.4 547.6 C446.1 547.5 441.7 547.5 437.3 547.4 C434.7 538.3 434.3 528.5 436.2 519.3 C430.2 527.1 428.8 538.2 432.7 547.2 C429.5 547.3 426.3 547.4 423.1 547.5 C422.7 545.5 422.4 543.4 422.0 541.4 C419.9 542.5 418.6 545.1 418.9 547.5 C407.9 547.5 396.8 547.4 385.7 547.4 C391.4 540.1 394.2 530.6 393.2 521.5 C389.6 530.4 385.5 539.1 380.9 547.5 C369.2 547.5 357.6 547.5 345.9 547.5 C345.8 545.5 345.7 543.4 345.6 541.4 C342.9 541.1 341.9 544.8 341.9 547.5 C331.3 547.5 320.6 547.5 310.0 547.5 C309.8 545.1 309.6 542.7 309.5 540.3 C307.7 542.2 307.1 545.1 308.0 547.5 C304.3 547.5 300.6 547.5 296.9 547.5 C298.8 543.1 296.3 537.2 291.8 535.5 C293.4 534.7 295.1 533.9 296.8 533.0 C297.3 530.6 296.2 526.7 293.9 527.8 C291.9 530.8 289.8 533.8 287.8 536.9 C291.7 538.6 294.0 543.4 292.9 547.5 C272.7 547.6 252.4 547.6 232.1 547.6 C244.4 511.6 276.4 486.8 302.0 458.7 C314.0 445.5 324.9 431.2 334.4 416.0 C341.2 405.1 347.6 392.6 345.3 379.9 C343.7 381.9 342.1 383.8 340.5 385.8 C340.9 381.3 343.2 377.2 345.0 373.1 C354.9 351.1 351.6 323.8 336.9 304.7 C355.6 309.7 369.4 326.0 377.3 343.6 C385.2 361.3 388.4 380.7 393.4 399.3 C398.4 418.0 406.0 436.9 420.4 449.8 C428.0 456.5 437.0 461.3 446.0 466.0 C465.1 475.9 484.2 485.9 503.3 495.9 C529.2 509.4 555.7 523.4 574.8 545.4 C572.7 547.5 569.3 548.3 566.4 547.3 C566.6 545.0 565.3 542.5 563.1 541.5 C562.9 543.4 562.7 545.4 562.5 547.3 C561.0 548.9 557.9 547.1 557.7 544.8 C557.5 542.5 559.2 540.6 560.9 539.0 C559.6 537.2 558.4 535.3 557.2 533.4 C555.1 537.8 555.0 543.1 557.0 547.5 C554.9 547.5 552.9 547.5 550.8 547.5 C550.7 542.6 550.6 537.6 550.5 532.6 C548.7 534.1 546.9 535.6 545.1 537.2 C546.9 540.3 547.5 544.0 546.9 547.5 C543.6 547.5 540.2 547.5 536.9 547.5 C539.5 540.3 537.3 531.6 531.5 526.5 C533.0 533.6 534.4 540.7 535.8 547.7 C533.9 548.3 532.4 546.0 531.8 544.0 C530.0 538.5 528.2 532.9 526.4 527.4 C527.0 534.5 527.5 541.6 528.1 548.6 C525.0 541.8 521.9 535.0 518.8 528.2 C517.8 534.7 519.3 541.7 523.0 547.2 C519.7 547.7 516.2 544.9 516.0 541.5 C514.4 543.0 513.6 545.4 513.9 547.5 C508.5 547.5 503.1 547.5 497.7 547.4 C503.2 533.5 507.0 518.8 508.9 503.9 C504.0 517.2 499.1 530.6 494.1 543.9 C493.4 545.8 492.1 548.1 490.1 547.7 C494.2 532.6 498.4 517.5 502.6 502.4 C494.2 515.9 489.3 531.6 488.7 547.5 C486.7 547.5 484.7 547.5 482.7 547.5 C486.9 531.2 491.1 514.9 495.4 498.6 C490.1 513.5 484.8 528.3 479.6 543.1 C478.7 545.6 476.4 548.8 474.1 547.5 C480.5 530.6 485.7 513.2 489.6 495.5 C481.1 511.8 475.1 529.4 472.1 547.5 C470.3 549.5 468.1 545.3 468.6 542.6 C470.2 534.4 471.9 526.3 473.5 518.1 C469.7 528.2 465.9 538.2 462.1 548.3 M368.6 533.0 C369.8 528.5 369.8 523.6 368.7 519.0 C365.3 525.3 363.2 532.3 362.5 539.4 C362.3 541.8 363.6 545.3 365.9 544.4 C366.4 540.4 366.0 536.3 364.7 532.5 C365.7 533.5 367.4 533.7 368.6 533.0 M413.3 520.3 C411.5 526.1 409.7 532.0 407.9 537.8 C414.2 534.9 416.8 526.2 413.3 520.3 M436.3 513.8 C437.3 514.3 438.4 514.9 439.4 515.4 C440.1 512.5 440.0 509.4 439.2 506.5 C445.7 497.3 449.6 486.3 450.4 475.1 C447.7 476.9 446.6 480.2 445.6 483.4 C444.9 485.5 444.3 487.7 443.6 489.8 C441.2 497.8 438.7 505.8 436.3 513.8 M335.0 509.0 C338.5 508.4 338.9 503.4 337.6 500.2 C336.2 496.9 334.0 493.5 335.2 490.2 C333.1 489.9 330.8 490.8 329.5 492.5 C333.7 496.5 334.6 503.6 331.6 508.6 C329.1 501.9 326.7 495.1 324.2 488.4 C323.7 487.1 322.9 485.5 321.4 485.5 C320.3 487.9 321.0 490.6 321.9 493.1 C324.5 500.7 328.1 508.1 332.6 514.8 C334.9 516.0 336.3 518.7 336.0 521.2 C338.0 521.6 339.9 518.9 338.7 517.2 C336.0 515.5 334.5 512.1 335.0 509.0 M381.5 493.1 C383.2 493.3 384.8 493.5 386.5 493.6 C386.8 494.7 387.0 495.7 387.3 496.8 C384.4 503.3 382.3 510.2 381.1 517.3 C380.7 519.2 381.5 522.0 383.3 521.4 C385.2 512.9 387.6 504.4 390.5 496.0 C393.6 499.1 392.3 504.3 390.8 508.4 C389.2 512.5 387.8 517.6 390.8 520.8 C391.7 517.1 392.7 513.5 393.6 509.9 C394.4 510.3 395.2 510.7 396.1 511.1 C394.9 507.6 395.1 503.9 394.8 500.2 C394.5 496.6 393.4 492.7 390.4 490.6 C387.4 488.5 382.2 489.5 381.5 493.1 M336.0 539.4 C336.7 536.4 340.9 534.9 343.4 536.7 C344.0 534.5 344.5 532.2 345.0 530.0 C345.9 529.4 347.2 529.8 347.6 530.7 C348.5 528.1 348.5 525.2 347.4 522.6 C343.8 525.0 341.2 528.9 340.4 533.1 C336.2 531.5 332.5 528.5 330.1 524.7 C330.5 525.4 330.3 526.5 329.6 526.9 C328.9 527.2 327.8 526.3 328.3 525.7 C328.1 527.5 328.0 529.3 327.8 531.1 C329.5 531.5 331.4 531.3 333.0 530.5 C332.2 535.1 332.2 539.9 332.8 544.6 C333.9 545.2 335.2 544.2 335.6 543.0 C336.0 541.9 335.8 540.6 336.0 539.4 M425.5 483.3 C427.0 481.3 429.0 478.0 426.8 477.0 C418.8 489.9 414.3 504.9 413.8 520.0 C418.1 512.5 420.9 504.2 422.1 495.6 C422.7 491.3 422.9 486.7 425.5 483.3 M450.7 498.0 C449.4 496.8 447.6 498.9 446.9 500.6 C442.8 512.1 440.2 524.2 439.1 536.4 C441.8 534.3 442.7 530.7 443.5 527.4 C445.9 517.6 448.3 507.8 450.7 498.0 M377.3 510.6 C376.3 515.2 372.6 520.0 375.0 524.1 C376.0 524.4 377.0 524.7 378.0 525.1 C377.2 528.2 376.3 531.2 375.2 534.2 C375.6 535.5 377.7 535.5 378.6 534.5 C379.5 533.5 379.6 532.0 379.6 530.7 C379.5 525.4 378.3 520.1 376.2 515.2 C378.8 516.0 379.7 512.0 379.8 509.3 C379.9 505.2 381.3 501.1 383.8 497.8 C381.3 500.4 376.1 499.0 375.4 495.5 C374.5 496.7 374.1 498.3 374.2 499.9 C376.9 502.6 378.1 506.8 377.3 510.6 M426.6 506.7 C429.7 497.3 432.7 487.8 435.8 478.4 C436.8 475.2 437.8 471.6 436.4 468.6 C432.9 477.9 429.5 487.2 426.1 496.5 C424.8 499.9 423.8 504.4 426.6 506.7 M422.8 456.8 C420.7 459.4 419.1 462.5 418.3 465.8 C420.8 469.1 421.4 473.7 419.9 477.5 C423.0 475.0 425.2 471.3 425.8 467.3 C426.1 465.8 426.4 464.3 426.7 462.8 C427.0 461.2 427.3 459.5 426.7 458.1 C426.0 456.6 424.0 455.8 422.8 456.8 M429.8 515.2 C433.1 514.1 434.0 508.9 431.2 506.7 C430.2 508.6 429.2 510.5 428.2 512.3 C428.1 511.8 428.9 512.5 428.8 513.0 C427.8 515.9 426.9 518.8 426.0 521.7 C423.3 526.7 423.8 532.8 424.4 538.5 C426.2 533.2 427.9 528.0 429.6 522.7 C430.5 520.3 431.2 517.4 429.8 515.2 M461.2 487.9 C460.2 488.2 459.2 488.5 458.2 488.9 C454.4 499.6 451.4 510.6 449.5 521.8 C455.6 514.7 456.8 504.7 457.7 495.4 C460.2 493.9 461.7 490.8 461.2 487.9 M326.9 484.1 C328.7 485.5 331.6 484.9 332.8 483.0 C329.7 478.5 327.6 473.3 326.6 467.9 C324.4 466.9 321.8 469.0 321.5 471.3 C321.1 473.7 322.2 475.9 323.3 478.1 C325.8 478.0 328.3 479.1 330.0 481.0 C328.9 482.0 327.9 483.1 326.9 484.1 M476.9 510.0 C474.6 510.8 474.1 514.4 476.1 515.8 C478.4 510.5 480.5 505.1 482.5 499.7 C483.7 496.7 484.6 492.9 482.4 490.6 C481.7 491.1 480.9 491.6 480.2 492.0 C479.9 497.7 478.1 503.3 475.0 508.1 C475.6 508.7 476.3 509.4 476.9 510.0 M331.4 460.6 C330.7 461.3 330.1 462.1 329.5 462.9 C331.1 469.9 333.6 476.6 337.0 482.9 C339.9 479.3 338.9 473.3 335.0 470.8 C335.4 467.1 333.6 463.6 331.4 460.6 M512.4 514.2 C510.3 520.7 508.1 527.1 505.9 533.5 C505.6 534.5 505.4 535.7 506.1 536.4 C511.5 528.4 515.1 519.2 516.4 509.7 C514.9 509.7 513.9 511.8 514.8 513.0 C514.0 513.4 513.2 513.8 512.4 514.2 M432.8 505.8 C437.1 499.0 439.5 491.1 439.7 483.0 C435.2 489.7 432.8 497.8 432.8 505.8 M318.1 508.0 C314.3 506.7 317.7 500.1 315.0 497.2 C314.1 496.2 312.6 495.9 311.3 495.6 C309.7 501.0 312.1 507.2 316.8 510.2 C317.2 509.4 317.7 508.7 318.1 508.0 M445.0 546.8 C446.4 543.7 447.3 540.4 447.6 537.1 C447.9 534.6 447.8 532.1 447.6 529.6 C445.8 532.2 443.9 534.8 443.1 537.9 C442.3 540.9 442.7 544.5 445.0 546.8 M410.1 484.2 C411.6 482.9 413.0 481.6 414.5 480.3 C415.0 479.8 415.5 479.3 415.8 478.8 C417.4 476.3 415.8 473.2 414.2 470.8 C413.2 469.8 411.9 471.7 411.7 473.1 C411.2 476.8 410.6 480.5 410.1 484.2 M363.8 520.0 C365.4 515.7 366.6 511.4 367.5 507.0 C367.8 505.6 368.0 503.9 367.0 502.9 C362.6 507.2 361.2 514.3 363.8 520.0 M354.7 513.3 C352.4 517.9 355.6 523.3 358.7 527.4 C359.4 524.8 360.5 522.2 362.0 519.9 C360.7 519.0 358.9 518.9 357.6 519.7 C357.0 517.4 356.0 515.2 354.7 513.3 M352.3 543.6 C352.9 542.4 353.4 541.1 354.0 539.9 C351.2 539.0 349.6 535.5 350.7 532.8 C351.2 531.7 349.5 530.7 348.4 531.3 C347.4 531.9 347.1 533.3 346.9 534.5 C346.8 535.7 346.7 537.0 345.9 537.8 C348.6 538.8 351.0 540.9 352.3 543.6 M326.0 515.6 C323.6 515.1 321.5 513.7 320.0 511.8 C320.2 515.2 320.5 518.7 321.1 522.1 C322.1 522.6 323.3 522.8 324.4 522.5 C325.7 520.7 326.3 518.3 325.9 516.0 M422.9 521.0 C423.2 517.8 423.0 514.5 422.3 511.4 C418.7 515.2 417.5 521.3 419.5 526.2 C420.6 524.4 421.7 522.7 422.8 520.9 M475.8 488.7 C473.2 493.7 471.1 498.9 469.5 504.3 C470.4 503.7 471.7 503.8 472.5 504.5 C473.9 499.7 475.3 495.0 476.8 490.2 C477.0 489.4 476.2 488.0 475.8 488.7 M413.4 545.5 C415.0 546.1 415.7 543.6 416.1 541.9 C416.6 539.9 417.9 538.3 418.7 536.5 C419.5 534.6 419.8 532.3 418.4 530.8 C416.6 534.4 414.8 538.1 413.0 541.7 C412.4 543.0 412.0 545.1 413.4 545.5 M403.4 480.6 C402.7 480.3 401.7 480.5 401.1 481.1 C400.0 484.0 400.7 487.5 402.9 489.7 C405.9 487.8 406.4 482.8 403.7 480.3 M355.9 542.0 C355.9 543.0 355.9 544.0 355.9 545.0 C357.1 546.0 359.2 545.5 359.8 544.1 C358.3 541.3 358.1 538.0 359.1 535.1 C358.2 534.3 356.6 534.3 355.7 535.2 C357.0 537.2 357.1 539.9 355.9 542.0 M411.6 495.6 C410.0 498.2 409.5 501.5 410.3 504.5 C411.2 504.0 412.0 503.5 412.9 503.0 C413.3 500.0 413.6 497.0 413.9 494.0 C413.0 493.2 411.4 494.3 411.8 495.5 M416.9 486.0 C417.1 485.1 416.9 484.0 416.4 483.3 C412.8 484.6 411.4 489.8 413.8 492.7 C415.8 491.1 417.0 488.6 416.9 486.0 M519.3 518.5 C519.1 520.1 518.9 521.6 518.8 523.1 C520.2 524.1 522.3 522.9 522.9 521.3 C523.5 519.7 523.1 517.8 522.7 516.1 C521.9 516.2 521.0 516.0 520.4 515.5 C520.0 516.5 519.7 517.5 519.4 518.5 M530.2 518.6 C530.4 517.6 529.6 516.7 528.7 516.7 C526.6 519.1 526.4 522.9 528.2 525.6 C530.6 524.4 531.7 521.0 530.4 518.5 M305.3 540.4 C307.8 538.9 307.3 534.5 304.6 533.5 C302.1 535.3 302.3 539.8 305.0 541.4 M300.1 516.0 C300.6 516.9 301.0 517.8 301.5 518.7 C303.3 518.2 304.1 515.9 303.6 514.1 C303.1 512.2 301.6 510.8 300.2 509.6 C299.3 511.5 299.2 513.9 300.1 516.0 M453.9 481.0 C454.0 482.8 454.0 484.6 454.1 486.4 C457.5 485.2 458.3 479.8 455.4 477.6 C454.9 478.8 454.4 479.9 453.9 481.0 M377.7 538.7 C375.9 541.0 375.4 544.2 376.6 546.9 C378.6 544.8 379.7 541.8 379.4 538.9 C378.7 538.7 378.1 538.5 377.4 538.4 M396.4 487.5 C396.8 485.7 395.3 483.6 393.4 483.5 C393.0 485.0 392.5 486.4 392.1 487.9 C393.0 488.6 394.0 489.3 395.1 489.3 C396.3 489.3 397.4 488.1 397.0 487.1 M340.8 492.1 C341.8 493.9 342.2 496.0 341.9 498.0 C342.7 498.6 343.9 498.7 344.8 498.2 C343.7 497.0 344.3 495.0 344.1 493.3 C343.9 491.6 341.1 490.4 340.9 492.1 M537.0 523.0 C536.7 525.3 537.4 527.8 539.1 529.6 C541.4 527.6 540.1 523.0 537.1 522.5 M444.9 475.0 C444.9 474.0 444.9 473.0 444.9 472.1 C444.1 471.6 443.3 471.1 442.5 470.7 C441.0 472.6 441.0 475.5 442.3 477.6 C443.2 476.7 444.1 475.9 444.9 475.0 M358.0 505.1 C358.1 503.2 355.6 501.9 354.1 503.0 C354.0 505.3 355.3 507.6 357.3 508.8 C358.0 507.7 358.2 506.3 357.9 505.1 M370.2 516.1 C372.6 514.5 372.7 510.5 370.5 508.7 C369.2 510.4 368.9 513.0 370.0 515.0 " fill="#000000" stroke="none"/> <path d="M258.9 454.0 C258.9 455.4 258.9 456.7 258.9 458.0 C258.0 458.5 257.2 459.0 256.3 459.5 C255.9 457.4 255.7 455.2 255.9 453.0 C256.9 452.4 258.5 452.9 258.8 454.1 " fill="#000000" stroke="none"/> <path d="M222.3 434.9 C224.2 436.0 225.4 438.3 225.0 440.6 C222.0 440.8 219.9 436.2 222.2 434.2 " fill="#000000" stroke="none"/> <path d="M300.5 349.5 C300.8 348.0 302.4 346.9 303.9 347.0 C303.9 348.0 303.9 349.0 303.9 350.0 C302.4 350.9 300.9 351.7 299.4 352.5 C298.4 351.7 299.1 349.6 300.4 349.5 " fill="#000000" stroke="none"/> <path d="M272.2 477.8 C271.1 476.8 270.7 475.0 271.3 473.6 C273.6 474.8 275.2 477.4 275.0 480.0 C274.1 480.5 273.2 481.0 272.3 481.5 C271.9 480.4 271.7 479.2 272.0 478.0 " fill="#000000" stroke="none"/> <path d="M265.7 421.0 C263.5 419.9 262.1 417.4 262.4 414.9 C263.3 414.4 264.5 414.3 265.5 414.5 C266.0 416.5 266.1 418.5 265.9 420.5 " fill="#000000" stroke="none"/> <path d="M283.9 423.0 C284.2 423.7 283.4 424.6 282.7 424.3 C280.5 422.2 280.8 418.1 283.2 416.3 C283.5 418.5 283.7 420.8 283.9 423.0 " fill="#000000" stroke="none"/> <path d="M213.1 474.0 C212.9 475.5 212.7 477.0 212.5 478.5 C209.9 477.9 207.4 476.4 205.7 474.2 C208.0 473.2 210.5 473.0 213.0 473.5 " fill="#000000" stroke="none"/> <path d="M274.7 408.1 C274.6 406.8 276.8 407.2 277.8 408.1 C278.6 411.1 278.1 414.3 276.4 416.9 C274.8 414.3 274.3 411.0 275.1 408.1 " fill="#000000" stroke="none"/> <path d="M281.8 225.4 C278.8 224.9 276.1 222.7 275.0 219.8 C278.2 219.1 281.8 221.7 282.1 225.1 " fill="#000000" stroke="none"/> <path d="M290.9 404.9 C293.5 406.5 292.6 411.2 289.7 411.7 C287.8 409.8 288.3 406.0 290.7 404.7 " fill="#000000" stroke="none"/> <path d="M309.5 338.6 C310.1 337.4 311.4 336.5 312.7 336.4 C312.9 339.4 311.6 342.5 309.4 344.5 C308.7 342.6 308.7 340.4 309.4 338.5 " fill="#000000" stroke="none"/> <path d="M279.6 463.8 C280.2 463.0 280.8 462.2 281.4 461.4 C283.7 463.9 283.6 468.2 281.4 470.7 C280.9 468.5 280.4 466.3 279.9 464.1 " fill="#000000" stroke="none"/> <path d="M291.4 450.5 C290.4 451.6 289.4 452.6 288.3 453.6 C287.2 451.8 286.3 449.6 286.7 447.5 C287.1 445.4 289.5 443.7 291.4 444.6 C292.2 446.5 292.2 448.7 291.4 450.5 " fill="#000000" stroke="none"/> <path d="M265.4 401.5 C266.1 400.9 266.7 400.2 267.4 399.6 C269.2 402.6 269.1 406.6 267.2 409.6 C265.9 407.1 265.4 404.3 265.7 401.6 " fill="#000000" stroke="none"/> <path d="M102.8 453.0 C103.4 453.8 101.8 454.8 101.3 454.0 C100.8 451.2 100.3 448.4 99.9 445.6 C102.2 447.2 103.6 450.1 103.3 453.0 " fill="#000000" stroke="none"/> <path d="M338.7 333.2 C337.4 331.3 338.5 328.2 340.7 327.6 C342.7 329.7 343.5 333.0 342.7 335.9 C341.4 335.0 340.2 334.0 338.9 333.1 " fill="#000000" stroke="none"/> <path d="M224.8 450.1 C225.5 452.3 225.0 454.8 223.6 456.6 C221.8 453.3 222.3 449.0 224.8 446.2 C225.5 446.7 226.2 447.3 226.4 448.2 C226.6 449.1 225.9 450.1 225.1 449.9 " fill="#000000" stroke="none"/> <path d="M248.0 427.8 C247.5 427.6 248.0 426.7 248.6 426.9 C249.1 427.0 249.3 427.6 249.4 428.1 C250.3 431.3 250.4 434.7 249.8 437.9 C248.3 434.9 247.6 431.4 248.0 428.0 " fill="#000000" stroke="none"/> <path d="M278.9 204.0 C277.3 203.1 275.6 202.2 273.9 201.3 C276.8 199.5 280.6 199.0 284.0 199.9 C282.3 201.3 280.6 202.7 279.0 204.1 " fill="#000000" stroke="none"/> <path d="M229.4 302.5 C226.5 302.5 223.6 301.8 221.0 300.3 C224.0 296.8 230.4 297.2 232.9 301.0 C232.2 302.2 230.7 302.8 229.4 302.5 " fill="#000000" stroke="none"/> <path d="M244.8 224.7 C244.8 228.1 244.0 231.4 242.3 234.3 C241.9 235.2 240.8 235.8 239.8 235.7 C238.4 231.5 240.7 226.5 244.8 224.7 " fill="#000000" stroke="none"/> <path d="M300.1 421.0 C301.4 420.7 302.8 420.4 304.2 420.1 C303.2 422.0 302.7 424.0 302.7 426.1 C302.2 427.8 299.4 427.2 298.8 425.6 C298.2 424.0 299.1 422.2 300.0 420.7 " fill="#000000" stroke="none"/> <path d="M115.1 487.9 C115.6 485.9 116.0 484.0 116.4 482.0 C117.2 481.6 118.0 481.1 118.9 480.6 C118.1 483.7 117.9 487.1 118.5 490.3 C117.1 490.7 115.7 489.3 116.0 487.9 " fill="#000000" stroke="none"/> <path d="M256.7 480.5 C254.9 479.4 252.7 479.0 250.6 479.3 C249.2 477.8 248.9 475.2 250.1 473.5 C252.2 475.6 254.6 477.5 257.2 479.1 " fill="#000000" stroke="none"/> <path d="M233.8 436.0 C233.9 440.3 233.2 444.7 231.7 448.8 C228.6 445.0 229.6 438.5 233.8 436.0 " fill="#000000" stroke="none"/> <path d="M215.3 334.5 C213.0 330.2 212.3 325.1 213.6 320.4 C216.3 324.5 216.9 329.8 215.3 334.5 " fill="#000000" stroke="none"/> <path d="M295.9 402.5 C294.4 402.4 292.9 402.3 291.4 402.2 C290.7 400.0 289.9 397.8 289.1 395.6 C292.0 397.3 294.6 399.5 296.9 402.0 " fill="#000000" stroke="none"/> <path d="M119.1 281.8 C119.7 283.9 120.8 285.9 122.4 287.5 C123.7 288.7 125.2 289.6 126.7 290.6 C124.4 292.5 120.6 292.1 118.7 289.9 C116.7 287.6 117.0 283.8 119.1 281.8 " fill="#000000" stroke="none"/> <path d="M303.4 392.6 C302.7 394.5 301.0 396.0 299.0 396.5 C297.7 392.8 298.4 388.4 300.8 385.3 C302.9 386.9 303.9 389.9 303.1 392.5 " fill="#000000" stroke="none"/> <path d="M230.0 435.2 C227.1 435.6 225.1 432.0 225.3 429.1 C225.5 426.6 226.7 424.2 228.5 422.6 C229.0 426.8 229.5 431.0 230.0 435.2 " fill="#000000" stroke="none"/> <path d="M317.0 335.7 C317.7 331.0 319.6 326.4 322.3 322.6 C324.4 327.4 321.9 333.7 317.0 335.7 " fill="#000000" stroke="none"/> <path d="M336.8 393.1 C335.8 390.8 334.9 388.4 333.9 386.1 C334.1 384.9 335.8 384.4 336.8 385.1 C337.9 385.7 338.4 386.9 338.7 388.1 C339.5 390.9 339.8 393.8 339.6 396.6 C338.7 395.5 337.8 394.3 336.9 393.1 " fill="#000000" stroke="none"/> <path d="M318.8 416.6 C321.7 417.4 322.7 421.9 320.3 423.8 C318.6 421.2 316.8 418.6 315.1 416.0 C316.2 415.2 317.3 414.3 318.3 413.4 C318.4 414.3 318.6 415.2 318.7 416.1 " fill="#000000" stroke="none"/> <path d="M176.7 373.4 C179.1 376.0 181.4 378.7 183.4 381.6 C184.1 382.5 184.4 384.3 183.2 384.3 C181.4 381.3 179.0 378.7 176.1 376.7 C176.3 375.6 176.5 374.5 176.7 373.4 " fill="#000000" stroke="none"/> <path d="M318.2 371.9 C317.1 369.8 316.7 367.4 317.0 365.1 C318.1 363.5 320.7 365.3 320.9 367.3 C321.1 369.2 320.5 371.4 321.7 372.9 C320.1 374.7 318.6 376.4 317.0 378.1 C316.1 377.4 315.7 376.1 316.0 375.1 C317.2 374.7 317.9 373.3 317.6 372.1 " fill="#000000" stroke="none"/> <path d="M248.0 415.5 C247.4 411.2 250.9 406.9 255.1 406.6 C254.3 410.0 252.9 413.2 250.8 415.9 C250.0 416.7 248.5 416.4 248.0 415.5 " fill="#000000" stroke="none"/> <path d="M214.4 488.6 C216.3 491.2 216.6 495.0 215.1 497.9 C213.5 494.4 211.8 490.9 210.2 487.4 C209.6 486.3 209.1 485.0 209.4 483.8 C209.8 482.6 211.5 481.8 212.3 482.7 C213.0 484.7 213.7 486.6 214.3 488.6 " fill="#000000" stroke="none"/> <path d="M190.4 492.5 C191.3 494.9 191.3 497.5 190.3 499.8 C187.0 495.7 184.9 490.8 184.2 485.6 C187.4 486.5 189.8 489.3 190.2 492.6 " fill="#000000" stroke="none"/> <path d="M214.1 361.1 C213.1 361.0 212.1 360.9 211.2 360.5 C210.7 360.3 210.3 360.1 209.9 359.7 C215.0 355.7 223.3 356.9 227.2 362.1 C222.8 361.8 218.5 361.4 214.1 361.1 " fill="#000000" stroke="none"/> <path d="M324.7 412.4 C325.7 407.9 327.2 403.6 329.0 399.3 C329.3 398.8 330.0 398.1 330.4 398.6 C329.8 403.6 329.2 408.5 328.6 413.5 C327.6 412.6 326.1 412.2 324.7 412.4 " fill="#000000" stroke="none"/> <path d="M232.3 416.9 C232.5 414.6 234.3 411.6 236.2 412.9 C236.8 419.0 236.2 425.3 234.2 431.3 C232.6 426.7 232.0 421.8 232.3 416.9 " fill="#000000" stroke="none"/> <path d="M107.4 475.7 C106.4 470.1 104.4 464.6 101.5 459.7 C102.1 459.4 102.7 459.0 103.4 458.6 C104.3 460.9 105.3 463.1 106.2 465.4 C107.9 468.5 108.3 472.3 107.4 475.7 " fill="#000000" stroke="none"/> <path d="M294.4 426.2 C296.1 426.8 296.6 429.4 295.2 430.6 C294.9 429.1 293.4 427.9 291.8 427.9 C292.4 426.2 291.4 424.5 290.4 423.0 C289.3 421.6 288.1 420.1 288.0 418.4 C288.0 416.6 289.8 414.7 291.4 415.6 C293.7 418.6 294.8 422.4 294.4 426.2 " fill="#000000" stroke="none"/> <path d="M208.9 453.6 C208.5 458.5 208.0 463.4 207.5 468.3 C207.4 469.5 207.3 470.7 207.3 471.9 C203.9 468.1 202.6 462.6 203.8 457.7 C204.5 455.3 206.6 452.6 208.9 453.6 " fill="#000000" stroke="none"/> <path d="M199.0 522.0 C193.4 518.4 189.0 513.1 186.5 506.9 C193.0 509.0 198.1 515.1 199.0 522.0 " fill="#000000" stroke="none"/> <path d="M240.2 467.5 C239.2 466.4 238.2 465.4 237.2 464.3 C236.8 463.9 236.4 463.4 236.3 462.9 C236.1 462.3 236.2 461.6 236.3 461.0 C237.1 457.2 238.0 453.4 238.8 449.6 C240.5 455.4 241.0 461.5 240.2 467.5 " fill="#000000" stroke="none"/> <path d="M321.6 408.0 C321.0 408.4 320.3 408.9 319.6 409.3 C315.4 405.9 316.0 399.0 319.2 394.8 C320.5 393.1 322.8 391.6 324.7 392.6 C323.2 397.6 322.2 402.8 321.6 408.0 " fill="#000000" stroke="none"/> <path d="M250.2 454.2 C249.3 458.0 248.4 461.9 247.6 465.8 C246.6 458.9 245.5 452.0 244.5 445.2 C246.3 443.6 249.3 445.0 250.2 447.2 C251.2 449.4 250.7 451.9 250.2 454.2 " fill="#000000" stroke="none"/> <path d="M296.1 406.6 C295.6 405.8 294.9 405.1 294.9 404.1 C294.9 403.5 295.2 403.0 295.7 402.7 C300.7 406.8 302.2 414.8 298.9 420.4 C295.0 417.6 298.7 410.8 296.1 406.6 " fill="#000000" stroke="none"/> <path d="M213.3 455.7 C210.9 453.2 210.1 449.4 211.1 446.1 C214.2 446.2 215.7 442.6 216.4 439.6 C215.6 440.3 217.4 441.1 218.4 440.5 C219.3 439.9 220.8 439.3 221.2 440.3 C218.9 444.7 217.0 449.2 215.5 453.9 C214.7 454.5 214.0 455.1 213.3 455.7 " fill="#000000" stroke="none"/> <path d="M289.5 434.6 C289.8 432.5 290.2 430.4 290.5 428.4 C293.3 432.7 296.0 437.0 298.8 441.3 C298.3 443.4 295.4 443.6 293.3 443.4 C292.9 439.8 290.3 436.5 286.8 435.3 C287.5 434.6 288.6 434.3 289.5 434.6 " fill="#000000" stroke="none"/> <path d="M325.9 359.0 C325.9 362.1 328.0 365.0 330.9 366.0 C330.7 367.5 328.7 368.4 327.2 367.8 C325.7 367.2 324.8 365.8 324.2 364.3 C322.4 359.4 324.2 353.5 328.4 350.4 C329.7 353.3 328.5 357.1 325.7 358.7 " fill="#000000" stroke="none"/> <path d="M259.5 480.3 C261.6 479.0 262.9 476.5 263.0 474.0 C264.3 473.2 266.1 473.3 267.3 474.3 C264.2 477.9 262.4 482.6 262.4 487.4 C261.1 486.6 259.4 486.6 258.1 487.5 C257.1 484.9 256.7 482.1 257.0 479.4 C257.8 479.7 258.6 480.0 259.5 480.3 " fill="#000000" stroke="none"/> <path d="M309.1 421.7 C308.7 421.5 308.5 421.1 308.3 420.7 C306.6 417.5 304.9 414.1 304.8 410.5 C304.8 406.9 306.8 403.0 310.3 402.2 C312.5 405.2 307.2 408.8 307.8 412.5 C308.1 414.6 310.3 415.9 311.4 417.8 C312.6 419.6 310.8 423.1 309.1 421.7 " fill="#000000" stroke="none"/> <path d="M231.4 480.7 C230.8 479.3 230.0 478.0 228.9 476.9 C231.0 476.5 232.4 474.5 232.7 472.4 C233.0 470.3 232.4 468.2 231.9 466.1 C233.3 465.5 234.6 464.6 235.7 463.5 C238.1 467.2 236.8 472.0 235.5 476.2 C234.8 478.2 233.6 480.8 231.4 480.7 " fill="#000000" stroke="none"/> <path d="M257.4 472.5 C256.3 472.4 255.2 472.3 254.1 472.1 C258.7 468.4 262.5 463.8 265.5 458.6 C266.5 459.8 267.4 461.0 267.6 462.5 C267.8 464.0 267.0 465.7 265.5 465.9 C263.2 466.1 261.9 469.1 263.3 470.9 C262.0 471.7 260.0 471.0 259.6 469.5 C258.6 470.2 257.8 471.3 257.4 472.5 " fill="#000000" stroke="none"/> <path d="M259.5 430.6 C264.6 432.5 266.9 439.5 264.0 444.0 C265.5 445.5 266.7 447.7 265.9 449.6 C265.2 451.6 261.8 452.1 261.2 450.1 C261.0 449.4 261.1 448.7 261.2 448.1 C262.0 443.8 262.8 439.0 260.3 435.4 C259.3 433.8 257.9 431.4 259.5 430.6 " fill="#000000" stroke="none"/> <path d="M225.8 464.5 C226.6 469.7 225.7 475.1 223.4 479.7 C223.1 480.5 221.8 480.4 221.3 479.8 C220.8 479.1 220.8 478.2 220.9 477.3 C221.1 473.8 221.8 470.3 222.9 467.0 C219.7 465.2 218.1 461.1 219.0 457.6 C221.6 458.8 223.3 461.5 223.6 464.3 C224.3 464.4 225.0 464.5 225.8 464.5 " fill="#000000" stroke="none"/> <path d="M266.4 225.1 C267.5 228.7 263.6 232.6 259.8 232.4 C255.4 232.1 251.8 227.3 252.9 223.0 C260.7 218.6 271.6 221.1 276.8 228.4 C273.2 228.0 269.6 226.9 266.4 225.1 " fill="#000000" stroke="none"/> <path d="M229.0 215.3 C236.4 212.1 244.2 210.1 252.2 209.3 C252.0 210.9 253.4 212.3 254.9 212.7 C256.5 213.1 258.1 212.8 259.6 212.5 C260.9 213.9 258.5 215.5 256.8 215.8 C247.6 217.2 238.1 217.0 229.0 215.3 " fill="#000000" stroke="none"/> <path d="M330.9 360.0 C332.5 357.9 334.1 355.8 335.7 353.8 C333.7 353.9 333.6 350.7 334.7 349.1 C332.1 346.3 333.1 340.9 336.6 339.2 C337.9 345.0 339.1 350.9 340.4 356.7 C337.4 357.9 334.7 360.1 332.9 362.8 C332.2 361.9 331.6 360.9 330.9 360.0 " fill="#000000" stroke="none"/> <path d="M276.0 433.9 C274.8 434.9 273.2 435.6 271.5 435.6 C271.6 432.3 271.8 429.0 271.9 425.7 C270.1 426.7 268.2 427.7 266.4 428.8 C265.8 426.1 265.7 423.3 266.0 420.5 C267.2 421.3 268.7 421.7 270.1 421.7 C272.9 425.3 276.8 428.0 281.2 429.2 C279.3 429.4 277.3 429.5 275.4 429.6 C274.8 431.0 275.1 432.7 276.0 433.9 " fill="#000000" stroke="none"/> <path d="M275.6 437.8 C278.1 442.0 280.6 447.3 278.2 451.5 C277.2 453.2 275.6 454.5 275.1 456.4 C274.2 459.6 276.4 464.3 273.4 465.5 C273.2 463.1 271.4 461.1 270.1 459.1 C268.9 457.0 268.4 453.9 270.3 452.5 C274.8 449.2 277.0 443.2 275.6 437.8 " fill="#000000" stroke="none"/> <path d="M197.4 456.6 C199.2 458.7 199.1 461.8 198.9 464.6 C198.4 470.6 197.9 476.5 197.5 482.4 C197.3 484.9 196.6 488.0 194.1 488.5 C193.0 481.1 192.0 473.8 190.9 466.4 C190.7 464.7 190.5 463.0 191.1 461.4 C191.7 459.8 193.4 458.5 195.0 459.0 C194.2 458.8 194.2 457.5 194.9 457.0 C195.6 456.5 196.5 456.5 197.4 456.6 " fill="#000000" stroke="none"/> <path d="M174.2 466.8 C173.4 463.5 172.6 460.3 171.9 457.1 C173.1 455.6 175.5 457.0 176.3 458.7 C177.2 460.4 177.6 462.6 179.4 463.4 C180.5 461.5 181.1 459.2 181.0 456.9 C176.9 455.7 173.2 453.0 170.8 449.4 C175.5 450.1 180.7 451.3 182.9 455.3 C183.9 457.1 184.1 459.2 184.2 461.2 C184.5 465.1 184.4 469.1 184.0 473.1 C182.8 473.9 181.6 474.8 180.4 475.6 C179.9 474.5 179.7 473.3 179.9 472.1 C177.5 471.4 175.1 470.3 173.0 469.0 C173.9 469.5 174.4 467.8 174.2 466.8 " fill="#000000" stroke="none"/> <path d="M242.4 502.5 C241.5 502.1 240.9 501.1 241.0 500.1 C243.2 498.1 245.6 495.9 246.1 493.0 C246.6 490.1 244.1 486.5 241.2 487.3 C240.9 490.5 239.2 493.5 236.6 495.4 C235.2 495.5 234.3 493.7 234.7 492.3 C235.1 490.9 236.2 489.9 237.2 488.8 C241.0 484.7 242.3 478.5 240.6 473.2 C241.6 472.6 242.6 472.1 243.6 471.6 C245.1 477.3 246.3 483.1 247.1 489.0 C249.0 488.6 250.9 490.6 251.1 492.6 C251.3 494.6 250.4 496.5 249.4 498.3 C248.4 498.1 247.4 497.9 246.4 497.7 C245.6 499.6 244.2 501.3 242.4 502.5 " fill="#000000" stroke="none"/> <path d="M222.0 529.5 C219.1 526.9 214.5 526.3 211.1 528.2 C209.9 528.9 208.8 529.9 208.5 531.2 C208.2 532.6 209.0 534.2 210.4 534.3 C211.3 532.8 213.1 532.0 214.8 532.3 C215.0 531.0 215.1 529.6 215.3 528.3 C218.0 530.7 215.8 535.0 213.5 537.8 C210.7 541.3 207.3 545.0 202.9 545.2 C199.6 545.4 196.3 543.5 195.0 540.5 C193.6 537.5 194.3 533.8 196.6 531.4 C197.8 532.9 199.7 533.6 201.6 533.4 C201.4 530.3 202.0 527.2 203.1 524.3 C205.7 526.3 209.9 525.5 211.5 522.7 C215.3 524.5 219.9 524.5 223.6 522.6 C223.5 525.0 222.9 527.3 222.0 529.5 " fill="#000000" stroke="none"/> <path d="M246.1 503.4 C247.2 502.4 248.3 501.4 249.3 500.4 C251.2 504.4 248.2 508.9 244.9 511.8 C241.7 514.7 237.7 517.4 236.6 521.7 C236.1 523.7 236.4 525.9 235.9 528.0 C235.4 530.0 233.7 532.1 231.6 531.8 C227.2 531.1 223.9 535.6 221.9 539.5 C219.9 543.5 217.0 548.1 212.6 547.8 C214.7 542.4 217.8 537.4 221.7 533.2 C220.2 532.0 222.2 529.8 224.0 528.9 C225.7 528.0 227.4 525.3 225.6 524.6 C230.5 521.7 236.0 517.6 235.6 511.9 C235.3 505.8 228.0 500.7 230.0 494.9 C231.7 494.8 233.3 494.6 235.0 494.5 C232.5 495.8 233.6 499.6 235.3 501.9 C237.0 504.1 239.1 506.9 237.7 509.4 C241.6 509.9 245.2 505.2 243.7 501.6 C244.5 502.2 245.3 502.8 246.1 503.4 " fill="#000000" stroke="none"/> <path d="M182.4 342.3 C180.0 349.3 193.7 354.5 190.8 361.3 C188.0 361.7 185.2 362.1 182.4 362.5 C182.0 361.8 181.8 361.0 181.9 360.1 C179.3 360.6 177.9 357.2 177.5 354.6 C177.0 350.7 176.4 346.5 177.8 342.8 C179.2 339.1 183.2 336.0 187.0 337.1 C193.7 339.0 200.8 339.3 207.6 337.9 C211.5 341.3 217.6 340.4 222.7 339.3 C229.8 337.7 236.9 336.2 243.9 334.6 C246.5 334.0 249.2 333.5 251.8 334.0 C254.4 334.6 256.9 336.6 257.2 339.2 C251.1 336.4 244.0 337.7 237.5 339.0 C232.4 340.0 227.3 341.0 222.2 342.0 C209.1 344.7 195.5 344.8 182.4 342.3 " fill="#000000" stroke="none"/> <path d="M139.8 514.9 C137.1 506.4 134.3 497.9 131.5 489.4 C129.5 492.3 127.5 495.2 125.5 498.1 C127.8 488.0 122.7 477.9 118.8 468.3 C112.2 451.7 109.1 433.4 112.4 415.8 C110.1 413.9 107.2 417.6 107.0 420.6 C106.8 423.5 106.8 427.4 104.0 428.3 C97.8 430.2 96.1 438.1 96.3 444.6 C96.8 455.1 99.4 465.4 104.0 474.8 C109.1 485.4 117.0 495.8 115.4 507.4 C116.6 506.2 117.9 504.9 119.1 503.7 C131.2 516.1 140.5 531.1 146.1 547.5 C114.7 547.5 83.3 547.5 51.9 547.5 C51.1 544.3 52.6 540.7 55.4 539.0 C59.6 529.6 63.1 519.9 65.8 510.0 C63.5 509.6 61.7 507.1 62.0 504.8 C62.1 507.5 66.5 505.7 67.9 503.4 C74.6 492.0 80.3 480.0 84.7 467.5 C74.8 478.3 65.0 489.1 55.2 499.9 C63.8 514.0 44.7 531.9 50.0 547.5 C33.3 547.5 16.7 547.5 0.0 547.6 C3.3 537.1 10.1 527.8 18.9 521.4 C18.3 514.6 26.8 509.0 32.8 512.2 C35.6 513.6 37.5 516.3 40.1 518.0 C42.7 519.7 46.8 520.0 48.3 517.2 C47.8 520.0 48.9 523.1 51.2 524.9 C52.0 521.9 52.8 519.0 53.6 516.0 C42.0 500.2 30.5 484.4 19.0 468.7 C17.1 466.0 15.1 463.3 14.7 460.0 C13.7 453.8 18.7 448.3 23.3 444.0 C46.3 422.3 71.3 402.7 97.9 385.4 C90.2 403.6 82.4 422.5 83.6 442.2 C84.0 449.0 85.5 455.7 87.0 462.3 C89.7 474.2 92.4 486.1 95.1 498.0 C95.5 500.8 99.9 501.7 101.4 499.4 C108.6 516.3 120.6 531.1 135.8 541.4 C136.0 538.9 136.2 536.5 136.4 534.0 C135.6 536.9 131.2 535.0 129.3 532.7 C117.0 517.8 104.7 502.5 97.6 484.5 C88.7 461.7 88.9 436.0 94.7 412.2 C100.4 388.3 111.5 366.1 123.9 344.9 C127.7 338.4 132.5 331.3 140.0 330.0 C147.9 346.0 156.0 362.3 167.4 376.0 C178.9 389.8 194.2 401.1 211.9 404.1 C224.1 406.1 236.9 404.1 247.8 398.4 C277.8 382.7 287.6 345.2 308.2 318.5 C311.3 323.3 308.2 329.5 305.2 334.4 C292.3 355.2 279.5 376.0 266.6 396.8 C264.5 394.9 260.9 395.2 259.2 397.4 C257.5 399.6 258.1 403.2 260.3 404.7 C258.7 405.3 257.0 406.0 255.3 406.6 C254.8 404.5 254.3 402.5 253.8 400.4 C249.0 403.3 245.0 407.3 242.0 412.1 C242.3 407.7 235.6 406.9 231.6 408.8 C221.3 413.6 214.6 425.1 215.3 436.4 C214.5 434.9 213.6 433.4 212.8 431.9 C211.2 429.2 207.2 432.4 205.5 435.1 C203.9 437.9 198.6 439.6 198.5 436.4 C198.2 442.7 198.7 449.1 200.1 455.2 C197.6 448.0 188.9 443.7 181.7 446.0 C177.0 447.5 173.1 441.9 172.5 437.1 C171.9 432.3 172.5 426.8 169.3 423.1 C167.5 423.1 165.7 423.0 163.9 423.0 C163.3 425.6 162.6 428.3 161.9 431.0 C164.3 430.6 165.6 433.7 165.9 436.0 C164.0 436.9 161.4 436.2 160.2 434.4 C159.2 437.5 158.2 440.6 157.3 443.7 C162.6 454.0 167.9 464.2 173.2 474.5 C172.5 475.6 170.5 475.4 170.0 474.2 C167.5 482.2 167.8 491.1 171.0 498.9 C172.2 491.3 173.5 483.8 174.7 476.2 C180.1 478.0 180.2 485.6 178.3 491.0 C176.4 496.3 173.6 502.4 176.6 507.3 C183.7 519.3 187.0 533.5 185.9 547.5 C180.3 547.5 174.6 547.6 169.0 547.6 C172.5 544.0 168.8 538.1 165.2 534.6 C160.7 530.1 156.3 525.7 151.8 521.3 C149.2 518.7 147.1 513.4 150.6 512.2 C157.5 519.3 164.4 526.5 171.4 533.6 C168.2 528.5 165.0 523.4 161.8 518.3 C159.6 514.8 156.9 510.9 152.8 510.1 C148.7 509.4 144.1 514.4 146.7 517.6 C151.0 522.7 150.4 531.1 145.4 535.6 C145.5 530.8 144.8 526.1 143.4 521.5 C142.5 524.1 141.6 526.7 140.7 529.3 C137.2 525.5 136.8 519.1 139.8 514.9 M159.0 472.0 C161.6 472.8 161.1 476.5 160.8 479.2 C160.3 482.8 160.9 486.5 162.6 489.6 C166.9 478.3 165.0 464.8 157.6 455.2 C154.5 458.3 157.2 464.8 161.6 464.9 C162.5 467.4 161.3 470.6 159.0 472.0 M161.9 503.7 C160.9 502.5 158.9 501.5 158.1 502.8 C160.3 509.6 164.3 515.8 169.6 520.6 C170.8 514.3 166.2 508.5 161.9 503.7 M181.8 532.5 C182.2 531.8 182.6 531.0 182.7 530.2 C183.0 526.9 178.7 525.5 176.1 523.4 C176.7 529.0 177.2 534.5 177.7 540.1 C179.1 537.5 180.4 535.0 181.8 532.5 M161.4 493.5 C159.8 496.9 162.7 501.5 166.4 501.6 C165.5 499.1 164.6 496.5 163.6 494.0 C162.9 493.8 162.2 493.6 161.5 493.3 M126.2 521.1 C126.0 523.4 127.3 525.7 129.4 526.8 C130.8 524.2 128.9 520.6 126.1 520.2 " fill="#000000" stroke="none"/> <path d="M342.0 62.5 C347.8 65.1 346.9 73.3 346.9 79.6 C346.8 101.0 366.8 118.3 367.9 139.8 C368.6 153.0 361.9 166.1 364.0 179.2 C367.2 170.6 369.3 161.6 370.1 152.4 C370.5 160.2 374.0 167.7 379.6 173.1 C383.7 176.9 383.3 183.4 382.2 188.9 C379.8 201.5 375.5 213.7 369.3 224.9 C366.9 229.2 367.8 234.5 367.4 239.5 C367.0 244.4 363.7 250.1 358.8 249.6 C363.7 246.3 366.1 239.7 364.3 234.1 C357.5 231.6 352.6 240.6 351.0 247.6 C348.8 257.1 346.6 266.6 344.4 276.1 C342.2 285.5 328.5 289.6 321.5 283.0 C319.4 284.4 320.3 287.9 322.4 289.4 C324.5 290.9 327.2 291.3 329.4 292.5 C334.2 295.3 335.9 301.7 334.8 307.1 C333.6 312.6 330.3 317.2 327.0 321.7 C327.8 314.4 325.0 306.9 319.8 301.8 C319.7 311.5 317.1 321.2 312.4 329.6 C312.0 313.0 313.4 296.3 316.4 279.9 C316.8 277.6 317.5 274.9 319.6 273.7 C329.4 268.0 337.2 259.0 341.5 248.5 C342.7 250.1 343.5 252.1 343.9 254.1 C347.6 251.9 346.1 245.0 341.8 244.5 C342.7 241.2 343.6 237.9 344.5 234.6 C335.5 238.1 327.4 244.0 321.3 251.6 C324.3 246.1 324.9 239.5 323.1 233.6 C320.4 238.5 317.6 243.4 314.9 248.3 C316.9 239.4 318.6 229.0 313.0 221.7 C306.9 213.6 302.0 204.5 298.7 194.8 C293.7 179.9 292.5 164.1 288.5 148.9 C284.6 133.7 277.3 118.4 263.8 110.3 C266.0 117.3 270.4 123.3 274.2 129.5 C277.9 135.8 281.0 142.9 280.1 150.1 C279.1 157.4 272.7 164.3 265.5 163.3 C258.2 162.4 254.0 170.9 249.3 176.5 C240.3 187.4 224.5 189.2 210.3 190.2 C215.3 188.3 217.1 180.9 213.5 177.0 C210.1 188.3 201.2 197.8 190.2 202.0 C179.2 206.2 166.2 204.9 156.2 198.6 C154.7 200.9 153.2 203.3 151.7 205.6 C149.3 204.2 146.2 204.0 143.7 205.2 C147.2 209.6 152.4 212.7 158.0 213.7 C155.8 215.0 154.1 217.2 153.4 219.7 C144.6 219.4 135.8 219.0 126.9 218.7 C125.4 218.6 123.8 218.6 122.5 219.4 C119.9 220.9 119.9 224.6 119.5 227.6 C119.1 230.6 116.5 234.1 113.7 232.8 C110.8 248.9 116.3 266.3 128.0 277.6 C123.9 265.1 121.8 251.9 121.9 238.7 C121.9 234.0 123.9 227.7 128.6 228.2 C127.1 232.0 132.3 236.4 135.8 234.3 C135.7 226.2 146.2 222.7 154.2 223.4 C165.2 224.3 175.9 228.6 184.5 235.4 C183.1 233.7 183.0 231.1 184.1 229.3 C195.9 232.2 198.1 247.8 197.9 259.9 C197.8 269.4 197.6 278.9 197.4 288.4 C197.4 292.9 197.3 297.5 199.1 301.6 C200.8 305.7 204.8 309.2 209.2 308.9 C208.3 312.0 203.5 312.7 201.7 310.0 C202.1 316.5 201.6 323.1 200.2 329.5 C198.7 326.3 197.1 323.1 195.6 319.9 C195.2 325.1 194.8 330.3 194.5 335.5 C191.7 333.6 187.9 333.4 185.0 335.1 C185.3 331.7 185.6 328.4 185.9 325.0 C186.1 327.0 189.5 327.0 190.4 325.1 C191.3 323.3 190.4 321.1 189.2 319.4 C185.7 314.5 179.7 311.3 173.6 311.3 C170.4 311.2 167.8 308.1 167.3 304.8 C166.8 301.6 167.9 298.3 168.9 295.2 C171.3 287.9 173.8 280.6 176.2 273.2 C178.6 266.0 181.0 258.5 180.5 250.9 C180.0 243.3 176.0 235.4 168.8 232.7 C167.1 234.8 164.7 237.2 162.0 236.4 C159.9 235.8 158.9 233.4 157.1 232.1 C155.4 230.7 151.7 232.1 152.8 234.0 C152.6 231.5 150.8 229.2 148.5 228.2 C147.5 231.2 148.8 234.8 151.5 236.5 C147.6 236.9 143.6 234.9 141.6 231.6 C139.8 234.5 142.2 238.0 143.4 241.1 C144.7 244.2 143.1 249.3 139.9 248.3 C141.7 250.7 141.2 254.5 138.9 256.4 C132.9 251.9 130.1 243.7 132.0 236.5 C127.8 246.2 128.8 257.6 132.4 267.6 C136.1 277.5 142.2 286.4 148.3 295.1 C144.4 295.2 140.4 293.9 137.4 291.5 C137.9 295.3 138.5 299.1 139.1 302.9 C138.2 301.1 141.7 300.0 142.9 301.6 C144.0 303.2 143.5 305.4 143.1 307.3 C142.7 309.3 142.8 311.8 144.6 312.7 C149.3 315.0 150.9 321.9 147.8 326.1 C149.6 325.0 152.0 324.9 153.9 325.7 C152.3 329.0 154.1 333.5 157.5 334.7 C156.2 329.0 155.2 323.3 154.3 317.6 C156.9 317.7 159.5 317.8 162.1 317.9 C160.2 332.7 162.9 348.0 169.8 361.2 C168.7 360.7 167.6 360.3 166.6 359.8 C150.8 344.3 139.5 324.2 134.3 302.7 C132.7 296.1 131.7 289.4 128.5 283.4 C126.7 279.9 123.8 276.5 119.9 275.9 C116.0 275.3 111.5 278.9 112.6 282.7 C110.4 279.7 110.2 275.4 112.0 272.2 C110.4 268.7 105.6 268.8 101.9 268.5 C98.1 268.1 93.5 264.8 95.4 261.5 C98.4 264.4 102.6 265.9 106.7 265.7 C109.3 257.6 101.9 250.2 95.2 245.0 C95.4 251.0 98.9 256.9 104.2 259.9 C89.1 256.9 75.2 248.8 65.1 237.3 C67.0 239.0 70.3 236.7 70.3 234.2 C70.3 231.6 68.4 229.5 66.6 227.7 C65.3 230.6 64.6 233.7 64.6 236.9 C63.1 227.5 61.7 218.1 60.2 208.7 C59.8 206.0 59.4 203.2 57.9 200.9 C56.2 198.4 53.4 196.8 51.3 194.6 C49.3 192.3 48.2 188.5 50.3 186.3 C46.0 185.4 42.0 183.2 38.8 180.0 C42.9 180.4 47.0 180.7 51.0 181.1 C45.5 179.2 41.0 174.4 39.7 168.7 C42.6 171.0 45.5 173.3 48.4 175.6 C50.7 167.8 47.0 158.6 39.9 154.5 C43.0 153.3 46.1 152.2 49.2 151.0 C49.2 146.2 50.0 141.3 51.7 136.8 C48.9 136.4 46.4 134.1 45.8 131.3 C50.9 134.3 58.1 133.2 62.2 128.8 C66.3 124.5 66.8 117.3 63.5 112.3 C62.3 115.4 61.0 118.5 59.7 121.5 C58.1 100.5 67.5 78.9 84.0 65.8 C94.1 57.7 98.5 44.3 107.7 35.2 C115.2 27.7 125.3 23.6 135.2 19.6 C156.0 11.3 179.7 2.9 200.3 12.1 C200.0 8.6 201.1 5.0 203.2 2.3 C206.1 8.0 211.5 14.8 217.5 12.5 C215.9 8.3 214.4 4.2 212.8 0.0 C218.2 2.0 222.2 7.3 222.6 13.0 C263.0 5.3 307.3 30.0 321.8 68.5 C322.2 59.3 322.5 50.1 322.8 40.9 C325.5 45.3 325.3 50.7 325.8 55.8 C326.2 60.9 327.7 66.6 332.2 69.0 C336.7 71.5 343.9 67.3 342.0 62.5 M269.2 132.9 C268.8 134.9 266.8 136.5 264.7 136.4 C267.0 132.7 266.8 127.7 264.4 124.1 C258.9 115.9 254.8 106.7 252.3 97.2 C251.2 101.6 250.1 106.0 249.0 110.5 C248.5 112.4 248.1 114.9 249.7 116.2 C261.8 126.2 266.5 144.3 260.8 159.0 C267.0 157.4 273.1 154.0 275.6 148.2 C278.2 142.4 275.4 134.2 269.2 132.9 M230.0 186.2 C233.2 183.2 236.4 180.2 239.6 177.2 C242.1 174.8 244.8 172.2 246.0 168.9 C247.3 165.6 246.6 161.3 243.6 159.4 C243.2 159.1 242.7 158.9 242.2 159.0 C241.7 159.1 241.3 159.5 240.9 159.8 C238.1 162.8 235.2 165.8 232.4 168.7 C231.7 169.4 231.3 170.4 231.0 171.3 C229.5 176.1 229.1 181.3 230.0 186.2 M86.8 240.6 C80.7 240.7 76.9 234.0 74.5 228.3 C73.4 238.1 80.0 248.1 89.4 250.9 C89.9 249.5 89.7 247.7 88.7 246.5 C92.2 245.6 95.4 243.4 97.4 240.4 C94.7 238.1 90.5 240.5 86.8 240.6 M340.6 272.5 C334.8 271.7 329.4 274.7 324.4 277.7 C326.4 281.1 330.8 282.8 334.6 281.6 C338.3 280.4 340.9 276.4 340.6 272.5 M217.6 169.3 C217.2 170.3 216.6 171.4 215.7 172.0 C214.5 172.8 212.7 172.7 211.6 171.7 C210.6 174.5 214.1 177.3 217.0 176.7 C219.9 176.1 221.9 173.4 223.0 170.6 C224.0 167.8 224.4 164.7 225.7 162.0 C224.1 160.6 221.3 161.5 220.1 163.3 C218.8 165.0 218.4 167.3 217.6 169.3 M115.7 216.7 C118.6 213.1 120.1 208.4 119.7 203.8 C119.4 199.7 117.3 195.4 113.4 194.2 C113.9 201.7 114.7 209.2 115.7 216.7 M166.8 189.2 C165.6 191.0 165.5 193.4 166.5 195.3 C168.6 195.7 170.3 197.1 172.1 198.2 C176.9 201.1 183.0 201.8 188.4 200.2 C189.4 198.1 185.9 197.2 183.7 197.4 C177.2 197.8 170.5 194.6 166.8 189.2 M377.4 194.2 C378.7 189.6 379.0 184.6 378.1 179.9 C377.7 177.6 375.9 174.7 373.8 175.6 C372.2 181.9 373.6 188.9 377.4 194.2 M61.4 148.5 C62.4 148.5 63.4 148.5 64.4 148.4 C66.1 147.3 63.9 144.5 61.8 144.5 C59.8 144.6 57.6 145.8 55.7 145.1 C55.0 147.1 54.3 149.3 54.5 151.4 C54.7 153.6 56.0 155.8 58.1 156.4 C60.2 156.9 62.7 155.0 62.2 152.9 C60.3 152.5 58.3 152.4 56.3 152.6 C55.1 150.1 59.0 147.2 61.1 148.9 M144.5 192.5 C145.3 194.2 146.2 195.8 147.1 197.5 C148.8 197.5 149.6 194.9 148.6 193.5 C147.6 192.0 145.7 191.4 144.0 191.0 C139.5 189.8 134.8 188.6 130.3 190.0 C133.7 191.7 137.1 193.5 140.5 195.2 C142.0 194.6 143.4 193.7 144.5 192.5 M70.6 217.4 C68.2 215.0 67.5 211.5 66.8 208.3 C66.4 206.3 66.0 204.4 65.6 202.5 C63.1 205.3 63.5 209.7 64.9 213.2 C66.2 216.7 68.3 220.0 68.9 223.8 C70.9 222.4 71.6 219.5 70.6 217.4 M66.1 106.8 C69.0 101.5 71.3 95.9 73.1 90.1 C73.6 88.5 73.2 85.8 71.5 86.2 C68.6 92.7 66.7 99.7 66.1 106.8 M327.8 73.6 C323.9 72.6 320.0 71.6 316.1 70.6 C318.9 76.2 326.7 78.6 332.1 75.5 C330.9 74.4 329.3 74.0 327.8 73.6 M341.0 228.0 C341.7 229.2 343.3 229.8 344.6 229.5 C345.0 226.4 345.1 223.2 344.9 220.0 C343.5 219.4 341.9 219.3 340.4 219.5 C339.6 222.3 339.6 225.4 340.6 228.2 M325.1 79.7 C325.7 85.9 329.2 91.8 334.3 95.3 C333.3 89.2 329.9 83.6 325.1 79.7 M130.3 182.2 C130.9 182.6 131.6 183.1 132.4 183.0 C133.0 183.0 133.7 182.6 133.9 182.0 C130.2 179.4 127.3 175.5 125.9 171.1 C124.2 172.7 124.2 175.5 125.4 177.5 C126.5 179.5 128.4 180.9 130.3 182.2 M301.6 57.3 C303.4 58.7 306.2 58.6 307.9 57.2 C306.2 54.1 301.8 53.1 298.9 55.1 C298.9 56.4 300.2 57.5 301.4 57.4 M354.9 217.0 C353.6 217.7 352.3 218.4 351.0 219.0 C350.3 220.2 351.3 221.8 352.6 222.3 C353.9 222.7 355.4 222.3 356.7 221.9 C358.8 221.3 360.9 220.7 363.1 220.1 C360.6 219.2 357.8 219.5 355.5 220.8 C354.9 219.7 354.7 218.3 355.0 217.0 M332.0 305.0 C331.5 303.1 331.1 301.3 330.6 299.4 C328.2 300.9 326.5 303.4 326.0 306.1 C328.1 306.8 330.4 306.5 332.3 305.4 M253.5 153.7 C252.3 154.0 251.3 154.9 250.9 156.0 C251.8 157.2 253.1 158.1 254.5 158.6 C256.1 156.3 257.2 153.7 257.8 150.9 C256.4 151.8 254.9 152.8 253.5 153.7 M363.1 199.5 C363.0 201.4 362.9 203.3 362.9 205.1 C363.6 205.2 364.4 205.4 365.2 205.5 C366.1 204.1 367.0 202.5 366.7 200.8 C366.4 199.2 364.1 198.1 363.0 199.3 M115.5 266.5 C114.2 263.7 112.0 261.3 109.3 259.6 C108.8 263.3 111.8 267.0 115.5 267.3 M330.4 220.5 C331.6 219.7 332.8 218.9 334.0 218.1 C332.8 216.9 331.6 215.7 330.4 214.5 C328.6 215.9 328.7 219.0 330.6 220.3 M54.0 172.0 C54.2 173.8 55.1 175.4 56.4 176.5 C56.9 175.0 57.4 173.4 56.9 171.8 C56.5 170.3 54.9 169.0 53.4 169.6 C53.5 170.4 53.7 171.2 53.8 172.1 " fill="#000000" stroke="none"/> </svg>