<?xml version='1.0' encoding='utf-8'?>
<svg xmlns="http://www.w3.org/2000/svg" version="1.1" id="Layer_1" x="0px" y="0px" width="379.481px" height="376.481px" viewBox="0 0 379.481 376.481" enable-background="new 0 0 379.481 376.481"> <circle fill="#9F1D20" stroke="#231F20" stroke-miterlimit="10" cx="186.965" cy="189" r="161.543"/> <path fill="#231F20" stroke="#231F20" stroke-miterlimit="10" d="M181.987,155.545c-13.245,28.881-46.451,43.656-77.215,33.249 c-30.763-10.408-48.179-42.31-41.168-73.3L181.987,155.545z"/> <path fill="#231F20" stroke="#231F20" stroke-miterlimit="10" d="M302.283,114.264c8.301,30.67-7.766,63.273-38.068,74.958 c-30.3,11.686-64.096-1.688-78.538-29.99L302.283,114.264z"/> <path fill="#D0D2D3" stroke="#231F20" stroke-miterlimit="10" d="M268.978,134.704c4.569,17.351-4.05,35.413-20.43,41.511 c-16.38,6.099-34.713-1.932-42.603-18.046L268.978,134.704z"/> <path fill="#D0D2D3" d="M161.695,153.89c-6.441,16.749-23.997,26.359-40.85,21.726c-16.853-4.633-27.027-21.869-24.003-39.555 L161.695,153.89z"/> <line fill="none" stroke="#231F20" stroke-miterlimit="10" x1="110.503" y1="46.669" x2="169.138" y2="149.512"/> <line fill="none" stroke="#231F20" stroke-miterlimit="10" x1="191.961" y1="27.541" x2="181.702" y2="149.512"/> <line fill="none" stroke="#231F20" stroke-miterlimit="10" x1="260.08" y1="46.669" x2="214.609" y2="149.512"/> <line fill="none" stroke="#231F20" stroke-miterlimit="10" x1="175.316" y1="156.479" x2="193.352" y2="156.479"/> <line fill="none" stroke="#231F20" stroke-miterlimit="10" x1="93.94" y1="321.079" x2="160.573" y2="174.562"/> <line fill="none" stroke="#231F20" stroke-miterlimit="10" x1="181.702" y1="149.512" x2="186.965" y2="350.543"/> <line fill="none" stroke="#231F20" stroke-miterlimit="10" x1="208.625" y1="177.597" x2="260.08" y2="333.082"/> <line fill="none" stroke="#231F20" stroke-miterlimit="10" x1="109.863" y1="190.003" x2="42.241" y2="260.825"/> <line fill="none" stroke="#231F20" stroke-miterlimit="10" x1="249.364" y1="191.626" x2="321.79" y2="277.998"/> <path fill="none" stroke="#231F20" stroke-miterlimit="10" d="M189.852,52.618c0,12.954-27.997,23.437-62.595,23.437"/> <path fill="none" stroke="#231F20" stroke-miterlimit="10" d="M187.723,88.526c0,11.221-21.158,20.3-47.304,20.3"/> <path fill="none" stroke="#231F20" stroke-miterlimit="10" d="M187.723,88.526c0,11.221,20.588,20.3,46.032,20.3"/> <path fill="none" stroke="#231F20" stroke-miterlimit="10" d="M189.852,52.618c0,12.955,24.977,23.437,55.843,23.437"/> <path fill="none" stroke="#231F20" stroke-miterlimit="10" d="M130.894,239.823c0-11.556,14.839-20.908,33.177-20.908"/> <path fill="none" stroke="#231F20" stroke-miterlimit="10" d="M184.334,239.823c0-11.557-9.063-20.908-20.263-20.908"/> <path fill="none" stroke="#231F20" stroke-miterlimit="10" d="M181.702,234.812c0-8.787,14.718-15.897,32.907-15.897"/> <path fill="none" stroke="#231F20" stroke-miterlimit="10" d="M230.165,234.812c0-8.534-10.469-15.439-23.406-15.439"/> <path fill="none" stroke="#231F20" stroke-miterlimit="10" d="M118.88,266.239c0-8.961,17.745-16.212,39.674-16.212"/> <path fill="none" stroke="#231F20" stroke-miterlimit="10" d="M184.334,266.239c0-8.961-11.53-16.212-25.78-16.212"/> <path fill="none" stroke="#231F20" stroke-miterlimit="10" d="M184.334,266.239c0-8.961,13.541-16.212,30.275-16.212"/> <path fill="none" stroke="#231F20" stroke-miterlimit="10" d="M238.542,266.239c0-8.961-10.704-16.212-23.933-16.212"/> <path fill="none" stroke="#231F20" stroke-miterlimit="10" d="M109.863,286.066c0-4.46,21.777-8.068,48.691-8.068"/> <path fill="none" stroke="#231F20" stroke-miterlimit="10" d="M184.334,296.695c0-10.335-14.825-18.697-33.146-18.697"/> <path fill="none" stroke="#231F20" stroke-miterlimit="10" d="M184.334,296.695c0-8.105,13.541-14.663,30.275-14.663"/> <path fill="none" stroke="#231F20" stroke-miterlimit="10" d="M245.695,296.695c0-8.105-13.904-14.663-31.086-14.663"/> <path fill="none" stroke="#231F20" stroke-miterlimit="10" d="M230.165,234.812c0-14.739,8.587-26.667,19.199-26.667"/> <path fill="none" stroke="#231F20" stroke-miterlimit="10" d="M261.641,208.146c0,0-5.491,0-12.277,0"/> <path fill="none" stroke="#231F20" stroke-miterlimit="10" d="M238.542,266.239c0-20.379,18.996-36.87,42.471-36.87"/> <path fill="none" stroke="#231F20" stroke-miterlimit="10" d="M245.695,296.695c0-25.795,23.544-46.668,52.639-46.668"/> <path fill="none" stroke="#231F20" stroke-miterlimit="10" d="M134.208,232.534c0-18.772-16.49-33.961-36.868-33.961"/> <path fill="none" stroke="#231F20" stroke-miterlimit="10" d="M118.88,266.239c0-21.638-20.726-39.146-46.338-39.146"/> <path fill="none" stroke="#231F20" stroke-miterlimit="10" d="M109.863,286.066c0-21.149-24.685-38.262-55.19-38.262"/> <line fill="none" stroke="#231F20" stroke-miterlimit="10" x1="69.819" y1="117.596" x2="53.013" y2="98.677"/> <line fill="none" stroke="#231F20" stroke-miterlimit="10" x1="288.333" y1="122.466" x2="315.422" y2="88.526"/> <line fill="none" stroke="#231F20" stroke-miterlimit="10" x1="25.589" y1="181.82" x2="76.052" y2="168.782"/> <line fill="none" stroke="#231F20" stroke-miterlimit="10" x1="289.995" y1="168.782" x2="348.508" y2="189"/> <path fill="none" stroke="#231F20" stroke-miterlimit="10" d="M140.419,108.827c0,14.303-15.521,25.877-34.702,25.877"/> <path fill="none" stroke="#231F20" stroke-miterlimit="10" d="M233.755,108.827c0,14.303,21.137,25.877,47.257,25.877"/> <path fill="none" stroke="#231F20" stroke-miterlimit="10" d="M245.695,76.054c0,16.273,23.544,29.442,52.639,29.442"/> <path fill="none" stroke="#231F20" stroke-miterlimit="10" d="M127.257,76.054c0,22.961-25.69,41.542-57.438,41.542"/> <path fill="none" stroke="#231F20" stroke-miterlimit="10" d="M110.503,52.618c0,25.458-25.713,46.059-57.49,46.059"/> <path fill="none" stroke="#231F20" stroke-miterlimit="10" d="M110.503,46.669c0,3.287,18.197,5.948,40.685,5.948"/> <path fill="none" stroke="#231F20" stroke-miterlimit="10" d="M191.961,27.541c0,13.86-18.236,25.077-40.772,25.077"/> <path fill="none" stroke="#231F20" stroke-miterlimit="10" d="M191.961,27.541c0,10.573,30.468,19.128,68.119,19.128"/> <path fill="none" stroke="#231F20" stroke-miterlimit="10" d="M261.641,52.618c0,19.848,24.054,35.909,53.781,35.909"/> <path fill="none" stroke="#231F20" stroke-miterlimit="10" d="M93.94,321.079c0-33.305-23.123-60.254-51.699-60.254"/> <path fill="none" stroke="#231F20" stroke-miterlimit="10" d="M186.965,350.543c0-18.965-40.621-34.312-90.821-34.312"/> <path fill="none" stroke="#231F20" stroke-miterlimit="10" d="M261.641,208.146c0-18.562,17.996-33.583,40.236-33.583"/> <path fill="none" stroke="#231F20" stroke-miterlimit="10" d="M321.79,277.998c0-49.192,11.95-88.998,26.719-88.998"/> <path fill="none" stroke="#231F20" stroke-miterlimit="10" d="M298.334,250.027c0-37.7,13.148-68.207,29.394-68.207"/> <path fill="none" stroke="#231F20" stroke-miterlimit="10" d="M281.012,229.369c0-28.252,15.39-51.114,34.41-51.114"/> <path fill="none" stroke="#231F20" stroke-miterlimit="10" d="M185.676,344.76c0-15.769,12.941-28.528,28.933-28.528"/> <path fill="none" stroke="#231F20" stroke-miterlimit="10" d="M260.08,333.082c0-9.313-20.337-16.851-45.471-16.851"/> <path fill="none" stroke="#231F20" stroke-miterlimit="10" d="M260.08,333.082c0-30.447,27.602-55.084,61.709-55.084"/> <path fill="none" stroke="#231F20" stroke-miterlimit="10" d="M42.241,260.825c0-43.669-7.448-79.005-16.652-79.005"/> <path fill="none" stroke="#231F20" stroke-miterlimit="10" d="M61.416,246.667c0-35.844-12.3-64.847-27.501-64.847"/> <path fill="none" stroke="#231F20" stroke-miterlimit="10" d="M72.542,227.093c0-28.176-11.126-50.977-24.876-50.977"/> <path fill="none" stroke="#231F20" stroke-miterlimit="10" d="M97.341,198.573c0-14.189-16.655-25.67-37.238-25.67"/> <path fill="none" stroke="#231F20" stroke-miterlimit="10" d="M181.702,121.765c0,7.152,17.646,12.938,39.455,12.938"/> <path fill="none" stroke="#231F20" stroke-miterlimit="10" d="M181.702,121.765c0,7.902-9.901,14.296-22.137,14.296"/> <path fill="none" stroke="#231F20" stroke-miterlimit="10" d="M159.565,136.062c0,5.01-3.747,9.063-8.376,9.063"/> <path fill="none" stroke="#231F20" stroke-miterlimit="10" d="M221.157,134.704c0,5.76,8.846,10.421,19.778,10.421"/> <path fill="none" stroke="#231F20" stroke-miterlimit="10" d="M53.013,98.677c0,45.956-12.266,83.144-27.424,83.144"/> <path fill="none" stroke="#231F20" stroke-miterlimit="10" d="M62.311,134.704c0,22.89-6.551,41.413-14.646,41.413"/> <path fill="none" stroke="#231F20" stroke-miterlimit="10" d="M298.334,105.497c0,42.187,16.466,76.324,36.815,76.324"/> <path fill="none" stroke="#231F20" stroke-miterlimit="10" d="M316.238,93.329c0,52.249,16.916,94.528,37.821,94.528"/> <path fill="none" stroke="#231F20" stroke-miterlimit="10" d="M156.467,183.59c0,8.281,11.861,14.983,26.519,14.983"/> <path fill="none" stroke="#231F20" stroke-miterlimit="10" d="M210.739,185.314c0,7.328-12.413,13.259-27.752,13.259"/> </svg>