<?xml version='1.0' encoding='utf-8'?>
<svg xmlns="http://www.w3.org/2000/svg" version="1.1" id="Contours" x="0px" y="0px" width="500.001007" height="523.442322" mViewBox="0.000000 0.000000 500.001007 523.442322" stroke="black" fill="none" stroke-linecap="round" stroke-linejoin="round"> <desc> </desc> <path d="M219.3 6.7 C223.4 9.2 228.6 9.1 233.5 9.1 C255.9 9.2 278.3 12.9 299.5 20.1 C306.1 22.3 309.3 29.5 312.5 35.6 C315.6 41.8 320.7 48.4 327.6 48.0 C329.8 47.8 328.7 51.6 326.7 52.3 C324.7 53.0 321.7 53.9 322.1 56.0 C341.1 60.4 352.0 81.3 353.9 100.7 C355.9 120.2 351.5 139.8 352.6 159.3 C353.2 172.0 355.8 186.2 348.3 196.4 C348.4 188.8 347.0 181.2 344.3 174.1 C341.5 182.9 339.9 192.0 339.4 201.1 C341.5 198.4 343.5 195.7 345.6 193.0 C344.3 210.9 340.1 228.6 333.0 245.1 C328.4 256.0 329.9 268.3 328.0 280.0 C324.5 300.8 309.9 319.7 311.6 340.8 C311.9 344.8 311.2 350.6 307.2 350.3 C307.8 344.1 308.3 337.9 308.9 331.7 C301.3 342.1 291.0 350.2 280.5 357.7 C268.2 366.5 254.8 374.9 239.7 376.2 C223.9 377.5 208.3 370.5 196.0 360.5 C183.7 350.4 174.2 337.4 164.8 324.6 C159.7 317.6 154.5 310.6 151.3 302.5 C146.0 289.3 146.3 274.7 145.1 260.5 C144.9 258.2 144.7 255.8 143.7 253.7 C142.3 250.6 139.6 248.4 137.1 246.1 C115.6 226.6 105.4 195.4 111.3 167.0 C114.9 165.1 119.9 169.1 118.8 173.0 C111.7 198.8 120.2 228.3 139.9 246.3 C143.6 242.1 142.8 235.6 141.7 230.0 C139.6 219.6 137.5 209.1 135.4 198.7 C134.5 193.9 133.5 189.1 131.9 184.5 C129.0 176.2 124.0 168.6 117.5 162.8 C119.4 145.2 119.4 127.4 117.3 109.9 C116.0 98.4 114.4 85.1 122.7 77.0 C127.4 72.3 134.3 70.8 140.8 69.4 C148.0 67.8 155.2 66.3 162.5 64.7 C155.1 60.8 145.6 61.2 138.5 65.6 C142.5 52.8 150.8 41.5 161.7 33.9 C178.3 22.4 196.0 10.7 216.1 9.0 C213.3 6.5 210.5 4.0 207.7 1.5 C211.8 0.0 215.5 4.4 219.3 6.7 M274.9 254.3 C276.1 259.8 283.2 260.8 288.5 262.6 C295.0 264.8 300.5 269.7 303.3 276.0 C303.8 273.6 304.2 271.2 304.7 268.8 C307.7 271.3 309.4 275.5 309.0 279.5 C314.4 271.4 319.3 259.3 311.7 253.3 C315.4 256.5 319.1 259.8 322.8 263.0 C322.3 258.7 321.9 254.5 321.4 250.2 C321.3 248.9 321.2 247.4 322.3 246.7 C323.3 245.9 325.1 247.5 324.1 248.3 C329.3 236.0 331.7 222.7 332.8 209.4 C334.9 183.1 331.6 156.3 323.0 131.2 C322.0 128.2 319.9 124.5 316.7 124.9 C313.6 125.2 311.9 121.4 311.2 118.4 C309.8 113.3 308.5 108.1 307.2 102.9 C308.7 99.3 304.3 95.8 300.4 95.4 C296.5 95.0 292.3 95.9 288.9 94.0 C282.4 90.3 274.6 95.5 269.0 100.4 C268.0 98.3 267.0 96.2 266.1 94.2 C251.6 98.8 237.1 103.5 222.6 108.1 C225.4 106.7 222.4 102.2 219.3 101.8 C216.2 101.3 212.2 101.9 210.5 99.2 C206.4 93.2 196.9 96.2 191.0 100.4 C185.0 104.6 177.5 109.7 171.2 106.0 C155.3 119.2 161.6 147.4 146.8 161.8 C145.3 163.3 145.1 165.5 144.9 167.5 C142.7 196.4 145.0 225.6 151.7 253.7 C154.7 250.3 157.8 246.9 160.9 243.6 C162.5 257.1 164.2 270.7 165.8 284.2 C164.9 286.3 164.0 288.5 163.1 290.6 C162.4 286.4 160.7 282.4 158.2 278.9 C154.8 295.4 160.4 313.5 172.5 325.3 C168.3 317.9 167.7 308.6 170.7 300.7 C169.5 300.0 168.4 299.2 167.2 298.5 C168.3 283.2 169.3 268.0 170.3 252.7 C173.1 263.4 175.0 274.4 175.9 285.5 C176.4 274.5 181.1 263.7 189.0 256.0 C192.8 258.7 197.9 259.7 202.5 258.6 C201.2 263.5 203.2 269.2 207.3 272.3 C211.5 275.3 217.5 275.5 221.8 272.8 C220.0 269.5 214.5 269.5 212.6 272.7 C206.7 268.8 207.5 258.9 213.0 254.4 C218.5 249.9 226.5 249.9 233.3 252.0 C239.8 254.1 247.9 257.5 252.7 252.6 C255.5 249.6 260.4 251.9 263.9 254.1 C267.4 256.3 272.8 257.9 274.9 254.3 M242.3 294.5 C244.7 295.6 247.3 295.5 249.9 295.6 C252.5 295.8 255.3 296.3 257.0 298.3 C258.8 300.2 258.6 303.9 256.3 304.9 C252.8 304.1 249.4 303.3 246.0 302.6 C247.0 305.8 248.0 309.0 248.9 312.3 C250.0 315.8 251.1 319.4 253.6 322.0 C256.0 324.7 260.3 326.0 263.3 324.1 C259.5 328.0 258.3 334.2 260.4 339.3 C264.7 335.0 266.5 328.3 265.0 322.4 C266.8 322.8 268.7 323.2 270.5 323.5 C271.1 322.2 271.8 320.9 272.5 319.6 C275.2 320.2 277.9 320.8 280.7 321.3 C280.6 319.2 280.4 317.0 280.3 314.8 C282.2 314.2 284.4 314.9 285.5 316.6 C289.9 308.7 291.1 299.2 288.7 290.5 C287.8 287.6 286.7 284.1 288.5 281.7 C289.5 280.4 288.4 278.4 287.0 277.8 C285.5 277.2 283.8 277.6 282.3 277.9 C266.4 281.1 249.9 281.6 233.9 279.3 C231.1 278.9 228.2 278.4 225.6 277.2 C217.8 279.8 208.8 278.9 201.7 274.8 C199.6 273.6 196.8 275.1 195.6 277.3 C194.5 279.4 194.5 282.0 194.5 284.4 C194.3 291.1 192.9 298.0 188.8 303.3 C192.7 304.4 196.2 306.7 198.7 309.8 C198.3 312.3 197.9 314.9 197.5 317.4 C200.4 318.3 203.3 316.1 206.0 314.6 C208.7 313.2 213.1 313.3 213.8 316.3 C210.7 315.7 207.3 317.4 205.8 320.2 C209.0 321.7 212.7 321.9 216.0 320.8 C213.9 323.1 213.4 326.7 214.6 329.5 C216.1 326.4 217.9 323.1 221.1 321.8 C228.2 318.9 233.2 311.5 233.1 303.9 C233.1 302.3 232.8 300.5 231.4 299.7 C230.0 298.9 227.7 300.2 228.4 301.7 C230.1 305.2 227.1 310.0 223.2 310.1 C227.1 306.0 222.5 296.9 227.6 294.5 C230.0 293.4 232.8 294.9 235.3 295.9 C237.7 296.9 241.3 297.0 242.3 294.5 M245.3 316.3 C245.3 319.6 242.8 322.7 239.5 323.4 C239.8 316.3 241.4 309.3 244.1 302.7 C239.8 303.5 237.3 307.9 235.7 311.9 C234.8 314.4 233.9 316.9 234.2 319.5 C234.6 322.1 236.5 324.6 239.1 324.8 C238.9 327.1 238.6 329.4 238.4 331.6 C238.8 333.1 241.1 333.0 242.2 332.0 C243.4 330.9 244.0 329.4 245.2 328.5 C246.4 327.5 248.7 327.7 248.9 329.3 C248.9 329.7 248.7 330.1 248.6 330.6 C247.4 333.7 246.2 336.9 245.0 340.1 C247.6 340.0 250.2 340.0 252.8 339.9 C253.7 341.3 255.8 341.8 257.3 340.9 C256.3 338.1 253.5 335.9 250.5 335.6 C253.7 332.6 251.7 327.2 249.4 323.4 C248.1 321.0 246.7 318.6 245.3 316.3 M134.0 82.2 C133.1 92.7 122.8 100.8 122.7 111.4 C127.5 105.4 132.0 99.3 136.2 93.0 C138.1 90.2 140.0 87.0 139.3 83.7 C138.4 79.5 143.3 76.5 147.6 75.7 C151.8 74.9 156.8 74.6 159.2 71.1 C154.1 70.6 148.8 70.1 143.9 71.6 C139.0 73.1 134.5 77.1 134.0 82.2 M224.6 275.5 C229.8 276.9 235.1 277.1 240.4 277.3 C243.6 277.4 246.8 277.5 250.1 277.6 C254.6 277.8 259.2 277.9 263.8 278.1 C264.6 275.0 260.3 273.3 257.1 273.5 C252.7 273.6 246.9 273.7 245.4 269.5 C243.9 273.0 239.3 273.6 235.5 273.4 C231.7 273.3 227.4 272.9 224.6 275.5 M155.4 279.6 C158.1 273.8 158.8 267.2 157.5 261.0 C156.3 260.5 155.1 260.1 153.9 259.6 C154.5 262.2 153.8 265.1 151.9 267.0 C150.9 268.0 150.9 269.5 150.9 270.9 C151.2 280.1 152.0 289.3 153.3 298.4 C154.2 297.9 155.0 297.4 155.9 297.0 C153.2 291.6 153.0 285.1 155.4 279.6 M174.9 47.6 C168.6 47.1 162.1 47.9 156.1 50.0 C157.4 50.4 158.4 51.8 158.4 53.2 C164.5 54.8 172.1 53.3 174.9 47.6 M229.4 342.3 C231.1 342.4 231.5 339.1 229.8 338.8 C233.4 335.3 234.0 329.0 231.0 324.9 C229.0 330.4 228.4 336.5 229.4 342.3 M134.0 106.5 C134.1 105.7 134.2 104.7 133.7 104.0 C133.5 103.5 133.0 103.2 132.6 103.0 C129.8 106.6 128.7 111.4 129.5 115.9 C131.8 113.3 133.4 110.0 134.0 106.5 M225.8 326.0 C225.4 325.1 224.9 324.2 224.4 323.4 C223.0 325.2 221.6 327.1 220.2 328.9 C220.5 330.5 220.9 332.0 221.2 333.5 C223.8 331.9 225.4 329.0 225.6 325.9 M122.7 93.6 C124.0 92.5 124.3 90.5 123.4 89.1 C120.6 90.6 118.8 93.9 119.0 97.1 C120.8 97.5 122.7 95.8 122.5 94.0 M314.9 106.9 C315.5 104.4 314.6 101.4 312.2 100.5 C312.1 103.0 312.0 105.4 311.9 107.9 C312.9 108.6 314.5 108.1 314.8 106.9 M127.7 121.4 C127.7 120.2 128.1 118.9 129.0 117.9 C128.4 117.1 127.6 116.6 126.6 116.6 C124.8 118.3 124.3 121.2 125.3 123.5 C126.0 122.8 126.8 122.1 127.5 121.4 " fill="#000000" stroke="none"/> <path d="M167.9 301.0 C166.4 300.8 165.6 303.4 167.0 303.9 C166.3 304.4 165.4 304.6 164.5 304.4 C163.3 302.9 162.8 300.9 163.0 299.0 C164.6 297.7 167.4 298.5 168.1 300.4 " fill="#000000" stroke="none"/> <path d="M264.5 100.3 C265.5 100.2 266.5 100.1 267.5 99.9 C265.5 103.1 260.4 103.5 257.9 100.8 C260.0 99.8 262.4 99.5 264.6 100.0 " fill="#000000" stroke="none"/> <path d="M335.2 247.2 C336.0 243.4 337.5 239.8 339.6 236.6 C341.7 240.4 339.4 245.9 335.2 247.2 " fill="#000000" stroke="none"/> <path d="M305.1 105.6 C300.3 105.7 295.4 103.7 292.1 100.3 C291.4 99.6 290.8 98.9 290.1 98.2 C292.0 96.1 295.6 96.9 297.9 98.7 C300.1 100.4 301.9 102.8 304.5 103.9 C304.7 104.5 304.9 105.0 305.1 105.6 " fill="#000000" stroke="none"/> <path d="M297.2 256.3 C298.2 256.9 299.3 257.6 300.1 258.5 C301.7 260.4 301.9 263.3 300.6 265.4 C296.7 260.1 292.4 255.1 287.7 250.5 C290.8 252.4 294.0 254.4 297.2 256.3 " fill="#000000" stroke="none"/> <path d="M349.2 204.5 C350.9 212.8 350.1 221.7 346.9 229.6 C346.3 231.0 345.4 232.5 344.0 232.5 C343.5 222.9 350.9 213.9 349.2 204.5 " fill="#000000" stroke="none"/> <path d="M135.7 224.8 C128.8 222.2 123.6 215.6 122.5 208.3 C122.0 205.5 122.9 201.8 125.7 201.5 C125.5 206.4 127.2 211.3 130.4 215.0 C133.0 217.9 136.8 221.1 135.7 224.8 " fill="#000000" stroke="none"/> <path d="M257.4 182.1 C258.9 182.7 260.5 183.3 262.0 183.9 C259.1 186.3 257.4 190.2 257.6 194.0 C258.6 197.3 259.6 200.7 260.6 204.1 C261.7 207.8 262.8 211.9 261.4 215.6 C259.2 213.6 257.2 211.4 255.7 208.8 C254.1 206.0 253.3 202.8 253.2 199.6 C250.9 193.6 252.7 186.4 257.4 182.1 " fill="#000000" stroke="none"/> <path d="M287.1 188.7 C283.9 191.6 279.0 191.4 274.7 191.0 C270.7 190.6 266.7 190.2 262.7 189.8 C264.7 188.3 265.4 185.2 264.0 183.0 C277.2 174.7 295.2 178.3 308.2 187.0 C309.4 187.7 310.6 188.6 310.8 190.0 C311.1 191.3 309.8 192.9 308.6 192.3 C303.4 190.0 298.2 187.7 293.0 185.4 C291.3 184.6 288.8 184.1 288.1 185.8 C289.7 187.3 291.3 188.8 292.9 190.2 C291.1 191.5 288.8 191.9 286.7 191.3 C286.8 190.5 287.0 189.6 287.1 188.7 " fill="#000000" stroke="none"/> <path d="M165.5 170.5 C166.3 171.4 167.5 171.7 168.6 171.4 C169.9 167.8 167.8 162.7 171.0 160.3 C173.6 158.4 177.3 160.5 180.4 159.9 C183.5 159.3 185.9 156.1 189.1 156.5 C190.2 156.6 191.3 157.2 192.3 157.8 C203.2 163.6 218.4 162.1 225.9 171.9 C225.4 175.3 220.7 175.8 217.3 175.3 C206.5 173.8 195.9 171.6 185.4 168.6 C186.0 169.8 186.6 171.1 187.1 172.3 C181.3 173.1 175.5 173.9 169.6 174.7 C168.1 174.9 166.4 175.1 165.2 174.2 C163.9 173.2 164.0 170.8 165.5 170.5 " fill="#000000" stroke="none"/> <path d="M302.5 174.5 C305.7 173.6 308.8 172.0 311.3 169.8 C304.8 170.6 298.3 171.3 291.7 172.1 C281.0 173.3 270.2 174.6 259.7 176.8 C259.3 174.3 257.4 172.3 256.5 169.9 C255.6 167.5 256.6 164.0 259.1 163.9 C267.3 163.8 275.5 162.6 283.4 160.3 C289.8 158.5 297.0 156.0 302.9 159.1 C304.2 159.8 304.8 162.5 303.3 162.2 C307.4 161.7 311.4 164.2 313.8 167.6 C316.3 171.0 317.4 175.0 318.5 179.0 C317.9 179.7 317.3 180.3 316.7 180.9 C312.0 178.8 307.2 176.7 302.5 174.5 " fill="#000000" stroke="none"/> <path d="M182.6 508.2 C181.9 510.2 180.6 512.9 178.5 512.4 C176.2 509.0 178.7 504.6 181.3 501.4 C187.7 493.5 194.9 486.3 200.1 477.6 C205.3 468.9 208.2 458.1 204.8 448.5 C202.0 440.7 195.2 434.2 194.5 425.9 C198.6 431.4 202.2 437.3 205.5 443.3 C208.4 448.9 211.1 455.0 210.6 461.2 C210.3 465.5 208.5 469.5 206.8 473.5 C204.9 478.0 202.9 482.5 200.0 486.5 C194.5 494.0 185.8 499.4 182.6 508.2 " fill="#000000" stroke="none"/> <path d="M186.8 414.5 C186.0 415.4 184.8 415.6 183.7 415.3 C170.6 394.6 148.2 380.3 138.0 358.0 C134.4 350.1 133.1 339.5 139.8 334.1 C138.5 339.3 138.5 344.8 139.8 350.1 C142.1 359.5 148.5 367.4 154.6 375.0 C165.3 388.2 176.0 401.3 186.8 414.5 " fill="#000000" stroke="none"/> <path d="M221.5 241.8 C222.0 242.6 222.5 243.5 223.0 244.3 C218.5 245.9 213.9 241.1 213.8 236.4 C213.7 231.6 216.5 227.4 219.4 223.6 C221.0 224.5 223.3 223.8 224.0 222.2 C224.9 223.3 225.9 224.2 227.0 224.9 C224.3 226.3 221.5 227.9 219.5 230.2 C217.4 232.5 216.3 235.8 217.3 238.8 C223.4 235.1 232.0 236.5 236.7 241.9 C239.5 245.1 244.7 244.7 248.6 243.0 C252.5 241.3 256.0 238.4 260.1 237.3 C262.5 236.6 265.6 236.9 266.6 239.2 C267.6 239.6 268.8 238.5 268.9 237.3 C268.9 236.1 268.2 235.1 267.5 234.1 C264.4 229.9 261.3 225.7 258.2 221.4 C259.7 220.8 261.2 220.1 262.6 219.5 C263.2 221.8 264.6 223.9 266.5 225.4 C269.2 228.9 271.4 233.1 271.1 237.5 C270.9 241.9 267.5 246.3 263.1 246.5 C263.9 244.8 264.6 243.2 265.4 241.6 C256.3 240.8 248.5 251.9 239.7 249.4 C236.4 248.4 233.9 245.7 231.2 243.6 C228.4 241.5 224.5 240.0 221.5 241.8 " fill="#000000" stroke="none"/> <path d="M219.4 186.0 C217.4 186.7 215.0 186.0 213.8 184.3 C212.6 185.2 212.1 186.9 212.5 188.4 C215.2 188.4 217.8 188.4 220.5 188.4 C221.0 188.8 221.1 189.6 220.7 190.1 C214.6 193.2 207.0 193.2 201.0 190.0 C199.8 189.1 198.6 188.2 197.5 187.3 C196.8 188.3 196.1 189.3 195.4 190.3 C193.5 190.6 191.2 190.7 190.1 189.1 C191.9 187.6 193.6 186.0 195.3 184.5 C189.1 185.2 183.1 187.0 177.6 189.8 C174.7 191.2 171.2 192.9 168.7 191.0 C177.8 182.7 189.8 176.9 202.2 177.4 C208.9 177.7 215.4 179.7 221.7 182.1 C225.1 183.4 228.6 184.9 230.9 187.8 C234.1 191.9 233.8 198.3 230.2 202.1 C230.8 203.1 231.4 204.0 232.0 205.0 C228.2 205.5 225.1 209.4 225.4 213.3 C224.1 212.9 222.8 212.6 221.6 212.3 C221.0 211.1 220.5 209.7 221.0 208.5 C221.4 207.2 223.6 206.8 224.0 208.0 C223.8 206.8 223.5 205.7 223.3 204.5 C225.0 204.3 226.5 202.6 226.5 200.8 C226.5 199.1 224.9 197.4 223.1 197.3 C225.3 195.5 226.6 192.5 225.9 189.8 C225.2 187.1 222.1 185.0 219.4 186.0 " fill="#000000" stroke="none"/> <path d="M300.3 490.5 C298.2 495.6 296.2 500.8 294.1 505.9 C291.7 500.9 293.1 494.5 297.3 490.9 C289.7 483.7 289.8 471.7 291.6 461.4 C293.4 451.3 296.3 441.4 300.3 431.9 C302.0 428.1 303.8 424.3 304.5 420.2 C305.5 414.4 304.2 408.3 304.2 402.4 C304.1 397.3 305.0 392.2 305.8 387.1 C307.8 375.5 309.8 363.9 311.8 352.2 C318.5 373.9 318.1 397.8 310.5 419.2 C306.3 431.1 300.1 442.2 296.6 454.3 C293.2 466.3 293.0 480.3 300.3 490.5 " fill="#000000" stroke="none"/> <path d="M0.0 523.4 C0.0 496.1 0.0 468.8 0.0 441.5 C20.9 429.9 41.8 418.2 62.8 406.6 C79.4 397.4 96.3 388.0 109.4 374.2 C115.8 367.5 121.1 359.8 125.3 351.5 C121.1 376.9 127.5 402.8 133.8 427.8 C141.8 459.7 149.9 491.5 157.9 523.4 C105.3 523.4 52.6 523.4 0.0 523.4 " fill="#000000" stroke="none"/> <path d="M320.9 523.4 C329.1 498.6 331.6 472.0 328.2 446.1 C327.7 441.9 327.0 437.5 328.4 433.5 C335.4 413.6 316.5 390.8 325.0 371.5 C325.6 380.6 334.8 386.3 342.9 390.5 C395.1 417.1 447.4 443.5 499.9 469.6 C499.9 487.6 500.0 505.5 500.0 523.4 C440.3 523.4 380.6 523.4 320.9 523.4 " fill="#000000" stroke="none"/> </svg>