<?xml version="1.0" encoding="UTF-8"?>
<svg viewBox="0 0 248.98 393.86" xmlns="http://www.w3.org/2000/svg">
 <path d="m57.15 172.06c-12.297 16.099-19.594 36.192-19.594 58 0 52.819 42.869 95.688 95.688 95.688 52.82 0 95.688-42.868 95.688-95.688 0-21.601-7.193-34.511-19.281-50.531 3.724-2.548 6.889-5.694 9.594-9.188-10.564-11.339-70.369-35.969-86-35.969-15.287 9.92e-4 -81.426 33.87-76.095 37.688z" fill="#010101" fill-opacity=".314"/>
 <path d="m53.258 117.84c-14.965 0-27.116 12.15-27.116 27.117 0 9.685 5.088 18.175 12.733 22.971-8.083 14.287-12.733 30.776-12.733 48.353 0 54.329 44.067 98.438 98.397 98.438 54.329 0 98.439-44.109 98.439-98.438 0-17.577-4.651-34.066-12.733-48.353 7.628-4.8 12.733-13.299 12.733-22.971 0-14.967-12.152-27.117-27.116-27.117-9.673 0-18.13 5.104-22.929 12.733-14.295-8.094-30.806-12.733-48.395-12.733-17.584 0-34.062 4.643-48.353 12.733-4.797-7.629-13.254-12.733-22.927-12.733z" fill="#ff7f00" stroke="#010101" stroke-linecap="round" stroke-linejoin="round" stroke-width="4"/>
 <path d="m215.98 181.84c1.235 6.045 1.893 12.288 1.893 18.688 0 52.819-43.998 95.688-98.212 95.688-40.659 0-75.566-24.098-90.482-58.438 9.003 43.79 48.706 76.844 96.288 76.844 54.214 0 98.212-42.868 98.212-95.688-0.001007-13.154-2.755-25.69-7.699-37.094z" fill="#010101" fill-opacity=".314"/>
 <g fill="#fff" stroke="#010101" stroke-linecap="round" stroke-linejoin="round" stroke-width="4">
  <path d="m196.19 129.35c-5.438 0-10.188 2.865-12.897 7.147 8.318 5.602 15.478 12.755 21.075 21.075 4.268-2.712 7.112-7.503 7.112-12.931 0-8.438-6.852-15.291-15.29-15.291z"/>
  <path d="m53.191 129.35c5.438 0 10.188 2.865 12.897 7.147-8.317 5.602-15.478 12.755-21.074 21.075-4.269-2.712-7.113-7.503-7.113-12.931 0-8.438 6.852-15.291 15.29-15.291z"/>
 </g>
 <g fill="none" stroke="#010101" stroke-linecap="round" stroke-linejoin="round" stroke-width="4.271">
  <path d="m178.69 235.37c5.229 19.478-6.354 39.498-25.874 44.718-9.374 2.507-19.361 1.194-27.765-3.647"/>
  <path d="m70.282 235.37c-5.23 19.478 6.354 39.498 25.873 44.718 9.374 2.507 19.361 1.194 27.766-3.647"/>
 </g>
 <path d="m141.18 251.6c0 8.829-9.669 15.995-16.065 15.995-6.892 0-16.067-7.166-16.067-15.995 0-8.83 7.198-11.074 16.067-11.074 8.868 0 16.065 2.244 16.065 11.074z" fill="#010101"/>
 <path d="m174.49 205.77c0.008987 12.779-10.343 23.146-23.123 23.153-12.778 0.009003-23.146-10.344-23.153-23.122v-0.031006c-0.009003-12.779 10.344-23.146 23.123-23.154 12.778-0.008011 23.146 10.344 23.153 23.123v0.030991z" fill="#fff" stroke="#010101" stroke-linecap="round" stroke-linejoin="round" stroke-width="4"/>
 <path d="m151.08 208.43c0.001007 3.966-3.211 7.183-7.177 7.186-3.967 0.001999-7.183-3.21-7.187-7.176v-0.009995c-0.001007-3.966 3.211-7.184 7.177-7.186 3.967-0.002991 7.183 3.21 7.187 7.176v0.009995z" fill="#010101"/>
 <g fill="none" stroke="#010101" stroke-linecap="round" stroke-width="4">
  <path d="m167.12 244.9c44.674-16.607 66.505 3.894 66.505 3.894"/>
  <path d="m160.72 256.04c31.634-8.957 52.352 13.887 52.352 13.887"/>
  <path d="m158.09 267.95c24.337-2.576 33.656 19.125 33.656 19.125"/>
  <g transform="matrix(-1 0 0 1 651.56 -10.702)">
   <path d="m563.57 255.6c44.674-16.607 66.505 3.894 66.505 3.894"/>
   <path d="m557.16 266.74c31.634-8.957 52.352 13.887 52.352 13.887"/>
   <path d="m554.53 278.65c24.338-2.576 33.657 19.125 33.657 19.125"/>
  </g>
 </g>
 <g stroke="#010101" stroke-dasharray="null" stroke-linecap="round" stroke-linejoin="round" stroke-width="4">
  <path transform="rotate(13.823 86.609 135.32)" d="m79.988 138.35h1.9265c0.64217 0 1.2277 1.3539 1.9264 1.822 1.25 0.83719 2.4732 2.3151 3.5319 3.6439 1.2107 1.5195 2.5306 1.9953 3.5318 3.6439 0.62097 1.0224 0.98769 0.56233 1.2843 0.91096 0.4195 0.493 0.4151 1.1778 0.64215 1.8219 0.22702 0.64415 0.54813 0.64415 0.32106 0-0.22702-0.64415-0.4151-0.26682-0.64215-0.91095-0.22702-0.64418-0.19819-0.98035-0.32106-1.8219-0.17378-1.1903-0.17355-1.8707-0.32107-3.6439-0.16496-1.9825-0.32108-2.7329-0.32108-3.6439v-10.021c0-0.91096 0.32108-1.8219 0.32108-2.7329v-5.4658c0-0.91096-0.094055-2.4661-0.32108-1.8219-0.22705 0.64415-0.41513 1.1778-0.64218 1.8219-0.22702 0.64417-0.66656 1.4733-0.96322 1.822-0.4195 0.49302-0.64214 0.91098-0.96321 0.91098h-1.2843c-0.32109 0-0.1881 0.53361-0.64217 1.8219-0.22704 0.64415-0.64217 0-0.96323 0-0.32107 0-0.32107 0.91097-0.64215 0.91097-0.32109 0-0.41513 0.2668-0.64215 0.91097-0.22704 0.64415-0.41513 0.2668-0.64215 0.91098-0.22705 0.64412-0.36998 0.21374-0.96323 0.91096-0.41952 0.493-0.41513 1.1778-0.64216 1.8219-0.22704 0.64416-0.73621-0.64415-0.96325 0-0.22702 0.64416-0.094025 1.1778-0.32106 1.8219-0.22704 0.64416-0.41513 0.26682-0.64217 0.91096-0.22702 0.64418-0.32109 0.91098-0.32109 1.8219h-0.32106v2.7329"/>
  <path transform="rotate(198.98 189.81 155.88)" d="m183.19 158.9h1.9264c0.64215 0 1.2277 1.3539 1.9264 1.8219 1.2499 0.83722 2.4732 2.3151 3.5319 3.6439 1.2107 1.5195 2.5306 1.9952 3.5318 3.6439 0.62097 1.0224 0.9877 0.56235 1.2843 0.91098 0.4195 0.49301 0.4151 1.1778 0.64215 1.8219 0.22702 0.64416 0.5481 0.64416 0.32104 0-0.22699-0.64414-0.41507-0.26682-0.64215-0.91095-0.22699-0.64416-0.19818-0.98035-0.32104-1.822-0.1738-1.1902-0.17355-1.8707-0.32108-3.6439-0.16498-1.9825-0.32108-2.7329-0.32108-3.6439v-10.021c0-0.91095 0.32108-1.8219 0.32108-2.7329v-5.4658c0-0.91098-0.094055-2.4661-0.32108-1.822-0.22705 0.64416-0.41513 1.1778-0.64218 1.822-0.22702 0.64416-0.66656 1.4733-0.96323 1.8219-0.4195 0.49301-0.64212 0.91098-0.9632 0.91098h-1.2843c-0.32111 0-0.18811 0.53363-0.64218 1.822-0.22702 0.64414-0.64215 0-0.96323 0s-0.32108 0.91095-0.64215 0.91095c-0.32108 0-0.41513 0.26678-0.64215 0.91098-0.22705 0.64414-0.41513 0.26682-0.64215 0.91098-0.22705 0.6441-0.37 0.21374-0.96323 0.91095-0.41952 0.49301-0.41513 1.1778-0.64218 1.8219-0.22702 0.6442-0.73618-0.64414-0.96323 0-0.22702 0.6442-0.094025 1.1778-0.32103 1.822-0.22707 0.64416-0.41515 0.26682-0.6422 0.91098-0.22702 0.64416-0.32108 0.91095-0.32108 1.8219h-0.32108v2.733"/>
  <path transform="rotate(37.663 116.81 126.88)" d="m110.19 129.9h1.9264c0.64215 0 1.2277 1.3539 1.9265 1.822 1.2499 0.83719 2.4732 2.3151 3.5319 3.6439 1.2107 1.5195 2.5306 1.9953 3.5318 3.6439 0.62096 1.0224 0.98769 0.56233 1.2843 0.91096 0.4195 0.493 0.4151 1.1778 0.64215 1.8219 0.22702 0.64415 0.5481 0.64415 0.32104 0-0.22699-0.64415-0.41508-0.26682-0.64215-0.91095-0.22699-0.64418-0.19818-0.98035-0.32104-1.8219-0.1738-1.1903-0.17355-1.8707-0.32108-3.6439-0.16497-1.9825-0.32108-2.7329-0.32108-3.6439v-10.021c0-0.91097 0.32108-1.8219 0.32108-2.7329v-5.4658c0-0.91096-0.094055-2.4661-0.32108-1.8219-0.22704 0.64415-0.41513 1.1778-0.64217 1.8219-0.22702 0.64416-0.66657 1.4733-0.96323 1.8219-0.41949 0.49303-0.64212 0.91098-0.96319 0.91098h-1.2843c-0.3211 0-0.18811 0.53362-0.64218 1.8219-0.22702 0.64415-0.64215 0-0.96322 0-0.32108 0-0.32108 0.91096-0.64215 0.91096-0.32108 0-0.41514 0.2668-0.64216 0.91098-0.22705 0.64415-0.41513 0.2668-0.64215 0.91097-0.22705 0.64413-0.36999 0.21375-0.96322 0.91097-0.41953 0.493-0.41513 1.1778-0.64218 1.8219-0.22702 0.64416-0.73618-0.64415-0.96323 0-0.22702 0.64416-0.094017 1.1778-0.32104 1.8219-0.22706 0.64417-0.41514 0.26682-0.64219 0.91097-0.22702 0.64418-0.32107 0.91098-0.32107 1.822h-0.32108v2.7329"/>
  <path transform="rotate(51.124 154.81 130.88)" d="m148.19 133.9h1.9264c0.64215 0 1.2277 1.3539 1.9264 1.822 1.2499 0.83719 2.4732 2.3151 3.5319 3.6439 1.2107 1.5195 2.5306 1.9953 3.5318 3.6439 0.62097 1.0224 0.9877 0.56233 1.2843 0.91096 0.4195 0.493 0.4151 1.1778 0.64215 1.8219 0.22702 0.64415 0.5481 0.64415 0.32104 0-0.22699-0.64415-0.41507-0.26682-0.64215-0.91095-0.22699-0.64418-0.19818-0.98035-0.32104-1.8219-0.1738-1.1903-0.17355-1.8707-0.32108-3.6439-0.16498-1.9825-0.32108-2.7329-0.32108-3.6439v-10.021c0-0.91097 0.32108-1.8219 0.32108-2.7329v-5.4658c0-0.91096-0.094055-2.4661-0.32108-1.8219-0.22705 0.64415-0.41513 1.1778-0.64218 1.8219-0.22702 0.64416-0.66656 1.4733-0.96323 1.8219-0.4195 0.49303-0.64212 0.91098-0.9632 0.91098h-1.2843c-0.32111 0-0.18811 0.53362-0.64218 1.8219-0.22702 0.64415-0.64215 0-0.96323 0s-0.32108 0.91096-0.64215 0.91096c-0.32108 0-0.41513 0.2668-0.64215 0.91098-0.22705 0.64415-0.41513 0.2668-0.64215 0.91097-0.22705 0.64413-0.37 0.21375-0.96323 0.91097-0.41952 0.493-0.41513 1.1778-0.64218 1.8219-0.22702 0.64416-0.73618-0.64415-0.96323 0-0.22702 0.64416-0.094025 1.1778-0.32103 1.8219-0.22707 0.64416-0.41515 0.26682-0.6422 0.91096-0.22702 0.64418-0.32108 0.91098-0.32108 1.8219h-0.32108v2.7329"/>
  <path transform="rotate(-9.0678 35.808 185.88)" d="m29.188 188.9h1.9264c0.64215 0 1.2277 1.3539 1.9265 1.822 1.2499 0.83719 2.4732 2.3151 3.5319 3.6439 1.2107 1.5195 2.5306 1.9953 3.5318 3.6439 0.62097 1.0224 0.9877 0.56233 1.2843 0.91096 0.41949 0.493 0.4151 1.1778 0.64215 1.8219 0.22702 0.64415 0.5481 0.64415 0.32104 0-0.22699-0.64415-0.41507-0.26682-0.64215-0.91095-0.22699-0.64418-0.19818-0.98035-0.32104-1.8219-0.1738-1.1903-0.17355-1.8707-0.32108-3.6439-0.16497-1.9825-0.32107-2.7329-0.32107-3.6439v-10.021c0-0.91096 0.32107-1.8219 0.32107-2.7329v-5.4658c0-0.91096-0.094048-2.4661-0.32107-1.8219-0.22705 0.64415-0.41513 1.1778-0.64218 1.8219-0.22702 0.64416-0.66657 1.4733-0.96323 1.8219-0.41949 0.49303-0.64212 0.91098-0.96319 0.91098h-1.2843c-0.3211 0-0.18811 0.53362-0.64218 1.8219-0.22702 0.64415-0.64215 0-0.96322 0-0.32108 0-0.32108 0.91096-0.64215 0.91096-0.32108 0-0.41514 0.2668-0.64216 0.91098-0.22705 0.64415-0.41513 0.2668-0.64215 0.91098-0.22705 0.64412-0.36999 0.21374-0.96322 0.91096-0.41953 0.493-0.41513 1.1778-0.64218 1.8219-0.22702 0.64416-0.73618-0.64415-0.96323 0-0.22702 0.64416-0.094019 1.1778-0.32104 1.8219-0.22706 0.64416-0.41514 0.26682-0.64219 0.91096-0.22702 0.64418-0.32107 0.91098-0.32107 1.8219h-0.32108v2.7329"/>
  <path transform="rotate(-9.0678 58.133 153.22)" d="m51.513 156.24h1.9265c0.64215 0 1.2277 1.3539 1.9264 1.822 1.2499 0.83719 2.4732 2.3151 3.5319 3.6439 1.2107 1.5195 2.5306 1.9953 3.5318 3.6439 0.62097 1.0224 0.9877 0.56233 1.2843 0.91096 0.4195 0.493 0.4151 1.1778 0.64215 1.8219 0.22702 0.64415 0.5481 0.64415 0.32104 0-0.22699-0.64415-0.41507-0.26682-0.64214-0.91095-0.22699-0.64418-0.19818-0.98035-0.32105-1.8219-0.1738-1.1903-0.17355-1.8707-0.32107-3.6439-0.16498-1.9825-0.32108-2.7329-0.32108-3.6439v-10.021c0-0.91096 0.32108-1.8219 0.32108-2.7329v-5.4658c0-0.91096-0.094059-2.4661-0.32108-1.8219-0.22705 0.64415-0.41513 1.1778-0.64218 1.8219-0.22702 0.64416-0.66656 1.4733-0.96323 1.8219-0.41949 0.49303-0.64212 0.91098-0.96319 0.91098h-1.2843c-0.32111 0-0.18811 0.53362-0.64218 1.8219-0.22702 0.64415-0.64216 0-0.96323 0-0.32108 0-0.32108 0.91096-0.64215 0.91096-0.32108 0-0.41513 0.2668-0.64215 0.91098-0.22705 0.64415-0.41513 0.2668-0.64215 0.91098-0.22705 0.64412-0.37 0.21374-0.96323 0.91096-0.41952 0.493-0.41513 1.1778-0.64218 1.8219-0.22702 0.64416-0.73618-0.64415-0.96323 0-0.22702 0.64416-0.094021 1.1778-0.32104 1.8219-0.22705 0.64416-0.41513 0.26682-0.64218 0.91096-0.22702 0.64418-0.32108 0.91098-0.32108 1.8219h-0.32107v2.7329"/>
  <path transform="rotate(198.98 212.77 189.93)" d="m206.15 192.95h1.9264c0.64215 0 1.2277 1.3539 1.9264 1.8219 1.2499 0.83725 2.4732 2.3152 3.5319 3.6439 1.2107 1.5195 2.5306 1.9952 3.5318 3.6439 0.62097 1.0224 0.9877 0.56232 1.2843 0.91098 0.4195 0.49298 0.4151 1.1778 0.64215 1.8219 0.22702 0.64416 0.5481 0.64416 0.32104 0-0.22699-0.6441-0.41507-0.26682-0.64215-0.91095-0.22699-0.64416-0.19818-0.98035-0.32104-1.8219-0.1738-1.1902-0.17355-1.8707-0.32108-3.6439-0.16498-1.9825-0.32108-2.7329-0.32108-3.6439v-10.021c0-0.91095 0.32108-1.8219 0.32108-2.7329v-5.4658c0-0.911-0.094055-2.4661-0.32108-1.822-0.22705 0.64416-0.41513 1.1778-0.64218 1.822-0.22702 0.64415-0.66656 1.4733-0.96323 1.8219-0.4195 0.49303-0.64212 0.91096-0.9632 0.91096h-1.2843c-0.32111 0-0.18811 0.53363-0.64218 1.822-0.22702 0.64414-0.64215 0-0.96323 0s-0.32108 0.91095-0.64215 0.91095c-0.32108 0-0.41513 0.26678-0.64215 0.91101-0.22705 0.64412-0.41513 0.26678-0.64215 0.91095-0.22705 0.64412-0.37 0.21378-0.96323 0.91095-0.41952 0.49301-0.41513 1.1778-0.64218 1.822-0.22702 0.64418-0.73618-0.64414-0.96321 0-0.22702 0.64418-0.09404 1.1778-0.32106 1.8219-0.22705 0.64416-0.41513 0.26682-0.64218 0.91101-0.22702 0.64415-0.32108 0.91095-0.32108 1.8219h-0.32108v2.733"/>
  <path transform="rotate(35.439 34.772 235.93)" d="m28.152 238.95h1.9264c0.64215 0 1.2277 1.3539 1.9265 1.8219 1.2499 0.83725 2.4732 2.3152 3.5319 3.6439 1.2107 1.5195 2.5306 1.9952 3.5318 3.6439 0.62097 1.0224 0.9877 0.56232 1.2843 0.91098 0.41949 0.49298 0.4151 1.1778 0.64215 1.8219 0.22702 0.64416 0.54809 0.64416 0.32104 0-0.22699-0.6441-0.41507-0.26682-0.64215-0.91095-0.22699-0.64416-0.19818-0.98035-0.32104-1.8219-0.1738-1.1902-0.17356-1.8707-0.32108-3.6439-0.16498-1.9825-0.32107-2.7329-0.32107-3.6439v-10.021c0-0.91095 0.32107-1.8219 0.32107-2.7329v-5.4658c0-0.911-0.094048-2.4661-0.32107-1.822-0.22705 0.64416-0.41513 1.1778-0.64218 1.822-0.22702 0.64415-0.66657 1.4733-0.96323 1.8219-0.41949 0.49303-0.64212 0.91096-0.96319 0.91096h-1.2843c-0.3211 0-0.18811 0.53363-0.64218 1.822-0.22702 0.64414-0.64215 0-0.96322 0-0.32108 0-0.32108 0.91095-0.64215 0.91095-0.32108 0-0.41514 0.26678-0.64216 0.91101-0.22705 0.64412-0.41513 0.26678-0.64215 0.91095-0.22705 0.64412-0.36999 0.21378-0.96322 0.91095-0.41953 0.49301-0.41513 1.1778-0.64218 1.822-0.22702 0.64418-0.73618-0.64414-0.96323 0-0.22702 0.64418-0.094021 1.1778-0.32104 1.8219-0.22706 0.64416-0.41514 0.26682-0.64219 0.91101-0.22702 0.64415-0.32107 0.91095-0.32107 1.8219h-0.32108v2.733"/>
  <path transform="rotate(245.48 212.32 230.8)" d="m205.7 233.82h1.9264c0.64215 0 1.2277 1.3539 1.9264 1.822 1.2499 0.83719 2.4732 2.3151 3.5319 3.6439 1.2107 1.5195 2.5306 1.9953 3.5318 3.6439 0.62097 1.0224 0.9877 0.56233 1.2843 0.91096 0.4195 0.493 0.4151 1.1778 0.64215 1.8219 0.22702 0.64415 0.5481 0.64415 0.32104 0-0.22699-0.64415-0.41507-0.26682-0.64215-0.91095-0.22699-0.64418-0.19818-0.98035-0.32104-1.8219-0.1738-1.1903-0.17355-1.8707-0.32108-3.6439-0.16498-1.9825-0.32108-2.7329-0.32108-3.6439v-10.021c0-0.91096 0.32108-1.8219 0.32108-2.7329v-5.4658c0-0.91096-0.094055-2.4661-0.32108-1.8219-0.22705 0.64415-0.41513 1.1778-0.64218 1.8219-0.22702 0.64416-0.66656 1.4733-0.96323 1.8219-0.4195 0.49303-0.64212 0.91098-0.9632 0.91098h-1.2843c-0.32111 0-0.18811 0.53362-0.64218 1.8219-0.22702 0.64415-0.64215 0-0.96323 0s-0.32108 0.91096-0.64215 0.91096c-0.32108 0-0.41513 0.2668-0.64215 0.91098-0.22705 0.64415-0.41513 0.2668-0.64215 0.91098-0.22705 0.64412-0.37 0.21374-0.96323 0.91096-0.41952 0.493-0.41513 1.1778-0.64218 1.8219-0.22702 0.64416-0.73618-0.64415-0.96323 0-0.22702 0.64416-0.094025 1.1778-0.32104 1.8219-0.22705 0.64416-0.41513 0.26682-0.64218 0.91096-0.22702 0.64418-0.32108 0.91098-0.32108 1.8219h-0.32108v2.7329"/>
 </g>
 <g transform="rotate(200.96 100.49 205.14)">
  <path d="m123.63 205.14c0.008987 12.779-10.343 23.146-23.123 23.153-12.778 0.009003-23.146-10.344-23.153-23.122v-0.031006c-0.009003-12.779 10.344-23.146 23.123-23.154 12.778-0.008011 23.146 10.344 23.153 23.123v0.030991z" fill="#fff" stroke="#010101" stroke-linecap="round" stroke-linejoin="round" stroke-width="4"/>
  <path d="m100.22 207.8c0.001007 3.966-3.211 7.183-7.177 7.186-3.967 0.001999-7.183-3.21-7.187-7.176v-0.009995c-0.001007-3.966 3.211-7.184 7.177-7.186 3.967-0.002991 7.183 3.21 7.187 7.176v0.009995z" fill="#010101"/>
 </g>
</svg>
