<?xml version="1.0" encoding="UTF-8"?>
<svg viewBox="0 0 599.10846 327.50723" xmlns="http://www.w3.org/2000/svg">
 <g transform="translate(-91.874 -28.609)">
  <path d="m292.22 258.86c-2.5202 31.078-4.1486 92.956-45.414 93.009-20-7 13.006-72.719 29.756-98.219s18.658 18.211 15.658 5.2107z" fill="#93c1cf" fill-rule="evenodd"/>
  <path transform="matrix(-1.661 0 0 1.1111 535.61 -70.986)" d="m255.97 305.66a3.182 6.364 0 1 1 -6.364 0 3.182 6.364 0 1 1 6.364 0z" fill="#002b22"/>
  <path d="m270.27 95.015c-93.363-0.36901-185.66 27.064-177.94 105.22 4.5696 34.123 15.096 61.194 30.188 81.656-0.63588 1.1129-1.0312 2.5454-1.0312 4.125 0 3.5129 1.9081 6.375 4.25 6.375 26.625 35.65 93.208 40.061 137.16 35.375 79.631-16.805 295.39-125.7 317.85-108.31 58.869 2.8174 81.848 7.7788 110.24-27.324 0 0-94.205 4.6685-96.326-35.637-55.188 92.681-118.96-28.447-191.05-41.29-35.255-12.159-84.439-19.994-133.34-20.188z" fill="#bcdee8"/>
  <path d="m274.2 97.841c-88.775-0.36186-176.54 26.54-169.19 103.18 7.2779 56.051 30.485 92.695 63.262 111.98-22.048-21.078-37.408-52.994-43.086-96.718-11.195-116.79 198.46-118.08 295.98-83.387 20.761 3.8148 41.332 22.596 64.379 35.539-53.899-56.406-137.05-67.962-211.35-70.597z" fill="#d7eef4" fill-rule="evenodd"/>
  <path d="m125.82 285.46c13.081 8.1317 33.18 52.607 164.07-1.3848" fill="none" stroke="#93c1cf" stroke-width="2.8346"/>
  <path transform="matrix(1.1768 0 0 2.9571 -17.288 -318.76)" d="m205 144.36a10 2 0 1 1 -20 0 10 2 0 1 1 20 0z" fill="#93c1cf"/>
  <path transform="matrix(1 0 0 2.25 16.476 -218.1)" d="m205 144.36a10 2 0 1 1 -20 0 10 2 0 1 1 20 0z" fill="#006680"/>
  <path d="m328.01 263.11c2.5201 31.078 4.1485 92.956 45.414 93.009 20-7-5.1966-80.118-29.756-98.219-10.386-6.4081-17.951-0.8812-15.658 5.2107z" fill="#93c1cf" fill-rule="evenodd"/>
  <path d="m341.48 316.17c5.992 24.149 4.9059 34.998 31.091 35.032 4.176-1.4616 6.0586-6.5213 5.5748-12.85-32.442 3.7655-29.244-9.8301-36.666-22.181z" fill="#d7eef4" fill-rule="evenodd"/>
  <path d="m595.95 167.58s-9.1924 25.456-19.445 31.466c12.728 4.9497 85.56 7.7782 90.51-4.9498-24.042 2.2364-62.225-2.6818-71.064-26.516z" fill="#93c1cf" fill-rule="evenodd"/>
  <path d="m178.69 28.617c-16.672 0.47015-32.918 18.492-24.594 34.812 4.897 17.134 31.314 0.38449 17.906-4.2812-1.7436 11.735-18.946-0.43615-12-10.219 8.6657-20.179 37.71-14.455 48 1.25 11.761 15.651 10.634 38.088 0.90625 54.438 9.319 9.4624 11.113-9.0818 13.5-15.531 1.5291-6.0578 1.7926-12.426 0.96875-18.656l0.0625-0.03125-0.09375-0.15625c-0.61544-4.5291-1.825-8.9731-3.5625-13.188 0.00868-2.5478 0.42911-5.1096 1.2812-7.5312 2.0964-6.267 7.7496-11.295 14.375-12.125 4.8593-0.75317 10.34 2.0151 11.75 6.9062 0.86253 2.3605 0.03382 5.5853-2.5625 6.4062-1.106 0.76367-1.8795-1.0434-2.375 0.25-0.47241-1.0856-0.93384-2.1957-1.4062-3.2812-1.5932 0.72777-2.0393 2.926-1.1875 4.375 1.4429 2.6698 5.1681 2.9125 7.5312 1.375 3.5616-2.1191 4.6197-6.8974 3.2188-10.625-1.8718-5.7949-8.1038-9.3406-14.031-9-7.1488 0.30479-13.786 4.8048-17.125 11.062-1.0872 1.9756-1.8483 4.0861-2.3438 6.25-6.2243-10.928-16.382-19.371-29.375-21.719-1.8235-0.35235-3.675-0.55833-5.5312-0.625-1.108-0.13039-2.201-0.18759-3.3125-0.15625z" fill="#f2f2f2" fill-rule="evenodd"/>
  <path d="m179.4 29.851c-12.871 0.36297-25.454 11.627-25.761 24.169 2.0611-11.259 13.616-20.774 25.43-21.107 1.0679-0.03011 2.118 0.02484 3.1825 0.15012 1.7834 0.06405 3.5623 0.26195 5.3142 0.60048 12.483 2.2558 22.242 10.367 28.223 20.867 0.47603-2.079 1.2073-4.1068 2.2518-6.0048 3.2077-6.0122 9.5848-10.336 16.453-10.628 5.6949-0.32719 11.682 3.0794 13.481 8.6469 0.31561 0.83977 0.51519 1.7373 0.57045 2.6421 0.51364-1.8499 0.43282-3.9139-0.24019-5.7046-1.7984-5.5676-7.7859-8.9741-13.481-8.6469-6.8684 0.29282-13.245 4.6163-16.453 10.628-1.0446 1.898-1.7758 3.9258-2.2518 6.0048-5.9801-10.499-15.74-18.611-28.223-20.867-1.752-0.33853-3.5308-0.53643-5.3142-0.60048-1.0646-0.12528-2.1147-0.18024-3.1825-0.15012zm59.718 18.315c-1.4133 0.6456-1.8709 2.4973-1.291 3.8731 0.24754-0.34089 0.55788-0.62661 0.96076-0.81065 0.43249 0.99382 0.85946 2.0066 1.291 3.0024l0.1201 0.06005c0.47753-0.99906 1.1973 0.5573 2.2218-0.15012 2.2021-0.69629 3.0966-3.1784 2.7022-5.3142-0.43581 1.035-1.2241 1.8889-2.3719 2.2518-1.0626 0.73371-1.8058-1.0024-2.2818 0.24019-0.45388-1.043-0.8972-2.1096-1.3511-3.1525zm-79.203 6.7254c-2.7366 8.787 11.198 17.669 12.73 7.3559 1.8968 0.66002 2.9368 1.5896 3.3627 2.6121 1.2088-2.1533 0.66152-4.3891-3.0324-5.6745-1.352 9.0996-12.364 3.2478-13.06-4.2934zm59.027 1.3211c-0.24742 1.3306-0.38572 2.6761-0.39031 4.0232 1.6693 4.0491 2.8314 8.3187 3.4227 12.67l0.09007 0.15012-0.06005 0.03002c0.46829 3.5411 0.5687 7.1436 0.27022 10.689 0.68957-4.5325 0.66431-9.1816 0.06005-13.751l0.06005-0.03003-0.09008-0.15012c-0.5913-4.3514-1.7534-8.621-3.4227-12.67 0.0011-0.32124 0.04528-0.6394 0.06005-0.96077zm-3.693 27.232c-0.96853 6.863-3.3205 13.551-6.8154 19.426 0.30333 0.308 0.61368 0.59294 0.90072 0.84067 3.2811-6.2132 5.3444-13.201 5.9147-20.266z" fill="#bcdee8" fill-rule="evenodd"/>
  <path transform="matrix(1.2525 0 0 2.1429 -39.824 -340.28)" d="m254.56 280.2a9.8995 9.8995 0 1 1 -19.799 0 9.8995 9.8995 0 1 1 19.799 0z" fill="#93c1cf"/>
  <path transform="matrix(.92424 0 0 1.6783 40.747 -206)" d="m254.56 280.2a9.8995 9.8995 0 1 1 -19.799 0 9.8995 9.8995 0 1 1 19.799 0z" fill="#70adc0"/>
  <path transform="matrix(-2.2222 0 0 1.1111 829.67 -68.986)" d="m255.97 305.66a3.182 6.364 0 1 1 -6.364 0 3.182 6.364 0 1 1 6.364 0z"/>
  <path transform="matrix(-1.2008 0 0 .60042 574.73 84.359)" d="m255.97 305.66a3.182 6.364 0 1 1 -6.364 0 3.182 6.364 0 1 1 6.364 0z" fill="#fff"/>
  <path d="m289.89 279.75s10 7 4 12" fill="none" stroke="#93c1cf" stroke-width="2.126"/>
  <path d="m153.3 308.65c1.7678 1.7678 28.991 11.314 52.326 5.3033 5.0898-1.311-23.663 10.861-34.648 4.9498-10.621-5.7152-17.678-10.253-17.678-10.253z" fill="#93c1cf" fill-rule="evenodd"/>
 </g>
</svg>
